%TF.GenerationSoftware,KiCad,Pcbnew,(6.0.6)*%
%TF.CreationDate,2022-07-28T22:43:09-07:00*%
%TF.ProjectId,left_thumb_routed,6c656674-5f74-4687-956d-625f726f7574,v1.0.0*%
%TF.SameCoordinates,Original*%
%TF.FileFunction,Profile,NP*%
%FSLAX46Y46*%
G04 Gerber Fmt 4.6, Leading zero omitted, Abs format (unit mm)*
G04 Created by KiCad (PCBNEW (6.0.6)) date 2022-07-28 22:43:09*
%MOMM*%
%LPD*%
G01*
G04 APERTURE LIST*
%TA.AperFunction,Profile*%
%ADD10C,0.150000*%
%TD*%
G04 APERTURE END LIST*
D10*
X-87000000Y-34100000D02*
G75*
G03*
X-97000000Y-44100000I-1J-9999999D01*
G01*
X-97000000Y-60100000D02*
G75*
G03*
X-87000000Y-70100000I9999999J-1D01*
G01*
X-65000000Y-34100000D02*
X-87000000Y-34100000D01*
X-97000000Y-59781146D02*
X-97000000Y-60100000D01*
X-55000000Y-44100000D02*
G75*
G03*
X-65000000Y-34100000I-9999999J1D01*
G01*
X-65000000Y-70100000D02*
G75*
G03*
X-55000000Y-60100000I1J9999999D01*
G01*
X-97000000Y-44418854D02*
G75*
G03*
X-96666667Y-46979236I9999971J-5D01*
G01*
X-55000000Y-60100000D02*
X-55000000Y-44100000D01*
X-87000000Y-70100000D02*
X-65000000Y-70100000D01*
X-96666667Y-57220764D02*
G75*
G03*
X-96666667Y-46979236I-19333325J5120764D01*
G01*
X-97000000Y-44100000D02*
X-97000000Y-44418854D01*
X-96666667Y-57220764D02*
G75*
G03*
X-97000000Y-59781146I9666638J-2560377D01*
G01*
%TO.C,J7*%
X-76250000Y-52950000D02*
X-57750000Y-52950000D01*
X-57250000Y-52450000D02*
X-57250000Y-51850000D01*
X-76750000Y-51850000D02*
X-76750000Y-52450000D01*
X-57750000Y-51350000D02*
X-76250000Y-51350000D01*
X-57750000Y-52950000D02*
G75*
G03*
X-57250000Y-52450000I0J500000D01*
G01*
X-57250000Y-51850000D02*
G75*
G03*
X-57750000Y-51350000I-500001J-1D01*
G01*
X-76250000Y-51350000D02*
G75*
G03*
X-76750000Y-51850000I1J-500001D01*
G01*
X-76750000Y-52450000D02*
G75*
G03*
X-76250000Y-52950000I500000J0D01*
G01*
%TD*%
M02*
