<?xml version="1.0" encoding="UTF-8" standalone="no"?>
<svg
   viewBox="0 0 793.7007874015749 1122.5196850393702"
   width="793.7007874015749"
   height="1122.5196850393702"
   version="1.1"
   id="svg86"
   sodipodi:docname="all_plates.svg"
   xml:space="preserve"
   inkscape:version="1.2.1 (9c6d41e410, 2022-07-14, custom)"
   xmlns:inkscape="http://www.inkscape.org/namespaces/inkscape"
   xmlns:sodipodi="http://sodipodi.sourceforge.net/DTD/sodipodi-0.dtd"
   xmlns="http://www.w3.org/2000/svg"
   xmlns:svg="http://www.w3.org/2000/svg"><sodipodi:namedview
     id="namedview88"
     pagecolor="#ffffff"
     bordercolor="#000000"
     borderopacity="0.25"
     inkscape:showpageshadow="2"
     inkscape:pageopacity="0.0"
     inkscape:pagecheckerboard="0"
     inkscape:deskcolor="#d1d1d1"
     showgrid="false"
     inkscape:zoom="0.93806821"
     inkscape:cx="148.70987"
     inkscape:cy="539.93942"
     inkscape:window-width="2560"
     inkscape:window-height="1359"
     inkscape:window-x="0"
     inkscape:window-y="0"
     inkscape:window-maximized="1"
     inkscape:current-layer="g1389" /><desc
     id="desc2">palm_led_diffuser_final.dxf - scale = 1.000000, origin = (0.000000, 0.000000), method = manual</desc><defs
     id="defs14"><marker
       id="DistanceX"
       orient="auto"
       refX="0.0"
       refY="0.0"
       style="overflow:visible"><path
         d="M 3,-3 L -3,3 M 0,-5 L  0,5"
         style="stroke:#000000; stroke-width:0.5"
         id="path4" /></marker><pattern
       id="Hatch"
       patternUnits="userSpaceOnUse"
       width="8"
       height="8"
       x="0"
       y="0"><path
         d="M8 4 l-4,4"
         stroke="#000000"
         stroke-width="0.25"
         linecap="square"
         id="path7" /><path
         d="M6 2 l-4,4"
         stroke="#000000"
         stroke-width="0.25"
         linecap="square"
         id="path9" /><path
         d="M4 0 l-4,4"
         stroke="#000000"
         stroke-width="0.25"
         linecap="square"
         id="path11" /></pattern><marker
       id="DistanceX-3"
       orient="auto"
       refX="0.0"
       refY="0.0"
       style="overflow:visible"><path
         d="M 3,-3 L -3,3 M 0,-5 L  0,5"
         style="stroke:#000000; stroke-width:0.5"
         id="path1183" /></marker><pattern
       id="Hatch-5"
       patternUnits="userSpaceOnUse"
       width="8"
       height="8"
       x="0"
       y="0"><path
         d="M8 4 l-4,4"
         stroke="#000000"
         stroke-width="0.25"
         linecap="square"
         id="path1186" /><path
         d="M6 2 l-4,4"
         stroke="#000000"
         stroke-width="0.25"
         linecap="square"
         id="path1188" /><path
         d="M4 0 l-4,4"
         stroke="#000000"
         stroke-width="0.25"
         linecap="square"
         id="path1190" /></pattern><marker
       id="DistanceX-6"
       orient="auto"
       refX="0.0"
       refY="0.0"
       style="overflow:visible"><path
         d="M 3,-3 L -3,3 M 0,-5 L  0,5"
         style="stroke:#000000; stroke-width:0.5"
         id="path1517" /></marker><pattern
       id="Hatch-2"
       patternUnits="userSpaceOnUse"
       width="8"
       height="8"
       x="0"
       y="0"><path
         d="M8 4 l-4,4"
         stroke="#000000"
         stroke-width="0.25"
         linecap="square"
         id="path1520" /><path
         d="M6 2 l-4,4"
         stroke="#000000"
         stroke-width="0.25"
         linecap="square"
         id="path1522" /><path
         d="M4 0 l-4,4"
         stroke="#000000"
         stroke-width="0.25"
         linecap="square"
         id="path1524" /></pattern></defs><g
     inkscape:groupmode="layer"
     inkscape:label="0"
     id="g84"><g
       id="g360"
       transform="rotate(-90,-58.529143,503.89978)"><path
         style="fill:none;stroke:#000000"
         d="m -154.961,1130.51 v -21.22"
         id="path30" /><path
         style="fill:none;stroke:#000000"
         d="m -173.858,1090.39 h -30.993"
         id="path32" /><path
         style="fill:none;stroke:#000000"
         d="m -211.759,1094.88 -4.558,10.26"
         id="path34" /><path
         style="fill:none;stroke:#000000"
         d="m -219.474,1108.63 -7.268,4.15"
         id="path36" /><path
         style="fill:none;stroke:#000000"
         d="m -230.551,1119.35 v 9.2"
         id="path38" /><path
         style="fill:none;stroke:#000000"
         d="m -207.07,1146.89 11.943,-2.99"
         id="path40" /><path
         style="fill:none;stroke:#000000"
         d="m -190.486,1144.21 9.609,3.85"
         id="path42" /><path
         d="m -154.96063,1109.2913 a 18.897638,18.897638 0 0 0 -18.89764,-18.8976"
         style="fill:none;stroke:#000000"
         id="path50" /><path
         d="m -230.55118,1128.5523 a 18.897638,18.897638 0 0 0 23.48099,18.3334"
         style="fill:none;stroke:#000000"
         id="path52" /><path
         d="m -180.87667,1148.0588 a 18.897638,18.897638 0 0 0 25.91604,-17.546"
         style="fill:none;stroke:#000000"
         id="path54" /><path
         d="m -204.85135,1090.3937 a 7.559055,7.559055 0 0 0 -6.90755,4.489"
         style="fill:none;stroke:#000000"
         id="path66" /><path
         d="m -219.47386,1108.6307 a 7.559055,7.559055 0 0 0 3.15721,-3.493"
         style="fill:none;stroke:#000000"
         id="path68" /><path
         d="m -226.74247,1112.7842 a 7.559055,7.559055 0 0 0 -3.80871,6.5631"
         style="fill:none;stroke:#000000"
         id="path70" /><path
         d="m -190.48648,1144.2149 a 7.559055,7.559055 0 0 0 -4.6407,-0.315"
         style="fill:none;stroke:#000000"
         id="path72" /><path
         d="m -161.76378,1105.5118 a 4.535435,4.535435 0 0 0 -9.07087,0 4.535435,4.535435 0 0 0 9.07087,0 z"
         style="fill:none;stroke:#000000"
         id="path78" /><path
         d="m -210.89764,1135.748 a 4.535433,4.535433 0 0 0 -9.07086,0 4.535433,4.535433 0 0 0 9.07086,0 z"
         style="fill:none;stroke:#000000"
         id="path82" /></g><g
       id="g378"
       transform="rotate(-90,103.32172,665.75064)"><path
         style="fill:none;stroke:#000000"
         d="m 173.858,1130.51 v -21.22"
         id="path16" /><path
         style="fill:none;stroke:#000000"
         d="m 192.756,1090.39 h 30.993"
         id="path18" /><path
         style="fill:none;stroke:#000000"
         d="m 230.657,1094.88 4.557,10.26"
         id="path20" /><path
         style="fill:none;stroke:#000000"
         d="m 238.371,1108.63 7.269,4.15"
         id="path22" /><path
         style="fill:none;stroke:#000000"
         d="m 249.449,1119.35 v 9.2"
         id="path24" /><path
         style="fill:none;stroke:#000000"
         d="m 225.968,1146.89 -11.943,-2.99"
         id="path26" /><path
         style="fill:none;stroke:#000000"
         d="m 209.384,1144.21 -9.61,3.85"
         id="path28" /><path
         d="m 192.75591,1090.3937 a 18.897638,18.897638 0 0 0 -18.89764,18.8976"
         style="fill:none;stroke:#000000"
         id="path44" /><path
         d="m 225.96783,1146.8857 a 18.897638,18.897638 0 0 0 23.48099,-18.3334"
         style="fill:none;stroke:#000000"
         id="path46" /><path
         d="m 173.85827,1130.5128 a 18.897638,18.897638 0 0 0 25.91604,17.546"
         style="fill:none;stroke:#000000"
         id="path48" /><path
         d="m 230.65654,1094.8827 a 7.559055,7.559055 0 0 0 -6.90755,-4.489"
         style="fill:none;stroke:#000000"
         id="path56" /><path
         d="m 235.21429,1105.1377 a 7.559055,7.559055 0 0 0 3.15721,3.493"
         style="fill:none;stroke:#000000"
         id="path58" /><path
         d="m 249.44882,1119.3473 a 7.559055,7.559055 0 0 0 -3.80872,-6.5631"
         style="fill:none;stroke:#000000"
         id="path60" /><path
         d="m 214.02482,1143.8999 a 7.559055,7.559055 0 0 0 -4.64071,0.315"
         style="fill:none;stroke:#000000"
         id="path62" /><path
         d="m 189.73228,1105.5118 a 4.535433,4.535433 0 0 0 -9.07086,0 4.535433,4.535433 0 0 0 9.07086,0 z"
         style="fill:none;stroke:#000000"
         id="path76" /><path
         d="m 238.86614,1135.748 a 4.535433,4.535433 0 0 0 -9.07086,0 4.535433,4.535433 0 0 0 9.07086,0 z"
         style="fill:none;stroke:#000000"
         id="path80" /></g><g
       inkscape:label="0"
       id="g1389"
       transform="translate(-471.52231,-12.254645)"><g
         id="g1727"
         transform="rotate(-179.72234,508.03028,878.32746)"><path
           style="fill:none;stroke:#000000"
           d="M 26.4567,1130.56 V 952.975"
           id="path1195" /><path
           style="fill:none;stroke:#000000"
           d="m 29.7142,1145.91 28.3417,63.77"
           id="path1197" /><path
           style="fill:none;stroke:#000000"
           d="M 92.5936,1232.13 H 107.812"
           id="path1199" /><path
           style="fill:none;stroke:#000000"
           d="m 135.994,1219.51 48.853,-54.66"
           id="path1201" /><path
           style="fill:none;stroke:#000000"
           d="m 229.931,1156.23 37.994,18.99"
           id="path1203" /><path
           style="fill:none;stroke:#000000"
           d="M 284.828,1179.21 H 322.32"
           id="path1205" /><path
           style="fill:none;stroke:#000000"
           d="m 354.897,1160.58 60.535,-102.91"
           id="path1207" /><path
           style="fill:none;stroke:#000000"
           d="m 420.419,1042.68 3.412,-30.7"
           id="path1209" /><path
           style="fill:none;stroke:#000000"
           d="M 399.457,972.388 385.42,967.16"
           id="path1211" /><path
           style="fill:none;stroke:#000000"
           d="M 365.514,949.993 352.45,926.303"
           id="path1213" /><path
           style="fill:none;stroke:#000000"
           d="M 326.639,907.468 241.718,890.787"
           id="path1215" /><path
           style="fill:none;stroke:#000000"
           d="M 45.3543,890.079 H 234.433"
           id="path1239" /><path
           d="m 30.992126,942.17899 a 22.677165,22.677165 0 0 0 4.535433,-26.07948"
           style="fill:none;stroke:#000000"
           id="path1243" /><path
           style="fill:none;stroke:#000000"
           d="m 34.0157,909.51 v -8.093"
           id="path1247" /><path
           d="m 34.015748,909.50967 a 15.11811,15.11811 0 0 0 1.511811,6.58984"
           style="fill:none;stroke:#000000"
           id="path1251" /><path
           d="m 30.992126,942.17899 a 15.11811,15.11811 0 0 0 -4.535433,10.79649"
           style="fill:none;stroke:#000000"
           id="path1253" /><path
           d="M 45.354331,890.07874 A 11.338583,11.338583 0 0 0 34.015748,901.41732"
           style="fill:none;stroke:#000000"
           id="path1259" /><path
           d="m 241.71819,890.78745 a 37.795276,37.795276 0 0 0 -7.28486,-0.70871"
           style="fill:none;stroke:#000000"
           id="path1291" /><path
           d="M 352.45011,926.30323 A 37.795276,37.795276 0 0 0 326.63872,907.46826"
           style="fill:none;stroke:#000000"
           id="path1293" /><path
           d="m 365.51414,949.99268 a 37.795276,37.795276 0 0 0 19.90579,17.16724"
           style="fill:none;stroke:#000000"
           id="path1295" /><path
           d="M 423.83072,1011.9802 A 37.795276,37.795276 0 0 0 399.45708,972.38755"
           style="fill:none;stroke:#000000"
           id="path1297" /><path
           d="m 415.43243,1057.6704 a 37.795276,37.795276 0 0 0 4.98707,-14.9892"
           style="fill:none;stroke:#000000"
           id="path1299" /><path
           d="m 322.32015,1179.2126 a 37.795276,37.795276 0 0 0 32.57704,-18.6323"
           style="fill:none;stroke:#000000"
           id="path1301" /><path
           d="m 267.9252,1175.2224 a 37.795276,37.795276 0 0 0 16.90257,3.9902"
           style="fill:none;stroke:#000000"
           id="path1303" /><path
           d="m 229.93136,1156.2255 a 37.795276,37.795276 0 0 0 -45.08484,8.621"
           style="fill:none;stroke:#000000"
           id="path1305" /><path
           d="m 107.81164,1232.126 a 37.795276,37.795276 0 0 0 28.18227,-12.6111"
           style="fill:none;stroke:#000000"
           id="path1307" /><path
           d="m 58.05587,1209.6808 a 37.795276,37.795276 0 0 0 34.537759,22.4452"
           style="fill:none;stroke:#000000"
           id="path1309" /><path
           d="m 26.456693,1130.562 a 37.795276,37.795276 0 0 0 3.257517,15.3501"
           style="fill:none;stroke:#000000"
           id="path1311" /><path
           d="m 216.56693,1022.3622 a 12.472441,12.472441 0 0 0 -24.94488,0 12.472441,12.472441 0 0 0 24.94488,0 z"
           style="fill:none;stroke:#000000"
           id="path1361" /><path
           d="m 106.58268,1065.8268 a 4.5354345,4.5354345 0 0 0 -9.070869,0 4.5354345,4.5354345 0 0 0 9.070869,0 z"
           style="fill:none;stroke:#000000"
           id="path1365" /><path
           d="m 178.3937,958.11024 a 4.535435,4.535435 0 0 0 -9.07087,0 4.535435,4.535435 0 0 0 9.07087,0 z"
           style="fill:none;stroke:#000000"
           id="path1369" /><path
           d="m 280.44094,965.66929 a 4.535433,4.535433 0 0 0 -9.07086,0 4.535433,4.535433 0 0 0 9.07086,0 z"
           style="fill:none;stroke:#000000"
           id="path1373" /><path
           d="m 352.25197,1029.9213 a 4.535435,4.535435 0 0 0 -9.07087,0 4.535435,4.535435 0 0 0 9.07087,0 z"
           style="fill:none;stroke:#000000"
           id="path1377" /><path
           d="m 276.66142,1105.5118 a 4.535435,4.535435 0 0 0 -9.07087,0 4.535435,4.535435 0 0 0 9.07087,0 z"
           style="fill:none;stroke:#000000"
           id="path1381" /><path
           d="m 140.59842,1154.6457 a 4.535433,4.535433 0 0 0 -9.07086,0 4.535433,4.535433 0 0 0 9.07086,0 z"
           style="fill:none;stroke:#000000"
           id="path1385" /></g><g
         id="g1764"
         transform="rotate(-29.722339,-874.36601,-1226.2491)"><path
           style="fill:none;stroke:#000000"
           d="M -7.55905,1130.56 V 952.975"
           id="path1217" /><path
           style="fill:none;stroke:#000000"
           d="m -10.8166,1145.91 -28.3416,63.77"
           id="path1219" /><path
           style="fill:none;stroke:#000000"
           d="M -73.696,1232.13 H -88.914"
           id="path1221" /><path
           style="fill:none;stroke:#000000"
           d="m -117.096,1219.51 -48.853,-54.66"
           id="path1223" /><path
           style="fill:none;stroke:#000000"
           d="m -211.034,1156.23 -37.994,18.99"
           id="path1225" /><path
           style="fill:none;stroke:#000000"
           d="m -265.93,1179.21 h -37.493"
           id="path1227" /><path
           style="fill:none;stroke:#000000"
           d="m -336,1160.58 -60.535,-102.91"
           id="path1229" /><path
           style="fill:none;stroke:#000000"
           d="m -401.522,1042.68 -3.411,-30.7"
           id="path1231" /><path
           style="fill:none;stroke:#000000"
           d="m -380.559,972.388 14.037,-5.228"
           id="path1233" /><path
           style="fill:none;stroke:#000000"
           d="m -346.617,949.993 13.065,-23.69"
           id="path1235" /><path
           style="fill:none;stroke:#000000"
           d="m -307.741,907.468 84.92,-16.681"
           id="path1237" /><path
           style="fill:none;stroke:#000000"
           d="M -215.536,890.079 H -26.4567"
           id="path1241" /><path
           d="m -16.629921,916.09951 a 22.677165,22.677165 0 0 0 4.535433,26.07948"
           style="fill:none;stroke:#000000"
           id="path1245" /><path
           style="fill:none;stroke:#000000"
           d="m -15.1181,901.417 v 8.093"
           id="path1249" /><path
           d="m -7.559055,952.97548 a 15.11811,15.11811 0 0 0 -4.535433,-10.79649"
           style="fill:none;stroke:#000000"
           id="path1255" /><path
           d="m -16.629921,916.09951 a 15.11811,15.11811 0 0 0 1.511811,-6.58984"
           style="fill:none;stroke:#000000"
           id="path1257" /><path
           d="M -15.11811,901.41732 A 11.338583,11.338583 0 0 0 -26.456693,890.07874"
           style="fill:none;stroke:#000000"
           id="path1261" /><path
           d="m -215.53569,890.07874 a 37.795276,37.795276 0 0 0 -7.28487,0.70871"
           style="fill:none;stroke:#000000"
           id="path1313" /><path
           d="m -307.74108,907.46826 a 37.795276,37.795276 0 0 0 -25.81139,18.83497"
           style="fill:none;stroke:#000000"
           id="path1315" /><path
           d="m -366.52229,967.15992 a 37.795276,37.795276 0 0 0 19.90578,-17.16724"
           style="fill:none;stroke:#000000"
           id="path1317" /><path
           d="m -380.55944,972.38755 a 37.795276,37.795276 0 0 0 -24.37365,39.59265"
           style="fill:none;stroke:#000000"
           id="path1319" /><path
           d="m -401.52186,1042.6812 a 37.795276,37.795276 0 0 0 4.98707,14.9892"
           style="fill:none;stroke:#000000"
           id="path1321" /><path
           d="m -335.99955,1160.5803 a 37.795276,37.795276 0 0 0 32.57704,18.6323"
           style="fill:none;stroke:#000000"
           id="path1323" /><path
           d="m -265.93013,1179.2126 a 37.795276,37.795276 0 0 0 16.90256,-3.9902"
           style="fill:none;stroke:#000000"
           id="path1325" /><path
           d="m -165.94888,1164.8465 a 37.795276,37.795276 0 0 0 -45.08484,-8.621"
           style="fill:none;stroke:#000000"
           id="path1327" /><path
           d="m -117.09628,1219.5149 a 37.795276,37.795276 0 0 0 28.182281,12.6111"
           style="fill:none;stroke:#000000"
           id="path1329" /><path
           d="m -73.695991,1232.126 a 37.795276,37.795276 0 0 0 34.537759,-22.4452"
           style="fill:none;stroke:#000000"
           id="path1331" /><path
           d="m -10.816572,1145.9121 a 37.795276,37.795276 0 0 0 3.257517,-15.3501"
           style="fill:none;stroke:#000000"
           id="path1333" /><path
           d="m -172.72441,1022.3622 a 12.472441,12.472441 0 0 0 -24.94488,0 12.472441,12.472441 0 0 0 24.94488,0 z"
           style="fill:none;stroke:#000000"
           id="path1363" /><path
           d="m -78.614173,1065.8268 a 4.535433,4.535433 0 0 0 -9.070866,0 4.535433,4.535433 0 0 0 9.070866,0 z"
           style="fill:none;stroke:#000000"
           id="path1367" /><path
           d="m -150.4252,958.11024 a 4.535433,4.535433 0 0 0 -9.07086,0 4.535433,4.535433 0 0 0 9.07086,0 z"
           style="fill:none;stroke:#000000"
           id="path1371" /><path
           d="m -252.47244,965.66929 a 4.535435,4.535435 0 0 0 -9.07087,0 4.535435,4.535435 0 0 0 9.07087,0 z"
           style="fill:none;stroke:#000000"
           id="path1375" /><path
           d="m -324.28346,1029.9213 a 4.535435,4.535435 0 0 0 -9.07087,0 4.535435,4.535435 0 0 0 9.07087,0 z"
           style="fill:none;stroke:#000000"
           id="path1379" /><path
           d="m -248.69291,1105.5118 a 4.535435,4.535435 0 0 0 -9.07087,0 4.535435,4.535435 0 0 0 9.07087,0 z"
           style="fill:none;stroke:#000000"
           id="path1383" /><path
           d="m -112.62992,1154.6457 a 4.535435,4.535435 0 0 0 -9.07087,0 4.535435,4.535435 0 0 0 9.07087,0 z"
           style="fill:none;stroke:#000000"
           id="path1387" /></g><g
         inkscape:label="0"
         id="g1629"
         transform="rotate(-90,572.47457,520.17136)"><g
           id="g1790"
           transform="translate(147.35866,-141.87159)"><path
             style="fill:none;stroke:#000000"
             d="m 169.40699,1130.51 v -21.22"
             id="path1543" /><path
             style="fill:none;stroke:#000000"
             d="m 150.50999,1090.39 h -30.993"
             id="path1545" /><path
             style="fill:none;stroke:#000000"
             d="m 112.60899,1094.88 -4.558,10.26"
             id="path1547" /><path
             style="fill:none;stroke:#000000"
             d="m 104.89399,1108.63 -7.268002,4.15"
             id="path1549" /><path
             style="fill:none;stroke:#000000"
             d="m 93.816988,1119.35 v 9.2"
             id="path1551" /><path
             style="fill:none;stroke:#000000"
             d="m 117.29799,1146.89 11.943,-2.99"
             id="path1553" /><path
             style="fill:none;stroke:#000000"
             d="m 133.88199,1144.21 9.609,3.85"
             id="path1555" /><path
             d="m 169.40736,1109.2913 a 18.897638,18.897638 0 0 0 -18.89764,-18.8976"
             style="fill:none;stroke:#000000"
             id="path1563" /><path
             d="m 93.816808,1128.5523 a 18.897638,18.897638 0 0 0 23.480992,18.3334"
             style="fill:none;stroke:#000000"
             id="path1565" /><path
             d="m 143.49132,1148.0588 a 18.897638,18.897638 0 0 0 25.91604,-17.546"
             style="fill:none;stroke:#000000"
             id="path1567" /><path
             d="m 119.51664,1090.3937 a 7.559055,7.559055 0 0 0 -6.90755,4.489"
             style="fill:none;stroke:#000000"
             id="path1579" /><path
             d="m 104.89413,1108.6307 a 7.559055,7.559055 0 0 0 3.15721,-3.493"
             style="fill:none;stroke:#000000"
             id="path1581" /><path
             d="m 97.625518,1112.7842 a 7.559055,7.559055 0 0 0 -3.80871,6.5631"
             style="fill:none;stroke:#000000"
             id="path1583" /><path
             d="m 133.88151,1144.2149 a 7.559055,7.559055 0 0 0 -4.6407,-0.315"
             style="fill:none;stroke:#000000"
             id="path1585" /><path
             d="m 162.60421,1105.5118 a 4.535435,4.535435 0 0 0 -9.07087,0 4.535435,4.535435 0 0 0 9.07087,0 z"
             style="fill:none;stroke:#000000"
             id="path1591" /><path
             d="m 113.47035,1135.748 a 4.535433,4.535433 0 0 0 -9.07086,0 4.535433,4.535433 0 0 0 9.07086,0 z"
             style="fill:none;stroke:#000000"
             id="path1595" /><path
             style="fill:none;stroke:#000000"
             d="m 125.94299,1135.75 h 18.897"
             id="path1613" /><path
             d="m 144.84043,1135.748 a 7.559055,7.559055 0 0 0 7.55906,-7.559"
             style="fill:none;stroke:#000000"
             id="path1615" /><path
             style="fill:none;stroke:#000000"
             d="m 152.39899,1128.19 v -11.34"
             id="path1617" /><path
             d="m 152.39949,1116.8504 a 7.559055,7.559055 0 0 0 -7.55906,-7.5591"
             style="fill:none;stroke:#000000"
             id="path1619" /><path
             style="fill:none;stroke:#000000"
             d="m 144.83999,1109.29 h -18.897"
             id="path1621" /><path
             d="m 125.94279,1109.2913 a 7.559055,7.559055 0 0 0 -7.55905,7.5591"
             style="fill:none;stroke:#000000"
             id="path1623" /><path
             style="fill:none;stroke:#000000"
             d="m 118.38399,1116.85 v 11.34"
             id="path1625" /><path
             d="m 118.38374,1128.189 a 7.559055,7.559055 0 0 0 7.55905,7.559"
             style="fill:none;stroke:#000000"
             id="path1627" /></g><g
           id="g1816"
           transform="translate(147.35866,-141.87159)"><path
             style="fill:none;stroke:#000000"
             d="m 173.858,1130.51 v -21.22"
             id="path1529" /><path
             style="fill:none;stroke:#000000"
             d="m 192.756,1090.39 h 30.993"
             id="path1531" /><path
             style="fill:none;stroke:#000000"
             d="m 230.657,1094.88 4.557,10.26"
             id="path1533" /><path
             style="fill:none;stroke:#000000"
             d="m 238.371,1108.63 7.269,4.15"
             id="path1535" /><path
             style="fill:none;stroke:#000000"
             d="m 249.449,1119.35 v 9.2"
             id="path1537" /><path
             style="fill:none;stroke:#000000"
             d="m 225.968,1146.89 -11.943,-2.99"
             id="path1539" /><path
             style="fill:none;stroke:#000000"
             d="m 209.384,1144.21 -9.61,3.85"
             id="path1541" /><path
             d="m 192.75591,1090.3937 a 18.897638,18.897638 0 0 0 -18.89764,18.8976"
             style="fill:none;stroke:#000000"
             id="path1557" /><path
             d="m 225.96783,1146.8857 a 18.897638,18.897638 0 0 0 23.48099,-18.3334"
             style="fill:none;stroke:#000000"
             id="path1559" /><path
             d="m 173.85827,1130.5128 a 18.897638,18.897638 0 0 0 25.91604,17.546"
             style="fill:none;stroke:#000000"
             id="path1561" /><path
             d="m 230.65654,1094.8827 a 7.559055,7.559055 0 0 0 -6.90755,-4.489"
             style="fill:none;stroke:#000000"
             id="path1569" /><path
             d="m 235.21429,1105.1377 a 7.559055,7.559055 0 0 0 3.15721,3.493"
             style="fill:none;stroke:#000000"
             id="path1571" /><path
             d="m 249.44882,1119.3473 a 7.559055,7.559055 0 0 0 -3.80872,-6.5631"
             style="fill:none;stroke:#000000"
             id="path1573" /><path
             d="m 214.02482,1143.8999 a 7.559055,7.559055 0 0 0 -4.64071,0.315"
             style="fill:none;stroke:#000000"
             id="path1575" /><path
             d="m 189.73228,1105.5118 a 4.535433,4.535433 0 0 0 -9.07086,0 4.535433,4.535433 0 0 0 9.07086,0 z"
             style="fill:none;stroke:#000000"
             id="path1589" /><path
             d="m 238.86614,1135.748 a 4.535433,4.535433 0 0 0 -9.07086,0 4.535433,4.535433 0 0 0 9.07086,0 z"
             style="fill:none;stroke:#000000"
             id="path1593" /><path
             style="fill:none;stroke:#000000"
             d="m 198.425,1135.75 h 18.898"
             id="path1597" /><path
             d="m 217.32283,1135.748 a 7.559055,7.559055 0 0 0 7.55906,-7.559"
             style="fill:none;stroke:#000000"
             id="path1599" /><path
             style="fill:none;stroke:#000000"
             d="m 224.882,1128.19 v -11.34"
             id="path1601" /><path
             d="m 224.88189,1116.8504 a 7.559055,7.559055 0 0 0 -7.55906,-7.5591"
             style="fill:none;stroke:#000000"
             id="path1603" /><path
             style="fill:none;stroke:#000000"
             d="M 217.323,1109.29 H 198.425"
             id="path1605" /><path
             d="m 198.4252,1109.2913 a 7.559055,7.559055 0 0 0 -7.55906,7.5591"
             style="fill:none;stroke:#000000"
             id="path1607" /><path
             style="fill:none;stroke:#000000"
             d="m 190.866,1116.85 v 11.34"
             id="path1609" /><path
             d="m 190.86614,1128.189 a 7.559055,7.559055 0 0 0 7.55906,7.559"
             style="fill:none;stroke:#000000"
             id="path1611" /></g></g></g></g></svg>
