0
SECTION
2
HEADER
9
$INSUNITS
70
4
0
ENDSEC
0
SECTION
2
TABLES
0
TABLE
2
LTYPE
0
LTYPE
72
65
70
64
2
CONTINUOUS
3
______
73
0
40
0
0
ENDTAB
0
TABLE
2
LAYER
0
ENDTAB
0
ENDSEC
0
SECTION
2
ENTITIES
0
LINE
8
0
10
7
20
-2.1278554
11
7
21
44.8585716
0
LINE
8
0
10
7.8618847
20
-6.1892406
11
8.1649484
21
-6.871134
0
LINE
8
0
10
24.4987309
20
-29
11
28.5251622
21
-29
0
LINE
8
0
10
35.9817231
20
-25.6633099
11
48.9073083
21
-11.1989646
0
LINE
8
0
10
60.8360051
20
-8.9180026
11
70.8885438
21
-13.9442719
0
LINE
8
0
10
75.3606798
20
-15
11
85.2805394
21
-15
0
LINE
8
0
10
93.8998817
20
-10.0702012
11
109.9164974
21
17.1580455
0
LINE
8
0
10
111.2359924
20
21.1239316
11
112.1385457
21
29.2469111
0
LINE
8
0
10
105.6896853
20
39.722462
11
101.9756892
21
41.1056054
0
LINE
8
0
10
96.7089502
20
45.6477703
11
93.2524239
21
51.9156047
0
LINE
8
0
10
86.423161
20
56.899022
11
63.9546056
21
61.3124882
0
LINE
8
0
10
-2
20
-2.1278554
11
-2
21
44.8585716
0
LINE
8
0
10
-2.8618847
20
-6.1892406
11
-3.1649484
21
-6.871134
0
LINE
8
0
10
-19.4987309
20
-29
11
-23.5251622
21
-29
0
LINE
8
0
10
-30.9817231
20
-25.6633099
11
-43.9073083
21
-11.1989646
0
LINE
8
0
10
-55.8360051
20
-8.9180026
11
-65.8885438
21
-13.9442719
0
LINE
8
0
10
-70.3606798
20
-15
11
-80.2805394
21
-15
0
LINE
8
0
10
-88.8998817
20
-10.0702012
11
-104.9164974
21
17.1580455
0
LINE
8
0
10
-106.2359924
20
21.1239316
11
-107.1385457
21
29.2469111
0
LINE
8
0
10
-100.6896853
20
39.722462
11
-96.9756892
21
41.1056054
0
LINE
8
0
10
-91.7089502
20
45.6477703
11
-88.2524239
21
51.9156047
0
LINE
8
0
10
-81.423161
20
56.899022
11
-58.9546056
21
61.3124882
0
LINE
8
0
10
12
20
61.5
11
62.0271525
21
61.5
0
LINE
8
0
10
-57.0271525
20
61.5
11
-7
21
61.5
0
ARC
8
0
10
4
20
52
40
6
50
314.4270041
51
25.8419325
0
ARC
8
0
10
1
20
52
40
6
50
154.1580675
51
225.5729959
0
LINE
8
0
10
9
20
56.3588989
11
9
21
58.5
0
LINE
8
0
10
-4
20
58.5
11
-4
21
56.3588989
0
ARC
8
0
10
13
20
56.3588989
40
4
50
180
51
205.8419325
0
ARC
8
0
10
11
20
44.8585716
40
4
50
134.4270041
51
180
0
ARC
8
0
10
-6
20
44.8585716
40
4
50
0
51
45.5729959
0
ARC
8
0
10
-8
20
56.3588989
40
4
50
334.1580675
51
0
0
ARC
8
0
10
12
20
58.5
40
3
50
90
51
180
0
ARC
8
0
10
-7
20
58.5
40
3
50
0
51
90
0
ARC
8
0
10
47.5
20
-52.1
40
15
50
95.4370852
51
264.562915
0
ARC
8
0
10
65.5
20
-62.4923048
40
15
50
215.4370854
51
309.4384173
0
ARC
8
0
10
65.5
20
-41.7076952
40
15
50
52.7789564
51
144.5629147
0
LINE
8
0
10
-96
20
-41.8
11
-96
21
-61.8
0
LINE
8
0
10
-86
20
-71.8
11
-66
21
-71.8
0
LINE
8
0
10
-56
20
-61.8
11
-56
21
-41.8
0
LINE
8
0
10
-66
20
-31.8
11
-86
21
-31.8
0
LINE
8
0
10
101
20
-61.8
11
101
21
-41.8
0
LINE
8
0
10
91
20
-31.8
11
80.6222906
21
-31.8
0
LINE
8
0
10
81.3812124
20
-71.8
11
91
21
-71.8
0
ARC
8
0
10
62.0271525
20
51.5
40
10
50
78.8869595
51
90
0
ARC
8
0
10
84.4957079
20
47.0865338
40
10
50
28.8754418
51
78.8869595
0
ARC
8
0
10
105.4656661
20
50.4768413
40
10
50
208.8754418
51
249.5739782
0
ARC
8
0
10
102.1997084
20
30.3512262
40
10
50
353.6598095
51
69.5739782
0
ARC
8
0
10
101.2971551
20
22.2282467
40
10
50
329.534456
51
353.6598095
0
ARC
8
0
10
85.2805394
20
-5
40
10
50
270
51
329.534456
0
ARC
8
0
10
75.3606798
20
-5
40
10
50
243.4349488
51
270
0
ARC
8
0
10
56.3638692
20
-17.8622745
40
10
50
63.4349488
51
138.2154833
0
ARC
8
0
10
28.5251622
20
-19
40
10
50
270
51
318.2154833
0
ARC
8
0
10
24.4987309
20
-19
40
10
50
217.1578758
51
270
0
ARC
8
0
10
17
20
-2.1278554
40
10
50
180
51
203.9624919
0
ARC
8
0
10
-57.0271525
20
51.5
40
10
50
90
51
101.1130405
0
ARC
8
0
10
-79.4957079
20
47.0865338
40
10
50
101.1130405
51
151.1245582
0
ARC
8
0
10
-100.4656661
20
50.4768413
40
10
50
290.4260218
51
331.1245582
0
ARC
8
0
10
-97.1997084
20
30.3512262
40
10
50
110.4260218
51
186.3401905
0
ARC
8
0
10
-96.2971551
20
22.2282467
40
10
50
186.3401905
51
210.465544
0
ARC
8
0
10
-80.2805394
20
-5
40
10
50
210.465544
51
270
0
ARC
8
0
10
-70.3606798
20
-5
40
10
50
270
51
296.5650512
0
ARC
8
0
10
-51.3638692
20
-17.8622745
40
10
50
41.7845167
51
116.5650512
0
ARC
8
0
10
-23.5251622
20
-19
40
10
50
221.7845167
51
270
0
ARC
8
0
10
-19.4987309
20
-19
40
10
50
270
51
322.8421242
0
ARC
8
0
10
-12
20
-2.1278554
40
10
50
336.0375081
51
0
0
ARC
8
0
10
45.1311831
20
-76.9875211
40
10
50
35.4370854
51
84.562915
0
ARC
8
0
10
81.3812124
20
-81.8
40
10
50
90
51
129.4384173
0
ARC
8
0
10
91
20
-61.8
40
10
50
270
51
0
0
ARC
8
0
10
91
20
-41.8
40
10
50
0
51
90
0
ARC
8
0
10
80.6222906
20
-21.8
40
10
50
232.7789564
51
270
0
ARC
8
0
10
45.131183
20
-27.2124789
40
10
50
275.4370852
51
324.5629147
0
ARC
8
0
10
-86
20
-61.8
40
10
50
180
51
270
0
ARC
8
0
10
-66
20
-61.8
40
10
50
270
51
0
0
ARC
8
0
10
-66
20
-41.8
40
10
50
0
51
90
0
ARC
8
0
10
-86
20
-41.8
40
10
50
90
51
180
0
LINE
8
0
10
8.1649484
20
-6.871134
11
6.7154711
21
-7.5153462
0
ARC
8
0
10
6.9185404
20
-7.9722519
40
0.5
50
113.962489
51
203.962489
0
LINE
8
0
10
6.4616346
20
-8.1753212
11
14.1782654
21
-25.5377406
0
ARC
8
0
10
14.6351712
20
-25.3346714
40
0.5
50
203.962489
51
293.962489
0
LINE
8
0
10
14.8382404
20
-25.7915771
11
16.5289888
21
-25.0401334
0
LINE
8
0
10
-1.7154711
20
-7.5153462
11
-3.1649484
21
-6.871134
0
LINE
8
0
10
-11.5289888
20
-25.0401334
11
-9.8382404
21
-25.7915771
0
ARC
8
0
10
-9.6351712
20
-25.3346714
40
0.5
50
246.037511
51
336.037511
0
LINE
8
0
10
-9.1782654
20
-25.5377406
11
-1.4616346
21
-8.1753212
0
ARC
8
0
10
-1.9185404
20
-7.9722519
40
0.5
50
336.037511
51
66.037511
0
ENDSEC
0
EOF