0
SECTION
2
HEADER
9
$INSUNITS
70
4
0
ENDSEC
0
SECTION
2
TABLES
0
TABLE
2
LTYPE
0
LTYPE
72
65
70
64
2
CONTINUOUS
3
______
73
0
40
0
0
ENDTAB
0
TABLE
2
LAYER
0
ENDTAB
0
ENDSEC
0
SECTION
2
ENTITIES
0
LINE
8
0
10
7
20
-4.25
11
7
21
44.8585716
0
LINE
8
0
10
7
20
-4.25
11
18
21
-29
0
LINE
8
0
10
18
20
-29
11
33
21
-29
0
LINE
8
0
10
33
20
-29
11
54
21
-5.5
0
LINE
8
0
10
54
20
-5.5
11
73
21
-15
0
LINE
8
0
10
73
20
-15
11
91
21
-15
0
LINE
8
0
10
91
20
-15
11
111
21
19
0
LINE
8
0
10
111
20
19
11
113
21
37
0
LINE
8
0
10
113
20
37
11
98.5
21
42.4
0
LINE
8
0
10
98.5
20
42.4
11
91
21
56
0
LINE
8
0
10
91
20
56
11
63
21
61.5
0
LINE
8
0
10
-2
20
-4.25
11
-2
21
44.8585716
0
LINE
8
0
10
-2
20
-4.25
11
-13
21
-29
0
LINE
8
0
10
-13
20
-29
11
-28
21
-29
0
LINE
8
0
10
-28
20
-29
11
-49
21
-5.5
0
LINE
8
0
10
-49
20
-5.5
11
-68
21
-15
0
LINE
8
0
10
-68
20
-15
11
-86
21
-15
0
LINE
8
0
10
-86
20
-15
11
-106
21
19
0
LINE
8
0
10
-106
20
19
11
-108
21
37
0
LINE
8
0
10
-108
20
37
11
-93.5
21
42.4
0
LINE
8
0
10
-93.5
20
42.4
11
-86
21
56
0
LINE
8
0
10
-86
20
56
11
-58
21
61.5
0
LINE
8
0
10
12
20
61.5
11
63
21
61.5
0
LINE
8
0
10
-58
20
61.5
11
-7
21
61.5
0
ARC
8
0
10
4
20
52
40
6
50
314.4270041
51
25.8419325
0
ARC
8
0
10
1
20
52
40
6
50
154.1580675
51
225.5729959
0
LINE
8
0
10
9
20
56.3588989
11
9
21
58.5
0
LINE
8
0
10
-4
20
58.5
11
-4
21
56.3588989
0
ARC
8
0
10
13
20
56.3588989
40
4
50
180
51
205.8419325
0
ARC
8
0
10
11
20
44.8585716
40
4
50
134.4270041
51
180
0
ARC
8
0
10
-6
20
44.8585716
40
4
50
0
51
45.5729959
0
ARC
8
0
10
-8
20
56.3588989
40
4
50
334.1580675
51
0
0
ARC
8
0
10
12
20
58.5
40
3
50
90
51
180
0
ARC
8
0
10
-7
20
58.5
40
3
50
0
51
90
0
ARC
8
0
10
47.5
20
-52.1
40
15
50
76.1462213
51
283.8537787
0
ARC
8
0
10
65.5
20
-62.4923048
40
15
50
196.1462215
51
329.5238484
0
ARC
8
0
10
65.5
20
-41.7076952
40
15
50
390.4761516
51
523.8537785
0
LINE
8
0
10
-97
20
-34.1
11
-97
21
-45.855002
0
LINE
8
0
10
-97
20
-58.344998
11
-97
21
-70.1
0
LINE
8
0
10
-97
20
-70.1
11
-55
21
-70.1
0
LINE
8
0
10
-55
20
-70.1
11
-55
21
-34.1
0
LINE
8
0
10
-55
20
-34.1
11
-97
21
-34.1
0
LINE
8
0
10
102
20
-70.1
11
102
21
-58.344998
0
LINE
8
0
10
102
20
-45.855002
11
102
21
-34.1
0
LINE
8
0
10
102
20
-34.1
11
78.4276051
21
-34.1
0
LINE
8
0
10
78.4276051
20
-70.1
11
102
21
-70.1
0
ARC
8
0
10
-116
20
-52.1
40
20
50
341.8051277
51
378.1948723
0
ARC
8
0
10
121
20
-52.1
40
20
50
521.8051277
51
558.1948723
0
ENDSEC
0
EOF