0
SECTION
2
HEADER
9
$INSUNITS
70
4
0
ENDSEC
0
SECTION
2
TABLES
0
TABLE
2
LTYPE
0
LTYPE
72
65
70
64
2
CONTINUOUS
3
______
73
0
40
0
0
ENDTAB
0
TABLE
2
LAYER
0
ENDTAB
0
ENDSEC
0
SECTION
2
ENTITIES
0
LINE
8
0
10
9.25
20
-8.25
11
26.75
21
-8.25
0
LINE
8
0
10
26.75
20
-8.25
11
26.75
21
8.25
0
LINE
8
0
10
26.75
20
8.25
11
9.25
21
8.25
0
LINE
8
0
10
9.25
20
8.25
11
9.25
21
-8.25
0
LINE
8
0
10
9.25
20
8.75
11
26.75
21
8.75
0
LINE
8
0
10
26.75
20
8.75
11
26.75
21
25.25
0
LINE
8
0
10
26.75
20
25.25
11
9.25
21
25.25
0
LINE
8
0
10
9.25
20
25.25
11
9.25
21
8.75
0
LINE
8
0
10
9.25
20
25.75
11
26.75
21
25.75
0
LINE
8
0
10
26.75
20
25.75
11
26.75
21
42.25
0
LINE
8
0
10
26.75
20
42.25
11
9.25
21
42.25
0
LINE
8
0
10
9.25
20
42.25
11
9.25
21
25.75
0
LINE
8
0
10
27.25
20
-8.25
11
44.75
21
-8.25
0
LINE
8
0
10
44.75
20
-8.25
11
44.75
21
8.25
0
LINE
8
0
10
44.75
20
8.25
11
27.25
21
8.25
0
LINE
8
0
10
27.25
20
8.25
11
27.25
21
-8.25
0
LINE
8
0
10
27.25
20
8.75
11
44.75
21
8.75
0
LINE
8
0
10
44.75
20
8.75
11
44.75
21
25.25
0
LINE
8
0
10
44.75
20
25.25
11
27.25
21
25.25
0
LINE
8
0
10
27.25
20
25.25
11
27.25
21
8.75
0
LINE
8
0
10
27.25
20
25.75
11
44.75
21
25.75
0
LINE
8
0
10
44.75
20
25.75
11
44.75
21
42.25
0
LINE
8
0
10
44.75
20
42.25
11
27.25
21
42.25
0
LINE
8
0
10
27.25
20
42.25
11
27.25
21
25.75
0
LINE
8
0
10
45.25
20
9.75
11
62.75
21
9.75
0
LINE
8
0
10
62.75
20
9.75
11
62.75
21
26.25
0
LINE
8
0
10
62.75
20
26.25
11
45.25
21
26.25
0
LINE
8
0
10
45.25
20
26.25
11
45.25
21
9.75
0
LINE
8
0
10
45.25
20
26.75
11
62.75
21
26.75
0
LINE
8
0
10
62.75
20
26.75
11
62.75
21
43.25
0
LINE
8
0
10
62.75
20
43.25
11
45.25
21
43.25
0
LINE
8
0
10
45.25
20
43.25
11
45.25
21
26.75
0
LINE
8
0
10
45.25
20
43.75
11
62.75
21
43.75
0
LINE
8
0
10
62.75
20
43.75
11
62.75
21
60.25
0
LINE
8
0
10
62.75
20
60.25
11
45.25
21
60.25
0
LINE
8
0
10
45.25
20
60.25
11
45.25
21
43.75
0
LINE
8
0
10
63.25
20
4.75
11
80.75
21
4.75
0
LINE
8
0
10
80.75
20
4.75
11
80.75
21
21.25
0
LINE
8
0
10
80.75
20
21.25
11
63.25
21
21.25
0
LINE
8
0
10
63.25
20
21.25
11
63.25
21
4.75
0
LINE
8
0
10
68.25
20
21.75
11
85.75
21
21.75
0
LINE
8
0
10
85.75
20
21.75
11
85.75
21
38.25
0
LINE
8
0
10
85.75
20
38.25
11
68.25
21
38.25
0
LINE
8
0
10
68.25
20
38.25
11
68.25
21
21.75
0
LINE
8
0
10
73.25
20
38.75
11
90.75
21
38.75
0
LINE
8
0
10
90.75
20
38.75
11
90.75
21
55.25
0
LINE
8
0
10
90.75
20
55.25
11
73.25
21
55.25
0
LINE
8
0
10
73.25
20
55.25
11
73.25
21
38.75
0
LINE
8
0
10
73.25
20
-14.25
11
90.75
21
-14.25
0
LINE
8
0
10
90.75
20
-14.25
11
90.75
21
2.25
0
LINE
8
0
10
90.75
20
2.25
11
73.25
21
2.25
0
LINE
8
0
10
73.25
20
2.25
11
73.25
21
-14.25
0
LINE
8
0
10
83.25
20
2.75
11
100.75
21
2.75
0
LINE
8
0
10
100.75
20
2.75
11
100.75
21
19.25
0
LINE
8
0
10
100.75
20
19.25
11
83.25
21
19.25
0
LINE
8
0
10
83.25
20
19.25
11
83.25
21
2.75
0
LINE
8
0
10
93.25
20
19.75
11
110.75
21
19.75
0
LINE
8
0
10
110.75
20
19.75
11
110.75
21
36.25
0
LINE
8
0
10
110.75
20
36.25
11
93.25
21
36.25
0
LINE
8
0
10
93.25
20
36.25
11
93.25
21
19.75
0
LINE
8
0
10
98.75
20
-53.15
11
81.25
21
-53.15
0
LINE
8
0
10
81.25
20
-53.15
11
81.25
21
-69.65
0
LINE
8
0
10
81.25
20
-69.65
11
98.75
21
-69.65
0
LINE
8
0
10
98.75
20
-69.65
11
98.75
21
-53.15
0
LINE
8
0
10
81.25
20
-51.05
11
98.75
21
-51.05
0
LINE
8
0
10
98.75
20
-51.05
11
98.75
21
-34.55
0
LINE
8
0
10
98.75
20
-34.55
11
81.25
21
-34.55
0
LINE
8
0
10
81.25
20
-34.55
11
81.25
21
-51.05
0
LINE
8
0
10
-21.75
20
-8.25
11
-4.25
21
-8.25
0
LINE
8
0
10
-4.25
20
-8.25
11
-4.25
21
8.25
0
LINE
8
0
10
-4.25
20
8.25
11
-21.75
21
8.25
0
LINE
8
0
10
-21.75
20
8.25
11
-21.75
21
-8.25
0
LINE
8
0
10
-21.75
20
8.75
11
-4.25
21
8.75
0
LINE
8
0
10
-4.25
20
8.75
11
-4.25
21
25.25
0
LINE
8
0
10
-4.25
20
25.25
11
-21.75
21
25.25
0
LINE
8
0
10
-21.75
20
25.25
11
-21.75
21
8.75
0
LINE
8
0
10
-21.75
20
25.75
11
-4.25
21
25.75
0
LINE
8
0
10
-4.25
20
25.75
11
-4.25
21
42.25
0
LINE
8
0
10
-4.25
20
42.25
11
-21.75
21
42.25
0
LINE
8
0
10
-21.75
20
42.25
11
-21.75
21
25.75
0
LINE
8
0
10
-39.75
20
-8.25
11
-22.25
21
-8.25
0
LINE
8
0
10
-22.25
20
-8.25
11
-22.25
21
8.25
0
LINE
8
0
10
-22.25
20
8.25
11
-39.75
21
8.25
0
LINE
8
0
10
-39.75
20
8.25
11
-39.75
21
-8.25
0
LINE
8
0
10
-39.75
20
8.75
11
-22.25
21
8.75
0
LINE
8
0
10
-22.25
20
8.75
11
-22.25
21
25.25
0
LINE
8
0
10
-22.25
20
25.25
11
-39.75
21
25.25
0
LINE
8
0
10
-39.75
20
25.25
11
-39.75
21
8.75
0
LINE
8
0
10
-39.75
20
25.75
11
-22.25
21
25.75
0
LINE
8
0
10
-22.25
20
25.75
11
-22.25
21
42.25
0
LINE
8
0
10
-22.25
20
42.25
11
-39.75
21
42.25
0
LINE
8
0
10
-39.75
20
42.25
11
-39.75
21
25.75
0
LINE
8
0
10
-57.75
20
9.75
11
-40.25
21
9.75
0
LINE
8
0
10
-40.25
20
9.75
11
-40.25
21
26.25
0
LINE
8
0
10
-40.25
20
26.25
11
-57.75
21
26.25
0
LINE
8
0
10
-57.75
20
26.25
11
-57.75
21
9.75
0
LINE
8
0
10
-57.75
20
26.75
11
-40.25
21
26.75
0
LINE
8
0
10
-40.25
20
26.75
11
-40.25
21
43.25
0
LINE
8
0
10
-40.25
20
43.25
11
-57.75
21
43.25
0
LINE
8
0
10
-57.75
20
43.25
11
-57.75
21
26.75
0
LINE
8
0
10
-57.75
20
43.75
11
-40.25
21
43.75
0
LINE
8
0
10
-40.25
20
43.75
11
-40.25
21
60.25
0
LINE
8
0
10
-40.25
20
60.25
11
-57.75
21
60.25
0
LINE
8
0
10
-57.75
20
60.25
11
-57.75
21
43.75
0
LINE
8
0
10
-75.75
20
4.75
11
-58.25
21
4.75
0
LINE
8
0
10
-58.25
20
4.75
11
-58.25
21
21.25
0
LINE
8
0
10
-58.25
20
21.25
11
-75.75
21
21.25
0
LINE
8
0
10
-75.75
20
21.25
11
-75.75
21
4.75
0
LINE
8
0
10
-80.75
20
21.75
11
-63.25
21
21.75
0
LINE
8
0
10
-63.25
20
21.75
11
-63.25
21
38.25
0
LINE
8
0
10
-63.25
20
38.25
11
-80.75
21
38.25
0
LINE
8
0
10
-80.75
20
38.25
11
-80.75
21
21.75
0
LINE
8
0
10
-85.75
20
38.75
11
-68.25
21
38.75
0
LINE
8
0
10
-68.25
20
38.75
11
-68.25
21
55.25
0
LINE
8
0
10
-68.25
20
55.25
11
-85.75
21
55.25
0
LINE
8
0
10
-85.75
20
55.25
11
-85.75
21
38.75
0
LINE
8
0
10
-85.75
20
-14.25
11
-68.25
21
-14.25
0
LINE
8
0
10
-68.25
20
-14.25
11
-68.25
21
2.25
0
LINE
8
0
10
-68.25
20
2.25
11
-85.75
21
2.25
0
LINE
8
0
10
-85.75
20
2.25
11
-85.75
21
-14.25
0
LINE
8
0
10
-95.75
20
2.75
11
-78.25
21
2.75
0
LINE
8
0
10
-78.25
20
2.75
11
-78.25
21
19.25
0
LINE
8
0
10
-78.25
20
19.25
11
-95.75
21
19.25
0
LINE
8
0
10
-95.75
20
19.25
11
-95.75
21
2.75
0
LINE
8
0
10
-105.75
20
19.75
11
-88.25
21
19.75
0
LINE
8
0
10
-88.25
20
19.75
11
-88.25
21
36.25
0
LINE
8
0
10
-88.25
20
36.25
11
-105.75
21
36.25
0
LINE
8
0
10
-105.75
20
36.25
11
-105.75
21
19.75
0
LINE
8
0
10
-76.25
20
-53.15
11
-93.75
21
-53.15
0
LINE
8
0
10
-93.75
20
-53.15
11
-93.75
21
-69.65
0
LINE
8
0
10
-93.75
20
-69.65
11
-76.25
21
-69.65
0
LINE
8
0
10
-76.25
20
-69.65
11
-76.25
21
-53.15
0
LINE
8
0
10
-58.25
20
-53.15
11
-75.75
21
-53.15
0
LINE
8
0
10
-75.75
20
-53.15
11
-75.75
21
-69.65
0
LINE
8
0
10
-75.75
20
-69.65
11
-58.25
21
-69.65
0
LINE
8
0
10
-58.25
20
-69.65
11
-58.25
21
-53.15
0
LINE
8
0
10
-93.75
20
-51.05
11
-76.25
21
-51.05
0
LINE
8
0
10
-76.25
20
-51.05
11
-76.25
21
-34.55
0
LINE
8
0
10
-76.25
20
-34.55
11
-93.75
21
-34.55
0
LINE
8
0
10
-93.75
20
-34.55
11
-93.75
21
-51.05
0
LINE
8
0
10
-75.75
20
-51.05
11
-58.25
21
-51.05
0
LINE
8
0
10
-58.25
20
-51.05
11
-58.25
21
-34.55
0
LINE
8
0
10
-58.25
20
-34.55
11
-75.75
21
-34.55
0
LINE
8
0
10
-75.75
20
-34.55
11
-75.75
21
-51.05
0
ENDSEC
0
EOF