0
SECTION
2
HEADER
9
$INSUNITS
70
4
0
ENDSEC
0
SECTION
2
TABLES
0
TABLE
2
LTYPE
0
LTYPE
72
65
70
64
2
CONTINUOUS
3
______
73
0
40
0
0
ENDTAB
0
TABLE
2
LAYER
0
ENDTAB
0
ENDSEC
0
SECTION
2
ENTITIES
0
LINE
8
0
10
46
20
-2.1148351
11
46
21
3.5
0
LINE
8
0
10
51
20
8.5
11
59.2002538
21
8.5
0
LINE
8
0
10
61.0278769
20
7.312277
11
62.2337801
21
4.5989949
0
LINE
8
0
10
63.0691252
20
3.6747856
11
64.9922779
21
2.5758412
0
LINE
8
0
10
66
20
0.8393549
11
66
21
-1.596118
0
LINE
8
0
10
59.787322
20
-6.4468305
11
56.6273991
21
-5.6568498
0
LINE
8
0
10
55.3995465
20
-5.7401814
11
52.8569534
21
-6.7572186
0
LINE
8
0
10
-41
20
-2.1148351
11
-41
21
3.5
0
LINE
8
0
10
-46
20
8.5
11
-54.2002538
21
8.5
0
LINE
8
0
10
-56.0278769
20
7.312277
11
-57.2337801
21
4.5989949
0
LINE
8
0
10
-58.0691252
20
3.6747856
11
-59.9922779
21
2.5758412
0
LINE
8
0
10
-61
20
0.8393549
11
-61
21
-1.596118
0
LINE
8
0
10
-54.787322
20
-6.4468305
11
-51.6273991
21
-5.6568498
0
LINE
8
0
10
-50.3995465
20
-5.7401814
11
-47.8569534
21
-6.7572186
0
ARC
8
0
10
51
20
3.5
40
5
50
90
51
180
0
ARC
8
0
10
61
20
-1.596118
40
5
50
255.9637579
51
0
0
ARC
8
0
10
51
20
-2.1148351
40
5
50
180
51
291.8014088
0
ARC
8
0
10
-46
20
3.5
40
5
50
0
51
90
0
ARC
8
0
10
-56
20
-1.596118
40
5
50
180
51
284.0362421
0
ARC
8
0
10
-46
20
-2.1148351
40
5
50
248.1985912
51
0
0
ARC
8
0
10
59.2002538
20
6.5
40
2
50
23.9624919
51
90
0
ARC
8
0
10
64.0614031
20
5.4112719
40
2
50
203.9624919
51
240.2551194
0
ARC
8
0
10
64
20
0.8393549
40
2
50
0
51
60.2551194
0
ARC
8
0
10
56.1423279
20
-7.5971348
40
2
50
75.9637579
51
111.8014106
0
ARC
8
0
10
52.114172
20
-4.9002652
40
2
50
291.8014088
51
291.8014106
0
ARC
8
0
10
-54.2002538
20
6.5
40
2
50
90
51
156.0375081
0
ARC
8
0
10
-59.0614031
20
5.4112719
40
2
50
299.7448806
51
336.0375081
0
ARC
8
0
10
-59
20
0.8393549
40
2
50
119.7448806
51
180
0
ARC
8
0
10
-51.1423279
20
-7.5971348
40
2
50
68.1985894
51
104.0362421
0
ARC
8
0
10
-47.114172
20
-4.9002652
40
2
50
248.1985894
51
248.1985912
0
CIRCLE
8
0
10
49
20
4.5
40
1.2
0
CIRCLE
8
0
10
-44
20
4.5
40
1.2
0
CIRCLE
8
0
10
62
20
-3.5
40
1.2
0
CIRCLE
8
0
10
-57
20
-3.5
40
1.2
0
ENDSEC
0
EOF