999
"DXF R12 Output" (www.mydxf.blogspot.com)
 0 
SECTION
 2 
HEADER
 9 
$ACADVER
 1 
AC1009
 9 
$EXTMIN
 10 
 0 
 20 
 0 
 9 
$EXTMAX
 10 
 8.5 
 20 
 11 
 0 
ENDSEC
 0 
SECTION
 2 
ENTITIES
0
LINE
8
Layer 1
10
0.793749
20
297.794000
11
-0.793749
21
296.206000
0
LINE
8
Layer 1
10
0.000000
20
298.323000
11
0.000000
21
295.677000
0
LINE
8
Layer 1
10
2.116660
20
295.942000
11
1.058330
21
294.883670
0
LINE
8
Layer 1
10
1.587500
20
296.471000
11
0.529170
21
295.412670
0
LINE
8
Layer 1
10
1.058330
20
297.000000
11
0.000000
21
295.941670
0
LINE
8
0
10
45.999900
20
-2.113730
11
45.999900
21
3.500720
0
LINE
8
0
10
51.000000
20
8.501340
11
59.200200
21
8.501340
0
LINE
8
0
10
61.027900
20
7.313360
11
62.233600
21
4.598740
0
LINE
8
0
10
63.068900
20
3.675350
11
64.992200
21
2.577330
0
LINE
8
0
10
66.000000
20
0.839019
11
66.000000
21
-1.595140
0
LINE
8
0
10
59.787300
20
-6.447600
11
56.627400
21
-5.656490
0
LINE
8
0
10
55.399400
20
-5.738510
11
52.856800
21
-6.757160
0
LINE
8
0
10
-41.000000
20
-2.113730
11
-41.000000
21
3.500720
0
LINE
8
0
10
-45.999900
20
8.501340
11
-54.200100
21
8.501340
0
LINE
8
0
10
-56.027800
20
7.313360
11
-57.233800
21
4.598740
0
LINE
8
0
10
-58.069100
20
3.675350
11
-59.992100
21
2.577330
0
LINE
8
0
10
-60.999900
20
0.839019
11
-60.999900
21
-1.595140
0
LINE
8
0
10
-54.787200
20
-6.447600
11
-51.627300
21
-5.656490
0
LINE
8
0
10
-50.399400
20
-5.738510
11
-47.857000
21
-6.757160
0
LINE
8
0
10
50.999900
20
8.500360
11
50.019894
21
8.403401
0
LINE
8
0
10
50.019894
20
8.403401
11
49.086484
21
8.119761
0
LINE
8
0
10
49.086484
20
8.119761
11
48.225898
21
7.660306
0
LINE
8
0
10
48.225898
20
7.660306
11
47.464367
21
7.035900
0
LINE
8
0
10
47.464367
20
7.035900
11
46.839959
21
6.274370
0
LINE
8
0
10
46.839959
20
6.274370
11
46.380503
21
5.413786
0
LINE
8
0
10
46.380503
20
5.413786
11
46.096861
21
4.480376
0
LINE
8
0
10
46.096861
20
4.480376
11
45.999900
21
3.500370
0
LINE
8
0
10
59.787200
20
-6.446450
11
60.916972
21
-6.595106
0
LINE
8
0
10
60.916972
20
-6.595106
11
62.037124
21
-6.486981
0
LINE
8
0
10
62.037124
20
-6.486981
11
63.104753
21
-6.131174
0
LINE
8
0
10
63.104753
20
-6.131174
11
64.076957
21
-5.536781
0
LINE
8
0
10
64.076957
20
-5.536781
11
64.889400
21
-4.737769
0
LINE
8
0
10
64.889400
20
-4.737769
11
65.493526
21
-3.788315
0
LINE
8
0
10
65.493526
20
-3.788315
11
65.870103
21
-2.727834
0
LINE
8
0
10
65.870103
20
-2.727834
11
65.999900
21
-1.595740
0
LINE
8
0
10
45.999900
20
-2.114460
11
46.149955
21
-3.330536
0
LINE
8
0
10
46.149955
20
-3.330536
11
46.583126
21
-4.458011
0
LINE
8
0
10
46.583126
20
-4.458011
11
47.273900
21
-5.448803
0
LINE
8
0
10
47.273900
20
-5.448803
11
48.196766
21
-6.254828
0
LINE
8
0
10
48.196766
20
-6.254828
11
49.287889
21
-6.812329
0
LINE
8
0
10
49.287889
20
-6.812329
11
50.464365
21
-7.085718
0
LINE
8
0
10
50.464365
20
-7.085718
11
51.672075
21
-7.069165
0
LINE
8
0
10
51.672075
20
-7.069165
11
52.856900
21
-6.756840
0
LINE
8
0
10
-40.999900
20
3.500370
11
-41.096861
21
4.480376
0
LINE
8
0
10
-41.096861
20
4.480376
11
-41.380503
21
5.413786
0
LINE
8
0
10
-41.380503
20
5.413786
11
-41.839959
21
6.274370
0
LINE
8
0
10
-41.839959
20
6.274370
11
-42.464367
21
7.035900
0
LINE
8
0
10
-42.464367
20
7.035900
11
-43.225898
21
7.660306
0
LINE
8
0
10
-43.225898
20
7.660306
11
-44.086484
21
8.119761
0
LINE
8
0
10
-44.086484
20
8.119761
11
-45.019894
21
8.403401
0
LINE
8
0
10
-45.019894
20
8.403401
11
-45.999900
21
8.500360
0
LINE
8
0
10
-60.999900
20
-1.595740
11
-60.870101
21
-2.727817
0
LINE
8
0
10
-60.870101
20
-2.727817
11
-60.493529
21
-3.788284
0
LINE
8
0
10
-60.493529
20
-3.788284
11
-59.889414
21
-4.737726
0
LINE
8
0
10
-59.889414
20
-4.737726
11
-59.076988
21
-5.536732
0
LINE
8
0
10
-59.076988
20
-5.536732
11
-58.104803
21
-6.131126
0
LINE
8
0
10
-58.104803
20
-6.131126
11
-57.037193
21
-6.486942
0
LINE
8
0
10
-57.037193
20
-6.486942
11
-55.917059
21
-6.595082
0
LINE
8
0
10
-55.917059
20
-6.595082
11
-54.787300
21
-6.446450
0
LINE
8
0
10
-47.856900
20
-6.756840
11
-46.672075
21
-7.069165
0
LINE
8
0
10
-46.672075
20
-7.069165
11
-45.464365
21
-7.085718
0
LINE
8
0
10
-45.464365
20
-7.085718
11
-44.287889
21
-6.812329
0
LINE
8
0
10
-44.287889
20
-6.812329
11
-43.196766
21
-6.254828
0
LINE
8
0
10
-43.196766
20
-6.254828
11
-42.273900
21
-5.448803
0
LINE
8
0
10
-42.273900
20
-5.448803
11
-41.583126
21
-4.458011
0
LINE
8
0
10
-41.583126
20
-4.458011
11
-41.149955
21
-3.330536
0
LINE
8
0
10
-41.149955
20
-3.330536
11
-40.999900
21
-2.114460
0
LINE
8
0
10
61.027800
20
7.312640
11
60.717961
21
7.802918
0
LINE
8
0
10
60.717961
20
7.802918
11
60.290013
21
8.177339
0
LINE
8
0
10
60.290013
20
8.177339
11
59.774058
21
8.416341
0
LINE
8
0
10
59.774058
20
8.416341
11
59.200200
21
8.500360
0
LINE
8
0
10
62.233700
20
4.599360
11
62.577558
21
4.070566
0
LINE
8
0
10
62.577558
20
4.070566
11
63.069000
21
3.675160
0
LINE
8
0
10
65.999900
20
0.839728
11
65.729729
21
1.843575
0
LINE
8
0
10
65.729729
20
1.843575
11
64.992200
21
2.576210
0
LINE
8
0
10
56.627300
20
-5.656470
11
56.006831
21
-5.601353
0
LINE
8
0
10
56.006831
20
-5.601353
11
55.399500
21
-5.739800
0
LINE
8
0
10
-54.200200
20
8.500360
11
-54.774058
21
8.416341
0
LINE
8
0
10
-54.774058
20
8.416341
11
-55.290013
21
8.177339
0
LINE
8
0
10
-55.290013
20
8.177339
11
-55.717961
21
7.802918
0
LINE
8
0
10
-55.717961
20
7.802918
11
-56.027800
21
7.312640
0
LINE
8
0
10
-58.069100
20
3.675160
11
-57.577604
21
4.070554
0
LINE
8
0
10
-57.577604
20
4.070554
11
-57.233700
21
4.599360
0
LINE
8
0
10
-59.992200
20
2.576210
11
-60.729729
21
1.843575
0
LINE
8
0
10
-60.729729
20
1.843575
11
-60.999900
21
0.839728
0
LINE
8
0
10
-50.399500
20
-5.739800
11
-51.006831
21
-5.601353
0
LINE
8
0
10
-51.006831
20
-5.601353
11
-51.627300
21
-5.656470
0
LINE
8
0
10
50.199900
20
4.500370
11
50.039130
21
5.100370
0
LINE
8
0
10
50.039130
20
5.100370
11
49.599900
21
5.539600
0
LINE
8
0
10
49.599900
20
5.539600
11
48.999900
21
5.700370
0
LINE
8
0
10
48.999900
20
5.700370
11
48.399900
21
5.539600
0
LINE
8
0
10
48.399900
20
5.539600
11
47.960670
21
5.100370
0
LINE
8
0
10
47.960670
20
5.100370
11
47.799900
21
4.500370
0
LINE
8
0
10
47.799900
20
4.500370
11
47.960670
21
3.900370
0
LINE
8
0
10
47.960670
20
3.900370
11
48.399900
21
3.461140
0
LINE
8
0
10
48.399900
20
3.461140
11
48.999900
21
3.300370
0
LINE
8
0
10
48.999900
20
3.300370
11
49.599900
21
3.461140
0
LINE
8
0
10
49.599900
20
3.461140
11
50.039130
21
3.900370
0
LINE
8
0
10
50.039130
20
3.900370
11
50.199900
21
4.500370
0
LINE
8
0
10
50.199900
20
4.500370
11
50.199900
21
4.500370
0
LINE
8
0
10
-42.799900
20
4.500370
11
-42.960670
21
5.100370
0
LINE
8
0
10
-42.960670
20
5.100370
11
-43.399900
21
5.539600
0
LINE
8
0
10
-43.399900
20
5.539600
11
-43.999900
21
5.700370
0
LINE
8
0
10
-43.999900
20
5.700370
11
-44.599900
21
5.539600
0
LINE
8
0
10
-44.599900
20
5.539600
11
-45.039130
21
5.100370
0
LINE
8
0
10
-45.039130
20
5.100370
11
-45.199900
21
4.500370
0
LINE
8
0
10
-45.199900
20
4.500370
11
-45.039130
21
3.900370
0
LINE
8
0
10
-45.039130
20
3.900370
11
-44.599900
21
3.461140
0
LINE
8
0
10
-44.599900
20
3.461140
11
-43.999900
21
3.300370
0
LINE
8
0
10
-43.999900
20
3.300370
11
-43.399900
21
3.461140
0
LINE
8
0
10
-43.399900
20
3.461140
11
-42.960670
21
3.900370
0
LINE
8
0
10
-42.960670
20
3.900370
11
-42.799900
21
4.500370
0
LINE
8
0
10
-42.799900
20
4.500370
11
-42.799900
21
4.500370
0
LINE
8
0
10
63.199900
20
-3.499620
11
63.039130
21
-2.899620
0
LINE
8
0
10
63.039130
20
-2.899620
11
62.599900
21
-2.460390
0
LINE
8
0
10
62.599900
20
-2.460390
11
61.999900
21
-2.299620
0
LINE
8
0
10
61.999900
20
-2.299620
11
61.399900
21
-2.460390
0
LINE
8
0
10
61.399900
20
-2.460390
11
60.960670
21
-2.899620
0
LINE
8
0
10
60.960670
20
-2.899620
11
60.799900
21
-3.499620
0
LINE
8
0
10
60.799900
20
-3.499620
11
60.960670
21
-4.099620
0
LINE
8
0
10
60.960670
20
-4.099620
11
61.399900
21
-4.538850
0
LINE
8
0
10
61.399900
20
-4.538850
11
61.999900
21
-4.699620
0
LINE
8
0
10
61.999900
20
-4.699620
11
62.599900
21
-4.538850
0
LINE
8
0
10
62.599900
20
-4.538850
11
63.039130
21
-4.099620
0
LINE
8
0
10
63.039130
20
-4.099620
11
63.199900
21
-3.499620
0
LINE
8
0
10
63.199900
20
-3.499620
11
63.199900
21
-3.499620
0
LINE
8
0
10
-55.799900
20
-3.499620
11
-55.960670
21
-2.899620
0
LINE
8
0
10
-55.960670
20
-2.899620
11
-56.399900
21
-2.460390
0
LINE
8
0
10
-56.399900
20
-2.460390
11
-56.999900
21
-2.299620
0
LINE
8
0
10
-56.999900
20
-2.299620
11
-57.599900
21
-2.460390
0
LINE
8
0
10
-57.599900
20
-2.460390
11
-58.039130
21
-2.899620
0
LINE
8
0
10
-58.039130
20
-2.899620
11
-58.199900
21
-3.499620
0
LINE
8
0
10
-58.199900
20
-3.499620
11
-58.039130
21
-4.099620
0
LINE
8
0
10
-58.039130
20
-4.099620
11
-57.599900
21
-4.538850
0
LINE
8
0
10
-57.599900
20
-4.538850
11
-56.999900
21
-4.699620
0
LINE
8
0
10
-56.999900
20
-4.699620
11
-56.399900
21
-4.538850
0
LINE
8
0
10
-56.399900
20
-4.538850
11
-55.960670
21
-4.099620
0
LINE
8
0
10
-55.960670
20
-4.099620
11
-55.799900
21
-3.499620
0
LINE
8
0
10
-55.799900
20
-3.499620
11
-55.799900
21
-3.499620
0
LINE
8
0
10
52.499900
20
-3.500140
11
57.500000
21
-3.500140
0
LINE
8
0
10
57.499900
20
-3.499620
11
58.265267
21
-3.347379
0
LINE
8
0
10
58.265267
20
-3.347379
11
58.914114
21
-2.913834
0
LINE
8
0
10
58.914114
20
-2.913834
11
59.347659
21
-2.264987
0
LINE
8
0
10
59.347659
20
-2.264987
11
59.499900
21
-1.499620
0
LINE
8
0
10
59.500000
20
-1.499890
11
59.500000
21
1.500480
0
LINE
8
0
10
59.499900
20
1.500370
11
59.347659
21
2.265737
0
LINE
8
0
10
59.347659
20
2.265737
11
58.914114
21
2.914584
0
LINE
8
0
10
58.914114
20
2.914584
11
58.265267
21
3.348129
0
LINE
8
0
10
58.265267
20
3.348129
11
57.499900
21
3.500370
0
LINE
8
0
10
57.500000
20
3.500720
11
52.499900
21
3.500720
0
LINE
8
0
10
52.499900
20
3.500370
11
51.734533
21
3.348129
0
LINE
8
0
10
51.734533
20
3.348129
11
51.085686
21
2.914584
0
LINE
8
0
10
51.085686
20
2.914584
11
50.652141
21
2.265737
0
LINE
8
0
10
50.652141
20
2.265737
11
50.499900
21
1.500370
0
LINE
8
0
10
50.499900
20
1.500480
11
50.499900
21
-1.499890
0
LINE
8
0
10
50.499900
20
-1.499620
11
50.652141
21
-2.264987
0
LINE
8
0
10
50.652141
20
-2.264987
11
51.085686
21
-2.913834
0
LINE
8
0
10
51.085686
20
-2.913834
11
51.734533
21
-3.347379
0
LINE
8
0
10
51.734533
20
-3.347379
11
52.499900
21
-3.499620
0
LINE
8
0
10
-52.499900
20
-3.500140
11
-47.500100
21
-3.500140
0
LINE
8
0
10
-47.499900
20
-3.499620
11
-46.734533
21
-3.347379
0
LINE
8
0
10
-46.734533
20
-3.347379
11
-46.085686
21
-2.913834
0
LINE
8
0
10
-46.085686
20
-2.913834
11
-45.652141
21
-2.264987
0
LINE
8
0
10
-45.652141
20
-2.264987
11
-45.499900
21
-1.499620
0
LINE
8
0
10
-45.500100
20
-1.499890
11
-45.500100
21
1.500480
0
LINE
8
0
10
-45.499900
20
1.500370
11
-45.652141
21
2.265737
0
LINE
8
0
10
-45.652141
20
2.265737
11
-46.085686
21
2.914584
0
LINE
8
0
10
-46.085686
20
2.914584
11
-46.734533
21
3.348129
0
LINE
8
0
10
-46.734533
20
3.348129
11
-47.499900
21
3.500370
0
LINE
8
0
10
-47.500100
20
3.500720
11
-52.499900
21
3.500720
0
LINE
8
0
10
-52.499900
20
3.500370
11
-53.265267
21
3.348129
0
LINE
8
0
10
-53.265267
20
3.348129
11
-53.914114
21
2.914584
0
LINE
8
0
10
-53.914114
20
2.914584
11
-54.347659
21
2.265737
0
LINE
8
0
10
-54.347659
20
2.265737
11
-54.499900
21
1.500370
0
LINE
8
0
10
-54.499900
20
1.500480
11
-54.499900
21
-1.499890
0
LINE
8
0
10
-54.499900
20
-1.499620
11
-54.347659
21
-2.264987
0
LINE
8
0
10
-54.347659
20
-2.264987
11
-53.914114
21
-2.913834
0
LINE
8
0
10
-53.914114
20
-2.913834
11
-53.265267
21
-3.347379
0
LINE
8
0
10
-53.265267
20
-3.347379
11
-52.499900
21
-3.499620
 0 
ENDSEC
 0 
EOF