0
SECTION
2
HEADER
9
$INSUNITS
70
4
0
ENDSEC
0
SECTION
2
TABLES
0
TABLE
2
LTYPE
0
LTYPE
72
65
70
64
2
CONTINUOUS
3
______
73
0
40
0
0
ENDTAB
0
TABLE
2
LAYER
0
ENDTAB
0
ENDSEC
0
SECTION
2
ENTITIES
0
LINE
8
0
10
9
20
-8.5
11
45
21
-8.5
0
LINE
8
0
10
9
20
-8.5
11
9
21
42.5
0
LINE
8
0
10
9
20
42.5
11
45
21
42.5
0
LINE
8
0
10
45
20
-8.5
11
45
21
9.5
0
LINE
8
0
10
45
20
9.5
11
63
21
9.5
0
LINE
8
0
10
63
20
21.5
11
63
21
60.5
0
LINE
8
0
10
45
20
42.5
11
45
21
60.5
0
LINE
8
0
10
63
20
60.5
11
45
21
60.5
0
LINE
8
0
10
63
20
4.5
11
81
21
4.5
0
LINE
8
0
10
81
20
4.5
11
81
21
21.5
0
LINE
8
0
10
68
20
21.5
11
63
21
21.5
0
LINE
8
0
10
63
20
9.5
11
63
21
4.5
0
LINE
8
0
10
81
20
21.5
11
86
21
21.5
0
LINE
8
0
10
86
20
21.5
11
86
21
38.5
0
LINE
8
0
10
73
20
38.5
11
68
21
38.5
0
LINE
8
0
10
68
20
38.5
11
68
21
21.5
0
LINE
8
0
10
86
20
38.5
11
91
21
38.5
0
LINE
8
0
10
91
20
38.5
11
91
21
55.5
0
LINE
8
0
10
91
20
55.5
11
73
21
55.5
0
LINE
8
0
10
73
20
55.5
11
73
21
38.5
0
LINE
8
0
10
73
20
-14.5
11
91
21
-14.5
0
LINE
8
0
10
91
20
-14.5
11
91
21
2.5
0
LINE
8
0
10
83
20
2.5
11
73
21
2.5
0
LINE
8
0
10
73
20
2.5
11
73
21
-14.5
0
LINE
8
0
10
91
20
2.5
11
101
21
2.5
0
LINE
8
0
10
101
20
2.5
11
101
21
19.5
0
LINE
8
0
10
93
20
19.5
11
83
21
19.5
0
LINE
8
0
10
83
20
19.5
11
83
21
2.5
0
LINE
8
0
10
101
20
19.5
11
111
21
19.5
0
LINE
8
0
10
111
20
19.5
11
111
21
36.5
0
LINE
8
0
10
111
20
36.5
11
93
21
36.5
0
LINE
8
0
10
93
20
36.5
11
93
21
19.5
0
LINE
8
0
10
99
20
-52.9
11
81
21
-52.9
0
LINE
8
0
10
81
20
-52.9
11
81
21
-69.9
0
LINE
8
0
10
81
20
-69.9
11
99
21
-69.9
0
LINE
8
0
10
99
20
-69.9
11
99
21
-52.9
0
LINE
8
0
10
81
20
-51.3
11
99
21
-51.3
0
LINE
8
0
10
99
20
-51.3
11
99
21
-34.3
0
LINE
8
0
10
99
20
-34.3
11
81
21
-34.3
0
LINE
8
0
10
81
20
-34.3
11
81
21
-51.3
0
LINE
8
0
10
-40
20
-8.5
11
-4
21
-8.5
0
LINE
8
0
10
-4
20
-8.5
11
-4
21
42.5
0
LINE
8
0
10
-40
20
42.5
11
-4
21
42.5
0
LINE
8
0
10
-40
20
-8.5
11
-40
21
9.5
0
LINE
8
0
10
-58
20
9.5
11
-40
21
9.5
0
LINE
8
0
10
-58
20
21.5
11
-58
21
60.5
0
LINE
8
0
10
-40
20
42.5
11
-40
21
60.5
0
LINE
8
0
10
-40
20
60.5
11
-58
21
60.5
0
LINE
8
0
10
-76
20
4.5
11
-58
21
4.5
0
LINE
8
0
10
-58
20
4.5
11
-58
21
9.5
0
LINE
8
0
10
-58
20
21.5
11
-63
21
21.5
0
LINE
8
0
10
-76
20
21.5
11
-76
21
4.5
0
LINE
8
0
10
-81
20
21.5
11
-76
21
21.5
0
LINE
8
0
10
-63
20
21.5
11
-63
21
38.5
0
LINE
8
0
10
-63
20
38.5
11
-68
21
38.5
0
LINE
8
0
10
-81
20
38.5
11
-81
21
21.5
0
LINE
8
0
10
-86
20
38.5
11
-81
21
38.5
0
LINE
8
0
10
-68
20
38.5
11
-68
21
55.5
0
LINE
8
0
10
-68
20
55.5
11
-86
21
55.5
0
LINE
8
0
10
-86
20
55.5
11
-86
21
38.5
0
LINE
8
0
10
-86
20
-14.5
11
-68
21
-14.5
0
LINE
8
0
10
-68
20
-14.5
11
-68
21
2.5
0
LINE
8
0
10
-68
20
2.5
11
-78
21
2.5
0
LINE
8
0
10
-86
20
2.5
11
-86
21
-14.5
0
LINE
8
0
10
-96
20
2.5
11
-86
21
2.5
0
LINE
8
0
10
-78
20
2.5
11
-78
21
19.5
0
LINE
8
0
10
-78
20
19.5
11
-88
21
19.5
0
LINE
8
0
10
-96
20
19.5
11
-96
21
2.5
0
LINE
8
0
10
-106
20
19.5
11
-96
21
19.5
0
LINE
8
0
10
-88
20
19.5
11
-88
21
36.5
0
LINE
8
0
10
-88
20
36.5
11
-106
21
36.5
0
LINE
8
0
10
-106
20
36.5
11
-106
21
19.5
0
LINE
8
0
10
-94
20
-52.9
11
-58
21
-52.9
0
LINE
8
0
10
-94
20
-52.9
11
-94
21
-69.9
0
LINE
8
0
10
-94
20
-69.9
11
-58
21
-69.9
0
LINE
8
0
10
-58
20
-69.9
11
-58
21
-52.9
0
LINE
8
0
10
-94
20
-51.3
11
-58
21
-51.3
0
LINE
8
0
10
-94
20
-34.3
11
-58
21
-34.3
0
LINE
8
0
10
-94
20
-34.3
11
-94
21
-51.3
0
LINE
8
0
10
-58
20
-51.3
11
-58
21
-34.3
0
ENDSEC
0
EOF