%TF.GenerationSoftware,KiCad,Pcbnew,(6.0.6)*%
%TF.CreationDate,2022-07-28T22:41:48-07:00*%
%TF.ProjectId,right_main_routed,72696768-745f-46d6-9169-6e5f726f7574,v1.0.0*%
%TF.SameCoordinates,Original*%
%TF.FileFunction,Paste,Bot*%
%TF.FilePolarity,Positive*%
%FSLAX46Y46*%
G04 Gerber Fmt 4.6, Leading zero omitted, Abs format (unit mm)*
G04 Created by KiCad (PCBNEW (6.0.6)) date 2022-07-28 22:41:48*
%MOMM*%
%LPD*%
G01*
G04 APERTURE LIST*
G04 Aperture macros list*
%AMRotRect*
0 Rectangle, with rotation*
0 The origin of the aperture is its center*
0 $1 length*
0 $2 width*
0 $3 Rotation angle, in degrees counterclockwise*
0 Add horizontal line*
21,1,$1,$2,0,0,$3*%
G04 Aperture macros list end*
%ADD10R,1.400000X1.300000*%
%ADD11R,2.600000X2.600000*%
%ADD12RotRect,3.000000X1.500000X203.962489*%
%ADD13R,1.000000X1.500000*%
%ADD14R,1.500000X1.000000*%
G04 APERTURE END LIST*
D10*
%TO.C,D10*%
X73750000Y8300000D03*
X70200000Y8300000D03*
%TD*%
D11*
%TO.C,SW3*%
X14725000Y39950000D03*
X26275000Y37750000D03*
%TD*%
D10*
%TO.C,D5*%
X37750000Y12300000D03*
X34200000Y12300000D03*
%TD*%
D11*
%TO.C,SW10*%
X68725000Y18950000D03*
X80275000Y16750000D03*
%TD*%
%TO.C,SW9*%
X50725000Y57950000D03*
X62275000Y55750000D03*
%TD*%
%TO.C,SW2*%
X14725000Y22950000D03*
X26275000Y20750000D03*
%TD*%
%TO.C,SW8*%
X50725000Y40950000D03*
X62275000Y38750000D03*
%TD*%
%TO.C,SW6*%
X32725000Y39950000D03*
X44275000Y37750000D03*
%TD*%
D10*
%TO.C,D1*%
X19750000Y-4700000D03*
X16200000Y-4700000D03*
%TD*%
%TO.C,D11*%
X78750000Y25300000D03*
X75200000Y25300000D03*
%TD*%
%TO.C,D13*%
X83750000Y-10700000D03*
X80200000Y-10700000D03*
%TD*%
%TO.C,D3*%
X19750000Y29300000D03*
X16200000Y29300000D03*
%TD*%
D11*
%TO.C,SW11*%
X73725000Y35950000D03*
X85275000Y33750000D03*
%TD*%
D10*
%TO.C,D9*%
X55750000Y47300000D03*
X52200000Y47300000D03*
%TD*%
%TO.C,D15*%
X103750000Y23300000D03*
X100200000Y23300000D03*
%TD*%
%TO.C,D6*%
X37750000Y29300000D03*
X34200000Y29300000D03*
%TD*%
%TO.C,D12*%
X83750000Y42300000D03*
X80200000Y42300000D03*
%TD*%
D11*
%TO.C,SW1*%
X14725000Y5950000D03*
X26275000Y3750000D03*
%TD*%
D10*
%TO.C,D7*%
X55750000Y13300000D03*
X52200000Y13300000D03*
%TD*%
D12*
%TO.C,J8*%
X8238490Y-8479925D03*
X9050767Y-10307548D03*
X9863044Y-12135171D03*
X10675321Y-13962794D03*
X11487598Y-15790417D03*
X12299875Y-17618040D03*
X13112152Y-19445663D03*
X13924429Y-21273286D03*
X14736706Y-23100909D03*
%TD*%
D11*
%TO.C,SW7*%
X50725000Y23950000D03*
X62275000Y21750000D03*
%TD*%
%TO.C,SW13*%
X78725000Y-50000D03*
X90275000Y-2250000D03*
%TD*%
%TO.C,SW4*%
X32725000Y5950000D03*
X44275000Y3750000D03*
%TD*%
D10*
%TO.C,D4*%
X37750000Y-4700000D03*
X34200000Y-4700000D03*
%TD*%
%TO.C,D14*%
X93750000Y6300000D03*
X90200000Y6300000D03*
%TD*%
%TO.C,D2*%
X19750000Y12300000D03*
X16200000Y12300000D03*
%TD*%
D11*
%TO.C,SW12*%
X78725000Y52950000D03*
X90275000Y50750000D03*
%TD*%
%TO.C,SW5*%
X32725000Y22950000D03*
X44275000Y20750000D03*
%TD*%
D10*
%TO.C,D8*%
X55750000Y30300000D03*
X52200000Y30300000D03*
%TD*%
D11*
%TO.C,SW14*%
X88725000Y16950000D03*
X100275000Y14750000D03*
%TD*%
%TO.C,SW15*%
X98725000Y33950000D03*
X110275000Y31750000D03*
%TD*%
D13*
%TO.C,DS6*%
X91400000Y38950000D03*
X94600000Y38950000D03*
X94600000Y34050000D03*
X91400000Y34050000D03*
%TD*%
%TO.C,DS5*%
X79400000Y11200000D03*
X82600000Y11200000D03*
X82600000Y6300000D03*
X79400000Y6300000D03*
%TD*%
D14*
%TO.C,DS3*%
X57450000Y1600000D03*
X57450000Y-1600000D03*
X52550000Y-1600000D03*
X52550000Y1600000D03*
%TD*%
D13*
%TO.C,DS1*%
X28600000Y27300000D03*
X25400000Y27300000D03*
X25400000Y32200000D03*
X28600000Y32200000D03*
%TD*%
%TO.C,DS7*%
X64600000Y45300000D03*
X61400000Y45300000D03*
X61400000Y50200000D03*
X64600000Y50200000D03*
%TD*%
%TO.C,DS2*%
X28600000Y-6700000D03*
X25400000Y-6700000D03*
X25400000Y-1800000D03*
X28600000Y-1800000D03*
%TD*%
M02*
