%TF.GenerationSoftware,KiCad,Pcbnew,(6.0.7)*%
%TF.CreationDate,2022-09-08T03:04:32-04:00*%
%TF.ProjectId,right_main_routed,72696768-745f-46d6-9169-6e5f726f7574,v1.0.0*%
%TF.SameCoordinates,Original*%
%TF.FileFunction,Profile,NP*%
%FSLAX46Y46*%
G04 Gerber Fmt 4.6, Leading zero omitted, Abs format (unit mm)*
G04 Created by KiCad (PCBNEW (6.0.7)) date 2022-09-08 03:04:32*
%MOMM*%
%LPD*%
G01*
G04 APERTURE LIST*
%TA.AperFunction,Profile*%
%ADD10C,0.150000*%
%TD*%
%TA.AperFunction,Profile*%
%ADD11C,0.050000*%
%TD*%
G04 APERTURE END LIST*
D10*
X12000000Y61500000D02*
X62027153Y61500000D01*
X105689685Y39722462D02*
X101975689Y41105605D01*
X8999999Y56358899D02*
G75*
G03*
X9400000Y54615339I4000001J1D01*
G01*
X8200001Y47715142D02*
G75*
G03*
X7000000Y44858572I2799999J-2856572D01*
G01*
X85280539Y-15000033D02*
G75*
G03*
X93899881Y-10070201I-39J10000033D01*
G01*
X13358291Y-25030079D02*
G75*
G03*
X14018291Y-25283904I456909J203079D01*
G01*
X9000000Y56358899D02*
X9000000Y58500000D01*
X28525162Y-29000002D02*
G75*
G03*
X35981723Y-25663310I-2J10000002D01*
G01*
X112138567Y29246909D02*
G75*
G03*
X105689685Y39722462I-9938867J1104291D01*
G01*
X93899882Y-10070201D02*
X109916497Y17158046D01*
X96708982Y45647787D02*
G75*
G03*
X101975689Y41105605I8756718J4829013D01*
G01*
X60836005Y-8918003D02*
G75*
G03*
X48907309Y-11198964I-4472135J-8944277D01*
G01*
X6047823Y-8581460D02*
X13358315Y-25030068D01*
X12000000Y61500000D02*
G75*
G03*
X9000000Y58500000I0J-3000000D01*
G01*
X63954607Y61312495D02*
G75*
G03*
X62027153Y61500000I-1927407J-9812395D01*
G01*
X14018290Y-25283904D02*
X16065482Y-24374041D01*
X8200000Y47715143D02*
G75*
G03*
X9400000Y54615339I-4200000J4284857D01*
G01*
X60836005Y-8918003D02*
X70888544Y-13944272D01*
X96708950Y45647770D02*
X93252424Y51915605D01*
X111235992Y21123932D02*
X112138546Y29246911D01*
X8247423Y-7056701D02*
X6301660Y-7921485D01*
X75360680Y-15000000D02*
X85280539Y-15000000D01*
X16065482Y-24374041D02*
G75*
G03*
X24498731Y-29000000I8433248J5374041D01*
G01*
X6301671Y-7921510D02*
G75*
G03*
X6047824Y-8581459I203029J-456890D01*
G01*
X7000001Y-2127855D02*
G75*
G03*
X7861885Y-6189240I9999989J-5D01*
G01*
X109916508Y17158039D02*
G75*
G03*
X111235992Y21123932I-8619308J5070161D01*
G01*
X70888548Y-13944264D02*
G75*
G03*
X75360680Y-15000000I4472152J8944264D01*
G01*
X86423161Y56899022D02*
X63954606Y61312488D01*
X7861885Y-6189241D02*
X8247423Y-7056701D01*
X24498731Y-29000000D02*
X28525162Y-29000000D01*
X93252434Y51915611D02*
G75*
G03*
X86423161Y56899022I-8756734J-4829111D01*
G01*
X7000000Y-2127855D02*
X7000000Y44858572D01*
X35981723Y-25663310D02*
X48907308Y-11198965D01*
D11*
%TO.C,S1*%
X19400000Y-9500000D02*
X19400000Y-11300000D01*
X33300000Y-9200000D02*
X19700000Y-9200000D01*
X33600000Y-11300000D02*
X33600000Y-9500000D01*
X19700000Y-11600000D02*
X33300000Y-11600000D01*
X33600000Y-9500000D02*
G75*
G03*
X33300000Y-9200000I-300000J0D01*
G01*
X19700000Y-9200000D02*
G75*
G03*
X19400000Y-9500000I0J-300000D01*
G01*
X19400000Y-11300000D02*
G75*
G03*
X19700000Y-11600000I300000J0D01*
G01*
X33300000Y-11600000D02*
G75*
G03*
X33600000Y-11300000I0J300000D01*
G01*
%TD*%
M02*
