M48
; DRILL file {KiCad (6.0.6)} date Thu 28 Jul 2022 10:41:50 PM PDT
; FORMAT={-:-/ absolute / metric / decimal}
; #@! TF.CreationDate,2022-07-28T22:41:50-07:00
; #@! TF.GenerationSoftware,Kicad,Pcbnew,(6.0.6)
; #@! TF.FileFunction,Plated,1,2,PTH
FMAT,2
METRIC
; #@! TA.AperFunction,Plated,PTH,ComponentDrill
T1C0.300
; #@! TA.AperFunction,Plated,PTH,ViaDrill
T2C0.400
; #@! TA.AperFunction,Plated,PTH,ComponentDrill
T3C0.400
; #@! TA.AperFunction,Plated,PTH,ViaDrill
T4C0.600
; #@! TA.AperFunction,Plated,PTH,ComponentDrill
T5C0.813
; #@! TA.AperFunction,Plated,PTH,ComponentDrill
T6C0.900
; #@! TA.AperFunction,Plated,PTH,ComponentDrill
T7C1.000
; #@! TA.AperFunction,Plated,PTH,ComponentDrill
T8C1.092
; #@! TA.AperFunction,Plated,PTH,ComponentDrill
T9C2.300
%
G90
G05
T1
X8.238Y-8.48
X9.051Y-10.308
X9.863Y-12.135
X10.675Y-13.963
X11.488Y-15.79
X12.3Y-17.618
X13.112Y-19.446
X13.924Y-21.273
X14.737Y-23.101
T2
X10.4Y10.7
X13.474Y50.589
X15.274Y-10.962
X16.039Y-11.686
X35.9Y31.1
X41.924Y-4.503
X42.014Y-6.1
X42.381Y-3.257
X55.25Y-1.75
X59.5Y1.5
T3
X25.5Y15.0
X25.94Y16.06
X25.94Y13.94
X27.0Y16.5
X27.0Y13.5
X28.06Y16.06
X28.06Y13.94
X28.5Y15.0
X34.5Y-8.5
X34.94Y-7.44
X34.94Y-9.56
X36.0Y-7.0
X36.0Y-10.0
X37.06Y-7.44
X37.06Y-9.56
X37.5Y-8.5
X44.5Y43.5
X44.94Y44.56
X44.94Y42.44
X46.0Y45.0
X46.0Y42.0
X47.06Y44.56
X47.06Y42.44
X47.5Y43.5
X70.5Y4.5
X70.94Y5.56
X70.94Y3.44
X71.5Y41.5
X71.94Y42.56
X71.94Y40.44
X72.0Y6.0
X72.0Y3.0
X73.0Y43.0
X73.0Y40.0
X73.06Y5.56
X73.06Y3.44
X73.5Y4.5
X74.06Y42.56
X74.06Y40.44
X74.5Y41.5
X90.5Y24.5
X90.94Y25.56
X90.94Y23.44
X92.0Y26.0
X92.0Y23.0
X93.06Y25.56
X93.06Y23.44
X93.5Y24.5
T4
X9.9Y1.3
X10.0Y48.3
X27.1Y-4.7
X28.2Y29.7
X50.6Y2.3
X55.0Y3.1
X64.3Y47.5
X79.3Y9.3
X91.6Y37.2
T5
X15.0Y29.3
X15.0Y12.3
X15.0Y-4.7
X21.0Y29.3
X21.0Y12.3
X21.0Y-4.7
X33.0Y29.3
X33.0Y12.3
X33.0Y-4.7
X39.0Y29.3
X39.0Y12.3
X39.0Y-4.7
X51.0Y47.3
X51.0Y30.3
X51.0Y13.3
X57.0Y47.3
X57.0Y30.3
X57.0Y13.3
X69.0Y8.3
X74.0Y25.3
X75.0Y8.3
X79.0Y42.3
X79.0Y-10.7
X80.0Y25.3
X85.0Y42.3
X85.0Y-10.7
X89.0Y6.3
X95.0Y6.3
X99.0Y23.3
X105.0Y23.3
T6
X19.8Y-24.0
X19.8Y-25.85
X22.19Y-24.625
X24.73Y-24.625
X27.27Y-24.625
X29.81Y-24.625
T7
X21.0Y52.0
X23.54Y52.0
X26.08Y52.0
X28.62Y52.0
T8
X14.03Y59.62
X14.03Y44.38
X16.57Y59.62
X16.57Y44.38
X19.11Y59.62
X19.11Y44.38
X21.65Y59.62
X21.65Y44.38
X24.19Y59.62
X24.19Y44.38
X26.73Y59.62
X26.73Y44.38
X29.27Y59.62
X29.27Y44.38
X31.81Y59.62
X31.81Y44.38
X34.35Y59.62
X34.35Y44.38
X36.89Y59.62
X36.89Y44.38
X39.43Y59.62
X39.43Y44.38
X41.97Y59.62
X41.97Y44.38
T9
X27.0Y15.0
X36.0Y-8.5
X46.0Y43.5
X72.0Y4.5
X73.0Y41.5
X92.0Y24.5
T6
X66.7Y47.1G85X66.7Y46.5
G05
X71.3Y55.2G85X71.3Y54.6
G05
X71.3Y52.2G85X71.3Y51.6
G05
X71.3Y48.2G85X71.3Y47.6
G05
T0
M30
