%TF.GenerationSoftware,KiCad,Pcbnew,(6.0.7)*%
%TF.CreationDate,2022-09-08T03:04:32-04:00*%
%TF.ProjectId,right_main_routed,72696768-745f-46d6-9169-6e5f726f7574,v1.0.0*%
%TF.SameCoordinates,Original*%
%TF.FileFunction,Legend,Top*%
%TF.FilePolarity,Positive*%
%FSLAX46Y46*%
G04 Gerber Fmt 4.6, Leading zero omitted, Abs format (unit mm)*
G04 Created by KiCad (PCBNEW (6.0.7)) date 2022-09-08 03:04:32*
%MOMM*%
%LPD*%
G01*
G04 APERTURE LIST*
%ADD10C,0.150000*%
%ADD11C,0.200000*%
%ADD12C,0.120000*%
%ADD13R,1.752600X1.752600*%
%ADD14C,1.752600*%
G04 APERTURE END LIST*
D10*
%TO.C,J7*%
X34232380Y49671009D02*
X34348495Y49632304D01*
X34542019Y49632304D01*
X34619428Y49671009D01*
X34658133Y49709714D01*
X34696838Y49787123D01*
X34696838Y49864533D01*
X34658133Y49941942D01*
X34619428Y49980647D01*
X34542019Y50019352D01*
X34387200Y50058057D01*
X34309790Y50096761D01*
X34271085Y50135466D01*
X34232380Y50212876D01*
X34232380Y50290285D01*
X34271085Y50367695D01*
X34309790Y50406400D01*
X34387200Y50445104D01*
X34580723Y50445104D01*
X34696838Y50406400D01*
X35509638Y49709714D02*
X35470933Y49671009D01*
X35354819Y49632304D01*
X35277409Y49632304D01*
X35161295Y49671009D01*
X35083885Y49748419D01*
X35045180Y49825828D01*
X35006476Y49980647D01*
X35006476Y50096761D01*
X35045180Y50251580D01*
X35083885Y50328990D01*
X35161295Y50406400D01*
X35277409Y50445104D01*
X35354819Y50445104D01*
X35470933Y50406400D01*
X35509638Y50367695D01*
X36245028Y49632304D02*
X35857980Y49632304D01*
X35857980Y50445104D01*
%TO.C,RST1*%
X14452380Y50976190D02*
X13976190Y50642857D01*
X14452380Y50404761D02*
X13452380Y50404761D01*
X13452380Y50785714D01*
X13500000Y50880952D01*
X13547619Y50928571D01*
X13642857Y50976190D01*
X13785714Y50976190D01*
X13880952Y50928571D01*
X13928571Y50880952D01*
X13976190Y50785714D01*
X13976190Y50404761D01*
X14404761Y51357142D02*
X14452380Y51500000D01*
X14452380Y51738095D01*
X14404761Y51833333D01*
X14357142Y51880952D01*
X14261904Y51928571D01*
X14166666Y51928571D01*
X14071428Y51880952D01*
X14023809Y51833333D01*
X13976190Y51738095D01*
X13928571Y51547619D01*
X13880952Y51452380D01*
X13833333Y51404761D01*
X13738095Y51357142D01*
X13642857Y51357142D01*
X13547619Y51404761D01*
X13500000Y51452380D01*
X13452380Y51547619D01*
X13452380Y51785714D01*
X13500000Y51928571D01*
X13452380Y52214285D02*
X13452380Y52785714D01*
X14452380Y52500000D02*
X13452380Y52500000D01*
X14452380Y53642857D02*
X14452380Y53071428D01*
X14452380Y53357142D02*
X13452380Y53357142D01*
X13595238Y53261904D01*
X13690476Y53166666D01*
X13738095Y53071428D01*
%TO.C,J5*%
X34222819Y53571009D02*
X34338933Y53532304D01*
X34532457Y53532304D01*
X34609866Y53571009D01*
X34648571Y53609714D01*
X34687276Y53687123D01*
X34687276Y53764533D01*
X34648571Y53841942D01*
X34609866Y53880647D01*
X34532457Y53919352D01*
X34377638Y53958057D01*
X34300228Y53996761D01*
X34261523Y54035466D01*
X34222819Y54112876D01*
X34222819Y54190285D01*
X34261523Y54267695D01*
X34300228Y54306400D01*
X34377638Y54345104D01*
X34571161Y54345104D01*
X34687276Y54306400D01*
X35035619Y53958057D02*
X35306552Y53958057D01*
X35422666Y53532304D02*
X35035619Y53532304D01*
X35035619Y54345104D01*
X35422666Y54345104D01*
X36235466Y53532304D02*
X35964533Y53919352D01*
X35771009Y53532304D02*
X35771009Y54345104D01*
X36080647Y54345104D01*
X36158057Y54306400D01*
X36196761Y54267695D01*
X36235466Y54190285D01*
X36235466Y54074171D01*
X36196761Y53996761D01*
X36158057Y53958057D01*
X36080647Y53919352D01*
X35771009Y53919352D01*
X36583809Y53532304D02*
X36583809Y54345104D01*
X36932152Y53764533D02*
X37319200Y53764533D01*
X36854742Y53532304D02*
X37125676Y54345104D01*
X37396609Y53532304D01*
X38054590Y53532304D02*
X37667542Y53532304D01*
X37667542Y54345104D01*
%TO.C,J3*%
X18122380Y51666666D02*
X18836666Y51666666D01*
X18979523Y51619047D01*
X19074761Y51523809D01*
X19122380Y51380952D01*
X19122380Y51285714D01*
X18122380Y52047619D02*
X18122380Y52666666D01*
X18503333Y52333333D01*
X18503333Y52476190D01*
X18550952Y52571428D01*
X18598571Y52619047D01*
X18693809Y52666666D01*
X18931904Y52666666D01*
X19027142Y52619047D01*
X19074761Y52571428D01*
X19122380Y52476190D01*
X19122380Y52190476D01*
X19074761Y52095238D01*
X19027142Y52047619D01*
D11*
%TO.C,S1*%
X19023809Y-22009523D02*
X19061904Y-21895238D01*
X19061904Y-21704761D01*
X19023809Y-21628571D01*
X18985714Y-21590476D01*
X18909523Y-21552380D01*
X18833333Y-21552380D01*
X18757142Y-21590476D01*
X18719047Y-21628571D01*
X18680952Y-21704761D01*
X18642857Y-21857142D01*
X18604761Y-21933333D01*
X18566666Y-21971428D01*
X18490476Y-22009523D01*
X18414285Y-22009523D01*
X18338095Y-21971428D01*
X18300000Y-21933333D01*
X18261904Y-21857142D01*
X18261904Y-21666666D01*
X18300000Y-21552380D01*
X19061904Y-20790476D02*
X19061904Y-21247619D01*
X19061904Y-21019047D02*
X18261904Y-21019047D01*
X18376190Y-21095238D01*
X18452380Y-21171428D01*
X18490476Y-21247619D01*
D10*
%TO.C,J6*%
X34222666Y51671009D02*
X34338780Y51632304D01*
X34532304Y51632304D01*
X34609714Y51671009D01*
X34648419Y51709714D01*
X34687123Y51787123D01*
X34687123Y51864533D01*
X34648419Y51941942D01*
X34609714Y51980647D01*
X34532304Y52019352D01*
X34377485Y52058057D01*
X34300076Y52096761D01*
X34261371Y52135466D01*
X34222666Y52212876D01*
X34222666Y52290285D01*
X34261371Y52367695D01*
X34300076Y52406400D01*
X34377485Y52445104D01*
X34571009Y52445104D01*
X34687123Y52406400D01*
X35035466Y51632304D02*
X35035466Y52445104D01*
X35228990Y52445104D01*
X35345104Y52406400D01*
X35422514Y52328990D01*
X35461219Y52251580D01*
X35499923Y52096761D01*
X35499923Y51980647D01*
X35461219Y51825828D01*
X35422514Y51748419D01*
X35345104Y51671009D01*
X35228990Y51632304D01*
X35035466Y51632304D01*
X35809561Y51864533D02*
X36196609Y51864533D01*
X35732152Y51632304D02*
X36003085Y52445104D01*
X36274019Y51632304D01*
%TO.C,U1*%
X14391904Y55828571D02*
X13591904Y55828571D01*
X13591904Y56133333D01*
X13630000Y56209523D01*
X13668095Y56247619D01*
X13744285Y56285714D01*
X13858571Y56285714D01*
X13934761Y56247619D01*
X13972857Y56209523D01*
X14010952Y56133333D01*
X14010952Y55828571D01*
X13591904Y56780952D02*
X13591904Y56857142D01*
X13630000Y56933333D01*
X13668095Y56971428D01*
X13744285Y57009523D01*
X13896666Y57047619D01*
X14087142Y57047619D01*
X14239523Y57009523D01*
X14315714Y56971428D01*
X14353809Y56933333D01*
X14391904Y56857142D01*
X14391904Y56780952D01*
X14353809Y56704761D01*
X14315714Y56666666D01*
X14239523Y56628571D01*
X14087142Y56590476D01*
X13896666Y56590476D01*
X13744285Y56628571D01*
X13668095Y56666666D01*
X13630000Y56704761D01*
X13591904Y56780952D01*
X14391904Y57809523D02*
X14391904Y57352380D01*
X14391904Y57580952D02*
X13591904Y57580952D01*
X13706190Y57504761D01*
X13782380Y57428571D01*
X13820476Y57352380D01*
X24551904Y46228571D02*
X23751904Y46228571D01*
X23751904Y46533333D01*
X23790000Y46609523D01*
X23828095Y46647619D01*
X23904285Y46685714D01*
X24018571Y46685714D01*
X24094761Y46647619D01*
X24132857Y46609523D01*
X24170952Y46533333D01*
X24170952Y46228571D01*
X23828095Y46990476D02*
X23790000Y47028571D01*
X23751904Y47104761D01*
X23751904Y47295238D01*
X23790000Y47371428D01*
X23828095Y47409523D01*
X23904285Y47447619D01*
X23980476Y47447619D01*
X24094761Y47409523D01*
X24551904Y46952380D01*
X24551904Y47447619D01*
X24551904Y48209523D02*
X24551904Y47752380D01*
X24551904Y47980952D02*
X23751904Y47980952D01*
X23866190Y47904761D01*
X23942380Y47828571D01*
X23980476Y47752380D01*
X42331904Y46228571D02*
X41531904Y46228571D01*
X41531904Y46533333D01*
X41570000Y46609523D01*
X41608095Y46647619D01*
X41684285Y46685714D01*
X41798571Y46685714D01*
X41874761Y46647619D01*
X41912857Y46609523D01*
X41950952Y46533333D01*
X41950952Y46228571D01*
X42331904Y47447619D02*
X42331904Y46990476D01*
X42331904Y47219047D02*
X41531904Y47219047D01*
X41646190Y47142857D01*
X41722380Y47066666D01*
X41760476Y46990476D01*
X41531904Y47942857D02*
X41531904Y48019047D01*
X41570000Y48095238D01*
X41608095Y48133333D01*
X41684285Y48171428D01*
X41836666Y48209523D01*
X42027142Y48209523D01*
X42179523Y48171428D01*
X42255714Y48133333D01*
X42293809Y48095238D01*
X42331904Y48019047D01*
X42331904Y47942857D01*
X42293809Y47866666D01*
X42255714Y47828571D01*
X42179523Y47790476D01*
X42027142Y47752380D01*
X41836666Y47752380D01*
X41684285Y47790476D01*
X41608095Y47828571D01*
X41570000Y47866666D01*
X41531904Y47942857D01*
X21250000Y56190476D02*
X21211904Y56114285D01*
X21211904Y56000000D01*
X21250000Y55885714D01*
X21326190Y55809523D01*
X21402380Y55771428D01*
X21554761Y55733333D01*
X21669047Y55733333D01*
X21821428Y55771428D01*
X21897619Y55809523D01*
X21973809Y55885714D01*
X22011904Y56000000D01*
X22011904Y56076190D01*
X21973809Y56190476D01*
X21935714Y56228571D01*
X21669047Y56228571D01*
X21669047Y56076190D01*
X22011904Y56571428D02*
X21211904Y56571428D01*
X22011904Y57028571D01*
X21211904Y57028571D01*
X22011904Y57409523D02*
X21211904Y57409523D01*
X21211904Y57600000D01*
X21250000Y57714285D01*
X21326190Y57790476D01*
X21402380Y57828571D01*
X21554761Y57866666D01*
X21669047Y57866666D01*
X21821428Y57828571D01*
X21897619Y57790476D01*
X21973809Y57714285D01*
X22011904Y57600000D01*
X22011904Y57409523D01*
X27091904Y46228571D02*
X26291904Y46228571D01*
X26291904Y46533333D01*
X26330000Y46609523D01*
X26368095Y46647619D01*
X26444285Y46685714D01*
X26558571Y46685714D01*
X26634761Y46647619D01*
X26672857Y46609523D01*
X26710952Y46533333D01*
X26710952Y46228571D01*
X26368095Y46990476D02*
X26330000Y47028571D01*
X26291904Y47104761D01*
X26291904Y47295238D01*
X26330000Y47371428D01*
X26368095Y47409523D01*
X26444285Y47447619D01*
X26520476Y47447619D01*
X26634761Y47409523D01*
X27091904Y46952380D01*
X27091904Y47447619D01*
X26291904Y47942857D02*
X26291904Y48019047D01*
X26330000Y48095238D01*
X26368095Y48133333D01*
X26444285Y48171428D01*
X26596666Y48209523D01*
X26787142Y48209523D01*
X26939523Y48171428D01*
X27015714Y48133333D01*
X27053809Y48095238D01*
X27091904Y48019047D01*
X27091904Y47942857D01*
X27053809Y47866666D01*
X27015714Y47828571D01*
X26939523Y47790476D01*
X26787142Y47752380D01*
X26596666Y47752380D01*
X26444285Y47790476D01*
X26368095Y47828571D01*
X26330000Y47866666D01*
X26291904Y47942857D01*
X21211904Y46133333D02*
X22011904Y46400000D01*
X21211904Y46666666D01*
X21935714Y47390476D02*
X21973809Y47352380D01*
X22011904Y47238095D01*
X22011904Y47161904D01*
X21973809Y47047619D01*
X21897619Y46971428D01*
X21821428Y46933333D01*
X21669047Y46895238D01*
X21554761Y46895238D01*
X21402380Y46933333D01*
X21326190Y46971428D01*
X21250000Y47047619D01*
X21211904Y47161904D01*
X21211904Y47238095D01*
X21250000Y47352380D01*
X21288095Y47390476D01*
X21935714Y48190476D02*
X21973809Y48152380D01*
X22011904Y48038095D01*
X22011904Y47961904D01*
X21973809Y47847619D01*
X21897619Y47771428D01*
X21821428Y47733333D01*
X21669047Y47695238D01*
X21554761Y47695238D01*
X21402380Y47733333D01*
X21326190Y47771428D01*
X21250000Y47847619D01*
X21211904Y47961904D01*
X21211904Y48038095D01*
X21250000Y48152380D01*
X21288095Y48190476D01*
X34711904Y46228571D02*
X33911904Y46228571D01*
X33911904Y46533333D01*
X33950000Y46609523D01*
X33988095Y46647619D01*
X34064285Y46685714D01*
X34178571Y46685714D01*
X34254761Y46647619D01*
X34292857Y46609523D01*
X34330952Y46533333D01*
X34330952Y46228571D01*
X34711904Y47447619D02*
X34711904Y46990476D01*
X34711904Y47219047D02*
X33911904Y47219047D01*
X34026190Y47142857D01*
X34102380Y47066666D01*
X34140476Y46990476D01*
X33911904Y48171428D02*
X33911904Y47790476D01*
X34292857Y47752380D01*
X34254761Y47790476D01*
X34216666Y47866666D01*
X34216666Y48057142D01*
X34254761Y48133333D01*
X34292857Y48171428D01*
X34369047Y48209523D01*
X34559523Y48209523D01*
X34635714Y48171428D01*
X34673809Y48133333D01*
X34711904Y48057142D01*
X34711904Y47866666D01*
X34673809Y47790476D01*
X34635714Y47752380D01*
X32171904Y46228571D02*
X31371904Y46228571D01*
X31371904Y46533333D01*
X31410000Y46609523D01*
X31448095Y46647619D01*
X31524285Y46685714D01*
X31638571Y46685714D01*
X31714761Y46647619D01*
X31752857Y46609523D01*
X31790952Y46533333D01*
X31790952Y46228571D01*
X32171904Y47447619D02*
X32171904Y46990476D01*
X32171904Y47219047D02*
X31371904Y47219047D01*
X31486190Y47142857D01*
X31562380Y47066666D01*
X31600476Y46990476D01*
X31714761Y47904761D02*
X31676666Y47828571D01*
X31638571Y47790476D01*
X31562380Y47752380D01*
X31524285Y47752380D01*
X31448095Y47790476D01*
X31410000Y47828571D01*
X31371904Y47904761D01*
X31371904Y48057142D01*
X31410000Y48133333D01*
X31448095Y48171428D01*
X31524285Y48209523D01*
X31562380Y48209523D01*
X31638571Y48171428D01*
X31676666Y48133333D01*
X31714761Y48057142D01*
X31714761Y47904761D01*
X31752857Y47828571D01*
X31790952Y47790476D01*
X31867142Y47752380D01*
X32019523Y47752380D01*
X32095714Y47790476D01*
X32133809Y47828571D01*
X32171904Y47904761D01*
X32171904Y48057142D01*
X32133809Y48133333D01*
X32095714Y48171428D01*
X32019523Y48209523D01*
X31867142Y48209523D01*
X31790952Y48171428D01*
X31752857Y48133333D01*
X31714761Y48057142D01*
X16931904Y55828571D02*
X16131904Y55828571D01*
X16131904Y56133333D01*
X16170000Y56209523D01*
X16208095Y56247619D01*
X16284285Y56285714D01*
X16398571Y56285714D01*
X16474761Y56247619D01*
X16512857Y56209523D01*
X16550952Y56133333D01*
X16550952Y55828571D01*
X16131904Y56780952D02*
X16131904Y56857142D01*
X16170000Y56933333D01*
X16208095Y56971428D01*
X16284285Y57009523D01*
X16436666Y57047619D01*
X16627142Y57047619D01*
X16779523Y57009523D01*
X16855714Y56971428D01*
X16893809Y56933333D01*
X16931904Y56857142D01*
X16931904Y56780952D01*
X16893809Y56704761D01*
X16855714Y56666666D01*
X16779523Y56628571D01*
X16627142Y56590476D01*
X16436666Y56590476D01*
X16284285Y56628571D01*
X16208095Y56666666D01*
X16170000Y56704761D01*
X16131904Y56780952D01*
X16131904Y57542857D02*
X16131904Y57619047D01*
X16170000Y57695238D01*
X16208095Y57733333D01*
X16284285Y57771428D01*
X16436666Y57809523D01*
X16627142Y57809523D01*
X16779523Y57771428D01*
X16855714Y57733333D01*
X16893809Y57695238D01*
X16931904Y57619047D01*
X16931904Y57542857D01*
X16893809Y57466666D01*
X16855714Y57428571D01*
X16779523Y57390476D01*
X16627142Y57352380D01*
X16436666Y57352380D01*
X16284285Y57390476D01*
X16208095Y57428571D01*
X16170000Y57466666D01*
X16131904Y57542857D01*
X32171904Y55828571D02*
X31371904Y55828571D01*
X31371904Y56133333D01*
X31410000Y56209523D01*
X31448095Y56247619D01*
X31524285Y56285714D01*
X31638571Y56285714D01*
X31714761Y56247619D01*
X31752857Y56209523D01*
X31790952Y56133333D01*
X31790952Y55828571D01*
X31371904Y56780952D02*
X31371904Y56857142D01*
X31410000Y56933333D01*
X31448095Y56971428D01*
X31524285Y57009523D01*
X31676666Y57047619D01*
X31867142Y57047619D01*
X32019523Y57009523D01*
X32095714Y56971428D01*
X32133809Y56933333D01*
X32171904Y56857142D01*
X32171904Y56780952D01*
X32133809Y56704761D01*
X32095714Y56666666D01*
X32019523Y56628571D01*
X31867142Y56590476D01*
X31676666Y56590476D01*
X31524285Y56628571D01*
X31448095Y56666666D01*
X31410000Y56704761D01*
X31371904Y56780952D01*
X31371904Y57771428D02*
X31371904Y57390476D01*
X31752857Y57352380D01*
X31714761Y57390476D01*
X31676666Y57466666D01*
X31676666Y57657142D01*
X31714761Y57733333D01*
X31752857Y57771428D01*
X31829047Y57809523D01*
X32019523Y57809523D01*
X32095714Y57771428D01*
X32133809Y57733333D01*
X32171904Y57657142D01*
X32171904Y57466666D01*
X32133809Y57390476D01*
X32095714Y57352380D01*
X14391904Y46647619D02*
X14010952Y46380952D01*
X14391904Y46190476D02*
X13591904Y46190476D01*
X13591904Y46495238D01*
X13630000Y46571428D01*
X13668095Y46609523D01*
X13744285Y46647619D01*
X13858571Y46647619D01*
X13934761Y46609523D01*
X13972857Y46571428D01*
X14010952Y46495238D01*
X14010952Y46190476D01*
X14163333Y46952380D02*
X14163333Y47333333D01*
X14391904Y46876190D02*
X13591904Y47142857D01*
X14391904Y47409523D01*
X13591904Y47600000D02*
X14391904Y47790476D01*
X13820476Y47942857D01*
X14391904Y48095238D01*
X13591904Y48285714D01*
X34711904Y55828571D02*
X33911904Y55828571D01*
X33911904Y56133333D01*
X33950000Y56209523D01*
X33988095Y56247619D01*
X34064285Y56285714D01*
X34178571Y56285714D01*
X34254761Y56247619D01*
X34292857Y56209523D01*
X34330952Y56133333D01*
X34330952Y55828571D01*
X33911904Y56780952D02*
X33911904Y56857142D01*
X33950000Y56933333D01*
X33988095Y56971428D01*
X34064285Y57009523D01*
X34216666Y57047619D01*
X34407142Y57047619D01*
X34559523Y57009523D01*
X34635714Y56971428D01*
X34673809Y56933333D01*
X34711904Y56857142D01*
X34711904Y56780952D01*
X34673809Y56704761D01*
X34635714Y56666666D01*
X34559523Y56628571D01*
X34407142Y56590476D01*
X34216666Y56590476D01*
X34064285Y56628571D01*
X33988095Y56666666D01*
X33950000Y56704761D01*
X33911904Y56780952D01*
X33911904Y57733333D02*
X33911904Y57580952D01*
X33950000Y57504761D01*
X33988095Y57466666D01*
X34102380Y57390476D01*
X34254761Y57352380D01*
X34559523Y57352380D01*
X34635714Y57390476D01*
X34673809Y57428571D01*
X34711904Y57504761D01*
X34711904Y57657142D01*
X34673809Y57733333D01*
X34635714Y57771428D01*
X34559523Y57809523D01*
X34369047Y57809523D01*
X34292857Y57771428D01*
X34254761Y57733333D01*
X34216666Y57657142D01*
X34216666Y57504761D01*
X34254761Y57428571D01*
X34292857Y57390476D01*
X34369047Y57352380D01*
X18710000Y56190476D02*
X18671904Y56114285D01*
X18671904Y56000000D01*
X18710000Y55885714D01*
X18786190Y55809523D01*
X18862380Y55771428D01*
X19014761Y55733333D01*
X19129047Y55733333D01*
X19281428Y55771428D01*
X19357619Y55809523D01*
X19433809Y55885714D01*
X19471904Y56000000D01*
X19471904Y56076190D01*
X19433809Y56190476D01*
X19395714Y56228571D01*
X19129047Y56228571D01*
X19129047Y56076190D01*
X19471904Y56571428D02*
X18671904Y56571428D01*
X19471904Y57028571D01*
X18671904Y57028571D01*
X19471904Y57409523D02*
X18671904Y57409523D01*
X18671904Y57600000D01*
X18710000Y57714285D01*
X18786190Y57790476D01*
X18862380Y57828571D01*
X19014761Y57866666D01*
X19129047Y57866666D01*
X19281428Y57828571D01*
X19357619Y57790476D01*
X19433809Y57714285D01*
X19471904Y57600000D01*
X19471904Y57409523D01*
X29631904Y46228571D02*
X28831904Y46228571D01*
X28831904Y46533333D01*
X28870000Y46609523D01*
X28908095Y46647619D01*
X28984285Y46685714D01*
X29098571Y46685714D01*
X29174761Y46647619D01*
X29212857Y46609523D01*
X29250952Y46533333D01*
X29250952Y46228571D01*
X29631904Y47447619D02*
X29631904Y46990476D01*
X29631904Y47219047D02*
X28831904Y47219047D01*
X28946190Y47142857D01*
X29022380Y47066666D01*
X29060476Y46990476D01*
X29631904Y47828571D02*
X29631904Y47980952D01*
X29593809Y48057142D01*
X29555714Y48095238D01*
X29441428Y48171428D01*
X29289047Y48209523D01*
X28984285Y48209523D01*
X28908095Y48171428D01*
X28870000Y48133333D01*
X28831904Y48057142D01*
X28831904Y47904761D01*
X28870000Y47828571D01*
X28908095Y47790476D01*
X28984285Y47752380D01*
X29174761Y47752380D01*
X29250952Y47790476D01*
X29289047Y47828571D01*
X29327142Y47904761D01*
X29327142Y48057142D01*
X29289047Y48133333D01*
X29250952Y48171428D01*
X29174761Y48209523D01*
X29631904Y55828571D02*
X28831904Y55828571D01*
X28831904Y56133333D01*
X28870000Y56209523D01*
X28908095Y56247619D01*
X28984285Y56285714D01*
X29098571Y56285714D01*
X29174761Y56247619D01*
X29212857Y56209523D01*
X29250952Y56133333D01*
X29250952Y55828571D01*
X28831904Y56780952D02*
X28831904Y56857142D01*
X28870000Y56933333D01*
X28908095Y56971428D01*
X28984285Y57009523D01*
X29136666Y57047619D01*
X29327142Y57047619D01*
X29479523Y57009523D01*
X29555714Y56971428D01*
X29593809Y56933333D01*
X29631904Y56857142D01*
X29631904Y56780952D01*
X29593809Y56704761D01*
X29555714Y56666666D01*
X29479523Y56628571D01*
X29327142Y56590476D01*
X29136666Y56590476D01*
X28984285Y56628571D01*
X28908095Y56666666D01*
X28870000Y56704761D01*
X28831904Y56780952D01*
X29098571Y57733333D02*
X29631904Y57733333D01*
X28793809Y57542857D02*
X29365238Y57352380D01*
X29365238Y57847619D01*
X19471904Y46761904D02*
X19090952Y46495238D01*
X19471904Y46304761D02*
X18671904Y46304761D01*
X18671904Y46609523D01*
X18710000Y46685714D01*
X18748095Y46723809D01*
X18824285Y46761904D01*
X18938571Y46761904D01*
X19014761Y46723809D01*
X19052857Y46685714D01*
X19090952Y46609523D01*
X19090952Y46304761D01*
X19433809Y47066666D02*
X19471904Y47180952D01*
X19471904Y47371428D01*
X19433809Y47447619D01*
X19395714Y47485714D01*
X19319523Y47523809D01*
X19243333Y47523809D01*
X19167142Y47485714D01*
X19129047Y47447619D01*
X19090952Y47371428D01*
X19052857Y47219047D01*
X19014761Y47142857D01*
X18976666Y47104761D01*
X18900476Y47066666D01*
X18824285Y47066666D01*
X18748095Y47104761D01*
X18710000Y47142857D01*
X18671904Y47219047D01*
X18671904Y47409523D01*
X18710000Y47523809D01*
X18671904Y47752380D02*
X18671904Y48209523D01*
X19471904Y47980952D02*
X18671904Y47980952D01*
X37251904Y55828571D02*
X36451904Y55828571D01*
X36451904Y56133333D01*
X36490000Y56209523D01*
X36528095Y56247619D01*
X36604285Y56285714D01*
X36718571Y56285714D01*
X36794761Y56247619D01*
X36832857Y56209523D01*
X36870952Y56133333D01*
X36870952Y55828571D01*
X36451904Y56780952D02*
X36451904Y56857142D01*
X36490000Y56933333D01*
X36528095Y56971428D01*
X36604285Y57009523D01*
X36756666Y57047619D01*
X36947142Y57047619D01*
X37099523Y57009523D01*
X37175714Y56971428D01*
X37213809Y56933333D01*
X37251904Y56857142D01*
X37251904Y56780952D01*
X37213809Y56704761D01*
X37175714Y56666666D01*
X37099523Y56628571D01*
X36947142Y56590476D01*
X36756666Y56590476D01*
X36604285Y56628571D01*
X36528095Y56666666D01*
X36490000Y56704761D01*
X36451904Y56780952D01*
X36451904Y57314285D02*
X36451904Y57847619D01*
X37251904Y57504761D01*
X27091904Y55828571D02*
X26291904Y55828571D01*
X26291904Y56133333D01*
X26330000Y56209523D01*
X26368095Y56247619D01*
X26444285Y56285714D01*
X26558571Y56285714D01*
X26634761Y56247619D01*
X26672857Y56209523D01*
X26710952Y56133333D01*
X26710952Y55828571D01*
X26291904Y56780952D02*
X26291904Y56857142D01*
X26330000Y56933333D01*
X26368095Y56971428D01*
X26444285Y57009523D01*
X26596666Y57047619D01*
X26787142Y57047619D01*
X26939523Y57009523D01*
X27015714Y56971428D01*
X27053809Y56933333D01*
X27091904Y56857142D01*
X27091904Y56780952D01*
X27053809Y56704761D01*
X27015714Y56666666D01*
X26939523Y56628571D01*
X26787142Y56590476D01*
X26596666Y56590476D01*
X26444285Y56628571D01*
X26368095Y56666666D01*
X26330000Y56704761D01*
X26291904Y56780952D01*
X26291904Y57314285D02*
X26291904Y57809523D01*
X26596666Y57542857D01*
X26596666Y57657142D01*
X26634761Y57733333D01*
X26672857Y57771428D01*
X26749047Y57809523D01*
X26939523Y57809523D01*
X27015714Y57771428D01*
X27053809Y57733333D01*
X27091904Y57657142D01*
X27091904Y57428571D01*
X27053809Y57352380D01*
X27015714Y57314285D01*
X37251904Y46228571D02*
X36451904Y46228571D01*
X36451904Y46533333D01*
X36490000Y46609523D01*
X36528095Y46647619D01*
X36604285Y46685714D01*
X36718571Y46685714D01*
X36794761Y46647619D01*
X36832857Y46609523D01*
X36870952Y46533333D01*
X36870952Y46228571D01*
X37251904Y47447619D02*
X37251904Y46990476D01*
X37251904Y47219047D02*
X36451904Y47219047D01*
X36566190Y47142857D01*
X36642380Y47066666D01*
X36680476Y46990476D01*
X36718571Y48133333D02*
X37251904Y48133333D01*
X36413809Y47942857D02*
X36985238Y47752380D01*
X36985238Y48247619D01*
X39791904Y55828571D02*
X38991904Y55828571D01*
X38991904Y56133333D01*
X39030000Y56209523D01*
X39068095Y56247619D01*
X39144285Y56285714D01*
X39258571Y56285714D01*
X39334761Y56247619D01*
X39372857Y56209523D01*
X39410952Y56133333D01*
X39410952Y55828571D01*
X38991904Y56780952D02*
X38991904Y56857142D01*
X39030000Y56933333D01*
X39068095Y56971428D01*
X39144285Y57009523D01*
X39296666Y57047619D01*
X39487142Y57047619D01*
X39639523Y57009523D01*
X39715714Y56971428D01*
X39753809Y56933333D01*
X39791904Y56857142D01*
X39791904Y56780952D01*
X39753809Y56704761D01*
X39715714Y56666666D01*
X39639523Y56628571D01*
X39487142Y56590476D01*
X39296666Y56590476D01*
X39144285Y56628571D01*
X39068095Y56666666D01*
X39030000Y56704761D01*
X38991904Y56780952D01*
X39334761Y57504761D02*
X39296666Y57428571D01*
X39258571Y57390476D01*
X39182380Y57352380D01*
X39144285Y57352380D01*
X39068095Y57390476D01*
X39030000Y57428571D01*
X38991904Y57504761D01*
X38991904Y57657142D01*
X39030000Y57733333D01*
X39068095Y57771428D01*
X39144285Y57809523D01*
X39182380Y57809523D01*
X39258571Y57771428D01*
X39296666Y57733333D01*
X39334761Y57657142D01*
X39334761Y57504761D01*
X39372857Y57428571D01*
X39410952Y57390476D01*
X39487142Y57352380D01*
X39639523Y57352380D01*
X39715714Y57390476D01*
X39753809Y57428571D01*
X39791904Y57504761D01*
X39791904Y57657142D01*
X39753809Y57733333D01*
X39715714Y57771428D01*
X39639523Y57809523D01*
X39487142Y57809523D01*
X39410952Y57771428D01*
X39372857Y57733333D01*
X39334761Y57657142D01*
X16170000Y46590476D02*
X16131904Y46514285D01*
X16131904Y46400000D01*
X16170000Y46285714D01*
X16246190Y46209523D01*
X16322380Y46171428D01*
X16474761Y46133333D01*
X16589047Y46133333D01*
X16741428Y46171428D01*
X16817619Y46209523D01*
X16893809Y46285714D01*
X16931904Y46400000D01*
X16931904Y46476190D01*
X16893809Y46590476D01*
X16855714Y46628571D01*
X16589047Y46628571D01*
X16589047Y46476190D01*
X16931904Y46971428D02*
X16131904Y46971428D01*
X16931904Y47428571D01*
X16131904Y47428571D01*
X16931904Y47809523D02*
X16131904Y47809523D01*
X16131904Y48000000D01*
X16170000Y48114285D01*
X16246190Y48190476D01*
X16322380Y48228571D01*
X16474761Y48266666D01*
X16589047Y48266666D01*
X16741428Y48228571D01*
X16817619Y48190476D01*
X16893809Y48114285D01*
X16931904Y48000000D01*
X16931904Y47809523D01*
X39791904Y46228571D02*
X38991904Y46228571D01*
X38991904Y46533333D01*
X39030000Y46609523D01*
X39068095Y46647619D01*
X39144285Y46685714D01*
X39258571Y46685714D01*
X39334761Y46647619D01*
X39372857Y46609523D01*
X39410952Y46533333D01*
X39410952Y46228571D01*
X39791904Y47447619D02*
X39791904Y46990476D01*
X39791904Y47219047D02*
X38991904Y47219047D01*
X39106190Y47142857D01*
X39182380Y47066666D01*
X39220476Y46990476D01*
X38991904Y48133333D02*
X38991904Y47980952D01*
X39030000Y47904761D01*
X39068095Y47866666D01*
X39182380Y47790476D01*
X39334761Y47752380D01*
X39639523Y47752380D01*
X39715714Y47790476D01*
X39753809Y47828571D01*
X39791904Y47904761D01*
X39791904Y48057142D01*
X39753809Y48133333D01*
X39715714Y48171428D01*
X39639523Y48209523D01*
X39449047Y48209523D01*
X39372857Y48171428D01*
X39334761Y48133333D01*
X39296666Y48057142D01*
X39296666Y47904761D01*
X39334761Y47828571D01*
X39372857Y47790476D01*
X39449047Y47752380D01*
X42331904Y55828571D02*
X41531904Y55828571D01*
X41531904Y56133333D01*
X41570000Y56209523D01*
X41608095Y56247619D01*
X41684285Y56285714D01*
X41798571Y56285714D01*
X41874761Y56247619D01*
X41912857Y56209523D01*
X41950952Y56133333D01*
X41950952Y55828571D01*
X41531904Y56780952D02*
X41531904Y56857142D01*
X41570000Y56933333D01*
X41608095Y56971428D01*
X41684285Y57009523D01*
X41836666Y57047619D01*
X42027142Y57047619D01*
X42179523Y57009523D01*
X42255714Y56971428D01*
X42293809Y56933333D01*
X42331904Y56857142D01*
X42331904Y56780952D01*
X42293809Y56704761D01*
X42255714Y56666666D01*
X42179523Y56628571D01*
X42027142Y56590476D01*
X41836666Y56590476D01*
X41684285Y56628571D01*
X41608095Y56666666D01*
X41570000Y56704761D01*
X41531904Y56780952D01*
X42331904Y57428571D02*
X42331904Y57580952D01*
X42293809Y57657142D01*
X42255714Y57695238D01*
X42141428Y57771428D01*
X41989047Y57809523D01*
X41684285Y57809523D01*
X41608095Y57771428D01*
X41570000Y57733333D01*
X41531904Y57657142D01*
X41531904Y57504761D01*
X41570000Y57428571D01*
X41608095Y57390476D01*
X41684285Y57352380D01*
X41874761Y57352380D01*
X41950952Y57390476D01*
X41989047Y57428571D01*
X42027142Y57504761D01*
X42027142Y57657142D01*
X41989047Y57733333D01*
X41950952Y57771428D01*
X41874761Y57809523D01*
X24551904Y55828571D02*
X23751904Y55828571D01*
X23751904Y56133333D01*
X23790000Y56209523D01*
X23828095Y56247619D01*
X23904285Y56285714D01*
X24018571Y56285714D01*
X24094761Y56247619D01*
X24132857Y56209523D01*
X24170952Y56133333D01*
X24170952Y55828571D01*
X23751904Y56780952D02*
X23751904Y56857142D01*
X23790000Y56933333D01*
X23828095Y56971428D01*
X23904285Y57009523D01*
X24056666Y57047619D01*
X24247142Y57047619D01*
X24399523Y57009523D01*
X24475714Y56971428D01*
X24513809Y56933333D01*
X24551904Y56857142D01*
X24551904Y56780952D01*
X24513809Y56704761D01*
X24475714Y56666666D01*
X24399523Y56628571D01*
X24247142Y56590476D01*
X24056666Y56590476D01*
X23904285Y56628571D01*
X23828095Y56666666D01*
X23790000Y56704761D01*
X23751904Y56780952D01*
X23828095Y57352380D02*
X23790000Y57390476D01*
X23751904Y57466666D01*
X23751904Y57657142D01*
X23790000Y57733333D01*
X23828095Y57771428D01*
X23904285Y57809523D01*
X23980476Y57809523D01*
X24094761Y57771428D01*
X24551904Y57314285D01*
X24551904Y57809523D01*
%TO.C,DS4*%
X59435714Y-2052380D02*
X58864285Y-2052380D01*
X59150000Y-2052380D02*
X59150000Y-1052380D01*
X59054761Y-1195238D01*
X58959523Y-1290476D01*
X58864285Y-1338095D01*
%TO.C,D6*%
X35500000Y28800000D02*
X35500000Y29800000D01*
X35500000Y29800000D02*
X36400000Y29300000D01*
X36400000Y29300000D02*
X35500000Y28800000D01*
X36500000Y28800000D02*
X36500000Y29800000D01*
D12*
%TO.C,J14*%
X7795458Y-7642264D02*
G75*
G03*
X7795458Y-7642264I-250000J0D01*
G01*
D10*
%TO.C,D2*%
X18500000Y11800000D02*
X18500000Y12800000D01*
X17500000Y12800000D02*
X18400000Y12300000D01*
X17500000Y11800000D02*
X17500000Y12800000D01*
X18400000Y12300000D02*
X17500000Y11800000D01*
%TO.C,D10*%
X72400000Y8300000D02*
X71500000Y7800000D01*
X71500000Y8800000D02*
X72400000Y8300000D01*
X72500000Y7800000D02*
X72500000Y8800000D01*
X71500000Y7800000D02*
X71500000Y8800000D01*
%TO.C,D11*%
X76500000Y25800000D02*
X77400000Y25300000D01*
X76500000Y24800000D02*
X76500000Y25800000D01*
X77500000Y24800000D02*
X77500000Y25800000D01*
X77400000Y25300000D02*
X76500000Y24800000D01*
%TO.C,D9*%
X54500000Y46800000D02*
X54500000Y47800000D01*
X54400000Y47300000D02*
X53500000Y46800000D01*
X53500000Y46800000D02*
X53500000Y47800000D01*
X53500000Y47800000D02*
X54400000Y47300000D01*
%TO.C,J7*%
X34143000Y49111000D02*
X31857000Y49111000D01*
X31857000Y50889000D02*
X34143000Y50889000D01*
X31857000Y49111000D02*
X31857000Y50889000D01*
X34143000Y50889000D02*
X34143000Y49111000D01*
%TO.C,D5*%
X36500000Y11800000D02*
X36500000Y12800000D01*
X35500000Y12800000D02*
X36400000Y12300000D01*
X36400000Y12300000D02*
X35500000Y11800000D01*
X35500000Y11800000D02*
X35500000Y12800000D01*
D12*
%TO.C,RST1*%
X13050000Y53750000D02*
X13050000Y50250000D01*
X9300000Y51050000D02*
X9300000Y52950000D01*
X9950000Y50250000D02*
X9950000Y53750000D01*
X9300000Y52950000D02*
X9950000Y52950000D01*
X9950000Y51050000D02*
X9300000Y51050000D01*
D10*
%TO.C,D3*%
X18400000Y29300000D02*
X17500000Y28800000D01*
X17500000Y29800000D02*
X18400000Y29300000D01*
X18500000Y28800000D02*
X18500000Y29800000D01*
X17500000Y28800000D02*
X17500000Y29800000D01*
%TO.C,D4*%
X36500000Y-5200000D02*
X36500000Y-4200000D01*
X35500000Y-5200000D02*
X35500000Y-4200000D01*
X36400000Y-4700000D02*
X35500000Y-5200000D01*
X35500000Y-4200000D02*
X36400000Y-4700000D01*
%TO.C,J5*%
X31857000Y53111000D02*
X31857000Y54889000D01*
X34143000Y54889000D02*
X34143000Y53111000D01*
X31857000Y54889000D02*
X34143000Y54889000D01*
X34143000Y53111000D02*
X31857000Y53111000D01*
%TO.C,D13*%
X81500000Y-11200000D02*
X81500000Y-10200000D01*
X81500000Y-10200000D02*
X82400000Y-10700000D01*
X82400000Y-10700000D02*
X81500000Y-11200000D01*
X82500000Y-11200000D02*
X82500000Y-10200000D01*
%TO.C,D7*%
X54400000Y13300000D02*
X53500000Y12800000D01*
X53500000Y13800000D02*
X54400000Y13300000D01*
X54500000Y12800000D02*
X54500000Y13800000D01*
X53500000Y12800000D02*
X53500000Y13800000D01*
%TO.C,D8*%
X53500000Y29800000D02*
X53500000Y30800000D01*
X54400000Y30300000D02*
X53500000Y29800000D01*
X54500000Y29800000D02*
X54500000Y30800000D01*
X53500000Y30800000D02*
X54400000Y30300000D01*
%TO.C,D12*%
X81500000Y41800000D02*
X81500000Y42800000D01*
X81500000Y42800000D02*
X82400000Y42300000D01*
X82500000Y41800000D02*
X82500000Y42800000D01*
X82400000Y42300000D02*
X81500000Y41800000D01*
%TO.C,D15*%
X101500000Y22800000D02*
X101500000Y23800000D01*
X102500000Y22800000D02*
X102500000Y23800000D01*
X102400000Y23300000D02*
X101500000Y22800000D01*
X101500000Y23800000D02*
X102400000Y23300000D01*
D12*
%TO.C,J3*%
X21000000Y50670000D02*
X19670000Y50670000D01*
X22270000Y53330000D02*
X29950000Y53330000D01*
X19670000Y50670000D02*
X19670000Y52000000D01*
X22270000Y50670000D02*
X29950000Y50670000D01*
X22270000Y50670000D02*
X22270000Y53330000D01*
X29950000Y50670000D02*
X29950000Y53330000D01*
D11*
%TO.C,S1*%
X33500000Y-27500000D02*
X33500000Y-12100000D01*
X31500000Y-27500000D02*
X33500000Y-27500000D01*
X19500000Y-12100000D02*
X19500000Y-23000000D01*
X19500000Y-26900000D02*
X19500000Y-27500000D01*
X19500000Y-27500000D02*
X21500000Y-27500000D01*
D10*
%TO.C,D1*%
X18400000Y-4700000D02*
X17500000Y-5200000D01*
X17500000Y-4200000D02*
X18400000Y-4700000D01*
X18500000Y-5200000D02*
X18500000Y-4200000D01*
X17500000Y-5200000D02*
X17500000Y-4200000D01*
%TO.C,J6*%
X34143000Y52889000D02*
X34143000Y51111000D01*
X31857000Y52889000D02*
X34143000Y52889000D01*
X34143000Y51111000D02*
X31857000Y51111000D01*
X31857000Y51111000D02*
X31857000Y52889000D01*
%TO.C,U1*%
X43240000Y60890000D02*
X10220000Y60890000D01*
X12760000Y45650000D02*
X15300000Y45650000D01*
X10220000Y60890000D02*
X10220000Y43110000D01*
X15300000Y45650000D02*
X15300000Y43110000D01*
X10220000Y43110000D02*
X43240000Y43110000D01*
X12760000Y45650000D02*
X12760000Y43110000D01*
X43240000Y43110000D02*
X43240000Y60890000D01*
%TO.C,D14*%
X91500000Y5800000D02*
X91500000Y6800000D01*
X92400000Y6300000D02*
X91500000Y5800000D01*
X92500000Y5800000D02*
X92500000Y6800000D01*
X91500000Y6800000D02*
X92400000Y6300000D01*
D12*
%TO.C,DS4*%
X58650000Y-2750000D02*
X51350000Y-2750000D01*
X58650000Y2750000D02*
X51350000Y2750000D01*
X51350000Y2750000D02*
X51350000Y1600000D01*
%TD*%
D13*
%TO.C,U1*%
X14030000Y44380000D03*
D14*
X16570000Y44380000D03*
X19110000Y44380000D03*
X21650000Y44380000D03*
X24190000Y44380000D03*
X26730000Y44380000D03*
X29270000Y44380000D03*
X31810000Y44380000D03*
X34350000Y44380000D03*
X36890000Y44380000D03*
X39430000Y44380000D03*
X41970000Y44380000D03*
X14030000Y59620000D03*
X16570000Y59620000D03*
X19110000Y59620000D03*
X21650000Y59620000D03*
X24190000Y59620000D03*
X26730000Y59620000D03*
X29270000Y59620000D03*
X31810000Y59620000D03*
X34350000Y59620000D03*
X36890000Y59620000D03*
X39430000Y59620000D03*
X41970000Y59620000D03*
%TD*%
M02*
