%TF.GenerationSoftware,KiCad,Pcbnew,(6.0.7)*%
%TF.CreationDate,2022-09-08T03:04:32-04:00*%
%TF.ProjectId,right_main_routed,72696768-745f-46d6-9169-6e5f726f7574,v1.0.0*%
%TF.SameCoordinates,Original*%
%TF.FileFunction,Legend,Bot*%
%TF.FilePolarity,Positive*%
%FSLAX46Y46*%
G04 Gerber Fmt 4.6, Leading zero omitted, Abs format (unit mm)*
G04 Created by KiCad (PCBNEW (6.0.7)) date 2022-09-08 03:04:32*
%MOMM*%
%LPD*%
G01*
G04 APERTURE LIST*
%ADD10C,0.125000*%
%ADD11C,0.150000*%
%ADD12C,0.120000*%
%ADD13R,1.752600X1.752600*%
%ADD14C,1.752600*%
G04 APERTURE END LIST*
D10*
X21666666Y54073809D02*
X21500000Y53573809D01*
X21333333Y54073809D01*
X20880952Y53621428D02*
X20904761Y53597619D01*
X20976190Y53573809D01*
X21023809Y53573809D01*
X21095238Y53597619D01*
X21142857Y53645238D01*
X21166666Y53692857D01*
X21190476Y53788095D01*
X21190476Y53859523D01*
X21166666Y53954761D01*
X21142857Y54002380D01*
X21095238Y54050000D01*
X21023809Y54073809D01*
X20976190Y54073809D01*
X20904761Y54050000D01*
X20880952Y54026190D01*
X20380952Y53621428D02*
X20404761Y53597619D01*
X20476190Y53573809D01*
X20523809Y53573809D01*
X20595238Y53597619D01*
X20642857Y53645238D01*
X20666666Y53692857D01*
X20690476Y53788095D01*
X20690476Y53859523D01*
X20666666Y53954761D01*
X20642857Y54002380D01*
X20595238Y54050000D01*
X20523809Y54073809D01*
X20476190Y54073809D01*
X20404761Y54050000D01*
X20380952Y54026190D01*
X26707142Y53597619D02*
X26635714Y53573809D01*
X26516666Y53573809D01*
X26469047Y53597619D01*
X26445238Y53621428D01*
X26421428Y53669047D01*
X26421428Y53716666D01*
X26445238Y53764285D01*
X26469047Y53788095D01*
X26516666Y53811904D01*
X26611904Y53835714D01*
X26659523Y53859523D01*
X26683333Y53883333D01*
X26707142Y53930952D01*
X26707142Y53978571D01*
X26683333Y54026190D01*
X26659523Y54050000D01*
X26611904Y54073809D01*
X26492857Y54073809D01*
X26421428Y54050000D01*
X26207142Y53573809D02*
X26207142Y54073809D01*
X26088095Y54073809D01*
X26016666Y54050000D01*
X25969047Y54002380D01*
X25945238Y53954761D01*
X25921428Y53859523D01*
X25921428Y53788095D01*
X25945238Y53692857D01*
X25969047Y53645238D01*
X26016666Y53597619D01*
X26088095Y53573809D01*
X26207142Y53573809D01*
X25730952Y53716666D02*
X25492857Y53716666D01*
X25778571Y53573809D02*
X25611904Y54073809D01*
X25445238Y53573809D01*
X23980952Y54050000D02*
X24028571Y54073809D01*
X24100000Y54073809D01*
X24171428Y54050000D01*
X24219047Y54002380D01*
X24242857Y53954761D01*
X24266666Y53859523D01*
X24266666Y53788095D01*
X24242857Y53692857D01*
X24219047Y53645238D01*
X24171428Y53597619D01*
X24100000Y53573809D01*
X24052380Y53573809D01*
X23980952Y53597619D01*
X23957142Y53621428D01*
X23957142Y53788095D01*
X24052380Y53788095D01*
X23742857Y53573809D02*
X23742857Y54073809D01*
X23457142Y53573809D01*
X23457142Y54073809D01*
X23219047Y53573809D02*
X23219047Y54073809D01*
X23100000Y54073809D01*
X23028571Y54050000D01*
X22980952Y54002380D01*
X22957142Y53954761D01*
X22933333Y53859523D01*
X22933333Y53788095D01*
X22957142Y53692857D01*
X22980952Y53645238D01*
X23028571Y53597619D01*
X23100000Y53573809D01*
X23219047Y53573809D01*
X29295238Y53597619D02*
X29223809Y53573809D01*
X29104761Y53573809D01*
X29057142Y53597619D01*
X29033333Y53621428D01*
X29009523Y53669047D01*
X29009523Y53716666D01*
X29033333Y53764285D01*
X29057142Y53788095D01*
X29104761Y53811904D01*
X29200000Y53835714D01*
X29247619Y53859523D01*
X29271428Y53883333D01*
X29295238Y53930952D01*
X29295238Y53978571D01*
X29271428Y54026190D01*
X29247619Y54050000D01*
X29200000Y54073809D01*
X29080952Y54073809D01*
X29009523Y54050000D01*
X28509523Y53621428D02*
X28533333Y53597619D01*
X28604761Y53573809D01*
X28652380Y53573809D01*
X28723809Y53597619D01*
X28771428Y53645238D01*
X28795238Y53692857D01*
X28819047Y53788095D01*
X28819047Y53859523D01*
X28795238Y53954761D01*
X28771428Y54002380D01*
X28723809Y54050000D01*
X28652380Y54073809D01*
X28604761Y54073809D01*
X28533333Y54050000D01*
X28509523Y54026190D01*
X28057142Y53573809D02*
X28295238Y53573809D01*
X28295238Y54073809D01*
D11*
%TO.C,U1*%
X21320000Y57359523D02*
X21281904Y57435714D01*
X21281904Y57550000D01*
X21320000Y57664285D01*
X21396190Y57740476D01*
X21472380Y57778571D01*
X21624761Y57816666D01*
X21739047Y57816666D01*
X21891428Y57778571D01*
X21967619Y57740476D01*
X22043809Y57664285D01*
X22081904Y57550000D01*
X22081904Y57473809D01*
X22043809Y57359523D01*
X22005714Y57321428D01*
X21739047Y57321428D01*
X21739047Y57473809D01*
X22081904Y56978571D02*
X21281904Y56978571D01*
X22081904Y56521428D01*
X21281904Y56521428D01*
X22081904Y56140476D02*
X21281904Y56140476D01*
X21281904Y55950000D01*
X21320000Y55835714D01*
X21396190Y55759523D01*
X21472380Y55721428D01*
X21624761Y55683333D01*
X21739047Y55683333D01*
X21891428Y55721428D01*
X21967619Y55759523D01*
X22043809Y55835714D01*
X22081904Y55950000D01*
X22081904Y56140476D01*
X16140000Y47859523D02*
X16101904Y47935714D01*
X16101904Y48050000D01*
X16140000Y48164285D01*
X16216190Y48240476D01*
X16292380Y48278571D01*
X16444761Y48316666D01*
X16559047Y48316666D01*
X16711428Y48278571D01*
X16787619Y48240476D01*
X16863809Y48164285D01*
X16901904Y48050000D01*
X16901904Y47973809D01*
X16863809Y47859523D01*
X16825714Y47821428D01*
X16559047Y47821428D01*
X16559047Y47973809D01*
X16901904Y47478571D02*
X16101904Y47478571D01*
X16901904Y47021428D01*
X16101904Y47021428D01*
X16901904Y46640476D02*
X16101904Y46640476D01*
X16101904Y46450000D01*
X16140000Y46335714D01*
X16216190Y46259523D01*
X16292380Y46221428D01*
X16444761Y46183333D01*
X16559047Y46183333D01*
X16711428Y46221428D01*
X16787619Y46259523D01*
X16863809Y46335714D01*
X16901904Y46450000D01*
X16901904Y46640476D01*
X34781904Y57721428D02*
X33981904Y57721428D01*
X33981904Y57416666D01*
X34020000Y57340476D01*
X34058095Y57302380D01*
X34134285Y57264285D01*
X34248571Y57264285D01*
X34324761Y57302380D01*
X34362857Y57340476D01*
X34400952Y57416666D01*
X34400952Y57721428D01*
X33981904Y56769047D02*
X33981904Y56692857D01*
X34020000Y56616666D01*
X34058095Y56578571D01*
X34134285Y56540476D01*
X34286666Y56502380D01*
X34477142Y56502380D01*
X34629523Y56540476D01*
X34705714Y56578571D01*
X34743809Y56616666D01*
X34781904Y56692857D01*
X34781904Y56769047D01*
X34743809Y56845238D01*
X34705714Y56883333D01*
X34629523Y56921428D01*
X34477142Y56959523D01*
X34286666Y56959523D01*
X34134285Y56921428D01*
X34058095Y56883333D01*
X34020000Y56845238D01*
X33981904Y56769047D01*
X33981904Y55816666D02*
X33981904Y55969047D01*
X34020000Y56045238D01*
X34058095Y56083333D01*
X34172380Y56159523D01*
X34324761Y56197619D01*
X34629523Y56197619D01*
X34705714Y56159523D01*
X34743809Y56121428D01*
X34781904Y56045238D01*
X34781904Y55892857D01*
X34743809Y55816666D01*
X34705714Y55778571D01*
X34629523Y55740476D01*
X34439047Y55740476D01*
X34362857Y55778571D01*
X34324761Y55816666D01*
X34286666Y55892857D01*
X34286666Y56045238D01*
X34324761Y56121428D01*
X34362857Y56159523D01*
X34439047Y56197619D01*
X27161904Y57721428D02*
X26361904Y57721428D01*
X26361904Y57416666D01*
X26400000Y57340476D01*
X26438095Y57302380D01*
X26514285Y57264285D01*
X26628571Y57264285D01*
X26704761Y57302380D01*
X26742857Y57340476D01*
X26780952Y57416666D01*
X26780952Y57721428D01*
X26361904Y56769047D02*
X26361904Y56692857D01*
X26400000Y56616666D01*
X26438095Y56578571D01*
X26514285Y56540476D01*
X26666666Y56502380D01*
X26857142Y56502380D01*
X27009523Y56540476D01*
X27085714Y56578571D01*
X27123809Y56616666D01*
X27161904Y56692857D01*
X27161904Y56769047D01*
X27123809Y56845238D01*
X27085714Y56883333D01*
X27009523Y56921428D01*
X26857142Y56959523D01*
X26666666Y56959523D01*
X26514285Y56921428D01*
X26438095Y56883333D01*
X26400000Y56845238D01*
X26361904Y56769047D01*
X26361904Y56235714D02*
X26361904Y55740476D01*
X26666666Y56007142D01*
X26666666Y55892857D01*
X26704761Y55816666D01*
X26742857Y55778571D01*
X26819047Y55740476D01*
X27009523Y55740476D01*
X27085714Y55778571D01*
X27123809Y55816666D01*
X27161904Y55892857D01*
X27161904Y56121428D01*
X27123809Y56197619D01*
X27085714Y56235714D01*
X34681904Y48221428D02*
X33881904Y48221428D01*
X33881904Y47916666D01*
X33920000Y47840476D01*
X33958095Y47802380D01*
X34034285Y47764285D01*
X34148571Y47764285D01*
X34224761Y47802380D01*
X34262857Y47840476D01*
X34300952Y47916666D01*
X34300952Y48221428D01*
X34681904Y47002380D02*
X34681904Y47459523D01*
X34681904Y47230952D02*
X33881904Y47230952D01*
X33996190Y47307142D01*
X34072380Y47383333D01*
X34110476Y47459523D01*
X33881904Y46278571D02*
X33881904Y46659523D01*
X34262857Y46697619D01*
X34224761Y46659523D01*
X34186666Y46583333D01*
X34186666Y46392857D01*
X34224761Y46316666D01*
X34262857Y46278571D01*
X34339047Y46240476D01*
X34529523Y46240476D01*
X34605714Y46278571D01*
X34643809Y46316666D01*
X34681904Y46392857D01*
X34681904Y46583333D01*
X34643809Y46659523D01*
X34605714Y46697619D01*
X42401904Y57721428D02*
X41601904Y57721428D01*
X41601904Y57416666D01*
X41640000Y57340476D01*
X41678095Y57302380D01*
X41754285Y57264285D01*
X41868571Y57264285D01*
X41944761Y57302380D01*
X41982857Y57340476D01*
X42020952Y57416666D01*
X42020952Y57721428D01*
X41601904Y56769047D02*
X41601904Y56692857D01*
X41640000Y56616666D01*
X41678095Y56578571D01*
X41754285Y56540476D01*
X41906666Y56502380D01*
X42097142Y56502380D01*
X42249523Y56540476D01*
X42325714Y56578571D01*
X42363809Y56616666D01*
X42401904Y56692857D01*
X42401904Y56769047D01*
X42363809Y56845238D01*
X42325714Y56883333D01*
X42249523Y56921428D01*
X42097142Y56959523D01*
X41906666Y56959523D01*
X41754285Y56921428D01*
X41678095Y56883333D01*
X41640000Y56845238D01*
X41601904Y56769047D01*
X42401904Y56121428D02*
X42401904Y55969047D01*
X42363809Y55892857D01*
X42325714Y55854761D01*
X42211428Y55778571D01*
X42059047Y55740476D01*
X41754285Y55740476D01*
X41678095Y55778571D01*
X41640000Y55816666D01*
X41601904Y55892857D01*
X41601904Y56045238D01*
X41640000Y56121428D01*
X41678095Y56159523D01*
X41754285Y56197619D01*
X41944761Y56197619D01*
X42020952Y56159523D01*
X42059047Y56121428D01*
X42097142Y56045238D01*
X42097142Y55892857D01*
X42059047Y55816666D01*
X42020952Y55778571D01*
X41944761Y55740476D01*
X24521904Y48221428D02*
X23721904Y48221428D01*
X23721904Y47916666D01*
X23760000Y47840476D01*
X23798095Y47802380D01*
X23874285Y47764285D01*
X23988571Y47764285D01*
X24064761Y47802380D01*
X24102857Y47840476D01*
X24140952Y47916666D01*
X24140952Y48221428D01*
X23798095Y47459523D02*
X23760000Y47421428D01*
X23721904Y47345238D01*
X23721904Y47154761D01*
X23760000Y47078571D01*
X23798095Y47040476D01*
X23874285Y47002380D01*
X23950476Y47002380D01*
X24064761Y47040476D01*
X24521904Y47497619D01*
X24521904Y47002380D01*
X24521904Y46240476D02*
X24521904Y46697619D01*
X24521904Y46469047D02*
X23721904Y46469047D01*
X23836190Y46545238D01*
X23912380Y46621428D01*
X23950476Y46697619D01*
X24621904Y57721428D02*
X23821904Y57721428D01*
X23821904Y57416666D01*
X23860000Y57340476D01*
X23898095Y57302380D01*
X23974285Y57264285D01*
X24088571Y57264285D01*
X24164761Y57302380D01*
X24202857Y57340476D01*
X24240952Y57416666D01*
X24240952Y57721428D01*
X23821904Y56769047D02*
X23821904Y56692857D01*
X23860000Y56616666D01*
X23898095Y56578571D01*
X23974285Y56540476D01*
X24126666Y56502380D01*
X24317142Y56502380D01*
X24469523Y56540476D01*
X24545714Y56578571D01*
X24583809Y56616666D01*
X24621904Y56692857D01*
X24621904Y56769047D01*
X24583809Y56845238D01*
X24545714Y56883333D01*
X24469523Y56921428D01*
X24317142Y56959523D01*
X24126666Y56959523D01*
X23974285Y56921428D01*
X23898095Y56883333D01*
X23860000Y56845238D01*
X23821904Y56769047D01*
X23898095Y56197619D02*
X23860000Y56159523D01*
X23821904Y56083333D01*
X23821904Y55892857D01*
X23860000Y55816666D01*
X23898095Y55778571D01*
X23974285Y55740476D01*
X24050476Y55740476D01*
X24164761Y55778571D01*
X24621904Y56235714D01*
X24621904Y55740476D01*
X29601904Y48221428D02*
X28801904Y48221428D01*
X28801904Y47916666D01*
X28840000Y47840476D01*
X28878095Y47802380D01*
X28954285Y47764285D01*
X29068571Y47764285D01*
X29144761Y47802380D01*
X29182857Y47840476D01*
X29220952Y47916666D01*
X29220952Y48221428D01*
X29601904Y47002380D02*
X29601904Y47459523D01*
X29601904Y47230952D02*
X28801904Y47230952D01*
X28916190Y47307142D01*
X28992380Y47383333D01*
X29030476Y47459523D01*
X29601904Y46621428D02*
X29601904Y46469047D01*
X29563809Y46392857D01*
X29525714Y46354761D01*
X29411428Y46278571D01*
X29259047Y46240476D01*
X28954285Y46240476D01*
X28878095Y46278571D01*
X28840000Y46316666D01*
X28801904Y46392857D01*
X28801904Y46545238D01*
X28840000Y46621428D01*
X28878095Y46659523D01*
X28954285Y46697619D01*
X29144761Y46697619D01*
X29220952Y46659523D01*
X29259047Y46621428D01*
X29297142Y46545238D01*
X29297142Y46392857D01*
X29259047Y46316666D01*
X29220952Y46278571D01*
X29144761Y46240476D01*
X18780000Y57359523D02*
X18741904Y57435714D01*
X18741904Y57550000D01*
X18780000Y57664285D01*
X18856190Y57740476D01*
X18932380Y57778571D01*
X19084761Y57816666D01*
X19199047Y57816666D01*
X19351428Y57778571D01*
X19427619Y57740476D01*
X19503809Y57664285D01*
X19541904Y57550000D01*
X19541904Y57473809D01*
X19503809Y57359523D01*
X19465714Y57321428D01*
X19199047Y57321428D01*
X19199047Y57473809D01*
X19541904Y56978571D02*
X18741904Y56978571D01*
X19541904Y56521428D01*
X18741904Y56521428D01*
X19541904Y56140476D02*
X18741904Y56140476D01*
X18741904Y55950000D01*
X18780000Y55835714D01*
X18856190Y55759523D01*
X18932380Y55721428D01*
X19084761Y55683333D01*
X19199047Y55683333D01*
X19351428Y55721428D01*
X19427619Y55759523D01*
X19503809Y55835714D01*
X19541904Y55950000D01*
X19541904Y56140476D01*
X39761904Y48221428D02*
X38961904Y48221428D01*
X38961904Y47916666D01*
X39000000Y47840476D01*
X39038095Y47802380D01*
X39114285Y47764285D01*
X39228571Y47764285D01*
X39304761Y47802380D01*
X39342857Y47840476D01*
X39380952Y47916666D01*
X39380952Y48221428D01*
X39761904Y47002380D02*
X39761904Y47459523D01*
X39761904Y47230952D02*
X38961904Y47230952D01*
X39076190Y47307142D01*
X39152380Y47383333D01*
X39190476Y47459523D01*
X38961904Y46316666D02*
X38961904Y46469047D01*
X39000000Y46545238D01*
X39038095Y46583333D01*
X39152380Y46659523D01*
X39304761Y46697619D01*
X39609523Y46697619D01*
X39685714Y46659523D01*
X39723809Y46621428D01*
X39761904Y46545238D01*
X39761904Y46392857D01*
X39723809Y46316666D01*
X39685714Y46278571D01*
X39609523Y46240476D01*
X39419047Y46240476D01*
X39342857Y46278571D01*
X39304761Y46316666D01*
X39266666Y46392857D01*
X39266666Y46545238D01*
X39304761Y46621428D01*
X39342857Y46659523D01*
X39419047Y46697619D01*
X37321904Y57721428D02*
X36521904Y57721428D01*
X36521904Y57416666D01*
X36560000Y57340476D01*
X36598095Y57302380D01*
X36674285Y57264285D01*
X36788571Y57264285D01*
X36864761Y57302380D01*
X36902857Y57340476D01*
X36940952Y57416666D01*
X36940952Y57721428D01*
X36521904Y56769047D02*
X36521904Y56692857D01*
X36560000Y56616666D01*
X36598095Y56578571D01*
X36674285Y56540476D01*
X36826666Y56502380D01*
X37017142Y56502380D01*
X37169523Y56540476D01*
X37245714Y56578571D01*
X37283809Y56616666D01*
X37321904Y56692857D01*
X37321904Y56769047D01*
X37283809Y56845238D01*
X37245714Y56883333D01*
X37169523Y56921428D01*
X37017142Y56959523D01*
X36826666Y56959523D01*
X36674285Y56921428D01*
X36598095Y56883333D01*
X36560000Y56845238D01*
X36521904Y56769047D01*
X36521904Y56235714D02*
X36521904Y55702380D01*
X37321904Y56045238D01*
X17001904Y57721428D02*
X16201904Y57721428D01*
X16201904Y57416666D01*
X16240000Y57340476D01*
X16278095Y57302380D01*
X16354285Y57264285D01*
X16468571Y57264285D01*
X16544761Y57302380D01*
X16582857Y57340476D01*
X16620952Y57416666D01*
X16620952Y57721428D01*
X16201904Y56769047D02*
X16201904Y56692857D01*
X16240000Y56616666D01*
X16278095Y56578571D01*
X16354285Y56540476D01*
X16506666Y56502380D01*
X16697142Y56502380D01*
X16849523Y56540476D01*
X16925714Y56578571D01*
X16963809Y56616666D01*
X17001904Y56692857D01*
X17001904Y56769047D01*
X16963809Y56845238D01*
X16925714Y56883333D01*
X16849523Y56921428D01*
X16697142Y56959523D01*
X16506666Y56959523D01*
X16354285Y56921428D01*
X16278095Y56883333D01*
X16240000Y56845238D01*
X16201904Y56769047D01*
X16201904Y56007142D02*
X16201904Y55930952D01*
X16240000Y55854761D01*
X16278095Y55816666D01*
X16354285Y55778571D01*
X16506666Y55740476D01*
X16697142Y55740476D01*
X16849523Y55778571D01*
X16925714Y55816666D01*
X16963809Y55854761D01*
X17001904Y55930952D01*
X17001904Y56007142D01*
X16963809Y56083333D01*
X16925714Y56121428D01*
X16849523Y56159523D01*
X16697142Y56197619D01*
X16506666Y56197619D01*
X16354285Y56159523D01*
X16278095Y56121428D01*
X16240000Y56083333D01*
X16201904Y56007142D01*
X21181904Y48316666D02*
X21981904Y48050000D01*
X21181904Y47783333D01*
X21905714Y47059523D02*
X21943809Y47097619D01*
X21981904Y47211904D01*
X21981904Y47288095D01*
X21943809Y47402380D01*
X21867619Y47478571D01*
X21791428Y47516666D01*
X21639047Y47554761D01*
X21524761Y47554761D01*
X21372380Y47516666D01*
X21296190Y47478571D01*
X21220000Y47402380D01*
X21181904Y47288095D01*
X21181904Y47211904D01*
X21220000Y47097619D01*
X21258095Y47059523D01*
X21905714Y46259523D02*
X21943809Y46297619D01*
X21981904Y46411904D01*
X21981904Y46488095D01*
X21943809Y46602380D01*
X21867619Y46678571D01*
X21791428Y46716666D01*
X21639047Y46754761D01*
X21524761Y46754761D01*
X21372380Y46716666D01*
X21296190Y46678571D01*
X21220000Y46602380D01*
X21181904Y46488095D01*
X21181904Y46411904D01*
X21220000Y46297619D01*
X21258095Y46259523D01*
X32241904Y57721428D02*
X31441904Y57721428D01*
X31441904Y57416666D01*
X31480000Y57340476D01*
X31518095Y57302380D01*
X31594285Y57264285D01*
X31708571Y57264285D01*
X31784761Y57302380D01*
X31822857Y57340476D01*
X31860952Y57416666D01*
X31860952Y57721428D01*
X31441904Y56769047D02*
X31441904Y56692857D01*
X31480000Y56616666D01*
X31518095Y56578571D01*
X31594285Y56540476D01*
X31746666Y56502380D01*
X31937142Y56502380D01*
X32089523Y56540476D01*
X32165714Y56578571D01*
X32203809Y56616666D01*
X32241904Y56692857D01*
X32241904Y56769047D01*
X32203809Y56845238D01*
X32165714Y56883333D01*
X32089523Y56921428D01*
X31937142Y56959523D01*
X31746666Y56959523D01*
X31594285Y56921428D01*
X31518095Y56883333D01*
X31480000Y56845238D01*
X31441904Y56769047D01*
X31441904Y55778571D02*
X31441904Y56159523D01*
X31822857Y56197619D01*
X31784761Y56159523D01*
X31746666Y56083333D01*
X31746666Y55892857D01*
X31784761Y55816666D01*
X31822857Y55778571D01*
X31899047Y55740476D01*
X32089523Y55740476D01*
X32165714Y55778571D01*
X32203809Y55816666D01*
X32241904Y55892857D01*
X32241904Y56083333D01*
X32203809Y56159523D01*
X32165714Y56197619D01*
X14361904Y47802380D02*
X13980952Y48069047D01*
X14361904Y48259523D02*
X13561904Y48259523D01*
X13561904Y47954761D01*
X13600000Y47878571D01*
X13638095Y47840476D01*
X13714285Y47802380D01*
X13828571Y47802380D01*
X13904761Y47840476D01*
X13942857Y47878571D01*
X13980952Y47954761D01*
X13980952Y48259523D01*
X14133333Y47497619D02*
X14133333Y47116666D01*
X14361904Y47573809D02*
X13561904Y47307142D01*
X14361904Y47040476D01*
X13561904Y46850000D02*
X14361904Y46659523D01*
X13790476Y46507142D01*
X14361904Y46354761D01*
X13561904Y46164285D01*
X19441904Y47688095D02*
X19060952Y47954761D01*
X19441904Y48145238D02*
X18641904Y48145238D01*
X18641904Y47840476D01*
X18680000Y47764285D01*
X18718095Y47726190D01*
X18794285Y47688095D01*
X18908571Y47688095D01*
X18984761Y47726190D01*
X19022857Y47764285D01*
X19060952Y47840476D01*
X19060952Y48145238D01*
X19403809Y47383333D02*
X19441904Y47269047D01*
X19441904Y47078571D01*
X19403809Y47002380D01*
X19365714Y46964285D01*
X19289523Y46926190D01*
X19213333Y46926190D01*
X19137142Y46964285D01*
X19099047Y47002380D01*
X19060952Y47078571D01*
X19022857Y47230952D01*
X18984761Y47307142D01*
X18946666Y47345238D01*
X18870476Y47383333D01*
X18794285Y47383333D01*
X18718095Y47345238D01*
X18680000Y47307142D01*
X18641904Y47230952D01*
X18641904Y47040476D01*
X18680000Y46926190D01*
X18641904Y46697619D02*
X18641904Y46240476D01*
X19441904Y46469047D02*
X18641904Y46469047D01*
X39861904Y57721428D02*
X39061904Y57721428D01*
X39061904Y57416666D01*
X39100000Y57340476D01*
X39138095Y57302380D01*
X39214285Y57264285D01*
X39328571Y57264285D01*
X39404761Y57302380D01*
X39442857Y57340476D01*
X39480952Y57416666D01*
X39480952Y57721428D01*
X39061904Y56769047D02*
X39061904Y56692857D01*
X39100000Y56616666D01*
X39138095Y56578571D01*
X39214285Y56540476D01*
X39366666Y56502380D01*
X39557142Y56502380D01*
X39709523Y56540476D01*
X39785714Y56578571D01*
X39823809Y56616666D01*
X39861904Y56692857D01*
X39861904Y56769047D01*
X39823809Y56845238D01*
X39785714Y56883333D01*
X39709523Y56921428D01*
X39557142Y56959523D01*
X39366666Y56959523D01*
X39214285Y56921428D01*
X39138095Y56883333D01*
X39100000Y56845238D01*
X39061904Y56769047D01*
X39404761Y56045238D02*
X39366666Y56121428D01*
X39328571Y56159523D01*
X39252380Y56197619D01*
X39214285Y56197619D01*
X39138095Y56159523D01*
X39100000Y56121428D01*
X39061904Y56045238D01*
X39061904Y55892857D01*
X39100000Y55816666D01*
X39138095Y55778571D01*
X39214285Y55740476D01*
X39252380Y55740476D01*
X39328571Y55778571D01*
X39366666Y55816666D01*
X39404761Y55892857D01*
X39404761Y56045238D01*
X39442857Y56121428D01*
X39480952Y56159523D01*
X39557142Y56197619D01*
X39709523Y56197619D01*
X39785714Y56159523D01*
X39823809Y56121428D01*
X39861904Y56045238D01*
X39861904Y55892857D01*
X39823809Y55816666D01*
X39785714Y55778571D01*
X39709523Y55740476D01*
X39557142Y55740476D01*
X39480952Y55778571D01*
X39442857Y55816666D01*
X39404761Y55892857D01*
X42301904Y48221428D02*
X41501904Y48221428D01*
X41501904Y47916666D01*
X41540000Y47840476D01*
X41578095Y47802380D01*
X41654285Y47764285D01*
X41768571Y47764285D01*
X41844761Y47802380D01*
X41882857Y47840476D01*
X41920952Y47916666D01*
X41920952Y48221428D01*
X42301904Y47002380D02*
X42301904Y47459523D01*
X42301904Y47230952D02*
X41501904Y47230952D01*
X41616190Y47307142D01*
X41692380Y47383333D01*
X41730476Y47459523D01*
X41501904Y46507142D02*
X41501904Y46430952D01*
X41540000Y46354761D01*
X41578095Y46316666D01*
X41654285Y46278571D01*
X41806666Y46240476D01*
X41997142Y46240476D01*
X42149523Y46278571D01*
X42225714Y46316666D01*
X42263809Y46354761D01*
X42301904Y46430952D01*
X42301904Y46507142D01*
X42263809Y46583333D01*
X42225714Y46621428D01*
X42149523Y46659523D01*
X41997142Y46697619D01*
X41806666Y46697619D01*
X41654285Y46659523D01*
X41578095Y46621428D01*
X41540000Y46583333D01*
X41501904Y46507142D01*
X37221904Y48221428D02*
X36421904Y48221428D01*
X36421904Y47916666D01*
X36460000Y47840476D01*
X36498095Y47802380D01*
X36574285Y47764285D01*
X36688571Y47764285D01*
X36764761Y47802380D01*
X36802857Y47840476D01*
X36840952Y47916666D01*
X36840952Y48221428D01*
X37221904Y47002380D02*
X37221904Y47459523D01*
X37221904Y47230952D02*
X36421904Y47230952D01*
X36536190Y47307142D01*
X36612380Y47383333D01*
X36650476Y47459523D01*
X36688571Y46316666D02*
X37221904Y46316666D01*
X36383809Y46507142D02*
X36955238Y46697619D01*
X36955238Y46202380D01*
X27061904Y48221428D02*
X26261904Y48221428D01*
X26261904Y47916666D01*
X26300000Y47840476D01*
X26338095Y47802380D01*
X26414285Y47764285D01*
X26528571Y47764285D01*
X26604761Y47802380D01*
X26642857Y47840476D01*
X26680952Y47916666D01*
X26680952Y48221428D01*
X26338095Y47459523D02*
X26300000Y47421428D01*
X26261904Y47345238D01*
X26261904Y47154761D01*
X26300000Y47078571D01*
X26338095Y47040476D01*
X26414285Y47002380D01*
X26490476Y47002380D01*
X26604761Y47040476D01*
X27061904Y47497619D01*
X27061904Y47002380D01*
X26261904Y46507142D02*
X26261904Y46430952D01*
X26300000Y46354761D01*
X26338095Y46316666D01*
X26414285Y46278571D01*
X26566666Y46240476D01*
X26757142Y46240476D01*
X26909523Y46278571D01*
X26985714Y46316666D01*
X27023809Y46354761D01*
X27061904Y46430952D01*
X27061904Y46507142D01*
X27023809Y46583333D01*
X26985714Y46621428D01*
X26909523Y46659523D01*
X26757142Y46697619D01*
X26566666Y46697619D01*
X26414285Y46659523D01*
X26338095Y46621428D01*
X26300000Y46583333D01*
X26261904Y46507142D01*
X32141904Y48221428D02*
X31341904Y48221428D01*
X31341904Y47916666D01*
X31380000Y47840476D01*
X31418095Y47802380D01*
X31494285Y47764285D01*
X31608571Y47764285D01*
X31684761Y47802380D01*
X31722857Y47840476D01*
X31760952Y47916666D01*
X31760952Y48221428D01*
X32141904Y47002380D02*
X32141904Y47459523D01*
X32141904Y47230952D02*
X31341904Y47230952D01*
X31456190Y47307142D01*
X31532380Y47383333D01*
X31570476Y47459523D01*
X31684761Y46545238D02*
X31646666Y46621428D01*
X31608571Y46659523D01*
X31532380Y46697619D01*
X31494285Y46697619D01*
X31418095Y46659523D01*
X31380000Y46621428D01*
X31341904Y46545238D01*
X31341904Y46392857D01*
X31380000Y46316666D01*
X31418095Y46278571D01*
X31494285Y46240476D01*
X31532380Y46240476D01*
X31608571Y46278571D01*
X31646666Y46316666D01*
X31684761Y46392857D01*
X31684761Y46545238D01*
X31722857Y46621428D01*
X31760952Y46659523D01*
X31837142Y46697619D01*
X31989523Y46697619D01*
X32065714Y46659523D01*
X32103809Y46621428D01*
X32141904Y46545238D01*
X32141904Y46392857D01*
X32103809Y46316666D01*
X32065714Y46278571D01*
X31989523Y46240476D01*
X31837142Y46240476D01*
X31760952Y46278571D01*
X31722857Y46316666D01*
X31684761Y46392857D01*
X14461904Y57721428D02*
X13661904Y57721428D01*
X13661904Y57416666D01*
X13700000Y57340476D01*
X13738095Y57302380D01*
X13814285Y57264285D01*
X13928571Y57264285D01*
X14004761Y57302380D01*
X14042857Y57340476D01*
X14080952Y57416666D01*
X14080952Y57721428D01*
X13661904Y56769047D02*
X13661904Y56692857D01*
X13700000Y56616666D01*
X13738095Y56578571D01*
X13814285Y56540476D01*
X13966666Y56502380D01*
X14157142Y56502380D01*
X14309523Y56540476D01*
X14385714Y56578571D01*
X14423809Y56616666D01*
X14461904Y56692857D01*
X14461904Y56769047D01*
X14423809Y56845238D01*
X14385714Y56883333D01*
X14309523Y56921428D01*
X14157142Y56959523D01*
X13966666Y56959523D01*
X13814285Y56921428D01*
X13738095Y56883333D01*
X13700000Y56845238D01*
X13661904Y56769047D01*
X14461904Y55740476D02*
X14461904Y56197619D01*
X14461904Y55969047D02*
X13661904Y55969047D01*
X13776190Y56045238D01*
X13852380Y56121428D01*
X13890476Y56197619D01*
X29701904Y57721428D02*
X28901904Y57721428D01*
X28901904Y57416666D01*
X28940000Y57340476D01*
X28978095Y57302380D01*
X29054285Y57264285D01*
X29168571Y57264285D01*
X29244761Y57302380D01*
X29282857Y57340476D01*
X29320952Y57416666D01*
X29320952Y57721428D01*
X28901904Y56769047D02*
X28901904Y56692857D01*
X28940000Y56616666D01*
X28978095Y56578571D01*
X29054285Y56540476D01*
X29206666Y56502380D01*
X29397142Y56502380D01*
X29549523Y56540476D01*
X29625714Y56578571D01*
X29663809Y56616666D01*
X29701904Y56692857D01*
X29701904Y56769047D01*
X29663809Y56845238D01*
X29625714Y56883333D01*
X29549523Y56921428D01*
X29397142Y56959523D01*
X29206666Y56959523D01*
X29054285Y56921428D01*
X28978095Y56883333D01*
X28940000Y56845238D01*
X28901904Y56769047D01*
X29168571Y55816666D02*
X29701904Y55816666D01*
X28863809Y56007142D02*
X29435238Y56197619D01*
X29435238Y55702380D01*
%TO.C,DS6*%
X91852380Y40364285D02*
X91852380Y40935714D01*
X91852380Y40650000D02*
X90852380Y40650000D01*
X90995238Y40745238D01*
X91090476Y40840476D01*
X91138095Y40935714D01*
%TO.C,DS2*%
X29052380Y-8685714D02*
X29052380Y-8114285D01*
X29052380Y-8400000D02*
X28052380Y-8400000D01*
X28195238Y-8304761D01*
X28290476Y-8209523D01*
X28338095Y-8114285D01*
%TO.C,DS3*%
X58864285Y1147619D02*
X59435714Y1147619D01*
X59150000Y1147619D02*
X59150000Y2147619D01*
X59245238Y2004761D01*
X59340476Y1909523D01*
X59435714Y1861904D01*
%TO.C,DS5*%
X79852380Y12614285D02*
X79852380Y13185714D01*
X79852380Y12900000D02*
X78852380Y12900000D01*
X78995238Y12995238D01*
X79090476Y13090476D01*
X79138095Y13185714D01*
%TO.C,DS7*%
X65052380Y43314285D02*
X65052380Y43885714D01*
X65052380Y43600000D02*
X64052380Y43600000D01*
X64195238Y43695238D01*
X64290476Y43790476D01*
X64338095Y43885714D01*
%TO.C,DS1*%
X29052380Y25314285D02*
X29052380Y25885714D01*
X29052380Y25600000D02*
X28052380Y25600000D01*
X28195238Y25695238D01*
X28290476Y25790476D01*
X28338095Y25885714D01*
%TO.C,D6*%
X35475000Y29800000D02*
X35475000Y28800000D01*
X35475000Y28800000D02*
X36375000Y29300000D01*
X36475000Y29800000D02*
X36475000Y28800000D01*
X36375000Y29300000D02*
X35475000Y29800000D01*
%TO.C,SW3*%
X24500000Y40000000D02*
X24500000Y35500000D01*
X21950000Y40100000D02*
X21950000Y35450000D01*
X16650000Y37625000D02*
X19225000Y37625000D01*
X16650000Y42275000D02*
X15625000Y41250000D01*
X20050000Y41600000D02*
X20050000Y37400000D01*
X24350000Y40050000D02*
X24350000Y35500000D01*
X16250000Y41850000D02*
X16250000Y38050000D01*
X23150000Y40050000D02*
X23150000Y35450000D01*
X17600000Y42250000D02*
X17600000Y37650000D01*
X22100000Y40050000D02*
X22100000Y35500000D01*
X23600000Y40050000D02*
X23600000Y35450000D01*
X16550000Y42150000D02*
X16550000Y37750000D01*
X23300000Y40050000D02*
X23300000Y35450000D01*
X24650000Y39950000D02*
X24650000Y35550000D01*
X21675000Y35425000D02*
X24225000Y35425000D01*
X19700000Y42100000D02*
X19700000Y37550000D01*
X19850000Y42000000D02*
X19850000Y37500000D01*
X20750000Y40600000D02*
X20750000Y36200000D01*
X19950000Y41850000D02*
X19950000Y37450000D01*
X21800000Y40100000D02*
X21800000Y35450000D01*
X23000000Y40050000D02*
X23000000Y35450000D01*
D12*
X19750000Y37650000D02*
X22600000Y39950000D01*
D11*
X20250000Y41250000D02*
X20250000Y37100000D01*
X15650000Y38625000D02*
X15650000Y41275000D01*
X16000000Y41600000D02*
X16000000Y38350000D01*
X21050000Y40400000D02*
X21050000Y35950000D01*
X20350000Y41100000D02*
X20350000Y36950000D01*
X21650000Y40100000D02*
X21650000Y35500000D01*
X20150000Y41450000D02*
X20150000Y37300000D01*
X24050000Y40050000D02*
X24050000Y35450000D01*
X15800000Y41400000D02*
X15800000Y38550000D01*
D12*
X19750000Y42000000D02*
X19750000Y37650000D01*
D11*
X16850000Y42250000D02*
X16850000Y37650000D01*
X23900000Y40050000D02*
X23900000Y35450000D01*
X18950000Y42250000D02*
X18950000Y37650000D01*
X16100000Y41700000D02*
X16100000Y38200000D01*
X18800000Y42250000D02*
X18800000Y37650000D01*
X23450000Y40050000D02*
X23450000Y35450000D01*
X22850000Y40050000D02*
X22850000Y35450000D01*
X22550000Y40050000D02*
X22550000Y35450000D01*
X21200000Y40300000D02*
X21200000Y35850000D01*
X22700000Y40050000D02*
X22700000Y35450000D01*
X19100000Y42250000D02*
X19100000Y37700000D01*
X24950000Y39750000D02*
X24950000Y35750000D01*
X18650000Y42250000D02*
X18650000Y37650000D01*
X16650000Y42275000D02*
X19250000Y42275000D01*
X16400000Y42000000D02*
X16400000Y37900000D01*
X19250000Y42250000D02*
X19250000Y37650000D01*
X18050000Y42250000D02*
X18050000Y37650000D01*
X17750000Y42250000D02*
X17750000Y37650000D01*
X21675000Y35425000D02*
X20400000Y36450000D01*
X20600000Y40750000D02*
X20600000Y36300000D01*
X25100000Y39550000D02*
X25100000Y35950000D01*
X17900000Y42250000D02*
X17900000Y37650000D01*
X18500000Y42250000D02*
X18500000Y37650000D01*
D12*
X17050000Y42150000D02*
X17050000Y37700000D01*
D11*
X18350000Y42250000D02*
X18350000Y37650000D01*
X16650000Y37625000D02*
X15625000Y38650000D01*
D12*
X17050000Y37700000D02*
X19750000Y42000000D01*
D11*
X19550000Y42200000D02*
X19550000Y37650000D01*
X24200000Y40050000D02*
X24200000Y35450000D01*
X18200000Y42250000D02*
X18200000Y37650000D01*
X20450000Y40900000D02*
X20450000Y36450000D01*
X16700000Y42250000D02*
X16700000Y37650000D01*
X23750000Y40050000D02*
X23750000Y35450000D01*
X19400000Y42250000D02*
X19400000Y37650000D01*
D12*
X22600000Y39950000D02*
X22600000Y35450000D01*
D11*
X15900000Y41500000D02*
X15900000Y38450000D01*
X22400000Y40050000D02*
X22400000Y35450000D01*
X17300000Y42250000D02*
X17300000Y37650000D01*
X22250000Y40050000D02*
X22250000Y35450000D01*
X17000000Y42250000D02*
X17000000Y37650000D01*
X22250000Y40075000D02*
X24225000Y40075000D01*
X17450000Y42250000D02*
X17450000Y37650000D01*
X21500000Y40150000D02*
X21500000Y35600000D01*
X24800000Y39850000D02*
X24800000Y35650000D01*
X17150000Y42250000D02*
X17150000Y37650000D01*
X21350000Y40250000D02*
X21350000Y35700000D01*
X20900000Y40500000D02*
X20900000Y36100000D01*
X20112203Y41571905D02*
G75*
G03*
X19250995Y42273791I-900003J-225005D01*
G01*
X24225000Y35425000D02*
G75*
G03*
X25225000Y36425000I0J1000000D01*
G01*
X20400000Y36450000D02*
G75*
G03*
X19225000Y37625000I-1175000J0D01*
G01*
X20112199Y41571904D02*
G75*
G03*
X22250000Y40075000I2137801J778096D01*
G01*
X25225000Y39075000D02*
G75*
G03*
X24225000Y40075000I-1000000J0D01*
G01*
%TO.C,SW10*%
X76550000Y19050000D02*
X76550000Y14450000D01*
X74150000Y20450000D02*
X74150000Y16300000D01*
X75800000Y19100000D02*
X75800000Y14450000D01*
X75675000Y14425000D02*
X78225000Y14425000D01*
X70650000Y16625000D02*
X73225000Y16625000D01*
X69650000Y17625000D02*
X69650000Y20275000D01*
X76250000Y19075000D02*
X78225000Y19075000D01*
X78650000Y18950000D02*
X78650000Y14550000D01*
X77150000Y19050000D02*
X77150000Y14450000D01*
X73850000Y21000000D02*
X73850000Y16500000D01*
X77300000Y19050000D02*
X77300000Y14450000D01*
D12*
X76600000Y18950000D02*
X76600000Y14450000D01*
D11*
X75650000Y19100000D02*
X75650000Y14500000D01*
X78950000Y18750000D02*
X78950000Y14750000D01*
D12*
X73750000Y16650000D02*
X76600000Y18950000D01*
D11*
X75200000Y19300000D02*
X75200000Y14850000D01*
X71150000Y21250000D02*
X71150000Y16650000D01*
X73950000Y20850000D02*
X73950000Y16450000D01*
X78350000Y19050000D02*
X78350000Y14500000D01*
X74750000Y19600000D02*
X74750000Y15200000D01*
X75500000Y19150000D02*
X75500000Y14600000D01*
X72350000Y21250000D02*
X72350000Y16650000D01*
X78500000Y19000000D02*
X78500000Y14500000D01*
X75675000Y14425000D02*
X74400000Y15450000D01*
X76250000Y19050000D02*
X76250000Y14450000D01*
X72950000Y21250000D02*
X72950000Y16650000D01*
D12*
X73750000Y21000000D02*
X73750000Y16650000D01*
D11*
X76850000Y19050000D02*
X76850000Y14450000D01*
X74900000Y19500000D02*
X74900000Y15100000D01*
X77900000Y19050000D02*
X77900000Y14450000D01*
D12*
X71050000Y21150000D02*
X71050000Y16700000D01*
D11*
X72650000Y21250000D02*
X72650000Y16650000D01*
X70650000Y21275000D02*
X69625000Y20250000D01*
X73550000Y21200000D02*
X73550000Y16650000D01*
X70650000Y21275000D02*
X73250000Y21275000D01*
X75950000Y19100000D02*
X75950000Y14450000D01*
X69900000Y20500000D02*
X69900000Y17450000D01*
X77000000Y19050000D02*
X77000000Y14450000D01*
X70650000Y16625000D02*
X69625000Y17650000D01*
X75050000Y19400000D02*
X75050000Y14950000D01*
X73700000Y21100000D02*
X73700000Y16550000D01*
X72050000Y21250000D02*
X72050000Y16650000D01*
X76100000Y19050000D02*
X76100000Y14500000D01*
X70400000Y21000000D02*
X70400000Y16900000D01*
X70250000Y20850000D02*
X70250000Y17050000D01*
X74600000Y19750000D02*
X74600000Y15300000D01*
X71000000Y21250000D02*
X71000000Y16650000D01*
X76700000Y19050000D02*
X76700000Y14450000D01*
X77600000Y19050000D02*
X77600000Y14450000D01*
X71600000Y21250000D02*
X71600000Y16650000D01*
X71900000Y21250000D02*
X71900000Y16650000D01*
X74250000Y20250000D02*
X74250000Y16100000D01*
X79100000Y18550000D02*
X79100000Y14950000D01*
X73250000Y21250000D02*
X73250000Y16650000D01*
X73400000Y21250000D02*
X73400000Y16650000D01*
X70850000Y21250000D02*
X70850000Y16650000D01*
X74350000Y20100000D02*
X74350000Y15950000D01*
X72500000Y21250000D02*
X72500000Y16650000D01*
X77750000Y19050000D02*
X77750000Y14450000D01*
X70700000Y21250000D02*
X70700000Y16650000D01*
X70000000Y20600000D02*
X70000000Y17350000D01*
X76400000Y19050000D02*
X76400000Y14450000D01*
X71300000Y21250000D02*
X71300000Y16650000D01*
X69800000Y20400000D02*
X69800000Y17550000D01*
D12*
X71050000Y16700000D02*
X73750000Y21000000D01*
D11*
X75350000Y19250000D02*
X75350000Y14700000D01*
X74450000Y19900000D02*
X74450000Y15450000D01*
X73100000Y21250000D02*
X73100000Y16700000D01*
X72200000Y21250000D02*
X72200000Y16650000D01*
X71450000Y21250000D02*
X71450000Y16650000D01*
X74050000Y20600000D02*
X74050000Y16400000D01*
X78050000Y19050000D02*
X78050000Y14450000D01*
X72800000Y21250000D02*
X72800000Y16650000D01*
X77450000Y19050000D02*
X77450000Y14450000D01*
X78800000Y18850000D02*
X78800000Y14650000D01*
X78200000Y19050000D02*
X78200000Y14450000D01*
X70100000Y20700000D02*
X70100000Y17200000D01*
X70550000Y21150000D02*
X70550000Y16750000D01*
X71750000Y21250000D02*
X71750000Y16650000D01*
X79225000Y18075000D02*
G75*
G03*
X78225000Y19075000I-1000000J0D01*
G01*
X78225000Y14425000D02*
G75*
G03*
X79225000Y15425000I0J1000000D01*
G01*
X74400000Y15450000D02*
G75*
G03*
X73225000Y16625000I-1175000J0D01*
G01*
X74112203Y20571905D02*
G75*
G03*
X73250995Y21273791I-900003J-225005D01*
G01*
X74112199Y20571904D02*
G75*
G03*
X76250000Y19075000I2137801J778096D01*
G01*
%TO.C,SW13*%
X82800000Y2250000D02*
X82800000Y-2350000D01*
X84250000Y1250000D02*
X84250000Y-2900000D01*
X84600000Y750000D02*
X84600000Y-3700000D01*
X79800000Y1400000D02*
X79800000Y-1450000D01*
X79650000Y-1375000D02*
X79650000Y1275000D01*
X86700000Y50000D02*
X86700000Y-4550000D01*
D12*
X86600000Y-50000D02*
X86600000Y-4550000D01*
D11*
X80100000Y1700000D02*
X80100000Y-1800000D01*
X83950000Y1850000D02*
X83950000Y-2550000D01*
X83850000Y2000000D02*
X83850000Y-2500000D01*
D12*
X81050000Y-2300000D02*
X83750000Y2000000D01*
D11*
X81600000Y2250000D02*
X81600000Y-2350000D01*
X87750000Y50000D02*
X87750000Y-4550000D01*
X81150000Y2250000D02*
X81150000Y-2350000D01*
X81750000Y2250000D02*
X81750000Y-2350000D01*
X83400000Y2250000D02*
X83400000Y-2350000D01*
X83100000Y2250000D02*
X83100000Y-2300000D01*
X82350000Y2250000D02*
X82350000Y-2350000D01*
X80650000Y2275000D02*
X79625000Y1250000D01*
X86100000Y50000D02*
X86100000Y-4500000D01*
X88950000Y-250000D02*
X88950000Y-4250000D01*
X87150000Y50000D02*
X87150000Y-4550000D01*
X84050000Y1600000D02*
X84050000Y-2600000D01*
X87300000Y50000D02*
X87300000Y-4550000D01*
X81900000Y2250000D02*
X81900000Y-2350000D01*
X87600000Y50000D02*
X87600000Y-4550000D01*
X89100000Y-450000D02*
X89100000Y-4050000D01*
X80650000Y-2375000D02*
X79625000Y-1350000D01*
X85650000Y100000D02*
X85650000Y-4500000D01*
X85350000Y250000D02*
X85350000Y-4300000D01*
X86400000Y50000D02*
X86400000Y-4550000D01*
X88200000Y50000D02*
X88200000Y-4550000D01*
X81300000Y2250000D02*
X81300000Y-2350000D01*
X79900000Y1500000D02*
X79900000Y-1550000D01*
X84450000Y900000D02*
X84450000Y-3550000D01*
X87900000Y50000D02*
X87900000Y-4550000D01*
X86250000Y75000D02*
X88225000Y75000D01*
D12*
X81050000Y2150000D02*
X81050000Y-2300000D01*
D11*
X85950000Y100000D02*
X85950000Y-4550000D01*
X80250000Y1850000D02*
X80250000Y-1950000D01*
X80850000Y2250000D02*
X80850000Y-2350000D01*
X80000000Y1600000D02*
X80000000Y-1650000D01*
X85500000Y150000D02*
X85500000Y-4400000D01*
X86250000Y50000D02*
X86250000Y-4550000D01*
X86850000Y50000D02*
X86850000Y-4550000D01*
X83550000Y2200000D02*
X83550000Y-2350000D01*
X84750000Y600000D02*
X84750000Y-3800000D01*
X88350000Y50000D02*
X88350000Y-4500000D01*
X84350000Y1100000D02*
X84350000Y-3050000D01*
X82200000Y2250000D02*
X82200000Y-2350000D01*
X80650000Y-2375000D02*
X83225000Y-2375000D01*
X85200000Y300000D02*
X85200000Y-4150000D01*
X88050000Y50000D02*
X88050000Y-4550000D01*
X84900000Y500000D02*
X84900000Y-3900000D01*
X88800000Y-150000D02*
X88800000Y-4350000D01*
X81450000Y2250000D02*
X81450000Y-2350000D01*
X85800000Y100000D02*
X85800000Y-4550000D01*
X81000000Y2250000D02*
X81000000Y-2350000D01*
X85050000Y400000D02*
X85050000Y-4050000D01*
X80650000Y2275000D02*
X83250000Y2275000D01*
X83700000Y2100000D02*
X83700000Y-2450000D01*
X88650000Y-50000D02*
X88650000Y-4450000D01*
X80550000Y2150000D02*
X80550000Y-2250000D01*
X80400000Y2000000D02*
X80400000Y-2100000D01*
X80700000Y2250000D02*
X80700000Y-2350000D01*
X86550000Y50000D02*
X86550000Y-4550000D01*
X88500000Y0D02*
X88500000Y-4500000D01*
X85675000Y-4575000D02*
X88225000Y-4575000D01*
X87450000Y50000D02*
X87450000Y-4550000D01*
X84150000Y1450000D02*
X84150000Y-2700000D01*
X85675000Y-4575000D02*
X84400000Y-3550000D01*
X87000000Y50000D02*
X87000000Y-4550000D01*
X82500000Y2250000D02*
X82500000Y-2350000D01*
D12*
X83750000Y2000000D02*
X83750000Y-2350000D01*
D11*
X83250000Y2250000D02*
X83250000Y-2350000D01*
D12*
X83750000Y-2350000D02*
X86600000Y-50000D01*
D11*
X82650000Y2250000D02*
X82650000Y-2350000D01*
X82950000Y2250000D02*
X82950000Y-2350000D01*
X82050000Y2250000D02*
X82050000Y-2350000D01*
X89225000Y-925000D02*
G75*
G03*
X88225000Y75000I-1000000J0D01*
G01*
X84112203Y1571905D02*
G75*
G03*
X83250995Y2273791I-900003J-225005D01*
G01*
X84112199Y1571904D02*
G75*
G03*
X86250000Y75000I2137801J778096D01*
G01*
X84400000Y-3550000D02*
G75*
G03*
X83225000Y-2375000I-1175000J0D01*
G01*
X88225000Y-4575000D02*
G75*
G03*
X89225000Y-3575000I0J1000000D01*
G01*
D12*
%TO.C,J14*%
X7795458Y-7642264D02*
G75*
G03*
X7795458Y-7642264I-250000J0D01*
G01*
D11*
%TO.C,SW8*%
X58250000Y41075000D02*
X60225000Y41075000D01*
X55100000Y43250000D02*
X55100000Y38700000D01*
X59900000Y41050000D02*
X59900000Y36450000D01*
X51800000Y42400000D02*
X51800000Y39550000D01*
X56450000Y41900000D02*
X56450000Y37450000D01*
X54050000Y43250000D02*
X54050000Y38650000D01*
D12*
X53050000Y43150000D02*
X53050000Y38700000D01*
D11*
X60050000Y41050000D02*
X60050000Y36450000D01*
X56900000Y41500000D02*
X56900000Y37100000D01*
X56750000Y41600000D02*
X56750000Y37200000D01*
D12*
X53050000Y38700000D02*
X55750000Y43000000D01*
D11*
X52000000Y42600000D02*
X52000000Y39350000D01*
X58550000Y41050000D02*
X58550000Y36450000D01*
X53000000Y43250000D02*
X53000000Y38650000D01*
X60350000Y41050000D02*
X60350000Y36500000D01*
X55700000Y43100000D02*
X55700000Y38550000D01*
X58850000Y41050000D02*
X58850000Y36450000D01*
X59000000Y41050000D02*
X59000000Y36450000D01*
X60650000Y40950000D02*
X60650000Y36550000D01*
X57950000Y41100000D02*
X57950000Y36450000D01*
X59750000Y41050000D02*
X59750000Y36450000D01*
X52650000Y43275000D02*
X51625000Y42250000D01*
X52100000Y42700000D02*
X52100000Y39200000D01*
X59300000Y41050000D02*
X59300000Y36450000D01*
X58400000Y41050000D02*
X58400000Y36450000D01*
X51650000Y39625000D02*
X51650000Y42275000D01*
X54350000Y43250000D02*
X54350000Y38650000D01*
X57675000Y36425000D02*
X56400000Y37450000D01*
X59450000Y41050000D02*
X59450000Y36450000D01*
X57500000Y41150000D02*
X57500000Y36600000D01*
X57675000Y36425000D02*
X60225000Y36425000D01*
X52650000Y38625000D02*
X55225000Y38625000D01*
X58700000Y41050000D02*
X58700000Y36450000D01*
X59600000Y41050000D02*
X59600000Y36450000D01*
X56150000Y42450000D02*
X56150000Y38300000D01*
X57200000Y41300000D02*
X57200000Y36850000D01*
D12*
X55750000Y38650000D02*
X58600000Y40950000D01*
D11*
X52850000Y43250000D02*
X52850000Y38650000D01*
X61100000Y40550000D02*
X61100000Y36950000D01*
X55850000Y43000000D02*
X55850000Y38500000D01*
X54200000Y43250000D02*
X54200000Y38650000D01*
X53900000Y43250000D02*
X53900000Y38650000D01*
D12*
X58600000Y40950000D02*
X58600000Y36450000D01*
D11*
X53750000Y43250000D02*
X53750000Y38650000D01*
X53450000Y43250000D02*
X53450000Y38650000D01*
X54950000Y43250000D02*
X54950000Y38650000D01*
X52400000Y43000000D02*
X52400000Y38900000D01*
X60800000Y40850000D02*
X60800000Y36650000D01*
X55400000Y43250000D02*
X55400000Y38650000D01*
X54800000Y43250000D02*
X54800000Y38650000D01*
X56050000Y42600000D02*
X56050000Y38400000D01*
X59150000Y41050000D02*
X59150000Y36450000D01*
X57350000Y41250000D02*
X57350000Y36700000D01*
X60500000Y41000000D02*
X60500000Y36500000D01*
X54500000Y43250000D02*
X54500000Y38650000D01*
D12*
X55750000Y43000000D02*
X55750000Y38650000D01*
D11*
X55950000Y42850000D02*
X55950000Y38450000D01*
X55250000Y43250000D02*
X55250000Y38650000D01*
X57650000Y41100000D02*
X57650000Y36500000D01*
X53300000Y43250000D02*
X53300000Y38650000D01*
X60950000Y40750000D02*
X60950000Y36750000D01*
X58100000Y41050000D02*
X58100000Y36500000D01*
X57800000Y41100000D02*
X57800000Y36450000D01*
X56600000Y41750000D02*
X56600000Y37300000D01*
X53600000Y43250000D02*
X53600000Y38650000D01*
X52650000Y43275000D02*
X55250000Y43275000D01*
X53150000Y43250000D02*
X53150000Y38650000D01*
X54650000Y43250000D02*
X54650000Y38650000D01*
X55550000Y43200000D02*
X55550000Y38650000D01*
X56350000Y42100000D02*
X56350000Y37950000D01*
X52650000Y38625000D02*
X51625000Y39650000D01*
X56250000Y42250000D02*
X56250000Y38100000D01*
X52550000Y43150000D02*
X52550000Y38750000D01*
X51900000Y42500000D02*
X51900000Y39450000D01*
X57050000Y41400000D02*
X57050000Y36950000D01*
X60200000Y41050000D02*
X60200000Y36450000D01*
X52700000Y43250000D02*
X52700000Y38650000D01*
X52250000Y42850000D02*
X52250000Y39050000D01*
X58250000Y41050000D02*
X58250000Y36450000D01*
X61225000Y40075000D02*
G75*
G03*
X60225000Y41075000I-1000000J0D01*
G01*
X60225000Y36425000D02*
G75*
G03*
X61225000Y37425000I0J1000000D01*
G01*
X56112199Y42571904D02*
G75*
G03*
X58250000Y41075000I2137801J778096D01*
G01*
X56400000Y37450000D02*
G75*
G03*
X55225000Y38625000I-1175000J0D01*
G01*
X56112203Y42571905D02*
G75*
G03*
X55250995Y43273791I-900003J-225005D01*
G01*
%TO.C,D2*%
X17475000Y12800000D02*
X17475000Y11800000D01*
X18375000Y12300000D02*
X17475000Y12800000D01*
X17475000Y11800000D02*
X18375000Y12300000D01*
X18475000Y12800000D02*
X18475000Y11800000D01*
%TO.C,D10*%
X71475000Y8800000D02*
X71475000Y7800000D01*
X71475000Y7800000D02*
X72375000Y8300000D01*
X72475000Y8800000D02*
X72475000Y7800000D01*
X72375000Y8300000D02*
X71475000Y8800000D01*
%TO.C,D11*%
X77475000Y25800000D02*
X77475000Y24800000D01*
X76475000Y24800000D02*
X77375000Y25300000D01*
X76475000Y25800000D02*
X76475000Y24800000D01*
X77375000Y25300000D02*
X76475000Y25800000D01*
%TO.C,D9*%
X53475000Y46800000D02*
X54375000Y47300000D01*
X54375000Y47300000D02*
X53475000Y47800000D01*
X53475000Y47800000D02*
X53475000Y46800000D01*
X54475000Y47800000D02*
X54475000Y46800000D01*
%TO.C,D5*%
X35475000Y11800000D02*
X36375000Y12300000D01*
X36375000Y12300000D02*
X35475000Y12800000D01*
X35475000Y12800000D02*
X35475000Y11800000D01*
X36475000Y12800000D02*
X36475000Y11800000D01*
D12*
%TO.C,SW12*%
X83750000Y55000000D02*
X83750000Y50650000D01*
D11*
X87450000Y53050000D02*
X87450000Y48450000D01*
X80000000Y54600000D02*
X80000000Y51350000D01*
X84050000Y54600000D02*
X84050000Y50400000D01*
X87900000Y53050000D02*
X87900000Y48450000D01*
X84600000Y53750000D02*
X84600000Y49300000D01*
X87150000Y53050000D02*
X87150000Y48450000D01*
X86100000Y53050000D02*
X86100000Y48500000D01*
X86250000Y53050000D02*
X86250000Y48450000D01*
D12*
X81050000Y55150000D02*
X81050000Y50700000D01*
D11*
X79900000Y54500000D02*
X79900000Y51450000D01*
X84350000Y54100000D02*
X84350000Y49950000D01*
X81900000Y55250000D02*
X81900000Y50650000D01*
X80700000Y55250000D02*
X80700000Y50650000D01*
X85650000Y53100000D02*
X85650000Y48500000D01*
X80850000Y55250000D02*
X80850000Y50650000D01*
X85675000Y48425000D02*
X88225000Y48425000D01*
X79800000Y54400000D02*
X79800000Y51550000D01*
X80400000Y55000000D02*
X80400000Y50900000D01*
X88050000Y53050000D02*
X88050000Y48450000D01*
X88200000Y53050000D02*
X88200000Y48450000D01*
X81000000Y55250000D02*
X81000000Y50650000D01*
X80650000Y50625000D02*
X79625000Y51650000D01*
X85050000Y53400000D02*
X85050000Y48950000D01*
X81750000Y55250000D02*
X81750000Y50650000D01*
X85200000Y53300000D02*
X85200000Y48850000D01*
X83400000Y55250000D02*
X83400000Y50650000D01*
X89100000Y52550000D02*
X89100000Y48950000D01*
X80650000Y50625000D02*
X83225000Y50625000D01*
X82050000Y55250000D02*
X82050000Y50650000D01*
X83850000Y55000000D02*
X83850000Y50500000D01*
X84250000Y54250000D02*
X84250000Y50100000D01*
X88650000Y52950000D02*
X88650000Y48550000D01*
X84900000Y53500000D02*
X84900000Y49100000D01*
X82350000Y55250000D02*
X82350000Y50650000D01*
X86550000Y53050000D02*
X86550000Y48450000D01*
X80650000Y55275000D02*
X83250000Y55275000D01*
X87300000Y53050000D02*
X87300000Y48450000D01*
X85675000Y48425000D02*
X84400000Y49450000D01*
X82950000Y55250000D02*
X82950000Y50650000D01*
X83250000Y55250000D02*
X83250000Y50650000D01*
X87600000Y53050000D02*
X87600000Y48450000D01*
X84450000Y53900000D02*
X84450000Y49450000D01*
X81300000Y55250000D02*
X81300000Y50650000D01*
X82650000Y55250000D02*
X82650000Y50650000D01*
X88800000Y52850000D02*
X88800000Y48650000D01*
X83700000Y55100000D02*
X83700000Y50550000D01*
X85500000Y53150000D02*
X85500000Y48600000D01*
X86250000Y53075000D02*
X88225000Y53075000D01*
X81600000Y55250000D02*
X81600000Y50650000D01*
X81450000Y55250000D02*
X81450000Y50650000D01*
X86850000Y53050000D02*
X86850000Y48450000D01*
X80550000Y55150000D02*
X80550000Y50750000D01*
X85800000Y53100000D02*
X85800000Y48450000D01*
X80100000Y54700000D02*
X80100000Y51200000D01*
X82200000Y55250000D02*
X82200000Y50650000D01*
D12*
X83750000Y50650000D02*
X86600000Y52950000D01*
X81050000Y50700000D02*
X83750000Y55000000D01*
D11*
X84150000Y54450000D02*
X84150000Y50300000D01*
X88350000Y53050000D02*
X88350000Y48500000D01*
X88500000Y53000000D02*
X88500000Y48500000D01*
X85950000Y53100000D02*
X85950000Y48450000D01*
X86700000Y53050000D02*
X86700000Y48450000D01*
X87750000Y53050000D02*
X87750000Y48450000D01*
X87000000Y53050000D02*
X87000000Y48450000D01*
X88950000Y52750000D02*
X88950000Y48750000D01*
X86400000Y53050000D02*
X86400000Y48450000D01*
X80250000Y54850000D02*
X80250000Y51050000D01*
D12*
X86600000Y52950000D02*
X86600000Y48450000D01*
D11*
X85350000Y53250000D02*
X85350000Y48700000D01*
X83950000Y54850000D02*
X83950000Y50450000D01*
X84750000Y53600000D02*
X84750000Y49200000D01*
X81150000Y55250000D02*
X81150000Y50650000D01*
X83550000Y55200000D02*
X83550000Y50650000D01*
X83100000Y55250000D02*
X83100000Y50700000D01*
X80650000Y55275000D02*
X79625000Y54250000D01*
X79650000Y51625000D02*
X79650000Y54275000D01*
X82500000Y55250000D02*
X82500000Y50650000D01*
X82800000Y55250000D02*
X82800000Y50650000D01*
X89225000Y52075000D02*
G75*
G03*
X88225000Y53075000I-1000000J0D01*
G01*
X88225000Y48425000D02*
G75*
G03*
X89225000Y49425000I0J1000000D01*
G01*
X84112199Y54571904D02*
G75*
G03*
X86250000Y53075000I2137801J778096D01*
G01*
X84400000Y49450000D02*
G75*
G03*
X83225000Y50625000I-1175000J0D01*
G01*
X84112203Y54571905D02*
G75*
G03*
X83250995Y55273791I-900003J-225005D01*
G01*
%TO.C,D3*%
X18375000Y29300000D02*
X17475000Y29800000D01*
X17475000Y28800000D02*
X18375000Y29300000D01*
X17475000Y29800000D02*
X17475000Y28800000D01*
X18475000Y29800000D02*
X18475000Y28800000D01*
%TO.C,D4*%
X36475000Y-4200000D02*
X36475000Y-5200000D01*
X35475000Y-4200000D02*
X35475000Y-5200000D01*
X35475000Y-5200000D02*
X36375000Y-4700000D01*
X36375000Y-4700000D02*
X35475000Y-4200000D01*
%TO.C,SW2*%
X16700000Y25250000D02*
X16700000Y20650000D01*
X24800000Y22850000D02*
X24800000Y18650000D01*
X20600000Y23750000D02*
X20600000Y19300000D01*
X20250000Y24250000D02*
X20250000Y20100000D01*
X24500000Y23000000D02*
X24500000Y18500000D01*
X22550000Y23050000D02*
X22550000Y18450000D01*
X23450000Y23050000D02*
X23450000Y18450000D01*
X18350000Y25250000D02*
X18350000Y20650000D01*
X15650000Y21625000D02*
X15650000Y24275000D01*
X20750000Y23600000D02*
X20750000Y19200000D01*
X21050000Y23400000D02*
X21050000Y18950000D01*
X21950000Y23100000D02*
X21950000Y18450000D01*
X17450000Y25250000D02*
X17450000Y20650000D01*
X20050000Y24600000D02*
X20050000Y20400000D01*
X15900000Y24500000D02*
X15900000Y21450000D01*
X18050000Y25250000D02*
X18050000Y20650000D01*
X17600000Y25250000D02*
X17600000Y20650000D01*
X21675000Y18425000D02*
X24225000Y18425000D01*
X20900000Y23500000D02*
X20900000Y19100000D01*
X22850000Y23050000D02*
X22850000Y18450000D01*
X15800000Y24400000D02*
X15800000Y21550000D01*
X20450000Y23900000D02*
X20450000Y19450000D01*
X17150000Y25250000D02*
X17150000Y20650000D01*
X20350000Y24100000D02*
X20350000Y19950000D01*
X22250000Y23075000D02*
X24225000Y23075000D01*
X17300000Y25250000D02*
X17300000Y20650000D01*
X19250000Y25250000D02*
X19250000Y20650000D01*
X24950000Y22750000D02*
X24950000Y18750000D01*
X25100000Y22550000D02*
X25100000Y18950000D01*
X19950000Y24850000D02*
X19950000Y20450000D01*
X21800000Y23100000D02*
X21800000Y18450000D01*
X22700000Y23050000D02*
X22700000Y18450000D01*
X21200000Y23300000D02*
X21200000Y18850000D01*
X21650000Y23100000D02*
X21650000Y18500000D01*
X16650000Y20625000D02*
X19225000Y20625000D01*
X18500000Y25250000D02*
X18500000Y20650000D01*
X19400000Y25250000D02*
X19400000Y20650000D01*
X17900000Y25250000D02*
X17900000Y20650000D01*
D12*
X19750000Y25000000D02*
X19750000Y20650000D01*
D11*
X24050000Y23050000D02*
X24050000Y18450000D01*
X17750000Y25250000D02*
X17750000Y20650000D01*
X18650000Y25250000D02*
X18650000Y20650000D01*
X16250000Y24850000D02*
X16250000Y21050000D01*
X21500000Y23150000D02*
X21500000Y18600000D01*
X16000000Y24600000D02*
X16000000Y21350000D01*
X19850000Y25000000D02*
X19850000Y20500000D01*
X22400000Y23050000D02*
X22400000Y18450000D01*
X22250000Y23050000D02*
X22250000Y18450000D01*
X16550000Y25150000D02*
X16550000Y20750000D01*
D12*
X19750000Y20650000D02*
X22600000Y22950000D01*
D11*
X16850000Y25250000D02*
X16850000Y20650000D01*
X18200000Y25250000D02*
X18200000Y20650000D01*
X16650000Y25275000D02*
X15625000Y24250000D01*
X23000000Y23050000D02*
X23000000Y18450000D01*
X23750000Y23050000D02*
X23750000Y18450000D01*
X23300000Y23050000D02*
X23300000Y18450000D01*
X24350000Y23050000D02*
X24350000Y18500000D01*
X20150000Y24450000D02*
X20150000Y20300000D01*
X21350000Y23250000D02*
X21350000Y18700000D01*
X22100000Y23050000D02*
X22100000Y18500000D01*
X21675000Y18425000D02*
X20400000Y19450000D01*
X16400000Y25000000D02*
X16400000Y20900000D01*
X19100000Y25250000D02*
X19100000Y20700000D01*
X16650000Y25275000D02*
X19250000Y25275000D01*
X24650000Y22950000D02*
X24650000Y18550000D01*
X16650000Y20625000D02*
X15625000Y21650000D01*
X23150000Y23050000D02*
X23150000Y18450000D01*
X23900000Y23050000D02*
X23900000Y18450000D01*
X19700000Y25100000D02*
X19700000Y20550000D01*
D12*
X17050000Y25150000D02*
X17050000Y20700000D01*
X17050000Y20700000D02*
X19750000Y25000000D01*
X22600000Y22950000D02*
X22600000Y18450000D01*
D11*
X17000000Y25250000D02*
X17000000Y20650000D01*
X24200000Y23050000D02*
X24200000Y18450000D01*
X18800000Y25250000D02*
X18800000Y20650000D01*
X19550000Y25200000D02*
X19550000Y20650000D01*
X16100000Y24700000D02*
X16100000Y21200000D01*
X18950000Y25250000D02*
X18950000Y20650000D01*
X23600000Y23050000D02*
X23600000Y18450000D01*
X25225000Y22075000D02*
G75*
G03*
X24225000Y23075000I-1000000J0D01*
G01*
X20112199Y24571904D02*
G75*
G03*
X22250000Y23075000I2137801J778096D01*
G01*
X20400000Y19450000D02*
G75*
G03*
X19225000Y20625000I-1175000J0D01*
G01*
X24225000Y18425000D02*
G75*
G03*
X25225000Y19425000I0J1000000D01*
G01*
X20112203Y24571905D02*
G75*
G03*
X19250995Y25273791I-900003J-225005D01*
G01*
%TO.C,D13*%
X81475000Y-10200000D02*
X81475000Y-11200000D01*
X82475000Y-10200000D02*
X82475000Y-11200000D01*
X82375000Y-10700000D02*
X81475000Y-10200000D01*
X81475000Y-11200000D02*
X82375000Y-10700000D01*
%TO.C,D7*%
X53475000Y13800000D02*
X53475000Y12800000D01*
X54475000Y13800000D02*
X54475000Y12800000D01*
X53475000Y12800000D02*
X54375000Y13300000D01*
X54375000Y13300000D02*
X53475000Y13800000D01*
%TO.C,D8*%
X53475000Y30800000D02*
X53475000Y29800000D01*
X54475000Y30800000D02*
X54475000Y29800000D01*
X53475000Y29800000D02*
X54375000Y30300000D01*
X54375000Y30300000D02*
X53475000Y30800000D01*
%TO.C,D12*%
X82475000Y42800000D02*
X82475000Y41800000D01*
X81475000Y42800000D02*
X81475000Y41800000D01*
X81475000Y41800000D02*
X82375000Y42300000D01*
X82375000Y42300000D02*
X81475000Y42800000D01*
%TO.C,D15*%
X101475000Y22800000D02*
X102375000Y23300000D01*
X101475000Y23800000D02*
X101475000Y22800000D01*
X102475000Y23800000D02*
X102475000Y22800000D01*
X102375000Y23300000D02*
X101475000Y23800000D01*
%TO.C,SW14*%
X92950000Y19250000D02*
X92950000Y14650000D01*
X90250000Y18850000D02*
X90250000Y15050000D01*
X90700000Y19250000D02*
X90700000Y14650000D01*
X94450000Y17900000D02*
X94450000Y13450000D01*
X90550000Y19150000D02*
X90550000Y14750000D01*
X93950000Y18850000D02*
X93950000Y14450000D01*
X98800000Y16850000D02*
X98800000Y12650000D01*
X91750000Y19250000D02*
X91750000Y14650000D01*
X97450000Y17050000D02*
X97450000Y12450000D01*
X97750000Y17050000D02*
X97750000Y12450000D01*
X91600000Y19250000D02*
X91600000Y14650000D01*
X90850000Y19250000D02*
X90850000Y14650000D01*
X96550000Y17050000D02*
X96550000Y12450000D01*
X95200000Y17300000D02*
X95200000Y12850000D01*
X89900000Y18500000D02*
X89900000Y15450000D01*
X89800000Y18400000D02*
X89800000Y15550000D01*
X96400000Y17050000D02*
X96400000Y12450000D01*
X98050000Y17050000D02*
X98050000Y12450000D01*
X98350000Y17050000D02*
X98350000Y12500000D01*
D12*
X96600000Y16950000D02*
X96600000Y12450000D01*
D11*
X92800000Y19250000D02*
X92800000Y14650000D01*
X89650000Y15625000D02*
X89650000Y18275000D01*
X93550000Y19200000D02*
X93550000Y14650000D01*
X95950000Y17100000D02*
X95950000Y12450000D01*
X95800000Y17100000D02*
X95800000Y12450000D01*
X90100000Y18700000D02*
X90100000Y15200000D01*
X98200000Y17050000D02*
X98200000Y12450000D01*
X93100000Y19250000D02*
X93100000Y14700000D01*
X95675000Y12425000D02*
X98225000Y12425000D01*
X94900000Y17500000D02*
X94900000Y13100000D01*
X97600000Y17050000D02*
X97600000Y12450000D01*
X97150000Y17050000D02*
X97150000Y12450000D01*
X93700000Y19100000D02*
X93700000Y14550000D01*
X92050000Y19250000D02*
X92050000Y14650000D01*
X96700000Y17050000D02*
X96700000Y12450000D01*
X90400000Y19000000D02*
X90400000Y14900000D01*
X94750000Y17600000D02*
X94750000Y13200000D01*
D12*
X93750000Y19000000D02*
X93750000Y14650000D01*
D11*
X90000000Y18600000D02*
X90000000Y15350000D01*
X98950000Y16750000D02*
X98950000Y12750000D01*
X95650000Y17100000D02*
X95650000Y12500000D01*
X98650000Y16950000D02*
X98650000Y12550000D01*
X99100000Y16550000D02*
X99100000Y12950000D01*
X93850000Y19000000D02*
X93850000Y14500000D01*
X90650000Y19275000D02*
X89625000Y18250000D01*
X96250000Y17075000D02*
X98225000Y17075000D01*
X93250000Y19250000D02*
X93250000Y14650000D01*
X91000000Y19250000D02*
X91000000Y14650000D01*
X91300000Y19250000D02*
X91300000Y14650000D01*
X92650000Y19250000D02*
X92650000Y14650000D01*
D12*
X93750000Y14650000D02*
X96600000Y16950000D01*
D11*
X97000000Y17050000D02*
X97000000Y12450000D01*
X94050000Y18600000D02*
X94050000Y14400000D01*
X95500000Y17150000D02*
X95500000Y12600000D01*
X90650000Y14625000D02*
X89625000Y15650000D01*
X93400000Y19250000D02*
X93400000Y14650000D01*
X94600000Y17750000D02*
X94600000Y13300000D01*
X96250000Y17050000D02*
X96250000Y12450000D01*
X92350000Y19250000D02*
X92350000Y14650000D01*
X96100000Y17050000D02*
X96100000Y12500000D01*
D12*
X91050000Y19150000D02*
X91050000Y14700000D01*
D11*
X94250000Y18250000D02*
X94250000Y14100000D01*
X91900000Y19250000D02*
X91900000Y14650000D01*
X98500000Y17000000D02*
X98500000Y12500000D01*
X95050000Y17400000D02*
X95050000Y12950000D01*
X96850000Y17050000D02*
X96850000Y12450000D01*
X94350000Y18100000D02*
X94350000Y13950000D01*
X97900000Y17050000D02*
X97900000Y12450000D01*
X92200000Y19250000D02*
X92200000Y14650000D01*
X91150000Y19250000D02*
X91150000Y14650000D01*
X90650000Y19275000D02*
X93250000Y19275000D01*
D12*
X91050000Y14700000D02*
X93750000Y19000000D01*
D11*
X90650000Y14625000D02*
X93225000Y14625000D01*
X95675000Y12425000D02*
X94400000Y13450000D01*
X95350000Y17250000D02*
X95350000Y12700000D01*
X97300000Y17050000D02*
X97300000Y12450000D01*
X91450000Y19250000D02*
X91450000Y14650000D01*
X92500000Y19250000D02*
X92500000Y14650000D01*
X94150000Y18450000D02*
X94150000Y14300000D01*
X94112203Y18571905D02*
G75*
G03*
X93250995Y19273791I-900003J-225005D01*
G01*
X99225000Y16075000D02*
G75*
G03*
X98225000Y17075000I-1000000J0D01*
G01*
X94400000Y13450000D02*
G75*
G03*
X93225000Y14625000I-1175000J0D01*
G01*
X94112199Y18571904D02*
G75*
G03*
X96250000Y17075000I2137801J778096D01*
G01*
X98225000Y12425000D02*
G75*
G03*
X99225000Y13425000I0J1000000D01*
G01*
%TO.C,D1*%
X17475000Y-5200000D02*
X18375000Y-4700000D01*
X17475000Y-4200000D02*
X17475000Y-5200000D01*
X18475000Y-4200000D02*
X18475000Y-5200000D01*
X18375000Y-4700000D02*
X17475000Y-4200000D01*
%TO.C,SW5*%
X34650000Y25275000D02*
X37250000Y25275000D01*
X35600000Y25250000D02*
X35600000Y20650000D01*
X42200000Y23050000D02*
X42200000Y18450000D01*
X35450000Y25250000D02*
X35450000Y20650000D01*
X36500000Y25250000D02*
X36500000Y20650000D01*
D12*
X40600000Y22950000D02*
X40600000Y18450000D01*
D11*
X41150000Y23050000D02*
X41150000Y18450000D01*
X42650000Y22950000D02*
X42650000Y18550000D01*
X37850000Y25000000D02*
X37850000Y20500000D01*
X34100000Y24700000D02*
X34100000Y21200000D01*
D12*
X35050000Y25150000D02*
X35050000Y20700000D01*
D11*
X34000000Y24600000D02*
X34000000Y21350000D01*
X33650000Y21625000D02*
X33650000Y24275000D01*
X35150000Y25250000D02*
X35150000Y20650000D01*
X39050000Y23400000D02*
X39050000Y18950000D01*
X38750000Y23600000D02*
X38750000Y19200000D01*
X39800000Y23100000D02*
X39800000Y18450000D01*
X35900000Y25250000D02*
X35900000Y20650000D01*
X41750000Y23050000D02*
X41750000Y18450000D01*
X33900000Y24500000D02*
X33900000Y21450000D01*
X40550000Y23050000D02*
X40550000Y18450000D01*
X37100000Y25250000D02*
X37100000Y20700000D01*
X39675000Y18425000D02*
X42225000Y18425000D01*
X38050000Y24600000D02*
X38050000Y20400000D01*
X42950000Y22750000D02*
X42950000Y18750000D01*
X38450000Y23900000D02*
X38450000Y19450000D01*
X37250000Y25250000D02*
X37250000Y20650000D01*
X37950000Y24850000D02*
X37950000Y20450000D01*
X37550000Y25200000D02*
X37550000Y20650000D01*
X40700000Y23050000D02*
X40700000Y18450000D01*
X42050000Y23050000D02*
X42050000Y18450000D01*
X42500000Y23000000D02*
X42500000Y18500000D01*
X37700000Y25100000D02*
X37700000Y20550000D01*
X34700000Y25250000D02*
X34700000Y20650000D01*
X42800000Y22850000D02*
X42800000Y18650000D01*
X34400000Y25000000D02*
X34400000Y20900000D01*
D12*
X35050000Y20700000D02*
X37750000Y25000000D01*
D11*
X40250000Y23075000D02*
X42225000Y23075000D01*
X40250000Y23050000D02*
X40250000Y18450000D01*
X36050000Y25250000D02*
X36050000Y20650000D01*
X35750000Y25250000D02*
X35750000Y20650000D01*
X38600000Y23750000D02*
X38600000Y19300000D01*
X39675000Y18425000D02*
X38400000Y19450000D01*
X41450000Y23050000D02*
X41450000Y18450000D01*
X43100000Y22550000D02*
X43100000Y18950000D01*
X33800000Y24400000D02*
X33800000Y21550000D01*
X36650000Y25250000D02*
X36650000Y20650000D01*
X35000000Y25250000D02*
X35000000Y20650000D01*
X40100000Y23050000D02*
X40100000Y18500000D01*
X34550000Y25150000D02*
X34550000Y20750000D01*
X39500000Y23150000D02*
X39500000Y18600000D01*
X39650000Y23100000D02*
X39650000Y18500000D01*
X42350000Y23050000D02*
X42350000Y18500000D01*
X39350000Y23250000D02*
X39350000Y18700000D01*
X34650000Y20625000D02*
X33625000Y21650000D01*
X34650000Y20625000D02*
X37225000Y20625000D01*
X38150000Y24450000D02*
X38150000Y20300000D01*
X36350000Y25250000D02*
X36350000Y20650000D01*
X34250000Y24850000D02*
X34250000Y21050000D01*
X41900000Y23050000D02*
X41900000Y18450000D01*
X34850000Y25250000D02*
X34850000Y20650000D01*
X38350000Y24100000D02*
X38350000Y19950000D01*
X40400000Y23050000D02*
X40400000Y18450000D01*
X41600000Y23050000D02*
X41600000Y18450000D01*
D12*
X37750000Y20650000D02*
X40600000Y22950000D01*
D11*
X35300000Y25250000D02*
X35300000Y20650000D01*
X36800000Y25250000D02*
X36800000Y20650000D01*
X38250000Y24250000D02*
X38250000Y20100000D01*
X37400000Y25250000D02*
X37400000Y20650000D01*
X41300000Y23050000D02*
X41300000Y18450000D01*
X38900000Y23500000D02*
X38900000Y19100000D01*
D12*
X37750000Y25000000D02*
X37750000Y20650000D01*
D11*
X39950000Y23100000D02*
X39950000Y18450000D01*
X41000000Y23050000D02*
X41000000Y18450000D01*
X36950000Y25250000D02*
X36950000Y20650000D01*
X39200000Y23300000D02*
X39200000Y18850000D01*
X40850000Y23050000D02*
X40850000Y18450000D01*
X34650000Y25275000D02*
X33625000Y24250000D01*
X36200000Y25250000D02*
X36200000Y20650000D01*
X38112203Y24571905D02*
G75*
G03*
X37250995Y25273791I-900003J-225005D01*
G01*
X43225000Y22075000D02*
G75*
G03*
X42225000Y23075000I-1000000J0D01*
G01*
X42225000Y18425000D02*
G75*
G03*
X43225000Y19425000I0J1000000D01*
G01*
X38400000Y19450000D02*
G75*
G03*
X37225000Y20625000I-1175000J0D01*
G01*
X38112199Y24571904D02*
G75*
G03*
X40250000Y23075000I2137801J778096D01*
G01*
%TO.C,SW9*%
X57350000Y58250000D02*
X57350000Y53700000D01*
X55400000Y60250000D02*
X55400000Y55650000D01*
X54350000Y60250000D02*
X54350000Y55650000D01*
X59600000Y58050000D02*
X59600000Y53450000D01*
X52700000Y60250000D02*
X52700000Y55650000D01*
X58550000Y58050000D02*
X58550000Y53450000D01*
X56900000Y58500000D02*
X56900000Y54100000D01*
X52100000Y59700000D02*
X52100000Y56200000D01*
X52400000Y60000000D02*
X52400000Y55900000D01*
X53600000Y60250000D02*
X53600000Y55650000D01*
X54050000Y60250000D02*
X54050000Y55650000D01*
X51900000Y59500000D02*
X51900000Y56450000D01*
X57950000Y58100000D02*
X57950000Y53450000D01*
D12*
X53050000Y55700000D02*
X55750000Y60000000D01*
D11*
X59150000Y58050000D02*
X59150000Y53450000D01*
X54950000Y60250000D02*
X54950000Y55650000D01*
X52550000Y60150000D02*
X52550000Y55750000D01*
X53750000Y60250000D02*
X53750000Y55650000D01*
X55950000Y59850000D02*
X55950000Y55450000D01*
X55100000Y60250000D02*
X55100000Y55700000D01*
X60950000Y57750000D02*
X60950000Y53750000D01*
X55700000Y60100000D02*
X55700000Y55550000D01*
X60050000Y58050000D02*
X60050000Y53450000D01*
X53150000Y60250000D02*
X53150000Y55650000D01*
X57650000Y58100000D02*
X57650000Y53500000D01*
X57500000Y58150000D02*
X57500000Y53600000D01*
X52250000Y59850000D02*
X52250000Y56050000D01*
X53300000Y60250000D02*
X53300000Y55650000D01*
X52650000Y55625000D02*
X51625000Y56650000D01*
X56750000Y58600000D02*
X56750000Y54200000D01*
D12*
X58600000Y57950000D02*
X58600000Y53450000D01*
D11*
X60350000Y58050000D02*
X60350000Y53500000D01*
X52850000Y60250000D02*
X52850000Y55650000D01*
X58250000Y58050000D02*
X58250000Y53450000D01*
D12*
X55750000Y55650000D02*
X58600000Y57950000D01*
D11*
X59900000Y58050000D02*
X59900000Y53450000D01*
X56150000Y59450000D02*
X56150000Y55300000D01*
X58250000Y58075000D02*
X60225000Y58075000D01*
X58400000Y58050000D02*
X58400000Y53450000D01*
X56600000Y58750000D02*
X56600000Y54300000D01*
X61100000Y57550000D02*
X61100000Y53950000D01*
X57200000Y58300000D02*
X57200000Y53850000D01*
X59000000Y58050000D02*
X59000000Y53450000D01*
X55550000Y60200000D02*
X55550000Y55650000D01*
X53900000Y60250000D02*
X53900000Y55650000D01*
X55250000Y60250000D02*
X55250000Y55650000D01*
X54800000Y60250000D02*
X54800000Y55650000D01*
X51650000Y56625000D02*
X51650000Y59275000D01*
D12*
X55750000Y60000000D02*
X55750000Y55650000D01*
D11*
X51800000Y59400000D02*
X51800000Y56550000D01*
X52650000Y60275000D02*
X55250000Y60275000D01*
X52650000Y60275000D02*
X51625000Y59250000D01*
X56350000Y59100000D02*
X56350000Y54950000D01*
X57800000Y58100000D02*
X57800000Y53450000D01*
X52650000Y55625000D02*
X55225000Y55625000D01*
D12*
X53050000Y60150000D02*
X53050000Y55700000D01*
D11*
X60650000Y57950000D02*
X60650000Y53550000D01*
X55850000Y60000000D02*
X55850000Y55500000D01*
X54650000Y60250000D02*
X54650000Y55650000D01*
X60500000Y58000000D02*
X60500000Y53500000D01*
X52000000Y59600000D02*
X52000000Y56350000D01*
X59450000Y58050000D02*
X59450000Y53450000D01*
X54500000Y60250000D02*
X54500000Y55650000D01*
X58100000Y58050000D02*
X58100000Y53500000D01*
X60800000Y57850000D02*
X60800000Y53650000D01*
X56250000Y59250000D02*
X56250000Y55100000D01*
X53450000Y60250000D02*
X53450000Y55650000D01*
X57675000Y53425000D02*
X60225000Y53425000D01*
X54200000Y60250000D02*
X54200000Y55650000D01*
X59300000Y58050000D02*
X59300000Y53450000D01*
X57050000Y58400000D02*
X57050000Y53950000D01*
X60200000Y58050000D02*
X60200000Y53450000D01*
X53000000Y60250000D02*
X53000000Y55650000D01*
X59750000Y58050000D02*
X59750000Y53450000D01*
X56450000Y58900000D02*
X56450000Y54450000D01*
X56050000Y59600000D02*
X56050000Y55400000D01*
X58850000Y58050000D02*
X58850000Y53450000D01*
X57675000Y53425000D02*
X56400000Y54450000D01*
X58700000Y58050000D02*
X58700000Y53450000D01*
X56400000Y54450000D02*
G75*
G03*
X55225000Y55625000I-1175000J0D01*
G01*
X56112199Y59571904D02*
G75*
G03*
X58250000Y58075000I2137801J778096D01*
G01*
X61225000Y57075000D02*
G75*
G03*
X60225000Y58075000I-1000000J0D01*
G01*
X60225000Y53425000D02*
G75*
G03*
X61225000Y54425000I0J1000000D01*
G01*
X56112203Y59571905D02*
G75*
G03*
X55250995Y60273791I-900003J-225005D01*
G01*
%TO.C,SW15*%
X108050000Y34050000D02*
X108050000Y29450000D01*
X100650000Y36275000D02*
X99625000Y35250000D01*
X100650000Y31625000D02*
X103225000Y31625000D01*
X105200000Y34300000D02*
X105200000Y29850000D01*
X101450000Y36250000D02*
X101450000Y31650000D01*
X105675000Y29425000D02*
X104400000Y30450000D01*
X109100000Y33550000D02*
X109100000Y29950000D01*
X104150000Y35450000D02*
X104150000Y31300000D01*
X103700000Y36100000D02*
X103700000Y31550000D01*
X102650000Y36250000D02*
X102650000Y31650000D01*
X101750000Y36250000D02*
X101750000Y31650000D01*
X105950000Y34100000D02*
X105950000Y29450000D01*
X102500000Y36250000D02*
X102500000Y31650000D01*
D12*
X106600000Y33950000D02*
X106600000Y29450000D01*
D11*
X106250000Y34075000D02*
X108225000Y34075000D01*
D12*
X101050000Y36150000D02*
X101050000Y31700000D01*
D11*
X104900000Y34500000D02*
X104900000Y30100000D01*
X106250000Y34050000D02*
X106250000Y29450000D01*
X107750000Y34050000D02*
X107750000Y29450000D01*
X105675000Y29425000D02*
X108225000Y29425000D01*
X107300000Y34050000D02*
X107300000Y29450000D01*
X106400000Y34050000D02*
X106400000Y29450000D01*
X105350000Y34250000D02*
X105350000Y29700000D01*
X100650000Y36275000D02*
X103250000Y36275000D01*
X105650000Y34100000D02*
X105650000Y29500000D01*
X108350000Y34050000D02*
X108350000Y29500000D01*
X104750000Y34600000D02*
X104750000Y30200000D01*
D12*
X103750000Y31650000D02*
X106600000Y33950000D01*
D11*
X105800000Y34100000D02*
X105800000Y29450000D01*
X99800000Y35400000D02*
X99800000Y32550000D01*
X103250000Y36250000D02*
X103250000Y31650000D01*
X108650000Y33950000D02*
X108650000Y29550000D01*
X100550000Y36150000D02*
X100550000Y31750000D01*
X101600000Y36250000D02*
X101600000Y31650000D01*
X107450000Y34050000D02*
X107450000Y29450000D01*
X105500000Y34150000D02*
X105500000Y29600000D01*
X107900000Y34050000D02*
X107900000Y29450000D01*
X106100000Y34050000D02*
X106100000Y29500000D01*
X106850000Y34050000D02*
X106850000Y29450000D01*
X103950000Y35850000D02*
X103950000Y31450000D01*
X106700000Y34050000D02*
X106700000Y29450000D01*
X104450000Y34900000D02*
X104450000Y30450000D01*
X108800000Y33850000D02*
X108800000Y29650000D01*
X108500000Y34000000D02*
X108500000Y29500000D01*
X100100000Y35700000D02*
X100100000Y32200000D01*
X103100000Y36250000D02*
X103100000Y31700000D01*
X105050000Y34400000D02*
X105050000Y29950000D01*
X107150000Y34050000D02*
X107150000Y29450000D01*
D12*
X103750000Y36000000D02*
X103750000Y31650000D01*
X101050000Y31700000D02*
X103750000Y36000000D01*
D11*
X103400000Y36250000D02*
X103400000Y31650000D01*
X101900000Y36250000D02*
X101900000Y31650000D01*
X100650000Y31625000D02*
X99625000Y32650000D01*
X102350000Y36250000D02*
X102350000Y31650000D01*
X103550000Y36200000D02*
X103550000Y31650000D01*
X108200000Y34050000D02*
X108200000Y29450000D01*
X101150000Y36250000D02*
X101150000Y31650000D01*
X104250000Y35250000D02*
X104250000Y31100000D01*
X104050000Y35600000D02*
X104050000Y31400000D01*
X100000000Y35600000D02*
X100000000Y32350000D01*
X100700000Y36250000D02*
X100700000Y31650000D01*
X102800000Y36250000D02*
X102800000Y31650000D01*
X102050000Y36250000D02*
X102050000Y31650000D01*
X106550000Y34050000D02*
X106550000Y29450000D01*
X100850000Y36250000D02*
X100850000Y31650000D01*
X108950000Y33750000D02*
X108950000Y29750000D01*
X104600000Y34750000D02*
X104600000Y30300000D01*
X107000000Y34050000D02*
X107000000Y29450000D01*
X102950000Y36250000D02*
X102950000Y31650000D01*
X104350000Y35100000D02*
X104350000Y30950000D01*
X103850000Y36000000D02*
X103850000Y31500000D01*
X99900000Y35500000D02*
X99900000Y32450000D01*
X100250000Y35850000D02*
X100250000Y32050000D01*
X102200000Y36250000D02*
X102200000Y31650000D01*
X101300000Y36250000D02*
X101300000Y31650000D01*
X99650000Y32625000D02*
X99650000Y35275000D01*
X101000000Y36250000D02*
X101000000Y31650000D01*
X107600000Y34050000D02*
X107600000Y29450000D01*
X100400000Y36000000D02*
X100400000Y31900000D01*
X109225000Y33075000D02*
G75*
G03*
X108225000Y34075000I-1000000J0D01*
G01*
X104400000Y30450000D02*
G75*
G03*
X103225000Y31625000I-1175000J0D01*
G01*
X104112203Y35571905D02*
G75*
G03*
X103250995Y36273791I-900003J-225005D01*
G01*
X104112199Y35571904D02*
G75*
G03*
X106250000Y34075000I2137801J778096D01*
G01*
X108225000Y29425000D02*
G75*
G03*
X109225000Y30425000I0J1000000D01*
G01*
%TO.C,SW6*%
X41900000Y40050000D02*
X41900000Y35450000D01*
X39675000Y35425000D02*
X38400000Y36450000D01*
X34850000Y42250000D02*
X34850000Y37650000D01*
X42950000Y39750000D02*
X42950000Y35750000D01*
D12*
X37750000Y37650000D02*
X40600000Y39950000D01*
D11*
X37250000Y42250000D02*
X37250000Y37650000D01*
X40400000Y40050000D02*
X40400000Y35450000D01*
X36350000Y42250000D02*
X36350000Y37650000D01*
X40250000Y40050000D02*
X40250000Y35450000D01*
X38150000Y41450000D02*
X38150000Y37300000D01*
D12*
X37750000Y42000000D02*
X37750000Y37650000D01*
D11*
X34400000Y42000000D02*
X34400000Y37900000D01*
X41150000Y40050000D02*
X41150000Y35450000D01*
X34650000Y37625000D02*
X37225000Y37625000D01*
X33650000Y38625000D02*
X33650000Y41275000D01*
X36200000Y42250000D02*
X36200000Y37650000D01*
X37700000Y42100000D02*
X37700000Y37550000D01*
X41750000Y40050000D02*
X41750000Y35450000D01*
X42650000Y39950000D02*
X42650000Y35550000D01*
X38900000Y40500000D02*
X38900000Y36100000D01*
X38750000Y40600000D02*
X38750000Y36200000D01*
X40250000Y40075000D02*
X42225000Y40075000D01*
X34250000Y41850000D02*
X34250000Y38050000D01*
X34550000Y42150000D02*
X34550000Y37750000D01*
X42200000Y40050000D02*
X42200000Y35450000D01*
X36800000Y42250000D02*
X36800000Y37650000D01*
X35900000Y42250000D02*
X35900000Y37650000D01*
X40100000Y40050000D02*
X40100000Y35500000D01*
X34650000Y42275000D02*
X33625000Y41250000D01*
X40700000Y40050000D02*
X40700000Y35450000D01*
X37400000Y42250000D02*
X37400000Y37650000D01*
X36650000Y42250000D02*
X36650000Y37650000D01*
X39950000Y40100000D02*
X39950000Y35450000D01*
X39050000Y40400000D02*
X39050000Y35950000D01*
X34700000Y42250000D02*
X34700000Y37650000D01*
X35000000Y42250000D02*
X35000000Y37650000D01*
X34000000Y41600000D02*
X34000000Y38350000D01*
X36500000Y42250000D02*
X36500000Y37650000D01*
X42800000Y39850000D02*
X42800000Y35650000D01*
X38350000Y41100000D02*
X38350000Y36950000D01*
X39200000Y40300000D02*
X39200000Y35850000D01*
X42350000Y40050000D02*
X42350000Y35500000D01*
X35150000Y42250000D02*
X35150000Y37650000D01*
X39675000Y35425000D02*
X42225000Y35425000D01*
X39650000Y40100000D02*
X39650000Y35500000D01*
X42050000Y40050000D02*
X42050000Y35450000D01*
X41300000Y40050000D02*
X41300000Y35450000D01*
X34650000Y37625000D02*
X33625000Y38650000D01*
X36950000Y42250000D02*
X36950000Y37650000D01*
X35300000Y42250000D02*
X35300000Y37650000D01*
X33800000Y41400000D02*
X33800000Y38550000D01*
X39800000Y40100000D02*
X39800000Y35450000D01*
X39350000Y40250000D02*
X39350000Y35700000D01*
X37100000Y42250000D02*
X37100000Y37700000D01*
X36050000Y42250000D02*
X36050000Y37650000D01*
X33900000Y41500000D02*
X33900000Y38450000D01*
X39500000Y40150000D02*
X39500000Y35600000D01*
X37950000Y41850000D02*
X37950000Y37450000D01*
X35750000Y42250000D02*
X35750000Y37650000D01*
X34100000Y41700000D02*
X34100000Y38200000D01*
X40850000Y40050000D02*
X40850000Y35450000D01*
X35600000Y42250000D02*
X35600000Y37650000D01*
X40550000Y40050000D02*
X40550000Y35450000D01*
X37850000Y42000000D02*
X37850000Y37500000D01*
X34650000Y42275000D02*
X37250000Y42275000D01*
X43100000Y39550000D02*
X43100000Y35950000D01*
X37550000Y42200000D02*
X37550000Y37650000D01*
X38250000Y41250000D02*
X38250000Y37100000D01*
X38450000Y40900000D02*
X38450000Y36450000D01*
X38600000Y40750000D02*
X38600000Y36300000D01*
X41000000Y40050000D02*
X41000000Y35450000D01*
D12*
X40600000Y39950000D02*
X40600000Y35450000D01*
D11*
X38050000Y41600000D02*
X38050000Y37400000D01*
X41600000Y40050000D02*
X41600000Y35450000D01*
X42500000Y40000000D02*
X42500000Y35500000D01*
X35450000Y42250000D02*
X35450000Y37650000D01*
D12*
X35050000Y42150000D02*
X35050000Y37700000D01*
D11*
X41450000Y40050000D02*
X41450000Y35450000D01*
D12*
X35050000Y37700000D02*
X37750000Y42000000D01*
D11*
X38112199Y41571904D02*
G75*
G03*
X40250000Y40075000I2137801J778096D01*
G01*
X43225000Y39075000D02*
G75*
G03*
X42225000Y40075000I-1000000J0D01*
G01*
X38400000Y36450000D02*
G75*
G03*
X37225000Y37625000I-1175000J0D01*
G01*
X42225000Y35425000D02*
G75*
G03*
X43225000Y36425000I0J1000000D01*
G01*
X38112203Y41571905D02*
G75*
G03*
X37250995Y42273791I-900003J-225005D01*
G01*
%TO.C,SW7*%
X52650000Y21625000D02*
X55225000Y21625000D01*
X55400000Y26250000D02*
X55400000Y21650000D01*
X54350000Y26250000D02*
X54350000Y21650000D01*
X57050000Y24400000D02*
X57050000Y19950000D01*
D12*
X53050000Y26150000D02*
X53050000Y21700000D01*
D11*
X51650000Y22625000D02*
X51650000Y25275000D01*
X59150000Y24050000D02*
X59150000Y19450000D01*
X60200000Y24050000D02*
X60200000Y19450000D01*
X52700000Y26250000D02*
X52700000Y21650000D01*
X59450000Y24050000D02*
X59450000Y19450000D01*
X55700000Y26100000D02*
X55700000Y21550000D01*
X54950000Y26250000D02*
X54950000Y21650000D01*
X56600000Y24750000D02*
X56600000Y20300000D01*
X60350000Y24050000D02*
X60350000Y19500000D01*
X57650000Y24100000D02*
X57650000Y19500000D01*
X60500000Y24000000D02*
X60500000Y19500000D01*
X52850000Y26250000D02*
X52850000Y21650000D01*
X59600000Y24050000D02*
X59600000Y19450000D01*
X59000000Y24050000D02*
X59000000Y19450000D01*
X56050000Y25600000D02*
X56050000Y21400000D01*
X54800000Y26250000D02*
X54800000Y21650000D01*
X61100000Y23550000D02*
X61100000Y19950000D01*
D12*
X58600000Y23950000D02*
X58600000Y19450000D01*
D11*
X51900000Y25500000D02*
X51900000Y22450000D01*
X58250000Y24050000D02*
X58250000Y19450000D01*
X58100000Y24050000D02*
X58100000Y19500000D01*
X54050000Y26250000D02*
X54050000Y21650000D01*
X58700000Y24050000D02*
X58700000Y19450000D01*
X59900000Y24050000D02*
X59900000Y19450000D01*
X56250000Y25250000D02*
X56250000Y21100000D01*
X60800000Y23850000D02*
X60800000Y19650000D01*
X53150000Y26250000D02*
X53150000Y21650000D01*
X52650000Y26275000D02*
X51625000Y25250000D01*
X52650000Y21625000D02*
X51625000Y22650000D01*
X58550000Y24050000D02*
X58550000Y19450000D01*
X56900000Y24500000D02*
X56900000Y20100000D01*
X52650000Y26275000D02*
X55250000Y26275000D01*
X58400000Y24050000D02*
X58400000Y19450000D01*
X52000000Y25600000D02*
X52000000Y22350000D01*
X52250000Y25850000D02*
X52250000Y22050000D01*
X54200000Y26250000D02*
X54200000Y21650000D01*
X55850000Y26000000D02*
X55850000Y21500000D01*
X57350000Y24250000D02*
X57350000Y19700000D01*
X57675000Y19425000D02*
X60225000Y19425000D01*
X56450000Y24900000D02*
X56450000Y20450000D01*
X60650000Y23950000D02*
X60650000Y19550000D01*
X53600000Y26250000D02*
X53600000Y21650000D01*
D12*
X55750000Y26000000D02*
X55750000Y21650000D01*
X55750000Y21650000D02*
X58600000Y23950000D01*
D11*
X53300000Y26250000D02*
X53300000Y21650000D01*
D12*
X53050000Y21700000D02*
X55750000Y26000000D01*
D11*
X57675000Y19425000D02*
X56400000Y20450000D01*
X52100000Y25700000D02*
X52100000Y22200000D01*
X60050000Y24050000D02*
X60050000Y19450000D01*
X56750000Y24600000D02*
X56750000Y20200000D01*
X56350000Y25100000D02*
X56350000Y20950000D01*
X53900000Y26250000D02*
X53900000Y21650000D01*
X57200000Y24300000D02*
X57200000Y19850000D01*
X53450000Y26250000D02*
X53450000Y21650000D01*
X53000000Y26250000D02*
X53000000Y21650000D01*
X57950000Y24100000D02*
X57950000Y19450000D01*
X56150000Y25450000D02*
X56150000Y21300000D01*
X54650000Y26250000D02*
X54650000Y21650000D01*
X60950000Y23750000D02*
X60950000Y19750000D01*
X59750000Y24050000D02*
X59750000Y19450000D01*
X52400000Y26000000D02*
X52400000Y21900000D01*
X57800000Y24100000D02*
X57800000Y19450000D01*
X57500000Y24150000D02*
X57500000Y19600000D01*
X59300000Y24050000D02*
X59300000Y19450000D01*
X58850000Y24050000D02*
X58850000Y19450000D01*
X55550000Y26200000D02*
X55550000Y21650000D01*
X55100000Y26250000D02*
X55100000Y21700000D01*
X55250000Y26250000D02*
X55250000Y21650000D01*
X51800000Y25400000D02*
X51800000Y22550000D01*
X53750000Y26250000D02*
X53750000Y21650000D01*
X58250000Y24075000D02*
X60225000Y24075000D01*
X52550000Y26150000D02*
X52550000Y21750000D01*
X54500000Y26250000D02*
X54500000Y21650000D01*
X55950000Y25850000D02*
X55950000Y21450000D01*
X56112203Y25571905D02*
G75*
G03*
X55250995Y26273791I-900003J-225005D01*
G01*
X56112199Y25571904D02*
G75*
G03*
X58250000Y24075000I2137801J778096D01*
G01*
X60225000Y19425000D02*
G75*
G03*
X61225000Y20425000I0J1000000D01*
G01*
X56400000Y20450000D02*
G75*
G03*
X55225000Y21625000I-1175000J0D01*
G01*
X61225000Y23075000D02*
G75*
G03*
X60225000Y24075000I-1000000J0D01*
G01*
%TO.C,D14*%
X92475000Y6800000D02*
X92475000Y5800000D01*
X92375000Y6300000D02*
X91475000Y6800000D01*
X91475000Y6800000D02*
X91475000Y5800000D01*
X91475000Y5800000D02*
X92375000Y6300000D01*
%TO.C,SW4*%
X43100000Y5550000D02*
X43100000Y1950000D01*
X35450000Y8250000D02*
X35450000Y3650000D01*
D12*
X37750000Y3650000D02*
X40600000Y5950000D01*
D11*
X35600000Y8250000D02*
X35600000Y3650000D01*
X34850000Y8250000D02*
X34850000Y3650000D01*
X38600000Y6750000D02*
X38600000Y2300000D01*
X41150000Y6050000D02*
X41150000Y1450000D01*
X42050000Y6050000D02*
X42050000Y1450000D01*
X34000000Y7600000D02*
X34000000Y4350000D01*
X35000000Y8250000D02*
X35000000Y3650000D01*
X36350000Y8250000D02*
X36350000Y3650000D01*
X37850000Y8000000D02*
X37850000Y3500000D01*
X39050000Y6400000D02*
X39050000Y1950000D01*
X34400000Y8000000D02*
X34400000Y3900000D01*
X34650000Y3625000D02*
X33625000Y4650000D01*
X38450000Y6900000D02*
X38450000Y2450000D01*
X39350000Y6250000D02*
X39350000Y1700000D01*
X37700000Y8100000D02*
X37700000Y3550000D01*
X34650000Y3625000D02*
X37225000Y3625000D01*
X40700000Y6050000D02*
X40700000Y1450000D01*
X38050000Y7600000D02*
X38050000Y3400000D01*
X39200000Y6300000D02*
X39200000Y1850000D01*
X39675000Y1425000D02*
X42225000Y1425000D01*
X39500000Y6150000D02*
X39500000Y1600000D01*
X38250000Y7250000D02*
X38250000Y3100000D01*
X38350000Y7100000D02*
X38350000Y2950000D01*
D12*
X40600000Y5950000D02*
X40600000Y1450000D01*
D11*
X37950000Y7850000D02*
X37950000Y3450000D01*
X35150000Y8250000D02*
X35150000Y3650000D01*
X42800000Y5850000D02*
X42800000Y1650000D01*
X34700000Y8250000D02*
X34700000Y3650000D01*
X34550000Y8150000D02*
X34550000Y3750000D01*
X34100000Y7700000D02*
X34100000Y4200000D01*
X39950000Y6100000D02*
X39950000Y1450000D01*
X35900000Y8250000D02*
X35900000Y3650000D01*
X39675000Y1425000D02*
X38400000Y2450000D01*
X36050000Y8250000D02*
X36050000Y3650000D01*
X34650000Y8275000D02*
X37250000Y8275000D01*
X40850000Y6050000D02*
X40850000Y1450000D01*
D12*
X35050000Y8150000D02*
X35050000Y3700000D01*
D11*
X36800000Y8250000D02*
X36800000Y3650000D01*
X41750000Y6050000D02*
X41750000Y1450000D01*
X36500000Y8250000D02*
X36500000Y3650000D01*
X39800000Y6100000D02*
X39800000Y1450000D01*
X41900000Y6050000D02*
X41900000Y1450000D01*
X36650000Y8250000D02*
X36650000Y3650000D01*
X38900000Y6500000D02*
X38900000Y2100000D01*
X33800000Y7400000D02*
X33800000Y4550000D01*
X42500000Y6000000D02*
X42500000Y1500000D01*
X40100000Y6050000D02*
X40100000Y1500000D01*
X35300000Y8250000D02*
X35300000Y3650000D01*
X37100000Y8250000D02*
X37100000Y3700000D01*
X40250000Y6075000D02*
X42225000Y6075000D01*
X42650000Y5950000D02*
X42650000Y1550000D01*
X38750000Y6600000D02*
X38750000Y2200000D01*
X42350000Y6050000D02*
X42350000Y1500000D01*
X37550000Y8200000D02*
X37550000Y3650000D01*
X37400000Y8250000D02*
X37400000Y3650000D01*
X41000000Y6050000D02*
X41000000Y1450000D01*
X41450000Y6050000D02*
X41450000Y1450000D01*
X39650000Y6100000D02*
X39650000Y1500000D01*
X35750000Y8250000D02*
X35750000Y3650000D01*
D12*
X35050000Y3700000D02*
X37750000Y8000000D01*
D11*
X40550000Y6050000D02*
X40550000Y1450000D01*
X40400000Y6050000D02*
X40400000Y1450000D01*
X36950000Y8250000D02*
X36950000Y3650000D01*
X40250000Y6050000D02*
X40250000Y1450000D01*
X38150000Y7450000D02*
X38150000Y3300000D01*
X41600000Y6050000D02*
X41600000Y1450000D01*
X33900000Y7500000D02*
X33900000Y4450000D01*
X36200000Y8250000D02*
X36200000Y3650000D01*
X34250000Y7850000D02*
X34250000Y4050000D01*
X41300000Y6050000D02*
X41300000Y1450000D01*
X37250000Y8250000D02*
X37250000Y3650000D01*
D12*
X37750000Y8000000D02*
X37750000Y3650000D01*
D11*
X42950000Y5750000D02*
X42950000Y1750000D01*
X33650000Y4625000D02*
X33650000Y7275000D01*
X42200000Y6050000D02*
X42200000Y1450000D01*
X34650000Y8275000D02*
X33625000Y7250000D01*
X42225000Y1425000D02*
G75*
G03*
X43225000Y2425000I0J1000000D01*
G01*
X38112203Y7571905D02*
G75*
G03*
X37250995Y8273791I-900003J-225005D01*
G01*
X38400000Y2450000D02*
G75*
G03*
X37225000Y3625000I-1175000J0D01*
G01*
X38112199Y7571904D02*
G75*
G03*
X40250000Y6075000I2137801J778096D01*
G01*
X43225000Y5075000D02*
G75*
G03*
X42225000Y6075000I-1000000J0D01*
G01*
%TO.C,SW1*%
X22400000Y6050000D02*
X22400000Y1450000D01*
X24200000Y6050000D02*
X24200000Y1450000D01*
X16250000Y7850000D02*
X16250000Y4050000D01*
X23150000Y6050000D02*
X23150000Y1450000D01*
X22250000Y6075000D02*
X24225000Y6075000D01*
X19700000Y8100000D02*
X19700000Y3550000D01*
X23000000Y6050000D02*
X23000000Y1450000D01*
X15800000Y7400000D02*
X15800000Y4550000D01*
X17300000Y8250000D02*
X17300000Y3650000D01*
D12*
X19750000Y3650000D02*
X22600000Y5950000D01*
D11*
X15900000Y7500000D02*
X15900000Y4450000D01*
X16650000Y8275000D02*
X15625000Y7250000D01*
X17000000Y8250000D02*
X17000000Y3650000D01*
X16550000Y8150000D02*
X16550000Y3750000D01*
X21675000Y1425000D02*
X20400000Y2450000D01*
D12*
X17050000Y3700000D02*
X19750000Y8000000D01*
D11*
X25100000Y5550000D02*
X25100000Y1950000D01*
X20450000Y6900000D02*
X20450000Y2450000D01*
D12*
X17050000Y8150000D02*
X17050000Y3700000D01*
D11*
X21200000Y6300000D02*
X21200000Y1850000D01*
X20600000Y6750000D02*
X20600000Y2300000D01*
X17450000Y8250000D02*
X17450000Y3650000D01*
X23750000Y6050000D02*
X23750000Y1450000D01*
X24050000Y6050000D02*
X24050000Y1450000D01*
X15650000Y4625000D02*
X15650000Y7275000D01*
X19950000Y7850000D02*
X19950000Y3450000D01*
X16400000Y8000000D02*
X16400000Y3900000D01*
X24350000Y6050000D02*
X24350000Y1500000D01*
X19550000Y8200000D02*
X19550000Y3650000D01*
X20150000Y7450000D02*
X20150000Y3300000D01*
X24500000Y6000000D02*
X24500000Y1500000D01*
X24950000Y5750000D02*
X24950000Y1750000D01*
X21800000Y6100000D02*
X21800000Y1450000D01*
X22250000Y6050000D02*
X22250000Y1450000D01*
X23900000Y6050000D02*
X23900000Y1450000D01*
X18950000Y8250000D02*
X18950000Y3650000D01*
X17750000Y8250000D02*
X17750000Y3650000D01*
X16650000Y3625000D02*
X15625000Y4650000D01*
X20900000Y6500000D02*
X20900000Y2100000D01*
X21675000Y1425000D02*
X24225000Y1425000D01*
X18050000Y8250000D02*
X18050000Y3650000D01*
X20050000Y7600000D02*
X20050000Y3400000D01*
X17900000Y8250000D02*
X17900000Y3650000D01*
X20750000Y6600000D02*
X20750000Y2200000D01*
X18200000Y8250000D02*
X18200000Y3650000D01*
X20350000Y7100000D02*
X20350000Y2950000D01*
X23450000Y6050000D02*
X23450000Y1450000D01*
X16000000Y7600000D02*
X16000000Y4350000D01*
X23600000Y6050000D02*
X23600000Y1450000D01*
X16100000Y7700000D02*
X16100000Y4200000D01*
X21650000Y6100000D02*
X21650000Y1500000D01*
X24800000Y5850000D02*
X24800000Y1650000D01*
X19400000Y8250000D02*
X19400000Y3650000D01*
X16650000Y3625000D02*
X19225000Y3625000D01*
X21050000Y6400000D02*
X21050000Y1950000D01*
X16850000Y8250000D02*
X16850000Y3650000D01*
X17600000Y8250000D02*
X17600000Y3650000D01*
D12*
X19750000Y8000000D02*
X19750000Y3650000D01*
D11*
X21350000Y6250000D02*
X21350000Y1700000D01*
X18650000Y8250000D02*
X18650000Y3650000D01*
X22850000Y6050000D02*
X22850000Y1450000D01*
D12*
X22600000Y5950000D02*
X22600000Y1450000D01*
D11*
X19850000Y8000000D02*
X19850000Y3500000D01*
X21950000Y6100000D02*
X21950000Y1450000D01*
X19250000Y8250000D02*
X19250000Y3650000D01*
X22700000Y6050000D02*
X22700000Y1450000D01*
X24650000Y5950000D02*
X24650000Y1550000D01*
X16650000Y8275000D02*
X19250000Y8275000D01*
X19100000Y8250000D02*
X19100000Y3700000D01*
X20250000Y7250000D02*
X20250000Y3100000D01*
X17150000Y8250000D02*
X17150000Y3650000D01*
X22550000Y6050000D02*
X22550000Y1450000D01*
X18800000Y8250000D02*
X18800000Y3650000D01*
X23300000Y6050000D02*
X23300000Y1450000D01*
X21500000Y6150000D02*
X21500000Y1600000D01*
X22100000Y6050000D02*
X22100000Y1500000D01*
X18350000Y8250000D02*
X18350000Y3650000D01*
X16700000Y8250000D02*
X16700000Y3650000D01*
X18500000Y8250000D02*
X18500000Y3650000D01*
X24225000Y1425000D02*
G75*
G03*
X25225000Y2425000I0J1000000D01*
G01*
X20112199Y7571904D02*
G75*
G03*
X22250000Y6075000I2137801J778096D01*
G01*
X20400000Y2450000D02*
G75*
G03*
X19225000Y3625000I-1175000J0D01*
G01*
X20112203Y7571905D02*
G75*
G03*
X19250995Y8273791I-900003J-225005D01*
G01*
X25225000Y5075000D02*
G75*
G03*
X24225000Y6075000I-1000000J0D01*
G01*
%TO.C,SW11*%
X83350000Y36050000D02*
X83350000Y31500000D01*
X75100000Y37700000D02*
X75100000Y34200000D01*
X84100000Y35550000D02*
X84100000Y31950000D01*
X83800000Y35850000D02*
X83800000Y31650000D01*
X76150000Y38250000D02*
X76150000Y33650000D01*
X80675000Y31425000D02*
X83225000Y31425000D01*
X82450000Y36050000D02*
X82450000Y31450000D01*
X75000000Y37600000D02*
X75000000Y34350000D01*
X78250000Y38250000D02*
X78250000Y33650000D01*
X75850000Y38250000D02*
X75850000Y33650000D01*
X83650000Y35950000D02*
X83650000Y31550000D01*
X80350000Y36250000D02*
X80350000Y31700000D01*
X76300000Y38250000D02*
X76300000Y33650000D01*
X77350000Y38250000D02*
X77350000Y33650000D01*
X79450000Y36900000D02*
X79450000Y32450000D01*
X78550000Y38200000D02*
X78550000Y33650000D01*
X80050000Y36400000D02*
X80050000Y31950000D01*
X83200000Y36050000D02*
X83200000Y31450000D01*
X76600000Y38250000D02*
X76600000Y33650000D01*
X78400000Y38250000D02*
X78400000Y33650000D01*
X74800000Y37400000D02*
X74800000Y34550000D01*
X80950000Y36100000D02*
X80950000Y31450000D01*
X82600000Y36050000D02*
X82600000Y31450000D01*
X75250000Y37850000D02*
X75250000Y34050000D01*
X75650000Y33625000D02*
X78225000Y33625000D01*
D12*
X76050000Y33700000D02*
X78750000Y38000000D01*
D11*
X77950000Y38250000D02*
X77950000Y33650000D01*
X83950000Y35750000D02*
X83950000Y31750000D01*
X81850000Y36050000D02*
X81850000Y31450000D01*
X82000000Y36050000D02*
X82000000Y31450000D01*
X82750000Y36050000D02*
X82750000Y31450000D01*
X77650000Y38250000D02*
X77650000Y33650000D01*
D12*
X76050000Y38150000D02*
X76050000Y33700000D01*
D11*
X76000000Y38250000D02*
X76000000Y33650000D01*
X75650000Y38275000D02*
X78250000Y38275000D01*
X82150000Y36050000D02*
X82150000Y31450000D01*
X83050000Y36050000D02*
X83050000Y31450000D01*
X75650000Y33625000D02*
X74625000Y34650000D01*
X81550000Y36050000D02*
X81550000Y31450000D01*
X79750000Y36600000D02*
X79750000Y32200000D01*
X76450000Y38250000D02*
X76450000Y33650000D01*
X79250000Y37250000D02*
X79250000Y33100000D01*
X77050000Y38250000D02*
X77050000Y33650000D01*
X80200000Y36300000D02*
X80200000Y31850000D01*
X80675000Y31425000D02*
X79400000Y32450000D01*
X80650000Y36100000D02*
X80650000Y31500000D01*
X77800000Y38250000D02*
X77800000Y33650000D01*
X78100000Y38250000D02*
X78100000Y33700000D01*
X74900000Y37500000D02*
X74900000Y34450000D01*
X77200000Y38250000D02*
X77200000Y33650000D01*
X75550000Y38150000D02*
X75550000Y33750000D01*
X75400000Y38000000D02*
X75400000Y33900000D01*
X79350000Y37100000D02*
X79350000Y32950000D01*
X80500000Y36150000D02*
X80500000Y31600000D01*
X78700000Y38100000D02*
X78700000Y33550000D01*
X82900000Y36050000D02*
X82900000Y31450000D01*
X82300000Y36050000D02*
X82300000Y31450000D01*
X75650000Y38275000D02*
X74625000Y37250000D01*
X78850000Y38000000D02*
X78850000Y33500000D01*
X78950000Y37850000D02*
X78950000Y33450000D01*
X83500000Y36000000D02*
X83500000Y31500000D01*
X79150000Y37450000D02*
X79150000Y33300000D01*
X81400000Y36050000D02*
X81400000Y31450000D01*
X81250000Y36050000D02*
X81250000Y31450000D01*
X74650000Y34625000D02*
X74650000Y37275000D01*
X81700000Y36050000D02*
X81700000Y31450000D01*
D12*
X81600000Y35950000D02*
X81600000Y31450000D01*
D11*
X76900000Y38250000D02*
X76900000Y33650000D01*
D12*
X78750000Y38000000D02*
X78750000Y33650000D01*
D11*
X81100000Y36050000D02*
X81100000Y31500000D01*
X80800000Y36100000D02*
X80800000Y31450000D01*
X76750000Y38250000D02*
X76750000Y33650000D01*
X77500000Y38250000D02*
X77500000Y33650000D01*
X79600000Y36750000D02*
X79600000Y32300000D01*
D12*
X78750000Y33650000D02*
X81600000Y35950000D01*
D11*
X79900000Y36500000D02*
X79900000Y32100000D01*
X79050000Y37600000D02*
X79050000Y33400000D01*
X81250000Y36075000D02*
X83225000Y36075000D01*
X75700000Y38250000D02*
X75700000Y33650000D01*
X79112199Y37571904D02*
G75*
G03*
X81250000Y36075000I2137801J778096D01*
G01*
X79112203Y37571905D02*
G75*
G03*
X78250995Y38273791I-900003J-225005D01*
G01*
X84225000Y35075000D02*
G75*
G03*
X83225000Y36075000I-1000000J0D01*
G01*
X79400000Y32450000D02*
G75*
G03*
X78225000Y33625000I-1175000J0D01*
G01*
X83225000Y31425000D02*
G75*
G03*
X84225000Y32425000I0J1000000D01*
G01*
D12*
%TO.C,DS6*%
X95750000Y40150000D02*
X95750000Y32850000D01*
X95750000Y32850000D02*
X94600000Y32850000D01*
X90250000Y40150000D02*
X90250000Y32850000D01*
%TO.C,DS2*%
X24250000Y-7900000D02*
X24250000Y-600000D01*
X29750000Y-7900000D02*
X29750000Y-600000D01*
X24250000Y-600000D02*
X25400000Y-600000D01*
%TO.C,DS3*%
X51350000Y-2750000D02*
X51350000Y-1600000D01*
X58650000Y-2750000D02*
X51350000Y-2750000D01*
X58650000Y2750000D02*
X51350000Y2750000D01*
%TO.C,DS5*%
X78250000Y12400000D02*
X78250000Y5100000D01*
X83750000Y5100000D02*
X82600000Y5100000D01*
X83750000Y12400000D02*
X83750000Y5100000D01*
%TO.C,DS7*%
X65750000Y44100000D02*
X65750000Y51400000D01*
X60250000Y44100000D02*
X60250000Y51400000D01*
X60250000Y51400000D02*
X61400000Y51400000D01*
%TO.C,DS1*%
X29750000Y26100000D02*
X29750000Y33400000D01*
X24250000Y33400000D02*
X25400000Y33400000D01*
X24250000Y26100000D02*
X24250000Y33400000D01*
%TD*%
D13*
%TO.C,U1*%
X14030000Y44380000D03*
D14*
X16570000Y44380000D03*
X19110000Y44380000D03*
X21650000Y44380000D03*
X24190000Y44380000D03*
X26730000Y44380000D03*
X29270000Y44380000D03*
X31810000Y44380000D03*
X34350000Y44380000D03*
X36890000Y44380000D03*
X39430000Y44380000D03*
X41970000Y44380000D03*
X14030000Y59620000D03*
X16570000Y59620000D03*
X19110000Y59620000D03*
X21650000Y59620000D03*
X24190000Y59620000D03*
X26730000Y59620000D03*
X29270000Y59620000D03*
X31810000Y59620000D03*
X34350000Y59620000D03*
X36890000Y59620000D03*
X39430000Y59620000D03*
X41970000Y59620000D03*
%TD*%
M02*
