%TF.GenerationSoftware,KiCad,Pcbnew,(6.0.6)*%
%TF.CreationDate,2022-07-28T22:41:48-07:00*%
%TF.ProjectId,right_main_routed,72696768-745f-46d6-9169-6e5f726f7574,v1.0.0*%
%TF.SameCoordinates,Original*%
%TF.FileFunction,Soldermask,Top*%
%TF.FilePolarity,Negative*%
%FSLAX46Y46*%
G04 Gerber Fmt 4.6, Leading zero omitted, Abs format (unit mm)*
G04 Created by KiCad (PCBNEW (6.0.6)) date 2022-07-28 22:41:48*
%MOMM*%
%LPD*%
G01*
G04 APERTURE LIST*
G04 Aperture macros list*
%AMRoundRect*
0 Rectangle with rounded corners*
0 $1 Rounding radius*
0 $2 $3 $4 $5 $6 $7 $8 $9 X,Y pos of 4 corners*
0 Add a 4 corners polygon primitive as box body*
4,1,4,$2,$3,$4,$5,$6,$7,$8,$9,$2,$3,0*
0 Add four circle primitives for the rounded corners*
1,1,$1+$1,$2,$3*
1,1,$1+$1,$4,$5*
1,1,$1+$1,$6,$7*
1,1,$1+$1,$8,$9*
0 Add four rect primitives between the rounded corners*
20,1,$1+$1,$2,$3,$4,$5,0*
20,1,$1+$1,$4,$5,$6,$7,0*
20,1,$1+$1,$6,$7,$8,$9,0*
20,1,$1+$1,$8,$9,$2,$3,0*%
G04 Aperture macros list end*
%ADD10RoundRect,0.050000X-0.700000X-0.650000X0.700000X-0.650000X0.700000X0.650000X-0.700000X0.650000X0*%
%ADD11C,3.100000*%
%ADD12C,1.801800*%
%ADD13C,3.529000*%
%ADD14RoundRect,0.050000X0.850000X-0.850000X0.850000X0.850000X-0.850000X0.850000X-0.850000X-0.850000X0*%
%ADD15O,1.800000X1.800000*%
%ADD16C,0.800000*%
%ADD17RoundRect,0.050000X-0.525000X0.700000X-0.525000X-0.700000X0.525000X-0.700000X0.525000X0.700000X0*%
%ADD18C,1.600000*%
%ADD19O,1.700000X2.300000*%
%ADD20C,1.700000*%
%ADD21RoundRect,0.050000X-0.876300X-0.876300X0.876300X-0.876300X0.876300X0.876300X-0.876300X0.876300X0*%
%ADD22C,1.852600*%
%ADD23C,0.600000*%
%ADD24C,4.100000*%
%ADD25RoundRect,0.050000X1.066113X1.294566X-1.675321X0.076151X-1.066113X-1.294566X1.675321X-0.076151X0*%
%ADD26RoundRect,0.050000X0.750000X0.500000X-0.750000X0.500000X-0.750000X-0.500000X0.750000X-0.500000X0*%
G04 APERTURE END LIST*
D10*
%TO.C,D10*%
X73775000Y8300000D03*
X70225000Y8300000D03*
%TD*%
D11*
%TO.C,SW3*%
X22950000Y37750000D03*
X17950000Y39950000D03*
D12*
X23500000Y34000000D03*
X12500000Y34000000D03*
D13*
X18000000Y34000000D03*
%TD*%
D10*
%TO.C,D5*%
X37775000Y12300000D03*
X34225000Y12300000D03*
%TD*%
D12*
%TO.C,SW10*%
X77500000Y13000000D03*
X66500000Y13000000D03*
D11*
X76950000Y16750000D03*
X71950000Y18950000D03*
D13*
X72000000Y13000000D03*
%TD*%
D11*
%TO.C,SW9*%
X53950000Y57950000D03*
X58950000Y55750000D03*
D12*
X59500000Y52000000D03*
D13*
X54000000Y52000000D03*
D12*
X48500000Y52000000D03*
%TD*%
D14*
%TO.C,J3*%
X21000000Y52000000D03*
D15*
X23540000Y52000000D03*
X26080000Y52000000D03*
X28620000Y52000000D03*
%TD*%
D12*
%TO.C,SW2*%
X23500000Y17000000D03*
D11*
X17950000Y22950000D03*
D13*
X18000000Y17000000D03*
D11*
X22950000Y20750000D03*
D12*
X12500000Y17000000D03*
%TD*%
D11*
%TO.C,SW8*%
X53950000Y40950000D03*
D12*
X48500000Y35000000D03*
D11*
X58950000Y38750000D03*
D13*
X54000000Y35000000D03*
D12*
X59500000Y35000000D03*
%TD*%
D16*
%TO.C,RST1*%
X10600000Y52000000D03*
X12400000Y52000000D03*
D17*
X12220000Y53800000D03*
X12220000Y50200000D03*
X10780000Y53800000D03*
X10780000Y50200000D03*
%TD*%
D11*
%TO.C,SW6*%
X40950000Y37750000D03*
D12*
X30500000Y34000000D03*
D11*
X35950000Y39950000D03*
D12*
X41500000Y34000000D03*
D13*
X36000000Y34000000D03*
%TD*%
D10*
%TO.C,D1*%
X19775000Y-4700000D03*
X16225000Y-4700000D03*
%TD*%
%TO.C,D11*%
X78775000Y25300000D03*
X75225000Y25300000D03*
%TD*%
%TO.C,D13*%
X83775000Y-10700000D03*
X80225000Y-10700000D03*
%TD*%
%TO.C,D3*%
X19775000Y29300000D03*
X16225000Y29300000D03*
%TD*%
D13*
%TO.C,SW11*%
X77000000Y30000000D03*
D12*
X71500000Y30000000D03*
D11*
X76950000Y35950000D03*
X81950000Y33750000D03*
D12*
X82500000Y30000000D03*
%TD*%
D18*
%TO.C,J1*%
X69000000Y56500000D03*
X69000000Y49500000D03*
D19*
X66700000Y46800000D03*
X71300000Y47900000D03*
X71300000Y51900000D03*
X71300000Y54900000D03*
%TD*%
D10*
%TO.C,D9*%
X55775000Y47300000D03*
X52225000Y47300000D03*
%TD*%
%TO.C,D15*%
X103775000Y23300000D03*
X100225000Y23300000D03*
%TD*%
%TO.C,D6*%
X37775000Y29300000D03*
X34225000Y29300000D03*
%TD*%
D18*
%TO.C,S1*%
X32300000Y-24625000D03*
D20*
X22190000Y-24625000D03*
X24730000Y-24625000D03*
X27270000Y-24625000D03*
X29810000Y-24625000D03*
X19800000Y-25850000D03*
X19800000Y-24000000D03*
%TD*%
D10*
%TO.C,D12*%
X83775000Y42300000D03*
X80225000Y42300000D03*
%TD*%
D13*
%TO.C,SW1*%
X18000000Y0D03*
D12*
X23500000Y0D03*
X12500000Y0D03*
D11*
X22950000Y3750000D03*
X17950000Y5950000D03*
%TD*%
D10*
%TO.C,D7*%
X55775000Y13300000D03*
X52225000Y13300000D03*
%TD*%
D21*
%TO.C,U1*%
X14030000Y44380000D03*
D22*
X16570000Y44380000D03*
X19110000Y44380000D03*
X21650000Y44380000D03*
X24190000Y44380000D03*
X26730000Y44380000D03*
X29270000Y44380000D03*
X31810000Y44380000D03*
X34350000Y44380000D03*
X36890000Y44380000D03*
X39430000Y44380000D03*
X41970000Y44380000D03*
X14030000Y59620000D03*
X16570000Y59620000D03*
X19110000Y59620000D03*
X21650000Y59620000D03*
X24190000Y59620000D03*
X26730000Y59620000D03*
X29270000Y59620000D03*
X31810000Y59620000D03*
X34350000Y59620000D03*
X36890000Y59620000D03*
X39430000Y59620000D03*
X41970000Y59620000D03*
%TD*%
D23*
%TO.C,H1*%
X28500000Y15000000D03*
X25500000Y15000000D03*
X25940000Y13940000D03*
X28060000Y16060000D03*
X28060000Y13940000D03*
X27000000Y13500000D03*
D24*
X27000000Y15000000D03*
D23*
X25940000Y16060000D03*
X27000000Y16500000D03*
%TD*%
D25*
%TO.C,J8*%
X8238490Y-8479925D03*
X9050767Y-10307548D03*
X9863044Y-12135171D03*
X10675321Y-13962794D03*
X11487598Y-15790417D03*
X12299875Y-17618040D03*
X13112152Y-19445663D03*
X13924429Y-21273286D03*
X14736706Y-23100909D03*
%TD*%
D11*
%TO.C,SW7*%
X53950000Y23950000D03*
X58950000Y21750000D03*
D12*
X48500000Y18000000D03*
X59500000Y18000000D03*
D13*
X54000000Y18000000D03*
%TD*%
D11*
%TO.C,SW13*%
X86950000Y-2250000D03*
D13*
X82000000Y-6000000D03*
D12*
X87500000Y-6000000D03*
D11*
X81950000Y-50000D03*
D12*
X76500000Y-6000000D03*
%TD*%
%TO.C,SW4*%
X30500000Y0D03*
D13*
X36000000Y0D03*
D11*
X40950000Y3750000D03*
X35950000Y5950000D03*
D12*
X41500000Y0D03*
%TD*%
D23*
%TO.C,H5*%
X73000000Y40000000D03*
X73000000Y43000000D03*
X74060000Y42560000D03*
D24*
X73000000Y41500000D03*
D23*
X74060000Y40440000D03*
X71940000Y42560000D03*
X71940000Y40440000D03*
X74500000Y41500000D03*
X71500000Y41500000D03*
%TD*%
%TO.C,H7*%
X90940000Y23440000D03*
X92000000Y26000000D03*
X92000000Y23000000D03*
X93060000Y23440000D03*
X93500000Y24500000D03*
X90500000Y24500000D03*
D24*
X92000000Y24500000D03*
D23*
X90940000Y25560000D03*
X93060000Y25560000D03*
%TD*%
%TO.C,H11*%
X34500000Y-8500000D03*
X34940000Y-7440000D03*
X34940000Y-9560000D03*
X37060000Y-7440000D03*
X37060000Y-9560000D03*
X36000000Y-7000000D03*
X36000000Y-10000000D03*
X37500000Y-8500000D03*
D24*
X36000000Y-8500000D03*
%TD*%
D10*
%TO.C,D4*%
X37775000Y-4700000D03*
X34225000Y-4700000D03*
%TD*%
D23*
%TO.C,H3*%
X46000000Y42000000D03*
X46000000Y45000000D03*
X47060000Y44560000D03*
X47060000Y42440000D03*
D24*
X46000000Y43500000D03*
D23*
X47500000Y43500000D03*
X44940000Y42440000D03*
X44500000Y43500000D03*
X44940000Y44560000D03*
%TD*%
D10*
%TO.C,D14*%
X93775000Y6300000D03*
X90225000Y6300000D03*
%TD*%
%TO.C,D2*%
X19775000Y12300000D03*
X16225000Y12300000D03*
%TD*%
D12*
%TO.C,SW12*%
X87500000Y47000000D03*
X76500000Y47000000D03*
D11*
X86950000Y50750000D03*
D13*
X82000000Y47000000D03*
D11*
X81950000Y52950000D03*
%TD*%
D23*
%TO.C,H9*%
X70940000Y5560000D03*
X72000000Y6000000D03*
X73060000Y5560000D03*
X73500000Y4500000D03*
X73060000Y3440000D03*
X70940000Y3440000D03*
X70500000Y4500000D03*
D24*
X72000000Y4500000D03*
D23*
X72000000Y3000000D03*
%TD*%
D11*
%TO.C,SW5*%
X40950000Y20750000D03*
X35950000Y22950000D03*
D12*
X30500000Y17000000D03*
X41500000Y17000000D03*
D13*
X36000000Y17000000D03*
%TD*%
D10*
%TO.C,D8*%
X55775000Y30300000D03*
X52225000Y30300000D03*
%TD*%
D11*
%TO.C,SW14*%
X91950000Y16950000D03*
D13*
X92000000Y11000000D03*
D12*
X97500000Y11000000D03*
D11*
X96950000Y14750000D03*
D12*
X86500000Y11000000D03*
%TD*%
D26*
%TO.C,DS4*%
X57450000Y-1600000D03*
X57450000Y1600000D03*
X52550000Y1600000D03*
X52550000Y-1600000D03*
%TD*%
D13*
%TO.C,SW15*%
X102000000Y28000000D03*
D12*
X96500000Y28000000D03*
X107500000Y28000000D03*
D11*
X101950000Y33950000D03*
X106950000Y31750000D03*
%TD*%
M02*
