%TF.GenerationSoftware,KiCad,Pcbnew,(6.0.6)*%
%TF.CreationDate,2022-07-28T22:41:48-07:00*%
%TF.ProjectId,right_main_routed,72696768-745f-46d6-9169-6e5f726f7574,v1.0.0*%
%TF.SameCoordinates,Original*%
%TF.FileFunction,Paste,Top*%
%TF.FilePolarity,Positive*%
%FSLAX46Y46*%
G04 Gerber Fmt 4.6, Leading zero omitted, Abs format (unit mm)*
G04 Created by KiCad (PCBNEW (6.0.6)) date 2022-07-28 22:41:48*
%MOMM*%
%LPD*%
G01*
G04 APERTURE LIST*
G04 Aperture macros list*
%AMRotRect*
0 Rectangle, with rotation*
0 The origin of the aperture is its center*
0 $1 length*
0 $2 width*
0 $3 Rotation angle, in degrees counterclockwise*
0 Add horizontal line*
21,1,$1,$2,0,0,$3*%
G04 Aperture macros list end*
%ADD10R,1.400000X1.300000*%
%ADD11R,1.050000X1.400000*%
%ADD12RotRect,3.000000X1.500000X203.962489*%
%ADD13R,1.500000X1.000000*%
G04 APERTURE END LIST*
D10*
%TO.C,D10*%
X73775000Y8300000D03*
X70225000Y8300000D03*
%TD*%
%TO.C,D5*%
X37775000Y12300000D03*
X34225000Y12300000D03*
%TD*%
D11*
%TO.C,RST1*%
X12220000Y53800000D03*
X12220000Y50200000D03*
X10780000Y53800000D03*
X10780000Y50200000D03*
%TD*%
D10*
%TO.C,D1*%
X19775000Y-4700000D03*
X16225000Y-4700000D03*
%TD*%
%TO.C,D11*%
X78775000Y25300000D03*
X75225000Y25300000D03*
%TD*%
%TO.C,D13*%
X83775000Y-10700000D03*
X80225000Y-10700000D03*
%TD*%
%TO.C,D3*%
X19775000Y29300000D03*
X16225000Y29300000D03*
%TD*%
%TO.C,D9*%
X55775000Y47300000D03*
X52225000Y47300000D03*
%TD*%
%TO.C,D15*%
X103775000Y23300000D03*
X100225000Y23300000D03*
%TD*%
%TO.C,D6*%
X37775000Y29300000D03*
X34225000Y29300000D03*
%TD*%
%TO.C,D12*%
X83775000Y42300000D03*
X80225000Y42300000D03*
%TD*%
%TO.C,D7*%
X55775000Y13300000D03*
X52225000Y13300000D03*
%TD*%
D12*
%TO.C,J8*%
X8238490Y-8479925D03*
X9050767Y-10307548D03*
X9863044Y-12135171D03*
X10675321Y-13962794D03*
X11487598Y-15790417D03*
X12299875Y-17618040D03*
X13112152Y-19445663D03*
X13924429Y-21273286D03*
X14736706Y-23100909D03*
%TD*%
D10*
%TO.C,D4*%
X37775000Y-4700000D03*
X34225000Y-4700000D03*
%TD*%
%TO.C,D14*%
X93775000Y6300000D03*
X90225000Y6300000D03*
%TD*%
%TO.C,D2*%
X19775000Y12300000D03*
X16225000Y12300000D03*
%TD*%
%TO.C,D8*%
X55775000Y30300000D03*
X52225000Y30300000D03*
%TD*%
D13*
%TO.C,DS4*%
X57450000Y-1600000D03*
X57450000Y1600000D03*
X52550000Y1600000D03*
X52550000Y-1600000D03*
%TD*%
M02*
