M48
; DRILL file {KiCad (6.0.7)} date Thu 08 Sep 2022 03:04:34 AM EDT
; FORMAT={-:-/ absolute / metric / decimal}
; #@! TF.CreationDate,2022-09-08T03:04:34-04:00
; #@! TF.GenerationSoftware,Kicad,Pcbnew,(6.0.7)
; #@! TF.FileFunction,Plated,1,2,PTH
FMAT,2
METRIC
; #@! TA.AperFunction,Plated,PTH,ComponentDrill
T1C0.300
; #@! TA.AperFunction,Plated,PTH,ViaDrill
T2C0.400
; #@! TA.AperFunction,Plated,PTH,ComponentDrill
T3C0.400
; #@! TA.AperFunction,Plated,PTH,ComponentDrill
T4C0.813
; #@! TA.AperFunction,Plated,PTH,ComponentDrill
T5C0.900
; #@! TA.AperFunction,Plated,PTH,ComponentDrill
T6C1.000
; #@! TA.AperFunction,Plated,PTH,ComponentDrill
T7C1.092
; #@! TA.AperFunction,Plated,PTH,ComponentDrill
T8C2.300
%
G90
G05
T1
X8.053Y-8.785
X8.865Y-10.612
X9.678Y-12.44
X10.49Y-14.267
X11.302Y-16.095
X12.115Y-17.923
X12.927Y-19.75
X13.739Y-21.578
X14.551Y-23.406
T2
X20.5Y-6.4
X23.7Y-22.6
X24.0Y47.7
X25.4Y42.34
X28.0Y-4.9
X28.3Y29.2
X34.987Y52.387
X36.7Y52.1
X44.5Y0.0
X47.2Y32.8
X50.5Y52.7
X55.6Y1.3
X55.9Y-1.6
X58.4Y44.1
X59.4Y1.6
X63.6Y46.4
X64.6Y48.8
X64.7Y42.7
X79.7Y9.6
X90.9Y43.1
X91.9Y37.2
T3
X25.5Y15.0
X25.94Y16.06
X25.94Y13.94
X27.0Y16.5
X27.0Y13.5
X28.06Y16.06
X28.06Y13.94
X28.5Y15.0
X34.5Y-8.5
X34.94Y-7.44
X34.94Y-9.56
X36.0Y-7.0
X36.0Y-10.0
X37.06Y-7.44
X37.06Y-9.56
X37.5Y-8.5
X44.5Y43.5
X44.94Y44.56
X44.94Y42.44
X46.0Y45.0
X46.0Y42.0
X47.06Y44.56
X47.06Y42.44
X47.5Y43.5
X47.5Y4.5
X47.94Y5.56
X47.94Y3.44
X49.0Y6.0
X49.0Y3.0
X50.06Y5.56
X50.06Y3.44
X50.5Y4.5
X60.5Y-3.5
X60.94Y-2.44
X60.94Y-4.56
X62.0Y-2.0
X62.0Y-5.0
X63.06Y-2.44
X63.06Y-4.56
X63.5Y-3.5
X70.5Y4.5
X70.94Y5.56
X70.94Y3.44
X71.5Y41.5
X71.94Y42.56
X71.94Y40.44
X72.0Y6.0
X72.0Y3.0
X73.0Y43.0
X73.0Y40.0
X73.06Y5.56
X73.06Y3.44
X73.5Y4.5
X74.06Y42.56
X74.06Y40.44
X74.5Y41.5
X90.5Y24.5
X90.94Y25.56
X90.94Y23.44
X92.0Y26.0
X92.0Y23.0
X93.06Y25.56
X93.06Y23.44
X93.5Y24.5
T4
X15.0Y29.3
X15.0Y12.3
X15.0Y-4.7
X21.0Y29.3
X21.0Y12.3
X21.0Y-4.7
X33.0Y29.3
X33.0Y12.3
X33.0Y-4.7
X39.0Y29.3
X39.0Y12.3
X39.0Y-4.7
X51.0Y47.3
X51.0Y30.3
X51.0Y13.3
X57.0Y47.3
X57.0Y30.3
X57.0Y13.3
X69.0Y8.3
X74.0Y25.3
X75.0Y8.3
X79.0Y42.3
X79.0Y-10.7
X80.0Y25.3
X85.0Y42.3
X85.0Y-10.7
X89.0Y6.3
X95.0Y6.3
X99.0Y23.3
X105.0Y23.3
T5
X19.8Y-24.0
X19.8Y-25.85
X22.19Y-24.625
X24.73Y-24.625
X27.27Y-24.625
X29.81Y-24.625
T6
X21.0Y52.0
X23.54Y52.0
X26.08Y52.0
X28.62Y52.0
T7
X14.03Y59.62
X14.03Y44.38
X16.57Y59.62
X16.57Y44.38
X19.11Y59.62
X19.11Y44.38
X21.65Y59.62
X21.65Y44.38
X24.19Y59.62
X24.19Y44.38
X26.73Y59.62
X26.73Y44.38
X29.27Y59.62
X29.27Y44.38
X31.81Y59.62
X31.81Y44.38
X34.35Y59.62
X34.35Y44.38
X36.89Y59.62
X36.89Y44.38
X39.43Y59.62
X39.43Y44.38
X41.97Y59.62
X41.97Y44.38
T8
X27.0Y15.0
X36.0Y-8.5
X46.0Y43.5
X49.0Y4.5
X62.0Y-3.5
X72.0Y4.5
X73.0Y41.5
X92.0Y24.5
T5
X66.7Y47.1G85X66.7Y46.5
G05
X71.3Y55.2G85X71.3Y54.6
G05
X71.3Y52.2G85X71.3Y51.6
G05
X71.3Y48.2G85X71.3Y47.6
G05
T0
M30
