M48
; DRILL file {KiCad (6.0.7)} date Thu 08 Sep 2022 03:04:34 AM EDT
; FORMAT={-:-/ absolute / metric / decimal}
; #@! TF.CreationDate,2022-09-08T03:04:34-04:00
; #@! TF.GenerationSoftware,Kicad,Pcbnew,(6.0.7)
; #@! TF.FileFunction,NonPlated,1,2,NPTH
FMAT,2
METRIC
; #@! TA.AperFunction,NonPlated,NPTH,ComponentDrill
T1C0.700
; #@! TA.AperFunction,NonPlated,NPTH,ComponentDrill
T2C1.500
; #@! TA.AperFunction,NonPlated,NPTH,ComponentDrill
T3C1.702
; #@! TA.AperFunction,NonPlated,NPTH,ComponentDrill
T4C3.000
; #@! TA.AperFunction,NonPlated,NPTH,ComponentDrill
T5C3.429
%
G90
G05
T1
X10.6Y52.0
X12.4Y52.0
T2
X32.3Y-24.625
X69.0Y56.5
X69.0Y49.5
T3
X12.5Y34.0
X12.5Y17.0
X12.5Y0.0
X23.5Y34.0
X23.5Y17.0
X23.5Y0.0
X30.5Y34.0
X30.5Y17.0
X30.5Y0.0
X41.5Y34.0
X41.5Y17.0
X41.5Y0.0
X48.5Y52.0
X48.5Y35.0
X48.5Y18.0
X59.5Y52.0
X59.5Y35.0
X59.5Y18.0
X66.5Y13.0
X71.5Y30.0
X76.5Y47.0
X76.5Y-6.0
X77.5Y13.0
X82.5Y30.0
X86.5Y11.0
X87.5Y47.0
X87.5Y-6.0
X96.5Y28.0
X97.5Y11.0
X107.5Y28.0
T4
X17.95Y39.95
X17.95Y22.95
X17.95Y5.95
X22.95Y37.75
X22.95Y20.75
X22.95Y3.75
X35.95Y39.95
X35.95Y22.95
X35.95Y5.95
X40.95Y37.75
X40.95Y20.75
X40.95Y3.75
X53.95Y57.95
X53.95Y40.95
X53.95Y23.95
X58.95Y55.75
X58.95Y38.75
X58.95Y21.75
X71.95Y18.95
X76.95Y35.95
X76.95Y16.75
X81.95Y52.95
X81.95Y33.75
X81.95Y-0.05
X86.95Y50.75
X86.95Y-2.25
X91.95Y16.95
X96.95Y14.75
X101.95Y33.95
X106.95Y31.75
T5
X18.0Y34.0
X18.0Y17.0
X18.0Y0.0
X36.0Y34.0
X36.0Y17.0
X36.0Y0.0
X54.0Y52.0
X54.0Y35.0
X54.0Y18.0
X72.0Y13.0
X77.0Y30.0
X82.0Y47.0
X82.0Y-6.0
X92.0Y11.0
X102.0Y28.0
T0
M30
