%TF.GenerationSoftware,KiCad,Pcbnew,(6.0.6)*%
%TF.CreationDate,2022-07-28T22:42:36-07:00*%
%TF.ProjectId,right_thumb_routed,72696768-745f-4746-9875-6d625f726f75,v1.0.0*%
%TF.SameCoordinates,Original*%
%TF.FileFunction,Legend,Top*%
%TF.FilePolarity,Positive*%
%FSLAX46Y46*%
G04 Gerber Fmt 4.6, Leading zero omitted, Abs format (unit mm)*
G04 Created by KiCad (PCBNEW (6.0.6)) date 2022-07-28 22:42:36*
%MOMM*%
%LPD*%
G01*
G04 APERTURE LIST*
%ADD10C,0.150000*%
%ADD11C,0.120000*%
G04 APERTURE END LIST*
D10*
%TO.C,R1*%
X69413333Y-37182380D02*
X69080000Y-36706190D01*
X68841904Y-37182380D02*
X68841904Y-36182380D01*
X69222857Y-36182380D01*
X69318095Y-36230000D01*
X69365714Y-36277619D01*
X69413333Y-36372857D01*
X69413333Y-36515714D01*
X69365714Y-36610952D01*
X69318095Y-36658571D01*
X69222857Y-36706190D01*
X68841904Y-36706190D01*
X70365714Y-37182380D02*
X69794285Y-37182380D01*
X70080000Y-37182380D02*
X70080000Y-36182380D01*
X69984761Y-36325238D01*
X69889523Y-36420476D01*
X69794285Y-36468095D01*
%TO.C,H15*%
X68752380Y-74122705D02*
X67752380Y-74122705D01*
X68228571Y-74122705D02*
X68228571Y-73551276D01*
X68752380Y-73551276D02*
X67752380Y-73551276D01*
X68752380Y-72551276D02*
X68752380Y-73122705D01*
X68752380Y-72836990D02*
X67752380Y-72836990D01*
X67895238Y-72932229D01*
X67990476Y-73027467D01*
X68038095Y-73122705D01*
X67752380Y-71646514D02*
X67752380Y-72122705D01*
X68228571Y-72170324D01*
X68180952Y-72122705D01*
X68133333Y-72027467D01*
X68133333Y-71789371D01*
X68180952Y-71694133D01*
X68228571Y-71646514D01*
X68323809Y-71598895D01*
X68561904Y-71598895D01*
X68657142Y-71646514D01*
X68704761Y-71694133D01*
X68752380Y-71789371D01*
X68752380Y-72027467D01*
X68704761Y-72122705D01*
X68657142Y-72170324D01*
%TO.C,H14*%
X68752380Y-32553485D02*
X67752380Y-32553485D01*
X68228571Y-32553485D02*
X68228571Y-31982056D01*
X68752380Y-31982056D02*
X67752380Y-31982056D01*
X68752380Y-30982056D02*
X68752380Y-31553485D01*
X68752380Y-31267770D02*
X67752380Y-31267770D01*
X67895238Y-31363009D01*
X67990476Y-31458247D01*
X68038095Y-31553485D01*
X68085714Y-30124913D02*
X68752380Y-30124913D01*
X67704761Y-30363009D02*
X68419047Y-30601104D01*
X68419047Y-29982056D01*
%TO.C,J6*%
X67007380Y-39038333D02*
X67721666Y-39038333D01*
X67864523Y-39085952D01*
X67959761Y-39181190D01*
X68007380Y-39324047D01*
X68007380Y-39419285D01*
X67007380Y-38133571D02*
X67007380Y-38324047D01*
X67055000Y-38419285D01*
X67102619Y-38466904D01*
X67245476Y-38562142D01*
X67435952Y-38609761D01*
X67816904Y-38609761D01*
X67912142Y-38562142D01*
X67959761Y-38514523D01*
X68007380Y-38419285D01*
X68007380Y-38228809D01*
X67959761Y-38133571D01*
X67912142Y-38085952D01*
X67816904Y-38038333D01*
X67578809Y-38038333D01*
X67483571Y-38085952D01*
X67435952Y-38133571D01*
X67388333Y-38228809D01*
X67388333Y-38419285D01*
X67435952Y-38514523D01*
X67483571Y-38562142D01*
X67578809Y-38609761D01*
%TO.C,R2*%
X69413333Y-63182380D02*
X69080000Y-62706190D01*
X68841904Y-63182380D02*
X68841904Y-62182380D01*
X69222857Y-62182380D01*
X69318095Y-62230000D01*
X69365714Y-62277619D01*
X69413333Y-62372857D01*
X69413333Y-62515714D01*
X69365714Y-62610952D01*
X69318095Y-62658571D01*
X69222857Y-62706190D01*
X68841904Y-62706190D01*
X69794285Y-62277619D02*
X69841904Y-62230000D01*
X69937142Y-62182380D01*
X70175238Y-62182380D01*
X70270476Y-62230000D01*
X70318095Y-62277619D01*
X70365714Y-62372857D01*
X70365714Y-62468095D01*
X70318095Y-62610952D01*
X69746666Y-63182380D01*
X70365714Y-63182380D01*
%TO.C,H13*%
X39202380Y-53488095D02*
X38202380Y-53488095D01*
X38678571Y-53488095D02*
X38678571Y-52916666D01*
X39202380Y-52916666D02*
X38202380Y-52916666D01*
X39202380Y-51916666D02*
X39202380Y-52488095D01*
X39202380Y-52202380D02*
X38202380Y-52202380D01*
X38345238Y-52297619D01*
X38440476Y-52392857D01*
X38488095Y-52488095D01*
X38202380Y-51583333D02*
X38202380Y-50964285D01*
X38583333Y-51297619D01*
X38583333Y-51154761D01*
X38630952Y-51059523D01*
X38678571Y-51011904D01*
X38773809Y-50964285D01*
X39011904Y-50964285D01*
X39107142Y-51011904D01*
X39154761Y-51059523D01*
X39202380Y-51154761D01*
X39202380Y-51440476D01*
X39154761Y-51535714D01*
X39107142Y-51583333D01*
D11*
%TO.C,R1*%
X66310000Y-40470000D02*
X72850000Y-40470000D01*
X72850000Y-40470000D02*
X72850000Y-37730000D01*
X73620000Y-39100000D02*
X72850000Y-39100000D01*
X65540000Y-39100000D02*
X66310000Y-39100000D01*
X72850000Y-37730000D02*
X66310000Y-37730000D01*
X66310000Y-37730000D02*
X66310000Y-40470000D01*
%TO.C,J5*%
X60800000Y-55260000D02*
X60800000Y-56750000D01*
X55000000Y-47450000D02*
X55000000Y-56750000D01*
X60800000Y-48940000D02*
X60800000Y-47450000D01*
X60800000Y-47450000D02*
X59460000Y-47450000D01*
X60800000Y-56750000D02*
X59460000Y-56750000D01*
X56740000Y-47450000D02*
X55000000Y-47450000D01*
X55000000Y-56750000D02*
X56740000Y-56750000D01*
X60800000Y-48940000D02*
X62000000Y-48940000D01*
%TO.C,J6*%
X62750000Y-50400000D02*
G75*
G03*
X62750000Y-50400000I-250000J0D01*
G01*
D10*
%TO.C,D17*%
X90500000Y-48000000D02*
X90500000Y-47000000D01*
X90400000Y-47500000D02*
X89500000Y-48000000D01*
X89500000Y-47000000D02*
X90400000Y-47500000D01*
X89500000Y-48000000D02*
X89500000Y-47000000D01*
D11*
%TO.C,R2*%
X72850000Y-63730000D02*
X66310000Y-63730000D01*
X66310000Y-66470000D02*
X72850000Y-66470000D01*
X72850000Y-66470000D02*
X72850000Y-63730000D01*
X66310000Y-63730000D02*
X66310000Y-66470000D01*
X65540000Y-65100000D02*
X66310000Y-65100000D01*
X73620000Y-65100000D02*
X72850000Y-65100000D01*
D10*
%TO.C,D16*%
X90500000Y-57200000D02*
X89600000Y-56700000D01*
X89600000Y-56700000D02*
X90500000Y-56200000D01*
X89500000Y-56200000D02*
X89500000Y-57200000D01*
X90500000Y-56200000D02*
X90500000Y-57200000D01*
%TD*%
M02*
