%TF.GenerationSoftware,KiCad,Pcbnew,(6.0.6)*%
%TF.CreationDate,2022-07-28T22:42:36-07:00*%
%TF.ProjectId,right_thumb_routed,72696768-745f-4746-9875-6d625f726f75,v1.0.0*%
%TF.SameCoordinates,Original*%
%TF.FileFunction,Soldermask,Bot*%
%TF.FilePolarity,Negative*%
%FSLAX46Y46*%
G04 Gerber Fmt 4.6, Leading zero omitted, Abs format (unit mm)*
G04 Created by KiCad (PCBNEW (6.0.6)) date 2022-07-28 22:42:36*
%MOMM*%
%LPD*%
G01*
G04 APERTURE LIST*
G04 Aperture macros list*
%AMRoundRect*
0 Rectangle with rounded corners*
0 $1 Rounding radius*
0 $2 $3 $4 $5 $6 $7 $8 $9 X,Y pos of 4 corners*
0 Add a 4 corners polygon primitive as box body*
4,1,4,$2,$3,$4,$5,$6,$7,$8,$9,$2,$3,0*
0 Add four circle primitives for the rounded corners*
1,1,$1+$1,$2,$3*
1,1,$1+$1,$4,$5*
1,1,$1+$1,$6,$7*
1,1,$1+$1,$8,$9*
0 Add four rect primitives between the rounded corners*
20,1,$1+$1,$2,$3,$4,$5,0*
20,1,$1+$1,$4,$5,$6,$7,0*
20,1,$1+$1,$6,$7,$8,$9,0*
20,1,$1+$1,$8,$9,$2,$3,0*%
G04 Aperture macros list end*
%ADD10C,1.700000*%
%ADD11O,1.700000X1.700000*%
%ADD12C,0.600000*%
%ADD13C,4.100000*%
%ADD14C,1.801800*%
%ADD15C,3.100000*%
%ADD16C,3.529000*%
%ADD17RoundRect,0.050000X-1.300000X-1.300000X1.300000X-1.300000X1.300000X1.300000X-1.300000X1.300000X0*%
%ADD18RoundRect,0.050000X-0.750000X1.000000X-0.750000X-1.000000X0.750000X-1.000000X0.750000X1.000000X0*%
%ADD19RoundRect,0.050000X1.300000X1.300000X-1.300000X1.300000X-1.300000X-1.300000X1.300000X-1.300000X0*%
%ADD20RoundRect,0.050000X0.700000X0.650000X-0.700000X0.650000X-0.700000X-0.650000X0.700000X-0.650000X0*%
%ADD21RoundRect,0.050000X0.889000X0.650000X-0.889000X0.650000X-0.889000X-0.650000X0.889000X-0.650000X0*%
%ADD22O,1.878000X1.400000*%
%ADD23RoundRect,0.050000X-0.889000X-0.650000X0.889000X-0.650000X0.889000X0.650000X-0.889000X0.650000X0*%
%ADD24RoundRect,0.050000X-0.700000X-0.650000X0.700000X-0.650000X0.700000X0.650000X-0.700000X0.650000X0*%
G04 APERTURE END LIST*
D10*
%TO.C,R1*%
X64500000Y-39100000D03*
D11*
X74660000Y-39100000D03*
%TD*%
D12*
%TO.C,H15*%
X72560000Y-73944610D03*
X71500000Y-74384610D03*
X71500000Y-71384610D03*
X70000000Y-72884610D03*
X73000000Y-72884610D03*
D13*
X71500000Y-72884610D03*
D12*
X72560000Y-71824610D03*
X70440000Y-71824610D03*
X70440000Y-73944610D03*
%TD*%
%TO.C,H14*%
X70000000Y-31315390D03*
X72560000Y-30255390D03*
X73000000Y-31315390D03*
D13*
X71500000Y-31315390D03*
D12*
X72560000Y-32375390D03*
X71500000Y-29815390D03*
X70440000Y-32375390D03*
X70440000Y-30255390D03*
X71500000Y-32815390D03*
%TD*%
D14*
%TO.C,SW17*%
X95500000Y-42800000D03*
D15*
X89950000Y-36850000D03*
X94950000Y-39050000D03*
D14*
X84500000Y-42800000D03*
D16*
X90000000Y-42800000D03*
D17*
X86725000Y-36850000D03*
X98275000Y-39050000D03*
%TD*%
D18*
%TO.C,J6*%
X64000000Y-53900000D03*
X64000000Y-50400000D03*
X66000000Y-50400000D03*
X66000000Y-53900000D03*
X68000000Y-50400000D03*
X68000000Y-53900000D03*
X70000000Y-50400000D03*
X70000000Y-53900000D03*
X72000000Y-53900000D03*
X72000000Y-50400000D03*
X74000000Y-53900000D03*
X74000000Y-50400000D03*
X76000000Y-50400000D03*
X76000000Y-53900000D03*
X78000000Y-53900000D03*
X78000000Y-50400000D03*
X80000000Y-50400000D03*
X80000000Y-53900000D03*
%TD*%
D15*
%TO.C,SW16*%
X90050000Y-67350000D03*
X85050000Y-65150000D03*
D14*
X95500000Y-61400000D03*
D16*
X90000000Y-61400000D03*
D14*
X84500000Y-61400000D03*
D19*
X93275000Y-67350000D03*
X81725000Y-65150000D03*
%TD*%
D20*
%TO.C,D17*%
X91750000Y-47500000D03*
D21*
X93000000Y-47500000D03*
D22*
X87000000Y-47500000D03*
D20*
X88200000Y-47500000D03*
%TD*%
D10*
%TO.C,R2*%
X64500000Y-65100000D03*
D11*
X74660000Y-65100000D03*
%TD*%
D12*
%TO.C,H13*%
X35500000Y-53600000D03*
X35500000Y-50600000D03*
X34440000Y-51040000D03*
D13*
X35500000Y-52100000D03*
D12*
X36560000Y-53160000D03*
X34440000Y-53160000D03*
X36560000Y-51040000D03*
X34000000Y-52100000D03*
X37000000Y-52100000D03*
%TD*%
D23*
%TO.C,D16*%
X87000000Y-56700000D03*
D24*
X88250000Y-56700000D03*
X91800000Y-56700000D03*
D22*
X93000000Y-56700000D03*
%TD*%
M02*
