%TF.GenerationSoftware,KiCad,Pcbnew,(6.0.6)*%
%TF.CreationDate,2022-07-28T22:42:36-07:00*%
%TF.ProjectId,right_thumb_routed,72696768-745f-4746-9875-6d625f726f75,v1.0.0*%
%TF.SameCoordinates,Original*%
%TF.FileFunction,Profile,NP*%
%FSLAX46Y46*%
G04 Gerber Fmt 4.6, Leading zero omitted, Abs format (unit mm)*
G04 Created by KiCad (PCBNEW (6.0.6)) date 2022-07-28 22:42:36*
%MOMM*%
%LPD*%
G01*
G04 APERTURE LIST*
%TA.AperFunction,Profile*%
%ADD10C,0.150000*%
%TD*%
G04 APERTURE END LIST*
D10*
X102000000Y-44100000D02*
G75*
G03*
X92000000Y-34100000I-10000000J0D01*
G01*
X76148421Y-31143078D02*
G75*
G03*
X53278710Y-33010565I-10648421J-10564622D01*
G01*
X46078710Y-37167487D02*
G75*
G03*
X46078710Y-67032513I1421290J-14932513D01*
G01*
X92000000Y-70100000D02*
G75*
G03*
X102000000Y-60100000I0J10000000D01*
G01*
X46078710Y-37167484D02*
G75*
G03*
X53278710Y-33010565I-947510J9954984D01*
G01*
X83247368Y-70099977D02*
G75*
G03*
X76148421Y-73056922I32J-10000023D01*
G01*
X102000000Y-44418854D02*
X102000000Y-44100000D01*
X92000000Y-34100000D02*
X83247368Y-34100000D01*
X76148437Y-31143062D02*
G75*
G03*
X83247368Y-34100000I7098963J7043062D01*
G01*
X53278709Y-71189436D02*
G75*
G03*
X76148421Y-73056922I12221291J8697136D01*
G01*
X83247368Y-70100000D02*
X92000000Y-70100000D01*
X102000000Y-60100000D02*
X102000000Y-58344998D01*
X101666667Y-46979236D02*
G75*
G03*
X102000000Y-58344998I19333333J-5120764D01*
G01*
X101666678Y-46979239D02*
G75*
G03*
X102000000Y-44418854I-9666678J2560339D01*
G01*
X53278713Y-71189433D02*
G75*
G03*
X46078710Y-67032513I-8147513J-5798067D01*
G01*
%TO.C,J6*%
X81250000Y-51350000D02*
X62750000Y-51350000D01*
X62750000Y-52950000D02*
X81250000Y-52950000D01*
X81750000Y-52450000D02*
X81750000Y-51850000D01*
X62250000Y-51850000D02*
X62250000Y-52450000D01*
X62250000Y-52450000D02*
G75*
G03*
X62750000Y-52950000I500001J1D01*
G01*
X81250000Y-52950000D02*
G75*
G03*
X81750000Y-52450000I-1J500001D01*
G01*
X62750000Y-51350000D02*
G75*
G03*
X62250000Y-51850000I0J-500000D01*
G01*
X81750000Y-51850000D02*
G75*
G03*
X81250000Y-51350000I-500000J0D01*
G01*
%TD*%
M02*
