%TF.GenerationSoftware,KiCad,Pcbnew,(6.0.6)*%
%TF.CreationDate,2022-07-28T22:41:14-07:00*%
%TF.ProjectId,left_main_routed,6c656674-5f6d-4616-996e-5f726f757465,v1.0.0*%
%TF.SameCoordinates,Original*%
%TF.FileFunction,Soldermask,Bot*%
%TF.FilePolarity,Negative*%
%FSLAX46Y46*%
G04 Gerber Fmt 4.6, Leading zero omitted, Abs format (unit mm)*
G04 Created by KiCad (PCBNEW (6.0.6)) date 2022-07-28 22:41:14*
%MOMM*%
%LPD*%
G01*
G04 APERTURE LIST*
G04 Aperture macros list*
%AMRoundRect*
0 Rectangle with rounded corners*
0 $1 Rounding radius*
0 $2 $3 $4 $5 $6 $7 $8 $9 X,Y pos of 4 corners*
0 Add a 4 corners polygon primitive as box body*
4,1,4,$2,$3,$4,$5,$6,$7,$8,$9,$2,$3,0*
0 Add four circle primitives for the rounded corners*
1,1,$1+$1,$2,$3*
1,1,$1+$1,$4,$5*
1,1,$1+$1,$6,$7*
1,1,$1+$1,$8,$9*
0 Add four rect primitives between the rounded corners*
20,1,$1+$1,$2,$3,$4,$5,0*
20,1,$1+$1,$4,$5,$6,$7,0*
20,1,$1+$1,$6,$7,$8,$9,0*
20,1,$1+$1,$8,$9,$2,$3,0*%
G04 Aperture macros list end*
%ADD10C,3.100000*%
%ADD11C,1.801800*%
%ADD12C,3.529000*%
%ADD13RoundRect,0.050000X-1.300000X-1.300000X1.300000X-1.300000X1.300000X1.300000X-1.300000X1.300000X0*%
%ADD14RoundRect,0.050000X-0.850000X0.850000X-0.850000X-0.850000X0.850000X-0.850000X0.850000X0.850000X0*%
%ADD15O,1.800000X1.800000*%
%ADD16RoundRect,0.050000X0.700000X0.650000X-0.700000X0.650000X-0.700000X-0.650000X0.700000X-0.650000X0*%
%ADD17RoundRect,0.050000X0.889000X0.650000X-0.889000X0.650000X-0.889000X-0.650000X0.889000X-0.650000X0*%
%ADD18O,1.878000X1.400000*%
%ADD19C,1.600000*%
%ADD20O,1.700000X2.300000*%
%ADD21RoundRect,0.050000X0.876300X0.876300X-0.876300X0.876300X-0.876300X-0.876300X0.876300X-0.876300X0*%
%ADD22C,1.852600*%
%ADD23C,0.600000*%
%ADD24C,4.100000*%
%ADD25C,1.700000*%
%ADD26RoundRect,0.050000X1.675321X0.076151X-1.066113X1.294566X-1.675321X-0.076151X1.066113X-1.294566X0*%
%ADD27C,0.800000*%
%ADD28RoundRect,0.050000X-0.500000X0.750000X-0.500000X-0.750000X0.500000X-0.750000X0.500000X0.750000X0*%
%ADD29RoundRect,0.050000X0.500000X-0.750000X0.500000X0.750000X-0.500000X0.750000X-0.500000X-0.750000X0*%
%ADD30RoundRect,0.050000X-0.750000X-0.500000X0.750000X-0.500000X0.750000X0.500000X-0.750000X0.500000X0*%
G04 APERTURE END LIST*
D10*
%TO.C,SW30*%
X-77050000Y-50000D03*
D11*
X-71500000Y-6000000D03*
X-82500000Y-6000000D03*
D10*
X-72050000Y-2250000D03*
D12*
X-77000000Y-6000000D03*
D13*
X-80275000Y-50000D03*
X-68725000Y-2250000D03*
%TD*%
D14*
%TO.C,J4*%
X-16000000Y52000000D03*
D15*
X-18540000Y52000000D03*
X-21080000Y52000000D03*
X-23620000Y52000000D03*
%TD*%
D10*
%TO.C,SW26*%
X-44050000Y55750000D03*
D12*
X-49000000Y52000000D03*
D11*
X-43500000Y52000000D03*
X-54500000Y52000000D03*
D10*
X-49050000Y57950000D03*
D13*
X-52275000Y57950000D03*
X-40725000Y55750000D03*
%TD*%
D16*
%TO.C,D28*%
X-70250000Y25300000D03*
D17*
X-69000000Y25300000D03*
D18*
X-75000000Y25300000D03*
D16*
X-73800000Y25300000D03*
%TD*%
D10*
%TO.C,SW29*%
X-72050000Y50750000D03*
D11*
X-71500000Y47000000D03*
D10*
X-77050000Y52950000D03*
D11*
X-82500000Y47000000D03*
D12*
X-77000000Y47000000D03*
D13*
X-80275000Y52950000D03*
X-68725000Y50750000D03*
%TD*%
D12*
%TO.C,SW18*%
X-13000000Y0D03*
D10*
X-13050000Y5950000D03*
D11*
X-18500000Y0D03*
X-7500000Y0D03*
D10*
X-8050000Y3750000D03*
D13*
X-16275000Y5950000D03*
X-4725000Y3750000D03*
%TD*%
D19*
%TO.C,J2*%
X-64000000Y49500000D03*
X-64000000Y56500000D03*
D20*
X-66300000Y46800000D03*
X-61700000Y47900000D03*
X-61700000Y51900000D03*
X-61700000Y54900000D03*
%TD*%
D12*
%TO.C,SW23*%
X-31000000Y34000000D03*
D11*
X-36500000Y34000000D03*
X-25500000Y34000000D03*
D10*
X-26050000Y37750000D03*
X-31050000Y39950000D03*
D13*
X-34275000Y39950000D03*
X-22725000Y37750000D03*
%TD*%
D17*
%TO.C,D19*%
X-10000000Y12300000D03*
D16*
X-11250000Y12300000D03*
D18*
X-16000000Y12300000D03*
D16*
X-14800000Y12300000D03*
%TD*%
D11*
%TO.C,SW31*%
X-92500000Y11000000D03*
D12*
X-87000000Y11000000D03*
D10*
X-87050000Y16950000D03*
X-82050000Y14750000D03*
D11*
X-81500000Y11000000D03*
D13*
X-90275000Y16950000D03*
X-78725000Y14750000D03*
%TD*%
D17*
%TO.C,D32*%
X-94000000Y23300000D03*
D16*
X-95250000Y23300000D03*
X-98800000Y23300000D03*
D18*
X-100000000Y23300000D03*
%TD*%
D11*
%TO.C,SW28*%
X-77500000Y30000000D03*
X-66500000Y30000000D03*
D12*
X-72000000Y30000000D03*
D10*
X-72050000Y35950000D03*
X-67050000Y33750000D03*
D13*
X-75275000Y35950000D03*
X-63725000Y33750000D03*
%TD*%
D16*
%TO.C,D20*%
X-11250000Y29300000D03*
D17*
X-10000000Y29300000D03*
D16*
X-14800000Y29300000D03*
D18*
X-16000000Y29300000D03*
%TD*%
D11*
%TO.C,SW21*%
X-36500000Y0D03*
D10*
X-31050000Y5950000D03*
X-26050000Y3750000D03*
D12*
X-31000000Y0D03*
D11*
X-25500000Y0D03*
D13*
X-34275000Y5950000D03*
X-22725000Y3750000D03*
%TD*%
D21*
%TO.C,U2*%
X-9030000Y59620000D03*
D22*
X-11570000Y59620000D03*
X-14110000Y59620000D03*
X-16650000Y59620000D03*
X-19190000Y59620000D03*
X-21730000Y59620000D03*
X-24270000Y59620000D03*
X-26810000Y59620000D03*
X-29350000Y59620000D03*
X-31890000Y59620000D03*
X-34430000Y59620000D03*
X-36970000Y59620000D03*
X-9030000Y44380000D03*
X-11570000Y44380000D03*
X-14110000Y44380000D03*
X-16650000Y44380000D03*
X-19190000Y44380000D03*
X-21730000Y44380000D03*
X-24270000Y44380000D03*
X-26810000Y44380000D03*
X-29350000Y44380000D03*
X-31890000Y44380000D03*
X-34430000Y44380000D03*
X-36970000Y44380000D03*
%TD*%
D23*
%TO.C,H8*%
X-87000000Y23000000D03*
X-85940000Y25560000D03*
X-85940000Y23440000D03*
X-88060000Y25560000D03*
X-87000000Y26000000D03*
X-88500000Y24500000D03*
X-88060000Y23440000D03*
X-85500000Y24500000D03*
D24*
X-87000000Y24500000D03*
%TD*%
D16*
%TO.C,D18*%
X-11250000Y-4700000D03*
D17*
X-10000000Y-4700000D03*
D16*
X-14800000Y-4700000D03*
D18*
X-16000000Y-4700000D03*
%TD*%
D10*
%TO.C,SW19*%
X-8050000Y20750000D03*
X-13050000Y22950000D03*
D11*
X-18500000Y17000000D03*
X-7500000Y17000000D03*
D12*
X-13000000Y17000000D03*
D13*
X-16275000Y22950000D03*
X-4725000Y20750000D03*
%TD*%
D17*
%TO.C,D30*%
X-74000000Y-10700000D03*
D16*
X-75250000Y-10700000D03*
D18*
X-80000000Y-10700000D03*
D16*
X-78800000Y-10700000D03*
%TD*%
D17*
%TO.C,D24*%
X-46000000Y13300000D03*
D16*
X-47250000Y13300000D03*
X-50800000Y13300000D03*
D18*
X-52000000Y13300000D03*
%TD*%
D19*
%TO.C,S2*%
X-15700000Y-24625000D03*
D25*
X-25810000Y-24625000D03*
X-23270000Y-24625000D03*
X-20730000Y-24625000D03*
X-18190000Y-24625000D03*
X-28200000Y-25850000D03*
X-28200000Y-24000000D03*
%TD*%
D23*
%TO.C,H4*%
X-42060000Y44560000D03*
X-41000000Y42000000D03*
X-42500000Y43500000D03*
X-39940000Y44560000D03*
X-39940000Y42440000D03*
D24*
X-41000000Y43500000D03*
D23*
X-39500000Y43500000D03*
X-41000000Y45000000D03*
X-42060000Y42440000D03*
%TD*%
%TO.C,H12*%
X-29940000Y-7440000D03*
X-31000000Y-10000000D03*
X-29500000Y-8500000D03*
X-32060000Y-9560000D03*
D24*
X-31000000Y-8500000D03*
D23*
X-31000000Y-7000000D03*
X-32060000Y-7440000D03*
X-32500000Y-8500000D03*
X-29940000Y-9560000D03*
%TD*%
D17*
%TO.C,D26*%
X-46000000Y47300000D03*
D16*
X-47250000Y47300000D03*
D18*
X-52000000Y47300000D03*
D16*
X-50800000Y47300000D03*
%TD*%
%TO.C,D22*%
X-29250000Y12300000D03*
D17*
X-28000000Y12300000D03*
D16*
X-32800000Y12300000D03*
D18*
X-34000000Y12300000D03*
%TD*%
D16*
%TO.C,D21*%
X-29250000Y-4700000D03*
D17*
X-28000000Y-4700000D03*
D18*
X-34000000Y-4700000D03*
D16*
X-32800000Y-4700000D03*
%TD*%
D10*
%TO.C,SW24*%
X-44050000Y21750000D03*
X-49050000Y23950000D03*
D11*
X-43500000Y18000000D03*
X-54500000Y18000000D03*
D12*
X-49000000Y18000000D03*
D13*
X-52275000Y23950000D03*
X-40725000Y21750000D03*
%TD*%
D12*
%TO.C,SW27*%
X-67000000Y13000000D03*
D11*
X-72500000Y13000000D03*
D10*
X-62050000Y16750000D03*
X-67050000Y18950000D03*
D11*
X-61500000Y13000000D03*
D13*
X-70275000Y18950000D03*
X-58725000Y16750000D03*
%TD*%
D16*
%TO.C,D27*%
X-65250000Y8300000D03*
D17*
X-64000000Y8300000D03*
D18*
X-70000000Y8300000D03*
D16*
X-68800000Y8300000D03*
%TD*%
D11*
%TO.C,SW32*%
X-102500000Y28000000D03*
D10*
X-97050000Y33950000D03*
D11*
X-91500000Y28000000D03*
D10*
X-92050000Y31750000D03*
D12*
X-97000000Y28000000D03*
D13*
X-100275000Y33950000D03*
X-88725000Y31750000D03*
%TD*%
D11*
%TO.C,SW22*%
X-36500000Y17000000D03*
D10*
X-31050000Y22950000D03*
X-26050000Y20750000D03*
D11*
X-25500000Y17000000D03*
D12*
X-31000000Y17000000D03*
D13*
X-34275000Y22950000D03*
X-22725000Y20750000D03*
%TD*%
D26*
%TO.C,J9*%
X-3238490Y-8479925D03*
X-4050767Y-10307548D03*
X-4863044Y-12135171D03*
X-5675321Y-13962794D03*
X-6487598Y-15790417D03*
X-7299875Y-17618040D03*
X-8112152Y-19445663D03*
X-8924429Y-21273286D03*
X-9736706Y-23100909D03*
%TD*%
D27*
%TO.C,RST2*%
X-7400000Y52000000D03*
X-5600000Y52000000D03*
%TD*%
D10*
%TO.C,SW25*%
X-44050000Y38750000D03*
X-49050000Y40950000D03*
D11*
X-54500000Y35000000D03*
X-43500000Y35000000D03*
D12*
X-49000000Y35000000D03*
D13*
X-52275000Y40950000D03*
X-40725000Y38750000D03*
%TD*%
D23*
%TO.C,H10*%
X-68060000Y5560000D03*
D24*
X-67000000Y4500000D03*
D23*
X-67000000Y6000000D03*
X-65500000Y4500000D03*
X-68060000Y3440000D03*
X-68500000Y4500000D03*
X-65940000Y3440000D03*
X-67000000Y3000000D03*
X-65940000Y5560000D03*
%TD*%
D17*
%TO.C,D23*%
X-28000000Y29300000D03*
D16*
X-29250000Y29300000D03*
D18*
X-34000000Y29300000D03*
D16*
X-32800000Y29300000D03*
%TD*%
D11*
%TO.C,SW20*%
X-18500000Y34000000D03*
X-7500000Y34000000D03*
D10*
X-13050000Y39950000D03*
X-8050000Y37750000D03*
D12*
X-13000000Y34000000D03*
D13*
X-16275000Y39950000D03*
X-4725000Y37750000D03*
%TD*%
D16*
%TO.C,D31*%
X-85250000Y6300000D03*
D17*
X-84000000Y6300000D03*
D18*
X-90000000Y6300000D03*
D16*
X-88800000Y6300000D03*
%TD*%
D17*
%TO.C,D25*%
X-46000000Y30300000D03*
D16*
X-47250000Y30300000D03*
D18*
X-52000000Y30300000D03*
D16*
X-50800000Y30300000D03*
%TD*%
D23*
%TO.C,H2*%
X-20940000Y16060000D03*
X-22000000Y13500000D03*
X-23060000Y13940000D03*
X-23060000Y16060000D03*
X-20500000Y15000000D03*
X-22000000Y16500000D03*
X-23500000Y15000000D03*
D24*
X-22000000Y15000000D03*
D23*
X-20940000Y13940000D03*
%TD*%
D17*
%TO.C,D29*%
X-74000000Y42300000D03*
D16*
X-75250000Y42300000D03*
D18*
X-80000000Y42300000D03*
D16*
X-78800000Y42300000D03*
%TD*%
D23*
%TO.C,H6*%
X-68000000Y43000000D03*
X-68000000Y40000000D03*
D24*
X-68000000Y41500000D03*
D23*
X-66940000Y40440000D03*
X-69060000Y42560000D03*
X-66500000Y41500000D03*
X-69060000Y40440000D03*
X-66940000Y42560000D03*
X-69500000Y41500000D03*
%TD*%
D28*
%TO.C,DS13*%
X-89600000Y38950000D03*
X-86400000Y38950000D03*
X-86400000Y34050000D03*
X-89600000Y34050000D03*
%TD*%
D29*
%TO.C,DS14*%
X-56400000Y45300000D03*
X-59600000Y45300000D03*
X-59600000Y50200000D03*
X-56400000Y50200000D03*
%TD*%
D28*
%TO.C,DS12*%
X-77600000Y11200000D03*
X-74400000Y11200000D03*
X-74400000Y6300000D03*
X-77600000Y6300000D03*
%TD*%
D29*
%TO.C,DS9*%
X-20400000Y-6700000D03*
X-23600000Y-6700000D03*
X-23600000Y-1800000D03*
X-20400000Y-1800000D03*
%TD*%
%TO.C,DS8*%
X-20400000Y27300000D03*
X-23600000Y27300000D03*
X-23600000Y32200000D03*
X-20400000Y32200000D03*
%TD*%
D30*
%TO.C,DS10*%
X-52450000Y-1600000D03*
X-52450000Y1600000D03*
X-47550000Y1600000D03*
X-47550000Y-1600000D03*
%TD*%
M02*
