M48
; DRILL file {KiCad (6.0.6)} date Thu 28 Jul 2022 10:41:17 PM PDT
; FORMAT={-:-/ absolute / metric / decimal}
; #@! TF.CreationDate,2022-07-28T22:41:17-07:00
; #@! TF.GenerationSoftware,Kicad,Pcbnew,(6.0.6)
; #@! TF.FileFunction,Plated,1,2,PTH
FMAT,2
METRIC
; #@! TA.AperFunction,Plated,PTH,ComponentDrill
T1C0.300
; #@! TA.AperFunction,Plated,PTH,ViaDrill
T2C0.400
; #@! TA.AperFunction,Plated,PTH,ComponentDrill
T3C0.400
; #@! TA.AperFunction,Plated,PTH,ViaDrill
T4C0.600
; #@! TA.AperFunction,Plated,PTH,ComponentDrill
T5C0.813
; #@! TA.AperFunction,Plated,PTH,ComponentDrill
T6C0.900
; #@! TA.AperFunction,Plated,PTH,ComponentDrill
T7C1.000
; #@! TA.AperFunction,Plated,PTH,ComponentDrill
T8C1.092
; #@! TA.AperFunction,Plated,PTH,ComponentDrill
T9C2.300
%
G90
G05
T1
X-9.737Y-23.101
X-8.924Y-21.273
X-8.112Y-19.446
X-7.3Y-17.618
X-6.488Y-15.79
X-5.675Y-13.963
X-4.863Y-12.135
X-4.051Y-10.308
X-3.238Y-8.48
T2
X-94.8Y37.8
X-90.7Y43.9
X-79.8Y24.9
X-66.45Y58.35
X-62.6Y-0.1
X-50.1Y1.6
X-47.3Y32.3
X-34.135Y49.165
X-33.1Y46.5
X-33.0Y53.9
X-23.4Y56.5
X-23.069Y49.787
X-21.714Y56.086
X-20.503Y56.274
X-19.5Y56.724
X-12.2Y53.7
X-9.7Y34.7
X-7.5Y41.5
X-6.475Y41.5
X-5.4Y41.5
X-4.2Y41.4
T3
X-88.5Y24.5
X-88.06Y25.56
X-88.06Y23.44
X-87.0Y26.0
X-87.0Y23.0
X-85.94Y25.56
X-85.94Y23.44
X-85.5Y24.5
X-69.5Y41.5
X-69.06Y42.56
X-69.06Y40.44
X-68.5Y4.5
X-68.06Y5.56
X-68.06Y3.44
X-68.0Y43.0
X-68.0Y40.0
X-67.0Y6.0
X-67.0Y3.0
X-66.94Y42.56
X-66.94Y40.44
X-66.5Y41.5
X-65.94Y5.56
X-65.94Y3.44
X-65.5Y4.5
X-42.5Y43.5
X-42.06Y44.56
X-42.06Y42.44
X-41.0Y45.0
X-41.0Y42.0
X-39.94Y44.56
X-39.94Y42.44
X-39.5Y43.5
X-32.5Y-8.5
X-32.06Y-7.44
X-32.06Y-9.56
X-31.0Y-7.0
X-31.0Y-10.0
X-29.94Y-7.44
X-29.94Y-9.56
X-29.5Y-8.5
X-23.5Y15.0
X-23.06Y16.06
X-23.06Y13.94
X-22.0Y16.5
X-22.0Y13.5
X-20.94Y16.06
X-20.94Y13.94
X-20.5Y15.0
T4
X-89.1Y36.8
X-76.4Y8.8
X-57.8Y47.4
X-50.1Y-1.8
X-44.8Y0.1
X-25.6Y14.4
X-21.817Y-3.917
X-20.3Y29.5
X-19.3Y19.2
X-6.383Y-3.317
T5
X-100.0Y23.3
X-94.0Y23.3
X-90.0Y6.3
X-84.0Y6.3
X-80.0Y42.3
X-80.0Y-10.7
X-75.0Y25.3
X-74.0Y42.3
X-74.0Y-10.7
X-70.0Y8.3
X-69.0Y25.3
X-64.0Y8.3
X-52.0Y47.3
X-52.0Y30.3
X-52.0Y13.3
X-46.0Y47.3
X-46.0Y30.3
X-46.0Y13.3
X-34.0Y29.3
X-34.0Y12.3
X-34.0Y-4.7
X-28.0Y29.3
X-28.0Y12.3
X-28.0Y-4.7
X-16.0Y29.3
X-16.0Y12.3
X-16.0Y-4.7
X-10.0Y29.3
X-10.0Y12.3
X-10.0Y-4.7
T6
X-28.2Y-24.0
X-28.2Y-25.85
X-25.81Y-24.625
X-23.27Y-24.625
X-20.73Y-24.625
X-18.19Y-24.625
T7
X-23.62Y52.0
X-21.08Y52.0
X-18.54Y52.0
X-16.0Y52.0
T8
X-36.97Y59.62
X-36.97Y44.38
X-34.43Y59.62
X-34.43Y44.38
X-31.89Y59.62
X-31.89Y44.38
X-29.35Y59.62
X-29.35Y44.38
X-26.81Y59.62
X-26.81Y44.38
X-24.27Y59.62
X-24.27Y44.38
X-21.73Y59.62
X-21.73Y44.38
X-19.19Y59.62
X-19.19Y44.38
X-16.65Y59.62
X-16.65Y44.38
X-14.11Y59.62
X-14.11Y44.38
X-11.57Y59.62
X-11.57Y44.38
X-9.03Y59.62
X-9.03Y44.38
T9
X-87.0Y24.5
X-68.0Y41.5
X-67.0Y4.5
X-41.0Y43.5
X-31.0Y-8.5
X-22.0Y15.0
T6
X-66.3Y47.1G85X-66.3Y46.5
G05
X-61.7Y55.2G85X-61.7Y54.6
G05
X-61.7Y52.2G85X-61.7Y51.6
G05
X-61.7Y48.2G85X-61.7Y47.6
G05
T0
M30
