%TF.GenerationSoftware,KiCad,Pcbnew,(6.0.6)*%
%TF.CreationDate,2022-07-28T22:41:14-07:00*%
%TF.ProjectId,left_main_routed,6c656674-5f6d-4616-996e-5f726f757465,v1.0.0*%
%TF.SameCoordinates,Original*%
%TF.FileFunction,Legend,Bot*%
%TF.FilePolarity,Positive*%
%FSLAX46Y46*%
G04 Gerber Fmt 4.6, Leading zero omitted, Abs format (unit mm)*
G04 Created by KiCad (PCBNEW (6.0.6)) date 2022-07-28 22:41:14*
%MOMM*%
%LPD*%
G01*
G04 APERTURE LIST*
%ADD10C,0.150000*%
%ADD11C,0.120000*%
%ADD12R,1.752600X1.752600*%
%ADD13C,1.752600*%
G04 APERTURE END LIST*
D10*
%TO.C,U2*%
X-21338095Y57721428D02*
X-22138095Y57721428D01*
X-22138095Y57416666D01*
X-22100000Y57340476D01*
X-22061904Y57302380D01*
X-21985714Y57264285D01*
X-21871428Y57264285D01*
X-21795238Y57302380D01*
X-21757142Y57340476D01*
X-21719047Y57416666D01*
X-21719047Y57721428D01*
X-22061904Y56959523D02*
X-22100000Y56921428D01*
X-22138095Y56845238D01*
X-22138095Y56654761D01*
X-22100000Y56578571D01*
X-22061904Y56540476D01*
X-21985714Y56502380D01*
X-21909523Y56502380D01*
X-21795238Y56540476D01*
X-21338095Y56997619D01*
X-21338095Y56502380D01*
X-22138095Y56007142D02*
X-22138095Y55930952D01*
X-22100000Y55854761D01*
X-22061904Y55816666D01*
X-21985714Y55778571D01*
X-21833333Y55740476D01*
X-21642857Y55740476D01*
X-21490476Y55778571D01*
X-21414285Y55816666D01*
X-21376190Y55854761D01*
X-21338095Y55930952D01*
X-21338095Y56007142D01*
X-21376190Y56083333D01*
X-21414285Y56121428D01*
X-21490476Y56159523D01*
X-21642857Y56197619D01*
X-21833333Y56197619D01*
X-21985714Y56159523D01*
X-22061904Y56121428D01*
X-22100000Y56083333D01*
X-22138095Y56007142D01*
X-11278095Y48221428D02*
X-12078095Y48221428D01*
X-12078095Y47916666D01*
X-12040000Y47840476D01*
X-12001904Y47802380D01*
X-11925714Y47764285D01*
X-11811428Y47764285D01*
X-11735238Y47802380D01*
X-11697142Y47840476D01*
X-11659047Y47916666D01*
X-11659047Y48221428D01*
X-12078095Y47269047D02*
X-12078095Y47192857D01*
X-12040000Y47116666D01*
X-12001904Y47078571D01*
X-11925714Y47040476D01*
X-11773333Y47002380D01*
X-11582857Y47002380D01*
X-11430476Y47040476D01*
X-11354285Y47078571D01*
X-11316190Y47116666D01*
X-11278095Y47192857D01*
X-11278095Y47269047D01*
X-11316190Y47345238D01*
X-11354285Y47383333D01*
X-11430476Y47421428D01*
X-11582857Y47459523D01*
X-11773333Y47459523D01*
X-11925714Y47421428D01*
X-12001904Y47383333D01*
X-12040000Y47345238D01*
X-12078095Y47269047D01*
X-12078095Y46507142D02*
X-12078095Y46430952D01*
X-12040000Y46354761D01*
X-12001904Y46316666D01*
X-11925714Y46278571D01*
X-11773333Y46240476D01*
X-11582857Y46240476D01*
X-11430476Y46278571D01*
X-11354285Y46316666D01*
X-11316190Y46354761D01*
X-11278095Y46430952D01*
X-11278095Y46507142D01*
X-11316190Y46583333D01*
X-11354285Y46621428D01*
X-11430476Y46659523D01*
X-11582857Y46697619D01*
X-11773333Y46697619D01*
X-11925714Y46659523D01*
X-12001904Y46621428D01*
X-12040000Y46583333D01*
X-12078095Y46507142D01*
X-8638095Y57302380D02*
X-9019047Y57569047D01*
X-8638095Y57759523D02*
X-9438095Y57759523D01*
X-9438095Y57454761D01*
X-9400000Y57378571D01*
X-9361904Y57340476D01*
X-9285714Y57302380D01*
X-9171428Y57302380D01*
X-9095238Y57340476D01*
X-9057142Y57378571D01*
X-9019047Y57454761D01*
X-9019047Y57759523D01*
X-8866666Y56997619D02*
X-8866666Y56616666D01*
X-8638095Y57073809D02*
X-9438095Y56807142D01*
X-8638095Y56540476D01*
X-9438095Y56350000D02*
X-8638095Y56159523D01*
X-9209523Y56007142D01*
X-8638095Y55854761D01*
X-9438095Y55664285D01*
X-21438095Y48221428D02*
X-22238095Y48221428D01*
X-22238095Y47916666D01*
X-22200000Y47840476D01*
X-22161904Y47802380D01*
X-22085714Y47764285D01*
X-21971428Y47764285D01*
X-21895238Y47802380D01*
X-21857142Y47840476D01*
X-21819047Y47916666D01*
X-21819047Y48221428D01*
X-22238095Y47269047D02*
X-22238095Y47192857D01*
X-22200000Y47116666D01*
X-22161904Y47078571D01*
X-22085714Y47040476D01*
X-21933333Y47002380D01*
X-21742857Y47002380D01*
X-21590476Y47040476D01*
X-21514285Y47078571D01*
X-21476190Y47116666D01*
X-21438095Y47192857D01*
X-21438095Y47269047D01*
X-21476190Y47345238D01*
X-21514285Y47383333D01*
X-21590476Y47421428D01*
X-21742857Y47459523D01*
X-21933333Y47459523D01*
X-22085714Y47421428D01*
X-22161904Y47383333D01*
X-22200000Y47345238D01*
X-22238095Y47269047D01*
X-22238095Y46735714D02*
X-22238095Y46240476D01*
X-21933333Y46507142D01*
X-21933333Y46392857D01*
X-21895238Y46316666D01*
X-21857142Y46278571D01*
X-21780952Y46240476D01*
X-21590476Y46240476D01*
X-21514285Y46278571D01*
X-21476190Y46316666D01*
X-21438095Y46392857D01*
X-21438095Y46621428D01*
X-21476190Y46697619D01*
X-21514285Y46735714D01*
X-26418095Y57721428D02*
X-27218095Y57721428D01*
X-27218095Y57416666D01*
X-27180000Y57340476D01*
X-27141904Y57302380D01*
X-27065714Y57264285D01*
X-26951428Y57264285D01*
X-26875238Y57302380D01*
X-26837142Y57340476D01*
X-26799047Y57416666D01*
X-26799047Y57721428D01*
X-26418095Y56502380D02*
X-26418095Y56959523D01*
X-26418095Y56730952D02*
X-27218095Y56730952D01*
X-27103809Y56807142D01*
X-27027619Y56883333D01*
X-26989523Y56959523D01*
X-26875238Y56045238D02*
X-26913333Y56121428D01*
X-26951428Y56159523D01*
X-27027619Y56197619D01*
X-27065714Y56197619D01*
X-27141904Y56159523D01*
X-27180000Y56121428D01*
X-27218095Y56045238D01*
X-27218095Y55892857D01*
X-27180000Y55816666D01*
X-27141904Y55778571D01*
X-27065714Y55740476D01*
X-27027619Y55740476D01*
X-26951428Y55778571D01*
X-26913333Y55816666D01*
X-26875238Y55892857D01*
X-26875238Y56045238D01*
X-26837142Y56121428D01*
X-26799047Y56159523D01*
X-26722857Y56197619D01*
X-26570476Y56197619D01*
X-26494285Y56159523D01*
X-26456190Y56121428D01*
X-26418095Y56045238D01*
X-26418095Y55892857D01*
X-26456190Y55816666D01*
X-26494285Y55778571D01*
X-26570476Y55740476D01*
X-26722857Y55740476D01*
X-26799047Y55778571D01*
X-26837142Y55816666D01*
X-26875238Y55892857D01*
X-31598095Y48221428D02*
X-32398095Y48221428D01*
X-32398095Y47916666D01*
X-32360000Y47840476D01*
X-32321904Y47802380D01*
X-32245714Y47764285D01*
X-32131428Y47764285D01*
X-32055238Y47802380D01*
X-32017142Y47840476D01*
X-31979047Y47916666D01*
X-31979047Y48221428D01*
X-32398095Y47269047D02*
X-32398095Y47192857D01*
X-32360000Y47116666D01*
X-32321904Y47078571D01*
X-32245714Y47040476D01*
X-32093333Y47002380D01*
X-31902857Y47002380D01*
X-31750476Y47040476D01*
X-31674285Y47078571D01*
X-31636190Y47116666D01*
X-31598095Y47192857D01*
X-31598095Y47269047D01*
X-31636190Y47345238D01*
X-31674285Y47383333D01*
X-31750476Y47421428D01*
X-31902857Y47459523D01*
X-32093333Y47459523D01*
X-32245714Y47421428D01*
X-32321904Y47383333D01*
X-32360000Y47345238D01*
X-32398095Y47269047D01*
X-32398095Y46735714D02*
X-32398095Y46202380D01*
X-31598095Y46545238D01*
X-28958095Y57721428D02*
X-29758095Y57721428D01*
X-29758095Y57416666D01*
X-29720000Y57340476D01*
X-29681904Y57302380D01*
X-29605714Y57264285D01*
X-29491428Y57264285D01*
X-29415238Y57302380D01*
X-29377142Y57340476D01*
X-29339047Y57416666D01*
X-29339047Y57721428D01*
X-28958095Y56502380D02*
X-28958095Y56959523D01*
X-28958095Y56730952D02*
X-29758095Y56730952D01*
X-29643809Y56807142D01*
X-29567619Y56883333D01*
X-29529523Y56959523D01*
X-29758095Y55778571D02*
X-29758095Y56159523D01*
X-29377142Y56197619D01*
X-29415238Y56159523D01*
X-29453333Y56083333D01*
X-29453333Y55892857D01*
X-29415238Y55816666D01*
X-29377142Y55778571D01*
X-29300952Y55740476D01*
X-29110476Y55740476D01*
X-29034285Y55778571D01*
X-28996190Y55816666D01*
X-28958095Y55892857D01*
X-28958095Y56083333D01*
X-28996190Y56159523D01*
X-29034285Y56197619D01*
X-17058095Y57816666D02*
X-16258095Y57550000D01*
X-17058095Y57283333D01*
X-16334285Y56559523D02*
X-16296190Y56597619D01*
X-16258095Y56711904D01*
X-16258095Y56788095D01*
X-16296190Y56902380D01*
X-16372380Y56978571D01*
X-16448571Y57016666D01*
X-16600952Y57054761D01*
X-16715238Y57054761D01*
X-16867619Y57016666D01*
X-16943809Y56978571D01*
X-17020000Y56902380D01*
X-17058095Y56788095D01*
X-17058095Y56711904D01*
X-17020000Y56597619D01*
X-16981904Y56559523D01*
X-16334285Y55759523D02*
X-16296190Y55797619D01*
X-16258095Y55911904D01*
X-16258095Y55988095D01*
X-16296190Y56102380D01*
X-16372380Y56178571D01*
X-16448571Y56216666D01*
X-16600952Y56254761D01*
X-16715238Y56254761D01*
X-16867619Y56216666D01*
X-16943809Y56178571D01*
X-17020000Y56102380D01*
X-17058095Y55988095D01*
X-17058095Y55911904D01*
X-17020000Y55797619D01*
X-16981904Y55759523D01*
X-26518095Y48221428D02*
X-27318095Y48221428D01*
X-27318095Y47916666D01*
X-27280000Y47840476D01*
X-27241904Y47802380D01*
X-27165714Y47764285D01*
X-27051428Y47764285D01*
X-26975238Y47802380D01*
X-26937142Y47840476D01*
X-26899047Y47916666D01*
X-26899047Y48221428D01*
X-27318095Y47269047D02*
X-27318095Y47192857D01*
X-27280000Y47116666D01*
X-27241904Y47078571D01*
X-27165714Y47040476D01*
X-27013333Y47002380D01*
X-26822857Y47002380D01*
X-26670476Y47040476D01*
X-26594285Y47078571D01*
X-26556190Y47116666D01*
X-26518095Y47192857D01*
X-26518095Y47269047D01*
X-26556190Y47345238D01*
X-26594285Y47383333D01*
X-26670476Y47421428D01*
X-26822857Y47459523D01*
X-27013333Y47459523D01*
X-27165714Y47421428D01*
X-27241904Y47383333D01*
X-27280000Y47345238D01*
X-27318095Y47269047D01*
X-27318095Y46278571D02*
X-27318095Y46659523D01*
X-26937142Y46697619D01*
X-26975238Y46659523D01*
X-27013333Y46583333D01*
X-27013333Y46392857D01*
X-26975238Y46316666D01*
X-26937142Y46278571D01*
X-26860952Y46240476D01*
X-26670476Y46240476D01*
X-26594285Y46278571D01*
X-26556190Y46316666D01*
X-26518095Y46392857D01*
X-26518095Y46583333D01*
X-26556190Y46659523D01*
X-26594285Y46697619D01*
X-31498095Y57721428D02*
X-32298095Y57721428D01*
X-32298095Y57416666D01*
X-32260000Y57340476D01*
X-32221904Y57302380D01*
X-32145714Y57264285D01*
X-32031428Y57264285D01*
X-31955238Y57302380D01*
X-31917142Y57340476D01*
X-31879047Y57416666D01*
X-31879047Y57721428D01*
X-31498095Y56502380D02*
X-31498095Y56959523D01*
X-31498095Y56730952D02*
X-32298095Y56730952D01*
X-32183809Y56807142D01*
X-32107619Y56883333D01*
X-32069523Y56959523D01*
X-32031428Y55816666D02*
X-31498095Y55816666D01*
X-32336190Y56007142D02*
X-31764761Y56197619D01*
X-31764761Y55702380D01*
X-8738095Y48221428D02*
X-9538095Y48221428D01*
X-9538095Y47916666D01*
X-9500000Y47840476D01*
X-9461904Y47802380D01*
X-9385714Y47764285D01*
X-9271428Y47764285D01*
X-9195238Y47802380D01*
X-9157142Y47840476D01*
X-9119047Y47916666D01*
X-9119047Y48221428D01*
X-9538095Y47269047D02*
X-9538095Y47192857D01*
X-9500000Y47116666D01*
X-9461904Y47078571D01*
X-9385714Y47040476D01*
X-9233333Y47002380D01*
X-9042857Y47002380D01*
X-8890476Y47040476D01*
X-8814285Y47078571D01*
X-8776190Y47116666D01*
X-8738095Y47192857D01*
X-8738095Y47269047D01*
X-8776190Y47345238D01*
X-8814285Y47383333D01*
X-8890476Y47421428D01*
X-9042857Y47459523D01*
X-9233333Y47459523D01*
X-9385714Y47421428D01*
X-9461904Y47383333D01*
X-9500000Y47345238D01*
X-9538095Y47269047D01*
X-8738095Y46240476D02*
X-8738095Y46697619D01*
X-8738095Y46469047D02*
X-9538095Y46469047D01*
X-9423809Y46545238D01*
X-9347619Y46621428D01*
X-9309523Y46697619D01*
X-23978095Y48221428D02*
X-24778095Y48221428D01*
X-24778095Y47916666D01*
X-24740000Y47840476D01*
X-24701904Y47802380D01*
X-24625714Y47764285D01*
X-24511428Y47764285D01*
X-24435238Y47802380D01*
X-24397142Y47840476D01*
X-24359047Y47916666D01*
X-24359047Y48221428D01*
X-24778095Y47269047D02*
X-24778095Y47192857D01*
X-24740000Y47116666D01*
X-24701904Y47078571D01*
X-24625714Y47040476D01*
X-24473333Y47002380D01*
X-24282857Y47002380D01*
X-24130476Y47040476D01*
X-24054285Y47078571D01*
X-24016190Y47116666D01*
X-23978095Y47192857D01*
X-23978095Y47269047D01*
X-24016190Y47345238D01*
X-24054285Y47383333D01*
X-24130476Y47421428D01*
X-24282857Y47459523D01*
X-24473333Y47459523D01*
X-24625714Y47421428D01*
X-24701904Y47383333D01*
X-24740000Y47345238D01*
X-24778095Y47269047D01*
X-24511428Y46316666D02*
X-23978095Y46316666D01*
X-24816190Y46507142D02*
X-24244761Y46697619D01*
X-24244761Y46202380D01*
X-18898095Y48221428D02*
X-19698095Y48221428D01*
X-19698095Y47916666D01*
X-19660000Y47840476D01*
X-19621904Y47802380D01*
X-19545714Y47764285D01*
X-19431428Y47764285D01*
X-19355238Y47802380D01*
X-19317142Y47840476D01*
X-19279047Y47916666D01*
X-19279047Y48221428D01*
X-19698095Y47269047D02*
X-19698095Y47192857D01*
X-19660000Y47116666D01*
X-19621904Y47078571D01*
X-19545714Y47040476D01*
X-19393333Y47002380D01*
X-19202857Y47002380D01*
X-19050476Y47040476D01*
X-18974285Y47078571D01*
X-18936190Y47116666D01*
X-18898095Y47192857D01*
X-18898095Y47269047D01*
X-18936190Y47345238D01*
X-18974285Y47383333D01*
X-19050476Y47421428D01*
X-19202857Y47459523D01*
X-19393333Y47459523D01*
X-19545714Y47421428D01*
X-19621904Y47383333D01*
X-19660000Y47345238D01*
X-19698095Y47269047D01*
X-19621904Y46697619D02*
X-19660000Y46659523D01*
X-19698095Y46583333D01*
X-19698095Y46392857D01*
X-19660000Y46316666D01*
X-19621904Y46278571D01*
X-19545714Y46240476D01*
X-19469523Y46240476D01*
X-19355238Y46278571D01*
X-18898095Y46735714D01*
X-18898095Y46240476D01*
X-34138095Y48221428D02*
X-34938095Y48221428D01*
X-34938095Y47916666D01*
X-34900000Y47840476D01*
X-34861904Y47802380D01*
X-34785714Y47764285D01*
X-34671428Y47764285D01*
X-34595238Y47802380D01*
X-34557142Y47840476D01*
X-34519047Y47916666D01*
X-34519047Y48221428D01*
X-34938095Y47269047D02*
X-34938095Y47192857D01*
X-34900000Y47116666D01*
X-34861904Y47078571D01*
X-34785714Y47040476D01*
X-34633333Y47002380D01*
X-34442857Y47002380D01*
X-34290476Y47040476D01*
X-34214285Y47078571D01*
X-34176190Y47116666D01*
X-34138095Y47192857D01*
X-34138095Y47269047D01*
X-34176190Y47345238D01*
X-34214285Y47383333D01*
X-34290476Y47421428D01*
X-34442857Y47459523D01*
X-34633333Y47459523D01*
X-34785714Y47421428D01*
X-34861904Y47383333D01*
X-34900000Y47345238D01*
X-34938095Y47269047D01*
X-34595238Y46545238D02*
X-34633333Y46621428D01*
X-34671428Y46659523D01*
X-34747619Y46697619D01*
X-34785714Y46697619D01*
X-34861904Y46659523D01*
X-34900000Y46621428D01*
X-34938095Y46545238D01*
X-34938095Y46392857D01*
X-34900000Y46316666D01*
X-34861904Y46278571D01*
X-34785714Y46240476D01*
X-34747619Y46240476D01*
X-34671428Y46278571D01*
X-34633333Y46316666D01*
X-34595238Y46392857D01*
X-34595238Y46545238D01*
X-34557142Y46621428D01*
X-34519047Y46659523D01*
X-34442857Y46697619D01*
X-34290476Y46697619D01*
X-34214285Y46659523D01*
X-34176190Y46621428D01*
X-34138095Y46545238D01*
X-34138095Y46392857D01*
X-34176190Y46316666D01*
X-34214285Y46278571D01*
X-34290476Y46240476D01*
X-34442857Y46240476D01*
X-34519047Y46278571D01*
X-34557142Y46316666D01*
X-34595238Y46392857D01*
X-18798095Y57721428D02*
X-19598095Y57721428D01*
X-19598095Y57416666D01*
X-19560000Y57340476D01*
X-19521904Y57302380D01*
X-19445714Y57264285D01*
X-19331428Y57264285D01*
X-19255238Y57302380D01*
X-19217142Y57340476D01*
X-19179047Y57416666D01*
X-19179047Y57721428D01*
X-19521904Y56959523D02*
X-19560000Y56921428D01*
X-19598095Y56845238D01*
X-19598095Y56654761D01*
X-19560000Y56578571D01*
X-19521904Y56540476D01*
X-19445714Y56502380D01*
X-19369523Y56502380D01*
X-19255238Y56540476D01*
X-18798095Y56997619D01*
X-18798095Y56502380D01*
X-18798095Y55740476D02*
X-18798095Y56197619D01*
X-18798095Y55969047D02*
X-19598095Y55969047D01*
X-19483809Y56045238D01*
X-19407619Y56121428D01*
X-19369523Y56197619D01*
X-29058095Y48221428D02*
X-29858095Y48221428D01*
X-29858095Y47916666D01*
X-29820000Y47840476D01*
X-29781904Y47802380D01*
X-29705714Y47764285D01*
X-29591428Y47764285D01*
X-29515238Y47802380D01*
X-29477142Y47840476D01*
X-29439047Y47916666D01*
X-29439047Y48221428D01*
X-29858095Y47269047D02*
X-29858095Y47192857D01*
X-29820000Y47116666D01*
X-29781904Y47078571D01*
X-29705714Y47040476D01*
X-29553333Y47002380D01*
X-29362857Y47002380D01*
X-29210476Y47040476D01*
X-29134285Y47078571D01*
X-29096190Y47116666D01*
X-29058095Y47192857D01*
X-29058095Y47269047D01*
X-29096190Y47345238D01*
X-29134285Y47383333D01*
X-29210476Y47421428D01*
X-29362857Y47459523D01*
X-29553333Y47459523D01*
X-29705714Y47421428D01*
X-29781904Y47383333D01*
X-29820000Y47345238D01*
X-29858095Y47269047D01*
X-29858095Y46316666D02*
X-29858095Y46469047D01*
X-29820000Y46545238D01*
X-29781904Y46583333D01*
X-29667619Y46659523D01*
X-29515238Y46697619D01*
X-29210476Y46697619D01*
X-29134285Y46659523D01*
X-29096190Y46621428D01*
X-29058095Y46545238D01*
X-29058095Y46392857D01*
X-29096190Y46316666D01*
X-29134285Y46278571D01*
X-29210476Y46240476D01*
X-29400952Y46240476D01*
X-29477142Y46278571D01*
X-29515238Y46316666D01*
X-29553333Y46392857D01*
X-29553333Y46545238D01*
X-29515238Y46621428D01*
X-29477142Y46659523D01*
X-29400952Y46697619D01*
X-17120000Y47859523D02*
X-17158095Y47935714D01*
X-17158095Y48050000D01*
X-17120000Y48164285D01*
X-17043809Y48240476D01*
X-16967619Y48278571D01*
X-16815238Y48316666D01*
X-16700952Y48316666D01*
X-16548571Y48278571D01*
X-16472380Y48240476D01*
X-16396190Y48164285D01*
X-16358095Y48050000D01*
X-16358095Y47973809D01*
X-16396190Y47859523D01*
X-16434285Y47821428D01*
X-16700952Y47821428D01*
X-16700952Y47973809D01*
X-16358095Y47478571D02*
X-17158095Y47478571D01*
X-16358095Y47021428D01*
X-17158095Y47021428D01*
X-16358095Y46640476D02*
X-17158095Y46640476D01*
X-17158095Y46450000D01*
X-17120000Y46335714D01*
X-17043809Y46259523D01*
X-16967619Y46221428D01*
X-16815238Y46183333D01*
X-16700952Y46183333D01*
X-16548571Y46221428D01*
X-16472380Y46259523D01*
X-16396190Y46335714D01*
X-16358095Y46450000D01*
X-16358095Y46640476D01*
X-13718095Y57188095D02*
X-14099047Y57454761D01*
X-13718095Y57645238D02*
X-14518095Y57645238D01*
X-14518095Y57340476D01*
X-14480000Y57264285D01*
X-14441904Y57226190D01*
X-14365714Y57188095D01*
X-14251428Y57188095D01*
X-14175238Y57226190D01*
X-14137142Y57264285D01*
X-14099047Y57340476D01*
X-14099047Y57645238D01*
X-13756190Y56883333D02*
X-13718095Y56769047D01*
X-13718095Y56578571D01*
X-13756190Y56502380D01*
X-13794285Y56464285D01*
X-13870476Y56426190D01*
X-13946666Y56426190D01*
X-14022857Y56464285D01*
X-14060952Y56502380D01*
X-14099047Y56578571D01*
X-14137142Y56730952D01*
X-14175238Y56807142D01*
X-14213333Y56845238D01*
X-14289523Y56883333D01*
X-14365714Y56883333D01*
X-14441904Y56845238D01*
X-14480000Y56807142D01*
X-14518095Y56730952D01*
X-14518095Y56540476D01*
X-14480000Y56426190D01*
X-14518095Y56197619D02*
X-14518095Y55740476D01*
X-13718095Y55969047D02*
X-14518095Y55969047D01*
X-36578095Y57721428D02*
X-37378095Y57721428D01*
X-37378095Y57416666D01*
X-37340000Y57340476D01*
X-37301904Y57302380D01*
X-37225714Y57264285D01*
X-37111428Y57264285D01*
X-37035238Y57302380D01*
X-36997142Y57340476D01*
X-36959047Y57416666D01*
X-36959047Y57721428D01*
X-36578095Y56502380D02*
X-36578095Y56959523D01*
X-36578095Y56730952D02*
X-37378095Y56730952D01*
X-37263809Y56807142D01*
X-37187619Y56883333D01*
X-37149523Y56959523D01*
X-37378095Y56007142D02*
X-37378095Y55930952D01*
X-37340000Y55854761D01*
X-37301904Y55816666D01*
X-37225714Y55778571D01*
X-37073333Y55740476D01*
X-36882857Y55740476D01*
X-36730476Y55778571D01*
X-36654285Y55816666D01*
X-36616190Y55854761D01*
X-36578095Y55930952D01*
X-36578095Y56007142D01*
X-36616190Y56083333D01*
X-36654285Y56121428D01*
X-36730476Y56159523D01*
X-36882857Y56197619D01*
X-37073333Y56197619D01*
X-37225714Y56159523D01*
X-37301904Y56121428D01*
X-37340000Y56083333D01*
X-37378095Y56007142D01*
X-11940000Y57359523D02*
X-11978095Y57435714D01*
X-11978095Y57550000D01*
X-11940000Y57664285D01*
X-11863809Y57740476D01*
X-11787619Y57778571D01*
X-11635238Y57816666D01*
X-11520952Y57816666D01*
X-11368571Y57778571D01*
X-11292380Y57740476D01*
X-11216190Y57664285D01*
X-11178095Y57550000D01*
X-11178095Y57473809D01*
X-11216190Y57359523D01*
X-11254285Y57321428D01*
X-11520952Y57321428D01*
X-11520952Y57473809D01*
X-11178095Y56978571D02*
X-11978095Y56978571D01*
X-11178095Y56521428D01*
X-11978095Y56521428D01*
X-11178095Y56140476D02*
X-11978095Y56140476D01*
X-11978095Y55950000D01*
X-11940000Y55835714D01*
X-11863809Y55759523D01*
X-11787619Y55721428D01*
X-11635238Y55683333D01*
X-11520952Y55683333D01*
X-11368571Y55721428D01*
X-11292380Y55759523D01*
X-11216190Y55835714D01*
X-11178095Y55950000D01*
X-11178095Y56140476D01*
X-23878095Y57721428D02*
X-24678095Y57721428D01*
X-24678095Y57416666D01*
X-24640000Y57340476D01*
X-24601904Y57302380D01*
X-24525714Y57264285D01*
X-24411428Y57264285D01*
X-24335238Y57302380D01*
X-24297142Y57340476D01*
X-24259047Y57416666D01*
X-24259047Y57721428D01*
X-23878095Y56502380D02*
X-23878095Y56959523D01*
X-23878095Y56730952D02*
X-24678095Y56730952D01*
X-24563809Y56807142D01*
X-24487619Y56883333D01*
X-24449523Y56959523D01*
X-23878095Y56121428D02*
X-23878095Y55969047D01*
X-23916190Y55892857D01*
X-23954285Y55854761D01*
X-24068571Y55778571D01*
X-24220952Y55740476D01*
X-24525714Y55740476D01*
X-24601904Y55778571D01*
X-24640000Y55816666D01*
X-24678095Y55892857D01*
X-24678095Y56045238D01*
X-24640000Y56121428D01*
X-24601904Y56159523D01*
X-24525714Y56197619D01*
X-24335238Y56197619D01*
X-24259047Y56159523D01*
X-24220952Y56121428D01*
X-24182857Y56045238D01*
X-24182857Y55892857D01*
X-24220952Y55816666D01*
X-24259047Y55778571D01*
X-24335238Y55740476D01*
X-34038095Y57721428D02*
X-34838095Y57721428D01*
X-34838095Y57416666D01*
X-34800000Y57340476D01*
X-34761904Y57302380D01*
X-34685714Y57264285D01*
X-34571428Y57264285D01*
X-34495238Y57302380D01*
X-34457142Y57340476D01*
X-34419047Y57416666D01*
X-34419047Y57721428D01*
X-34038095Y56502380D02*
X-34038095Y56959523D01*
X-34038095Y56730952D02*
X-34838095Y56730952D01*
X-34723809Y56807142D01*
X-34647619Y56883333D01*
X-34609523Y56959523D01*
X-34838095Y55816666D02*
X-34838095Y55969047D01*
X-34800000Y56045238D01*
X-34761904Y56083333D01*
X-34647619Y56159523D01*
X-34495238Y56197619D01*
X-34190476Y56197619D01*
X-34114285Y56159523D01*
X-34076190Y56121428D01*
X-34038095Y56045238D01*
X-34038095Y55892857D01*
X-34076190Y55816666D01*
X-34114285Y55778571D01*
X-34190476Y55740476D01*
X-34380952Y55740476D01*
X-34457142Y55778571D01*
X-34495238Y55816666D01*
X-34533333Y55892857D01*
X-34533333Y56045238D01*
X-34495238Y56121428D01*
X-34457142Y56159523D01*
X-34380952Y56197619D01*
X-36678095Y48221428D02*
X-37478095Y48221428D01*
X-37478095Y47916666D01*
X-37440000Y47840476D01*
X-37401904Y47802380D01*
X-37325714Y47764285D01*
X-37211428Y47764285D01*
X-37135238Y47802380D01*
X-37097142Y47840476D01*
X-37059047Y47916666D01*
X-37059047Y48221428D01*
X-37478095Y47269047D02*
X-37478095Y47192857D01*
X-37440000Y47116666D01*
X-37401904Y47078571D01*
X-37325714Y47040476D01*
X-37173333Y47002380D01*
X-36982857Y47002380D01*
X-36830476Y47040476D01*
X-36754285Y47078571D01*
X-36716190Y47116666D01*
X-36678095Y47192857D01*
X-36678095Y47269047D01*
X-36716190Y47345238D01*
X-36754285Y47383333D01*
X-36830476Y47421428D01*
X-36982857Y47459523D01*
X-37173333Y47459523D01*
X-37325714Y47421428D01*
X-37401904Y47383333D01*
X-37440000Y47345238D01*
X-37478095Y47269047D01*
X-36678095Y46621428D02*
X-36678095Y46469047D01*
X-36716190Y46392857D01*
X-36754285Y46354761D01*
X-36868571Y46278571D01*
X-37020952Y46240476D01*
X-37325714Y46240476D01*
X-37401904Y46278571D01*
X-37440000Y46316666D01*
X-37478095Y46392857D01*
X-37478095Y46545238D01*
X-37440000Y46621428D01*
X-37401904Y46659523D01*
X-37325714Y46697619D01*
X-37135238Y46697619D01*
X-37059047Y46659523D01*
X-37020952Y46621428D01*
X-36982857Y46545238D01*
X-36982857Y46392857D01*
X-37020952Y46316666D01*
X-37059047Y46278571D01*
X-37135238Y46240476D01*
X-14580000Y47859523D02*
X-14618095Y47935714D01*
X-14618095Y48050000D01*
X-14580000Y48164285D01*
X-14503809Y48240476D01*
X-14427619Y48278571D01*
X-14275238Y48316666D01*
X-14160952Y48316666D01*
X-14008571Y48278571D01*
X-13932380Y48240476D01*
X-13856190Y48164285D01*
X-13818095Y48050000D01*
X-13818095Y47973809D01*
X-13856190Y47859523D01*
X-13894285Y47821428D01*
X-14160952Y47821428D01*
X-14160952Y47973809D01*
X-13818095Y47478571D02*
X-14618095Y47478571D01*
X-13818095Y47021428D01*
X-14618095Y47021428D01*
X-13818095Y46640476D02*
X-14618095Y46640476D01*
X-14618095Y46450000D01*
X-14580000Y46335714D01*
X-14503809Y46259523D01*
X-14427619Y46221428D01*
X-14275238Y46183333D01*
X-14160952Y46183333D01*
X-14008571Y46221428D01*
X-13932380Y46259523D01*
X-13856190Y46335714D01*
X-13818095Y46450000D01*
X-13818095Y46640476D01*
%TO.C,DS13*%
X-91047619Y38190476D02*
X-92047619Y38190476D01*
X-92047619Y37952380D01*
X-92000000Y37809523D01*
X-91904761Y37714285D01*
X-91809523Y37666666D01*
X-91619047Y37619047D01*
X-91476190Y37619047D01*
X-91285714Y37666666D01*
X-91190476Y37714285D01*
X-91095238Y37809523D01*
X-91047619Y37952380D01*
X-91047619Y38190476D01*
X-91095238Y37238095D02*
X-91047619Y37095238D01*
X-91047619Y36857142D01*
X-91095238Y36761904D01*
X-91142857Y36714285D01*
X-91238095Y36666666D01*
X-91333333Y36666666D01*
X-91428571Y36714285D01*
X-91476190Y36761904D01*
X-91523809Y36857142D01*
X-91571428Y37047619D01*
X-91619047Y37142857D01*
X-91666666Y37190476D01*
X-91761904Y37238095D01*
X-91857142Y37238095D01*
X-91952380Y37190476D01*
X-92000000Y37142857D01*
X-92047619Y37047619D01*
X-92047619Y36809523D01*
X-92000000Y36666666D01*
X-91047619Y35714285D02*
X-91047619Y36285714D01*
X-91047619Y36000000D02*
X-92047619Y36000000D01*
X-91904761Y36095238D01*
X-91809523Y36190476D01*
X-91761904Y36285714D01*
X-92047619Y35380952D02*
X-92047619Y34761904D01*
X-91666666Y35095238D01*
X-91666666Y34952380D01*
X-91619047Y34857142D01*
X-91571428Y34809523D01*
X-91476190Y34761904D01*
X-91238095Y34761904D01*
X-91142857Y34809523D01*
X-91095238Y34857142D01*
X-91047619Y34952380D01*
X-91047619Y35238095D01*
X-91095238Y35333333D01*
X-91142857Y35380952D01*
X-89147619Y40364285D02*
X-89147619Y40935714D01*
X-89147619Y40650000D02*
X-90147619Y40650000D01*
X-90004761Y40745238D01*
X-89909523Y40840476D01*
X-89861904Y40935714D01*
%TO.C,DS14*%
X-54047619Y49440476D02*
X-55047619Y49440476D01*
X-55047619Y49202380D01*
X-55000000Y49059523D01*
X-54904761Y48964285D01*
X-54809523Y48916666D01*
X-54619047Y48869047D01*
X-54476190Y48869047D01*
X-54285714Y48916666D01*
X-54190476Y48964285D01*
X-54095238Y49059523D01*
X-54047619Y49202380D01*
X-54047619Y49440476D01*
X-54095238Y48488095D02*
X-54047619Y48345238D01*
X-54047619Y48107142D01*
X-54095238Y48011904D01*
X-54142857Y47964285D01*
X-54238095Y47916666D01*
X-54333333Y47916666D01*
X-54428571Y47964285D01*
X-54476190Y48011904D01*
X-54523809Y48107142D01*
X-54571428Y48297619D01*
X-54619047Y48392857D01*
X-54666666Y48440476D01*
X-54761904Y48488095D01*
X-54857142Y48488095D01*
X-54952380Y48440476D01*
X-55000000Y48392857D01*
X-55047619Y48297619D01*
X-55047619Y48059523D01*
X-55000000Y47916666D01*
X-54047619Y46964285D02*
X-54047619Y47535714D01*
X-54047619Y47250000D02*
X-55047619Y47250000D01*
X-54904761Y47345238D01*
X-54809523Y47440476D01*
X-54761904Y47535714D01*
X-54714285Y46107142D02*
X-54047619Y46107142D01*
X-55095238Y46345238D02*
X-54380952Y46583333D01*
X-54380952Y45964285D01*
X-55947619Y43314285D02*
X-55947619Y43885714D01*
X-55947619Y43600000D02*
X-56947619Y43600000D01*
X-56804761Y43695238D01*
X-56709523Y43790476D01*
X-56661904Y43885714D01*
%TO.C,DS12*%
X-79047619Y10440476D02*
X-80047619Y10440476D01*
X-80047619Y10202380D01*
X-80000000Y10059523D01*
X-79904761Y9964285D01*
X-79809523Y9916666D01*
X-79619047Y9869047D01*
X-79476190Y9869047D01*
X-79285714Y9916666D01*
X-79190476Y9964285D01*
X-79095238Y10059523D01*
X-79047619Y10202380D01*
X-79047619Y10440476D01*
X-79095238Y9488095D02*
X-79047619Y9345238D01*
X-79047619Y9107142D01*
X-79095238Y9011904D01*
X-79142857Y8964285D01*
X-79238095Y8916666D01*
X-79333333Y8916666D01*
X-79428571Y8964285D01*
X-79476190Y9011904D01*
X-79523809Y9107142D01*
X-79571428Y9297619D01*
X-79619047Y9392857D01*
X-79666666Y9440476D01*
X-79761904Y9488095D01*
X-79857142Y9488095D01*
X-79952380Y9440476D01*
X-80000000Y9392857D01*
X-80047619Y9297619D01*
X-80047619Y9059523D01*
X-80000000Y8916666D01*
X-79047619Y7964285D02*
X-79047619Y8535714D01*
X-79047619Y8250000D02*
X-80047619Y8250000D01*
X-79904761Y8345238D01*
X-79809523Y8440476D01*
X-79761904Y8535714D01*
X-79952380Y7583333D02*
X-80000000Y7535714D01*
X-80047619Y7440476D01*
X-80047619Y7202380D01*
X-80000000Y7107142D01*
X-79952380Y7059523D01*
X-79857142Y7011904D01*
X-79761904Y7011904D01*
X-79619047Y7059523D01*
X-79047619Y7630952D01*
X-79047619Y7011904D01*
X-77147619Y12614285D02*
X-77147619Y13185714D01*
X-77147619Y12900000D02*
X-78147619Y12900000D01*
X-78004761Y12995238D01*
X-77909523Y13090476D01*
X-77861904Y13185714D01*
%TO.C,DS9*%
X-18047619Y-3035714D02*
X-19047619Y-3035714D01*
X-19047619Y-3273809D01*
X-19000000Y-3416666D01*
X-18904761Y-3511904D01*
X-18809523Y-3559523D01*
X-18619047Y-3607142D01*
X-18476190Y-3607142D01*
X-18285714Y-3559523D01*
X-18190476Y-3511904D01*
X-18095238Y-3416666D01*
X-18047619Y-3273809D01*
X-18047619Y-3035714D01*
X-18095238Y-3988095D02*
X-18047619Y-4130952D01*
X-18047619Y-4369047D01*
X-18095238Y-4464285D01*
X-18142857Y-4511904D01*
X-18238095Y-4559523D01*
X-18333333Y-4559523D01*
X-18428571Y-4511904D01*
X-18476190Y-4464285D01*
X-18523809Y-4369047D01*
X-18571428Y-4178571D01*
X-18619047Y-4083333D01*
X-18666666Y-4035714D01*
X-18761904Y-3988095D01*
X-18857142Y-3988095D01*
X-18952380Y-4035714D01*
X-19000000Y-4083333D01*
X-19047619Y-4178571D01*
X-19047619Y-4416666D01*
X-19000000Y-4559523D01*
X-18047619Y-5035714D02*
X-18047619Y-5226190D01*
X-18095238Y-5321428D01*
X-18142857Y-5369047D01*
X-18285714Y-5464285D01*
X-18476190Y-5511904D01*
X-18857142Y-5511904D01*
X-18952380Y-5464285D01*
X-19000000Y-5416666D01*
X-19047619Y-5321428D01*
X-19047619Y-5130952D01*
X-19000000Y-5035714D01*
X-18952380Y-4988095D01*
X-18857142Y-4940476D01*
X-18619047Y-4940476D01*
X-18523809Y-4988095D01*
X-18476190Y-5035714D01*
X-18428571Y-5130952D01*
X-18428571Y-5321428D01*
X-18476190Y-5416666D01*
X-18523809Y-5464285D01*
X-18619047Y-5511904D01*
X-19947619Y-8685714D02*
X-19947619Y-8114285D01*
X-19947619Y-8400000D02*
X-20947619Y-8400000D01*
X-20804761Y-8304761D01*
X-20709523Y-8209523D01*
X-20661904Y-8114285D01*
%TO.C,DS8*%
X-18047619Y30964285D02*
X-19047619Y30964285D01*
X-19047619Y30726190D01*
X-19000000Y30583333D01*
X-18904761Y30488095D01*
X-18809523Y30440476D01*
X-18619047Y30392857D01*
X-18476190Y30392857D01*
X-18285714Y30440476D01*
X-18190476Y30488095D01*
X-18095238Y30583333D01*
X-18047619Y30726190D01*
X-18047619Y30964285D01*
X-18095238Y30011904D02*
X-18047619Y29869047D01*
X-18047619Y29630952D01*
X-18095238Y29535714D01*
X-18142857Y29488095D01*
X-18238095Y29440476D01*
X-18333333Y29440476D01*
X-18428571Y29488095D01*
X-18476190Y29535714D01*
X-18523809Y29630952D01*
X-18571428Y29821428D01*
X-18619047Y29916666D01*
X-18666666Y29964285D01*
X-18761904Y30011904D01*
X-18857142Y30011904D01*
X-18952380Y29964285D01*
X-19000000Y29916666D01*
X-19047619Y29821428D01*
X-19047619Y29583333D01*
X-19000000Y29440476D01*
X-18619047Y28869047D02*
X-18666666Y28964285D01*
X-18714285Y29011904D01*
X-18809523Y29059523D01*
X-18857142Y29059523D01*
X-18952380Y29011904D01*
X-19000000Y28964285D01*
X-19047619Y28869047D01*
X-19047619Y28678571D01*
X-19000000Y28583333D01*
X-18952380Y28535714D01*
X-18857142Y28488095D01*
X-18809523Y28488095D01*
X-18714285Y28535714D01*
X-18666666Y28583333D01*
X-18619047Y28678571D01*
X-18619047Y28869047D01*
X-18571428Y28964285D01*
X-18523809Y29011904D01*
X-18428571Y29059523D01*
X-18238095Y29059523D01*
X-18142857Y29011904D01*
X-18095238Y28964285D01*
X-18047619Y28869047D01*
X-18047619Y28678571D01*
X-18095238Y28583333D01*
X-18142857Y28535714D01*
X-18238095Y28488095D01*
X-18428571Y28488095D01*
X-18523809Y28535714D01*
X-18571428Y28583333D01*
X-18619047Y28678571D01*
X-19947619Y25314285D02*
X-19947619Y25885714D01*
X-19947619Y25600000D02*
X-20947619Y25600000D01*
X-20804761Y25695238D01*
X-20709523Y25790476D01*
X-20661904Y25885714D01*
%TO.C,DS10*%
X-48309523Y-3952380D02*
X-48309523Y-2952380D01*
X-48547619Y-2952380D01*
X-48690476Y-3000000D01*
X-48785714Y-3095238D01*
X-48833333Y-3190476D01*
X-48880952Y-3380952D01*
X-48880952Y-3523809D01*
X-48833333Y-3714285D01*
X-48785714Y-3809523D01*
X-48690476Y-3904761D01*
X-48547619Y-3952380D01*
X-48309523Y-3952380D01*
X-49261904Y-3904761D02*
X-49404761Y-3952380D01*
X-49642857Y-3952380D01*
X-49738095Y-3904761D01*
X-49785714Y-3857142D01*
X-49833333Y-3761904D01*
X-49833333Y-3666666D01*
X-49785714Y-3571428D01*
X-49738095Y-3523809D01*
X-49642857Y-3476190D01*
X-49452380Y-3428571D01*
X-49357142Y-3380952D01*
X-49309523Y-3333333D01*
X-49261904Y-3238095D01*
X-49261904Y-3142857D01*
X-49309523Y-3047619D01*
X-49357142Y-3000000D01*
X-49452380Y-2952380D01*
X-49690476Y-2952380D01*
X-49833333Y-3000000D01*
X-50785714Y-3952380D02*
X-50214285Y-3952380D01*
X-50500000Y-3952380D02*
X-50500000Y-2952380D01*
X-50404761Y-3095238D01*
X-50309523Y-3190476D01*
X-50214285Y-3238095D01*
X-51404761Y-2952380D02*
X-51500000Y-2952380D01*
X-51595238Y-3000000D01*
X-51642857Y-3047619D01*
X-51690476Y-3142857D01*
X-51738095Y-3333333D01*
X-51738095Y-3571428D01*
X-51690476Y-3761904D01*
X-51642857Y-3857142D01*
X-51595238Y-3904761D01*
X-51500000Y-3952380D01*
X-51404761Y-3952380D01*
X-51309523Y-3904761D01*
X-51261904Y-3857142D01*
X-51214285Y-3761904D01*
X-51166666Y-3571428D01*
X-51166666Y-3333333D01*
X-51214285Y-3142857D01*
X-51261904Y-3047619D01*
X-51309523Y-3000000D01*
X-51404761Y-2952380D01*
X-54435714Y-2052380D02*
X-53864285Y-2052380D01*
X-54150000Y-2052380D02*
X-54150000Y-1052380D01*
X-54054761Y-1195238D01*
X-53959523Y-1290476D01*
X-53864285Y-1338095D01*
%TO.C,SW30*%
X-71100000Y50000D02*
X-71100000Y-4550000D01*
X-71850000Y50000D02*
X-71850000Y-4550000D01*
X-79350000Y-1375000D02*
X-79350000Y1275000D01*
D11*
X-77950000Y2150000D02*
X-77950000Y-2300000D01*
D10*
X-76500000Y2250000D02*
X-76500000Y-2350000D01*
X-72750000Y50000D02*
X-72750000Y-4550000D01*
X-72000000Y50000D02*
X-72000000Y-4550000D01*
X-77400000Y2250000D02*
X-77400000Y-2350000D01*
X-70950000Y50000D02*
X-70950000Y-4550000D01*
X-75900000Y2250000D02*
X-75900000Y-2300000D01*
X-70050000Y-250000D02*
X-70050000Y-4250000D01*
X-72450000Y50000D02*
X-72450000Y-4550000D01*
X-78150000Y2250000D02*
X-78150000Y-2350000D01*
X-78350000Y2275000D02*
X-75750000Y2275000D01*
X-72900000Y50000D02*
X-72900000Y-4500000D01*
X-77700000Y2250000D02*
X-77700000Y-2350000D01*
X-74250000Y600000D02*
X-74250000Y-3800000D01*
X-74650000Y1100000D02*
X-74650000Y-3050000D01*
X-75050000Y1850000D02*
X-75050000Y-2550000D01*
X-77550000Y2250000D02*
X-77550000Y-2350000D01*
X-74100000Y500000D02*
X-74100000Y-3900000D01*
X-75750000Y2250000D02*
X-75750000Y-2350000D01*
D11*
X-72400000Y-50000D02*
X-72400000Y-4550000D01*
D10*
X-76050000Y2250000D02*
X-76050000Y-2350000D01*
X-79100000Y1500000D02*
X-79100000Y-1550000D01*
X-73200000Y100000D02*
X-73200000Y-4550000D01*
X-73325000Y-4575000D02*
X-70775000Y-4575000D01*
X-72150000Y50000D02*
X-72150000Y-4550000D01*
X-77850000Y2250000D02*
X-77850000Y-2350000D01*
X-75600000Y2250000D02*
X-75600000Y-2350000D01*
X-74750000Y1250000D02*
X-74750000Y-2900000D01*
X-76650000Y2250000D02*
X-76650000Y-2350000D01*
X-73325000Y-4575000D02*
X-74600000Y-3550000D01*
X-71400000Y50000D02*
X-71400000Y-4550000D01*
X-75450000Y2200000D02*
X-75450000Y-2350000D01*
X-72750000Y75000D02*
X-70775000Y75000D01*
X-79000000Y1600000D02*
X-79000000Y-1650000D01*
X-73350000Y100000D02*
X-73350000Y-4500000D01*
X-78600000Y2000000D02*
X-78600000Y-2100000D01*
X-74550000Y900000D02*
X-74550000Y-3550000D01*
X-77250000Y2250000D02*
X-77250000Y-2350000D01*
X-76200000Y2250000D02*
X-76200000Y-2350000D01*
X-76950000Y2250000D02*
X-76950000Y-2350000D01*
X-70500000Y0D02*
X-70500000Y-4500000D01*
X-73800000Y300000D02*
X-73800000Y-4150000D01*
X-71250000Y50000D02*
X-71250000Y-4550000D01*
X-73050000Y100000D02*
X-73050000Y-4550000D01*
D11*
X-75250000Y-2350000D02*
X-72400000Y-50000D01*
D10*
X-75300000Y2100000D02*
X-75300000Y-2450000D01*
X-74850000Y1450000D02*
X-74850000Y-2700000D01*
X-78350000Y-2375000D02*
X-75775000Y-2375000D01*
X-76350000Y2250000D02*
X-76350000Y-2350000D01*
X-70350000Y-50000D02*
X-70350000Y-4450000D01*
X-78750000Y1850000D02*
X-78750000Y-1950000D01*
D11*
X-75250000Y2000000D02*
X-75250000Y-2350000D01*
D10*
X-77100000Y2250000D02*
X-77100000Y-2350000D01*
X-73650000Y250000D02*
X-73650000Y-4300000D01*
X-74950000Y1600000D02*
X-74950000Y-2600000D01*
X-75150000Y2000000D02*
X-75150000Y-2500000D01*
X-69900000Y-450000D02*
X-69900000Y-4050000D01*
X-78300000Y2250000D02*
X-78300000Y-2350000D01*
X-73500000Y150000D02*
X-73500000Y-4400000D01*
X-74400000Y750000D02*
X-74400000Y-3700000D01*
X-78900000Y1700000D02*
X-78900000Y-1800000D01*
X-76800000Y2250000D02*
X-76800000Y-2350000D01*
X-70200000Y-150000D02*
X-70200000Y-4350000D01*
X-72600000Y50000D02*
X-72600000Y-4550000D01*
X-78450000Y2150000D02*
X-78450000Y-2250000D01*
D11*
X-77950000Y-2300000D02*
X-75250000Y2000000D01*
D10*
X-78350000Y2275000D02*
X-79375000Y1250000D01*
X-71700000Y50000D02*
X-71700000Y-4550000D01*
X-72300000Y50000D02*
X-72300000Y-4550000D01*
X-70650000Y50000D02*
X-70650000Y-4500000D01*
X-79200000Y1400000D02*
X-79200000Y-1450000D01*
X-70800000Y50000D02*
X-70800000Y-4550000D01*
X-78000000Y2250000D02*
X-78000000Y-2350000D01*
X-78350000Y-2375000D02*
X-79375000Y-1350000D01*
X-73950000Y400000D02*
X-73950000Y-4050000D01*
X-71550000Y50000D02*
X-71550000Y-4550000D01*
X-70775000Y-4575000D02*
G75*
G03*
X-69775000Y-3575000I0J1000000D01*
G01*
X-69775000Y-925000D02*
G75*
G03*
X-70775000Y75000I-1000000J0D01*
G01*
X-74887797Y1571905D02*
G75*
G03*
X-75749005Y2273791I-900003J-225005D01*
G01*
X-74887801Y1571904D02*
G75*
G03*
X-72750000Y75000I2137801J778096D01*
G01*
X-74600000Y-3550000D02*
G75*
G03*
X-75775000Y-2375000I-1175000J0D01*
G01*
%TO.C,SW26*%
X-42800000Y58050000D02*
X-42800000Y53450000D01*
X-44000000Y58050000D02*
X-44000000Y53450000D01*
X-43400000Y58050000D02*
X-43400000Y53450000D01*
X-44450000Y58050000D02*
X-44450000Y53450000D01*
X-48950000Y60250000D02*
X-48950000Y55650000D01*
X-49250000Y60250000D02*
X-49250000Y55650000D01*
X-49850000Y60250000D02*
X-49850000Y55650000D01*
X-50350000Y55625000D02*
X-51375000Y56650000D01*
X-42050000Y57750000D02*
X-42050000Y53750000D01*
X-51350000Y56625000D02*
X-51350000Y59275000D01*
X-47150000Y60000000D02*
X-47150000Y55500000D01*
X-50000000Y60250000D02*
X-50000000Y55650000D01*
X-45800000Y58300000D02*
X-45800000Y53850000D01*
X-49400000Y60250000D02*
X-49400000Y55650000D01*
X-48650000Y60250000D02*
X-48650000Y55650000D01*
X-48350000Y60250000D02*
X-48350000Y55650000D01*
X-45350000Y58100000D02*
X-45350000Y53500000D01*
X-48500000Y60250000D02*
X-48500000Y55650000D01*
X-51200000Y59400000D02*
X-51200000Y56550000D01*
X-50750000Y59850000D02*
X-50750000Y56050000D01*
X-47750000Y60250000D02*
X-47750000Y55650000D01*
X-45500000Y58150000D02*
X-45500000Y53600000D01*
X-46650000Y59100000D02*
X-46650000Y54950000D01*
X-47900000Y60250000D02*
X-47900000Y55700000D01*
X-45050000Y58100000D02*
X-45050000Y53450000D01*
X-47050000Y59850000D02*
X-47050000Y55450000D01*
X-50450000Y60150000D02*
X-50450000Y55750000D01*
D11*
X-49950000Y55700000D02*
X-47250000Y60000000D01*
X-44400000Y57950000D02*
X-44400000Y53450000D01*
D10*
X-41900000Y57550000D02*
X-41900000Y53950000D01*
X-44600000Y58050000D02*
X-44600000Y53450000D01*
X-49100000Y60250000D02*
X-49100000Y55650000D01*
D11*
X-47250000Y60000000D02*
X-47250000Y55650000D01*
D10*
X-44900000Y58050000D02*
X-44900000Y53500000D01*
X-46100000Y58500000D02*
X-46100000Y54100000D01*
X-48800000Y60250000D02*
X-48800000Y55650000D01*
X-50300000Y60250000D02*
X-50300000Y55650000D01*
X-43250000Y58050000D02*
X-43250000Y53450000D01*
X-49700000Y60250000D02*
X-49700000Y55650000D01*
X-48200000Y60250000D02*
X-48200000Y55650000D01*
X-49550000Y60250000D02*
X-49550000Y55650000D01*
X-46950000Y59600000D02*
X-46950000Y55400000D01*
X-42500000Y58000000D02*
X-42500000Y53500000D01*
X-46250000Y58600000D02*
X-46250000Y54200000D01*
X-42350000Y57950000D02*
X-42350000Y53550000D01*
X-50350000Y55625000D02*
X-47775000Y55625000D01*
X-45950000Y58400000D02*
X-45950000Y53950000D01*
X-46550000Y58900000D02*
X-46550000Y54450000D01*
X-48050000Y60250000D02*
X-48050000Y55650000D01*
D11*
X-49950000Y60150000D02*
X-49950000Y55700000D01*
D10*
X-44750000Y58075000D02*
X-42775000Y58075000D01*
X-50150000Y60250000D02*
X-50150000Y55650000D01*
X-50600000Y60000000D02*
X-50600000Y55900000D01*
X-43700000Y58050000D02*
X-43700000Y53450000D01*
X-51000000Y59600000D02*
X-51000000Y56350000D01*
X-44150000Y58050000D02*
X-44150000Y53450000D01*
D11*
X-47250000Y55650000D02*
X-44400000Y57950000D01*
D10*
X-46850000Y59450000D02*
X-46850000Y55300000D01*
X-46400000Y58750000D02*
X-46400000Y54300000D01*
X-47300000Y60100000D02*
X-47300000Y55550000D01*
X-51100000Y59500000D02*
X-51100000Y56450000D01*
X-45325000Y53425000D02*
X-42775000Y53425000D01*
X-50900000Y59700000D02*
X-50900000Y56200000D01*
X-43100000Y58050000D02*
X-43100000Y53450000D01*
X-43550000Y58050000D02*
X-43550000Y53450000D01*
X-42950000Y58050000D02*
X-42950000Y53450000D01*
X-50350000Y60275000D02*
X-47750000Y60275000D01*
X-45200000Y58100000D02*
X-45200000Y53450000D01*
X-45325000Y53425000D02*
X-46600000Y54450000D01*
X-42200000Y57850000D02*
X-42200000Y53650000D01*
X-44300000Y58050000D02*
X-44300000Y53450000D01*
X-50350000Y60275000D02*
X-51375000Y59250000D01*
X-44750000Y58050000D02*
X-44750000Y53450000D01*
X-46750000Y59250000D02*
X-46750000Y55100000D01*
X-45650000Y58250000D02*
X-45650000Y53700000D01*
X-47600000Y60250000D02*
X-47600000Y55650000D01*
X-47450000Y60200000D02*
X-47450000Y55650000D01*
X-43850000Y58050000D02*
X-43850000Y53450000D01*
X-42650000Y58050000D02*
X-42650000Y53500000D01*
X-42775000Y53425000D02*
G75*
G03*
X-41775000Y54425000I0J1000000D01*
G01*
X-41775000Y57075000D02*
G75*
G03*
X-42775000Y58075000I-1000000J0D01*
G01*
X-46887801Y59571904D02*
G75*
G03*
X-44750000Y58075000I2137801J778096D01*
G01*
X-46887797Y59571905D02*
G75*
G03*
X-47749005Y60273791I-900003J-225005D01*
G01*
X-46600000Y54450000D02*
G75*
G03*
X-47775000Y55625000I-1175000J0D01*
G01*
%TO.C,D28*%
X-72525000Y25800000D02*
X-72525000Y24800000D01*
X-72525000Y24800000D02*
X-71625000Y25300000D01*
X-71625000Y25300000D02*
X-72525000Y25800000D01*
X-71525000Y25800000D02*
X-71525000Y24800000D01*
%TO.C,SW29*%
X-72450000Y53050000D02*
X-72450000Y48450000D01*
X-74650000Y54100000D02*
X-74650000Y49950000D01*
X-73650000Y53250000D02*
X-73650000Y48700000D01*
X-78350000Y50625000D02*
X-79375000Y51650000D01*
X-69900000Y52550000D02*
X-69900000Y48950000D01*
X-77550000Y55250000D02*
X-77550000Y50650000D01*
X-77850000Y55250000D02*
X-77850000Y50650000D01*
X-76950000Y55250000D02*
X-76950000Y50650000D01*
X-71850000Y53050000D02*
X-71850000Y48450000D01*
X-78350000Y50625000D02*
X-75775000Y50625000D01*
X-79000000Y54600000D02*
X-79000000Y51350000D01*
X-73200000Y53100000D02*
X-73200000Y48450000D01*
X-76500000Y55250000D02*
X-76500000Y50650000D01*
X-72750000Y53075000D02*
X-70775000Y53075000D01*
X-73800000Y53300000D02*
X-73800000Y48850000D01*
X-70500000Y53000000D02*
X-70500000Y48500000D01*
X-78350000Y55275000D02*
X-79375000Y54250000D01*
X-75900000Y55250000D02*
X-75900000Y50700000D01*
X-74850000Y54450000D02*
X-74850000Y50300000D01*
D11*
X-77950000Y50700000D02*
X-75250000Y55000000D01*
D10*
X-76650000Y55250000D02*
X-76650000Y50650000D01*
X-74750000Y54250000D02*
X-74750000Y50100000D01*
D11*
X-72400000Y52950000D02*
X-72400000Y48450000D01*
D10*
X-79200000Y54400000D02*
X-79200000Y51550000D01*
X-73325000Y48425000D02*
X-70775000Y48425000D01*
X-73950000Y53400000D02*
X-73950000Y48950000D01*
X-76800000Y55250000D02*
X-76800000Y50650000D01*
X-72150000Y53050000D02*
X-72150000Y48450000D01*
X-70650000Y53050000D02*
X-70650000Y48500000D01*
X-75300000Y55100000D02*
X-75300000Y50550000D01*
X-71550000Y53050000D02*
X-71550000Y48450000D01*
X-77250000Y55250000D02*
X-77250000Y50650000D01*
X-77100000Y55250000D02*
X-77100000Y50650000D01*
X-72900000Y53050000D02*
X-72900000Y48500000D01*
X-75150000Y55000000D02*
X-75150000Y50500000D01*
X-78000000Y55250000D02*
X-78000000Y50650000D01*
X-71700000Y53050000D02*
X-71700000Y48450000D01*
X-76200000Y55250000D02*
X-76200000Y50650000D01*
X-74100000Y53500000D02*
X-74100000Y49100000D01*
X-78300000Y55250000D02*
X-78300000Y50650000D01*
X-78600000Y55000000D02*
X-78600000Y50900000D01*
X-75050000Y54850000D02*
X-75050000Y50450000D01*
X-73050000Y53100000D02*
X-73050000Y48450000D01*
X-73500000Y53150000D02*
X-73500000Y48600000D01*
X-79100000Y54500000D02*
X-79100000Y51450000D01*
X-74250000Y53600000D02*
X-74250000Y49200000D01*
X-70950000Y53050000D02*
X-70950000Y48450000D01*
X-74400000Y53750000D02*
X-74400000Y49300000D01*
D11*
X-75250000Y55000000D02*
X-75250000Y50650000D01*
X-77950000Y55150000D02*
X-77950000Y50700000D01*
D10*
X-79350000Y51625000D02*
X-79350000Y54275000D01*
X-71100000Y53050000D02*
X-71100000Y48450000D01*
X-70800000Y53050000D02*
X-70800000Y48450000D01*
X-74550000Y53900000D02*
X-74550000Y49450000D01*
X-71250000Y53050000D02*
X-71250000Y48450000D01*
X-72000000Y53050000D02*
X-72000000Y48450000D01*
X-75600000Y55250000D02*
X-75600000Y50650000D01*
X-78450000Y55150000D02*
X-78450000Y50750000D01*
X-72750000Y53050000D02*
X-72750000Y48450000D01*
X-78900000Y54700000D02*
X-78900000Y51200000D01*
X-76050000Y55250000D02*
X-76050000Y50650000D01*
X-75750000Y55250000D02*
X-75750000Y50650000D01*
X-70200000Y52850000D02*
X-70200000Y48650000D01*
X-72600000Y53050000D02*
X-72600000Y48450000D01*
X-74950000Y54600000D02*
X-74950000Y50400000D01*
X-77700000Y55250000D02*
X-77700000Y50650000D01*
X-71400000Y53050000D02*
X-71400000Y48450000D01*
D11*
X-75250000Y50650000D02*
X-72400000Y52950000D01*
D10*
X-76350000Y55250000D02*
X-76350000Y50650000D01*
X-78150000Y55250000D02*
X-78150000Y50650000D01*
X-78750000Y54850000D02*
X-78750000Y51050000D01*
X-77400000Y55250000D02*
X-77400000Y50650000D01*
X-75450000Y55200000D02*
X-75450000Y50650000D01*
X-78350000Y55275000D02*
X-75750000Y55275000D01*
X-73325000Y48425000D02*
X-74600000Y49450000D01*
X-73350000Y53100000D02*
X-73350000Y48500000D01*
X-72300000Y53050000D02*
X-72300000Y48450000D01*
X-70350000Y52950000D02*
X-70350000Y48550000D01*
X-70050000Y52750000D02*
X-70050000Y48750000D01*
X-74887801Y54571904D02*
G75*
G03*
X-72750000Y53075000I2137801J778096D01*
G01*
X-69775000Y52075000D02*
G75*
G03*
X-70775000Y53075000I-1000000J0D01*
G01*
X-70775000Y48425000D02*
G75*
G03*
X-69775000Y49425000I0J1000000D01*
G01*
X-74887797Y54571905D02*
G75*
G03*
X-75749005Y55273791I-900003J-225005D01*
G01*
X-74600000Y49450000D02*
G75*
G03*
X-75775000Y50625000I-1175000J0D01*
G01*
%TO.C,SW18*%
X-8900000Y6050000D02*
X-8900000Y1500000D01*
X-9950000Y6400000D02*
X-9950000Y1950000D01*
D11*
X-8400000Y5950000D02*
X-8400000Y1450000D01*
D10*
X-7700000Y6050000D02*
X-7700000Y1450000D01*
X-12050000Y8250000D02*
X-12050000Y3650000D01*
X-10550000Y6900000D02*
X-10550000Y2450000D01*
X-13100000Y8250000D02*
X-13100000Y3650000D01*
X-15200000Y7400000D02*
X-15200000Y4550000D01*
X-9325000Y1425000D02*
X-10600000Y2450000D01*
X-7850000Y6050000D02*
X-7850000Y1450000D01*
X-14300000Y8250000D02*
X-14300000Y3650000D01*
X-10100000Y6500000D02*
X-10100000Y2100000D01*
X-14600000Y8000000D02*
X-14600000Y3900000D01*
X-12650000Y8250000D02*
X-12650000Y3650000D01*
X-8000000Y6050000D02*
X-8000000Y1450000D01*
X-13400000Y8250000D02*
X-13400000Y3650000D01*
X-10850000Y7450000D02*
X-10850000Y3300000D01*
X-11750000Y8250000D02*
X-11750000Y3650000D01*
X-12950000Y8250000D02*
X-12950000Y3650000D01*
X-10950000Y7600000D02*
X-10950000Y3400000D01*
X-9650000Y6250000D02*
X-9650000Y1700000D01*
X-14450000Y8150000D02*
X-14450000Y3750000D01*
X-6500000Y6000000D02*
X-6500000Y1500000D01*
X-11600000Y8250000D02*
X-11600000Y3650000D01*
X-8450000Y6050000D02*
X-8450000Y1450000D01*
X-11150000Y8000000D02*
X-11150000Y3500000D01*
X-15350000Y4625000D02*
X-15350000Y7275000D01*
X-10400000Y6750000D02*
X-10400000Y2300000D01*
X-9325000Y1425000D02*
X-6775000Y1425000D01*
X-14350000Y3625000D02*
X-11775000Y3625000D01*
X-14350000Y3625000D02*
X-15375000Y4650000D01*
X-7100000Y6050000D02*
X-7100000Y1450000D01*
X-6050000Y5750000D02*
X-6050000Y1750000D01*
X-12800000Y8250000D02*
X-12800000Y3650000D01*
X-12500000Y8250000D02*
X-12500000Y3650000D01*
X-9200000Y6100000D02*
X-9200000Y1450000D01*
X-12200000Y8250000D02*
X-12200000Y3650000D01*
X-6350000Y5950000D02*
X-6350000Y1550000D01*
X-8150000Y6050000D02*
X-8150000Y1450000D01*
X-13550000Y8250000D02*
X-13550000Y3650000D01*
X-14000000Y8250000D02*
X-14000000Y3650000D01*
X-9800000Y6300000D02*
X-9800000Y1850000D01*
D11*
X-13950000Y3700000D02*
X-11250000Y8000000D01*
D10*
X-6950000Y6050000D02*
X-6950000Y1450000D01*
X-14750000Y7850000D02*
X-14750000Y4050000D01*
X-13850000Y8250000D02*
X-13850000Y3650000D01*
X-14900000Y7700000D02*
X-14900000Y4200000D01*
X-8750000Y6050000D02*
X-8750000Y1450000D01*
X-8300000Y6050000D02*
X-8300000Y1450000D01*
X-13700000Y8250000D02*
X-13700000Y3650000D01*
X-11900000Y8250000D02*
X-11900000Y3700000D01*
X-9050000Y6100000D02*
X-9050000Y1450000D01*
X-14350000Y8275000D02*
X-15375000Y7250000D01*
X-7400000Y6050000D02*
X-7400000Y1450000D01*
X-15000000Y7600000D02*
X-15000000Y4350000D01*
X-8600000Y6050000D02*
X-8600000Y1450000D01*
X-8750000Y6075000D02*
X-6775000Y6075000D01*
X-6650000Y6050000D02*
X-6650000Y1500000D01*
X-13250000Y8250000D02*
X-13250000Y3650000D01*
X-11050000Y7850000D02*
X-11050000Y3450000D01*
X-10650000Y7100000D02*
X-10650000Y2950000D01*
D11*
X-13950000Y8150000D02*
X-13950000Y3700000D01*
D10*
X-12350000Y8250000D02*
X-12350000Y3650000D01*
X-6800000Y6050000D02*
X-6800000Y1450000D01*
X-11300000Y8100000D02*
X-11300000Y3550000D01*
X-9350000Y6100000D02*
X-9350000Y1500000D01*
X-7550000Y6050000D02*
X-7550000Y1450000D01*
X-11450000Y8200000D02*
X-11450000Y3650000D01*
X-14150000Y8250000D02*
X-14150000Y3650000D01*
D11*
X-11250000Y8000000D02*
X-11250000Y3650000D01*
D10*
X-10750000Y7250000D02*
X-10750000Y3100000D01*
X-5900000Y5550000D02*
X-5900000Y1950000D01*
X-15100000Y7500000D02*
X-15100000Y4450000D01*
X-6200000Y5850000D02*
X-6200000Y1650000D01*
X-14350000Y8275000D02*
X-11750000Y8275000D01*
X-9500000Y6150000D02*
X-9500000Y1600000D01*
X-7250000Y6050000D02*
X-7250000Y1450000D01*
X-10250000Y6600000D02*
X-10250000Y2200000D01*
D11*
X-11250000Y3650000D02*
X-8400000Y5950000D01*
D10*
X-10887801Y7571904D02*
G75*
G03*
X-8750000Y6075000I2137801J778096D01*
G01*
X-10600000Y2450000D02*
G75*
G03*
X-11775000Y3625000I-1175000J0D01*
G01*
X-5775000Y5075000D02*
G75*
G03*
X-6775000Y6075000I-1000000J0D01*
G01*
X-6775000Y1425000D02*
G75*
G03*
X-5775000Y2425000I0J1000000D01*
G01*
X-10887797Y7571905D02*
G75*
G03*
X-11749005Y8273791I-900003J-225005D01*
G01*
%TO.C,SW23*%
X-30650000Y42250000D02*
X-30650000Y37650000D01*
X-24200000Y39850000D02*
X-24200000Y35650000D01*
X-29600000Y42250000D02*
X-29600000Y37650000D01*
X-32300000Y42250000D02*
X-32300000Y37650000D01*
X-32350000Y37625000D02*
X-33375000Y38650000D01*
X-27325000Y35425000D02*
X-24775000Y35425000D01*
X-27950000Y40400000D02*
X-27950000Y35950000D01*
X-30950000Y42250000D02*
X-30950000Y37650000D01*
X-26000000Y40050000D02*
X-26000000Y35450000D01*
X-33200000Y41400000D02*
X-33200000Y38550000D01*
X-30350000Y42250000D02*
X-30350000Y37650000D01*
X-30800000Y42250000D02*
X-30800000Y37650000D01*
X-26300000Y40050000D02*
X-26300000Y35450000D01*
X-30050000Y42250000D02*
X-30050000Y37650000D01*
D11*
X-29250000Y42000000D02*
X-29250000Y37650000D01*
D10*
X-29450000Y42200000D02*
X-29450000Y37650000D01*
X-33000000Y41600000D02*
X-33000000Y38350000D01*
X-32350000Y42275000D02*
X-29750000Y42275000D01*
X-31250000Y42250000D02*
X-31250000Y37650000D01*
X-23900000Y39550000D02*
X-23900000Y35950000D01*
X-27325000Y35425000D02*
X-28600000Y36450000D01*
X-25550000Y40050000D02*
X-25550000Y35450000D01*
X-29300000Y42100000D02*
X-29300000Y37550000D01*
X-32000000Y42250000D02*
X-32000000Y37650000D01*
X-27050000Y40100000D02*
X-27050000Y35450000D01*
X-29750000Y42250000D02*
X-29750000Y37650000D01*
X-27800000Y40300000D02*
X-27800000Y35850000D01*
X-28850000Y41450000D02*
X-28850000Y37300000D01*
D11*
X-31950000Y37700000D02*
X-29250000Y42000000D01*
D10*
X-31700000Y42250000D02*
X-31700000Y37650000D01*
D11*
X-26400000Y39950000D02*
X-26400000Y35450000D01*
D10*
X-25850000Y40050000D02*
X-25850000Y35450000D01*
X-33100000Y41500000D02*
X-33100000Y38450000D01*
X-28750000Y41250000D02*
X-28750000Y37100000D01*
X-25250000Y40050000D02*
X-25250000Y35450000D01*
X-27500000Y40150000D02*
X-27500000Y35600000D01*
X-24500000Y40000000D02*
X-24500000Y35500000D01*
X-32350000Y37625000D02*
X-29775000Y37625000D01*
X-26150000Y40050000D02*
X-26150000Y35450000D01*
X-28550000Y40900000D02*
X-28550000Y36450000D01*
X-29900000Y42250000D02*
X-29900000Y37700000D01*
X-27200000Y40100000D02*
X-27200000Y35450000D01*
X-30500000Y42250000D02*
X-30500000Y37650000D01*
X-24350000Y39950000D02*
X-24350000Y35550000D01*
D11*
X-31950000Y42150000D02*
X-31950000Y37700000D01*
D10*
X-24950000Y40050000D02*
X-24950000Y35450000D01*
X-25100000Y40050000D02*
X-25100000Y35450000D01*
X-25700000Y40050000D02*
X-25700000Y35450000D01*
X-24800000Y40050000D02*
X-24800000Y35450000D01*
X-32350000Y42275000D02*
X-33375000Y41250000D01*
D11*
X-29250000Y37650000D02*
X-26400000Y39950000D01*
D10*
X-31850000Y42250000D02*
X-31850000Y37650000D01*
X-28250000Y40600000D02*
X-28250000Y36200000D01*
X-32450000Y42150000D02*
X-32450000Y37750000D01*
X-26750000Y40050000D02*
X-26750000Y35450000D01*
X-32750000Y41850000D02*
X-32750000Y38050000D01*
X-28950000Y41600000D02*
X-28950000Y37400000D01*
X-26750000Y40075000D02*
X-24775000Y40075000D01*
X-24050000Y39750000D02*
X-24050000Y35750000D01*
X-28650000Y41100000D02*
X-28650000Y36950000D01*
X-26450000Y40050000D02*
X-26450000Y35450000D01*
X-26600000Y40050000D02*
X-26600000Y35450000D01*
X-31550000Y42250000D02*
X-31550000Y37650000D01*
X-27350000Y40100000D02*
X-27350000Y35500000D01*
X-30200000Y42250000D02*
X-30200000Y37650000D01*
X-28100000Y40500000D02*
X-28100000Y36100000D01*
X-25400000Y40050000D02*
X-25400000Y35450000D01*
X-27650000Y40250000D02*
X-27650000Y35700000D01*
X-26900000Y40050000D02*
X-26900000Y35500000D01*
X-31400000Y42250000D02*
X-31400000Y37650000D01*
X-33350000Y38625000D02*
X-33350000Y41275000D01*
X-32900000Y41700000D02*
X-32900000Y38200000D01*
X-29050000Y41850000D02*
X-29050000Y37450000D01*
X-29150000Y42000000D02*
X-29150000Y37500000D01*
X-32600000Y42000000D02*
X-32600000Y37900000D01*
X-31100000Y42250000D02*
X-31100000Y37650000D01*
X-32150000Y42250000D02*
X-32150000Y37650000D01*
X-28400000Y40750000D02*
X-28400000Y36300000D01*
X-24650000Y40050000D02*
X-24650000Y35500000D01*
X-23775000Y39075000D02*
G75*
G03*
X-24775000Y40075000I-1000000J0D01*
G01*
X-28887797Y41571905D02*
G75*
G03*
X-29749005Y42273791I-900003J-225005D01*
G01*
X-24775000Y35425000D02*
G75*
G03*
X-23775000Y36425000I0J1000000D01*
G01*
X-28887801Y41571904D02*
G75*
G03*
X-26750000Y40075000I2137801J778096D01*
G01*
X-28600000Y36450000D02*
G75*
G03*
X-29775000Y37625000I-1175000J0D01*
G01*
%TO.C,D19*%
X-12525000Y12800000D02*
X-12525000Y11800000D01*
X-13525000Y12800000D02*
X-13525000Y11800000D01*
X-12625000Y12300000D02*
X-13525000Y12800000D01*
X-13525000Y11800000D02*
X-12625000Y12300000D01*
%TO.C,SW31*%
X-88600000Y19000000D02*
X-88600000Y14900000D01*
X-85450000Y19200000D02*
X-85450000Y14650000D01*
X-88350000Y19275000D02*
X-85750000Y19275000D01*
X-83800000Y17300000D02*
X-83800000Y12850000D01*
X-84250000Y17600000D02*
X-84250000Y13200000D01*
X-88750000Y18850000D02*
X-88750000Y15050000D01*
X-85750000Y19250000D02*
X-85750000Y14650000D01*
X-83200000Y17100000D02*
X-83200000Y12450000D01*
X-89100000Y18500000D02*
X-89100000Y15450000D01*
X-87550000Y19250000D02*
X-87550000Y14650000D01*
X-80350000Y16950000D02*
X-80350000Y12550000D01*
X-86650000Y19250000D02*
X-86650000Y14650000D01*
X-83950000Y17400000D02*
X-83950000Y12950000D01*
X-86350000Y19250000D02*
X-86350000Y14650000D01*
X-81400000Y17050000D02*
X-81400000Y12450000D01*
X-86050000Y19250000D02*
X-86050000Y14650000D01*
X-82150000Y17050000D02*
X-82150000Y12450000D01*
X-82600000Y17050000D02*
X-82600000Y12450000D01*
X-89200000Y18400000D02*
X-89200000Y15550000D01*
X-80050000Y16750000D02*
X-80050000Y12750000D01*
D11*
X-85250000Y14650000D02*
X-82400000Y16950000D01*
D10*
X-80950000Y17050000D02*
X-80950000Y12450000D01*
X-84950000Y18600000D02*
X-84950000Y14400000D01*
X-87400000Y19250000D02*
X-87400000Y14650000D01*
X-81100000Y17050000D02*
X-81100000Y12450000D01*
X-87850000Y19250000D02*
X-87850000Y14650000D01*
X-80500000Y17000000D02*
X-80500000Y12500000D01*
X-81250000Y17050000D02*
X-81250000Y12450000D01*
X-82450000Y17050000D02*
X-82450000Y12450000D01*
X-87100000Y19250000D02*
X-87100000Y14650000D01*
X-83500000Y17150000D02*
X-83500000Y12600000D01*
X-81550000Y17050000D02*
X-81550000Y12450000D01*
X-85600000Y19250000D02*
X-85600000Y14650000D01*
X-88150000Y19250000D02*
X-88150000Y14650000D01*
X-84400000Y17750000D02*
X-84400000Y13300000D01*
X-82750000Y17050000D02*
X-82750000Y12450000D01*
X-79900000Y16550000D02*
X-79900000Y12950000D01*
X-87700000Y19250000D02*
X-87700000Y14650000D01*
X-86500000Y19250000D02*
X-86500000Y14650000D01*
X-84550000Y17900000D02*
X-84550000Y13450000D01*
D11*
X-82400000Y16950000D02*
X-82400000Y12450000D01*
D10*
X-80650000Y17050000D02*
X-80650000Y12500000D01*
D11*
X-87950000Y14700000D02*
X-85250000Y19000000D01*
D10*
X-83650000Y17250000D02*
X-83650000Y12700000D01*
X-81850000Y17050000D02*
X-81850000Y12450000D01*
X-82000000Y17050000D02*
X-82000000Y12450000D01*
X-82900000Y17050000D02*
X-82900000Y12500000D01*
X-85150000Y19000000D02*
X-85150000Y14500000D01*
X-86800000Y19250000D02*
X-86800000Y14650000D01*
X-84100000Y17500000D02*
X-84100000Y13100000D01*
X-85900000Y19250000D02*
X-85900000Y14700000D01*
X-83325000Y12425000D02*
X-80775000Y12425000D01*
X-89350000Y15625000D02*
X-89350000Y18275000D01*
D11*
X-85250000Y19000000D02*
X-85250000Y14650000D01*
D10*
X-81700000Y17050000D02*
X-81700000Y12450000D01*
X-85050000Y18850000D02*
X-85050000Y14450000D01*
D11*
X-87950000Y19150000D02*
X-87950000Y14700000D01*
D10*
X-88000000Y19250000D02*
X-88000000Y14650000D01*
X-86200000Y19250000D02*
X-86200000Y14650000D01*
X-88350000Y14625000D02*
X-85775000Y14625000D01*
X-84650000Y18100000D02*
X-84650000Y13950000D01*
X-87250000Y19250000D02*
X-87250000Y14650000D01*
X-84750000Y18250000D02*
X-84750000Y14100000D01*
X-84850000Y18450000D02*
X-84850000Y14300000D01*
X-88350000Y14625000D02*
X-89375000Y15650000D01*
X-82750000Y17075000D02*
X-80775000Y17075000D01*
X-89000000Y18600000D02*
X-89000000Y15350000D01*
X-83350000Y17100000D02*
X-83350000Y12500000D01*
X-82300000Y17050000D02*
X-82300000Y12450000D01*
X-88300000Y19250000D02*
X-88300000Y14650000D01*
X-88350000Y19275000D02*
X-89375000Y18250000D01*
X-83050000Y17100000D02*
X-83050000Y12450000D01*
X-80200000Y16850000D02*
X-80200000Y12650000D01*
X-83325000Y12425000D02*
X-84600000Y13450000D01*
X-88900000Y18700000D02*
X-88900000Y15200000D01*
X-80800000Y17050000D02*
X-80800000Y12450000D01*
X-85300000Y19100000D02*
X-85300000Y14550000D01*
X-86950000Y19250000D02*
X-86950000Y14650000D01*
X-88450000Y19150000D02*
X-88450000Y14750000D01*
X-84887797Y18571905D02*
G75*
G03*
X-85749005Y19273791I-900003J-225005D01*
G01*
X-84600000Y13450000D02*
G75*
G03*
X-85775000Y14625000I-1175000J0D01*
G01*
X-80775000Y12425000D02*
G75*
G03*
X-79775000Y13425000I0J1000000D01*
G01*
X-84887801Y18571904D02*
G75*
G03*
X-82750000Y17075000I2137801J778096D01*
G01*
X-79775000Y16075000D02*
G75*
G03*
X-80775000Y17075000I-1000000J0D01*
G01*
%TO.C,D32*%
X-97525000Y22800000D02*
X-96625000Y23300000D01*
X-96525000Y23800000D02*
X-96525000Y22800000D01*
X-96625000Y23300000D02*
X-97525000Y23800000D01*
X-97525000Y23800000D02*
X-97525000Y22800000D01*
%TO.C,SW28*%
X-74100000Y37500000D02*
X-74100000Y34450000D01*
X-64900000Y35550000D02*
X-64900000Y31950000D01*
X-68350000Y36100000D02*
X-68350000Y31500000D01*
X-73900000Y37700000D02*
X-73900000Y34200000D01*
X-67600000Y36050000D02*
X-67600000Y31450000D01*
X-73600000Y38000000D02*
X-73600000Y33900000D01*
X-72850000Y38250000D02*
X-72850000Y33650000D01*
X-67300000Y36050000D02*
X-67300000Y31450000D01*
X-72250000Y38250000D02*
X-72250000Y33650000D01*
D11*
X-67400000Y35950000D02*
X-67400000Y31450000D01*
D10*
X-68800000Y36300000D02*
X-68800000Y31850000D01*
X-73000000Y38250000D02*
X-73000000Y33650000D01*
X-71350000Y38250000D02*
X-71350000Y33650000D01*
X-67150000Y36050000D02*
X-67150000Y31450000D01*
X-68325000Y31425000D02*
X-69600000Y32450000D01*
X-71050000Y38250000D02*
X-71050000Y33650000D01*
X-65500000Y36000000D02*
X-65500000Y31500000D01*
X-74200000Y37400000D02*
X-74200000Y34550000D01*
X-66400000Y36050000D02*
X-66400000Y31450000D01*
X-66700000Y36050000D02*
X-66700000Y31450000D01*
X-66550000Y36050000D02*
X-66550000Y31450000D01*
X-74350000Y34625000D02*
X-74350000Y37275000D01*
X-69950000Y37600000D02*
X-69950000Y33400000D01*
X-66100000Y36050000D02*
X-66100000Y31450000D01*
X-65350000Y35950000D02*
X-65350000Y31550000D01*
X-67900000Y36050000D02*
X-67900000Y31500000D01*
X-70450000Y38200000D02*
X-70450000Y33650000D01*
X-66850000Y36050000D02*
X-66850000Y31450000D01*
X-71500000Y38250000D02*
X-71500000Y33650000D01*
X-70750000Y38250000D02*
X-70750000Y33650000D01*
X-67750000Y36075000D02*
X-65775000Y36075000D01*
X-67000000Y36050000D02*
X-67000000Y31450000D01*
X-65200000Y35850000D02*
X-65200000Y31650000D01*
X-70150000Y38000000D02*
X-70150000Y33500000D01*
X-69250000Y36600000D02*
X-69250000Y32200000D01*
X-67750000Y36050000D02*
X-67750000Y31450000D01*
D11*
X-72950000Y33700000D02*
X-70250000Y38000000D01*
D10*
X-73300000Y38250000D02*
X-73300000Y33650000D01*
X-69100000Y36500000D02*
X-69100000Y32100000D01*
D11*
X-70250000Y33650000D02*
X-67400000Y35950000D01*
X-72950000Y38150000D02*
X-72950000Y33700000D01*
D10*
X-73150000Y38250000D02*
X-73150000Y33650000D01*
X-65950000Y36050000D02*
X-65950000Y31450000D01*
X-73350000Y33625000D02*
X-74375000Y34650000D01*
X-68050000Y36100000D02*
X-68050000Y31450000D01*
X-73350000Y38275000D02*
X-74375000Y37250000D01*
X-68325000Y31425000D02*
X-65775000Y31425000D01*
X-69550000Y36900000D02*
X-69550000Y32450000D01*
X-66250000Y36050000D02*
X-66250000Y31450000D01*
X-70050000Y37850000D02*
X-70050000Y33450000D01*
X-65650000Y36050000D02*
X-65650000Y31500000D01*
X-73350000Y33625000D02*
X-70775000Y33625000D01*
X-72550000Y38250000D02*
X-72550000Y33650000D01*
X-65050000Y35750000D02*
X-65050000Y31750000D01*
X-71950000Y38250000D02*
X-71950000Y33650000D01*
X-72100000Y38250000D02*
X-72100000Y33650000D01*
X-69400000Y36750000D02*
X-69400000Y32300000D01*
X-65800000Y36050000D02*
X-65800000Y31450000D01*
D11*
X-70250000Y38000000D02*
X-70250000Y33650000D01*
D10*
X-71200000Y38250000D02*
X-71200000Y33650000D01*
X-69750000Y37250000D02*
X-69750000Y33100000D01*
X-70300000Y38100000D02*
X-70300000Y33550000D01*
X-69650000Y37100000D02*
X-69650000Y32950000D01*
X-73350000Y38275000D02*
X-70750000Y38275000D01*
X-68950000Y36400000D02*
X-68950000Y31950000D01*
X-73450000Y38150000D02*
X-73450000Y33750000D01*
X-68500000Y36150000D02*
X-68500000Y31600000D01*
X-74000000Y37600000D02*
X-74000000Y34350000D01*
X-72700000Y38250000D02*
X-72700000Y33650000D01*
X-68650000Y36250000D02*
X-68650000Y31700000D01*
X-70900000Y38250000D02*
X-70900000Y33700000D01*
X-67450000Y36050000D02*
X-67450000Y31450000D01*
X-72400000Y38250000D02*
X-72400000Y33650000D01*
X-71800000Y38250000D02*
X-71800000Y33650000D01*
X-70600000Y38250000D02*
X-70600000Y33650000D01*
X-73750000Y37850000D02*
X-73750000Y34050000D01*
X-68200000Y36100000D02*
X-68200000Y31450000D01*
X-71650000Y38250000D02*
X-71650000Y33650000D01*
X-69850000Y37450000D02*
X-69850000Y33300000D01*
X-65775000Y31425000D02*
G75*
G03*
X-64775000Y32425000I0J1000000D01*
G01*
X-69887797Y37571905D02*
G75*
G03*
X-70749005Y38273791I-900003J-225005D01*
G01*
X-64775000Y35075000D02*
G75*
G03*
X-65775000Y36075000I-1000000J0D01*
G01*
X-69600000Y32450000D02*
G75*
G03*
X-70775000Y33625000I-1175000J0D01*
G01*
X-69887801Y37571904D02*
G75*
G03*
X-67750000Y36075000I2137801J778096D01*
G01*
%TO.C,D20*%
X-13525000Y29800000D02*
X-13525000Y28800000D01*
X-12525000Y29800000D02*
X-12525000Y28800000D01*
X-12625000Y29300000D02*
X-13525000Y29800000D01*
X-13525000Y28800000D02*
X-12625000Y29300000D01*
%TO.C,SW21*%
X-33000000Y7600000D02*
X-33000000Y4350000D01*
X-27800000Y6300000D02*
X-27800000Y1850000D01*
X-28950000Y7600000D02*
X-28950000Y3400000D01*
X-26900000Y6050000D02*
X-26900000Y1500000D01*
X-25550000Y6050000D02*
X-25550000Y1450000D01*
X-32150000Y8250000D02*
X-32150000Y3650000D01*
X-25250000Y6050000D02*
X-25250000Y1450000D01*
X-28100000Y6500000D02*
X-28100000Y2100000D01*
X-30200000Y8250000D02*
X-30200000Y3650000D01*
X-27325000Y1425000D02*
X-24775000Y1425000D01*
X-26000000Y6050000D02*
X-26000000Y1450000D01*
X-32300000Y8250000D02*
X-32300000Y3650000D01*
X-31100000Y8250000D02*
X-31100000Y3650000D01*
X-26150000Y6050000D02*
X-26150000Y1450000D01*
X-25400000Y6050000D02*
X-25400000Y1450000D01*
X-30950000Y8250000D02*
X-30950000Y3650000D01*
X-32350000Y8275000D02*
X-29750000Y8275000D01*
X-30800000Y8250000D02*
X-30800000Y3650000D01*
X-25100000Y6050000D02*
X-25100000Y1450000D01*
X-33100000Y7500000D02*
X-33100000Y4450000D01*
X-30050000Y8250000D02*
X-30050000Y3650000D01*
X-32600000Y8000000D02*
X-32600000Y3900000D01*
X-32350000Y8275000D02*
X-33375000Y7250000D01*
X-32750000Y7850000D02*
X-32750000Y4050000D01*
X-25700000Y6050000D02*
X-25700000Y1450000D01*
X-29300000Y8100000D02*
X-29300000Y3550000D01*
X-31250000Y8250000D02*
X-31250000Y3650000D01*
X-24350000Y5950000D02*
X-24350000Y1550000D01*
X-24650000Y6050000D02*
X-24650000Y1500000D01*
X-27050000Y6100000D02*
X-27050000Y1450000D01*
X-28750000Y7250000D02*
X-28750000Y3100000D01*
X-26450000Y6050000D02*
X-26450000Y1450000D01*
X-32350000Y3625000D02*
X-33375000Y4650000D01*
X-27650000Y6250000D02*
X-27650000Y1700000D01*
X-29750000Y8250000D02*
X-29750000Y3650000D01*
X-26300000Y6050000D02*
X-26300000Y1450000D01*
X-32900000Y7700000D02*
X-32900000Y4200000D01*
X-28650000Y7100000D02*
X-28650000Y2950000D01*
X-31700000Y8250000D02*
X-31700000Y3650000D01*
X-32350000Y3625000D02*
X-29775000Y3625000D01*
X-27200000Y6100000D02*
X-27200000Y1450000D01*
X-27325000Y1425000D02*
X-28600000Y2450000D01*
X-24500000Y6000000D02*
X-24500000Y1500000D01*
X-24200000Y5850000D02*
X-24200000Y1650000D01*
D11*
X-31950000Y8150000D02*
X-31950000Y3700000D01*
D10*
X-28400000Y6750000D02*
X-28400000Y2300000D01*
X-26750000Y6050000D02*
X-26750000Y1450000D01*
X-29900000Y8250000D02*
X-29900000Y3700000D01*
X-28550000Y6900000D02*
X-28550000Y2450000D01*
X-27950000Y6400000D02*
X-27950000Y1950000D01*
X-29050000Y7850000D02*
X-29050000Y3450000D01*
X-30350000Y8250000D02*
X-30350000Y3650000D01*
X-30500000Y8250000D02*
X-30500000Y3650000D01*
X-32450000Y8150000D02*
X-32450000Y3750000D01*
X-25850000Y6050000D02*
X-25850000Y1450000D01*
X-33200000Y7400000D02*
X-33200000Y4550000D01*
X-29600000Y8250000D02*
X-29600000Y3650000D01*
X-28850000Y7450000D02*
X-28850000Y3300000D01*
X-33350000Y4625000D02*
X-33350000Y7275000D01*
X-27500000Y6150000D02*
X-27500000Y1600000D01*
X-29150000Y8000000D02*
X-29150000Y3500000D01*
D11*
X-29250000Y3650000D02*
X-26400000Y5950000D01*
D10*
X-24050000Y5750000D02*
X-24050000Y1750000D01*
X-26750000Y6075000D02*
X-24775000Y6075000D01*
X-24800000Y6050000D02*
X-24800000Y1450000D01*
X-31850000Y8250000D02*
X-31850000Y3650000D01*
X-31550000Y8250000D02*
X-31550000Y3650000D01*
X-32000000Y8250000D02*
X-32000000Y3650000D01*
X-28250000Y6600000D02*
X-28250000Y2200000D01*
D11*
X-26400000Y5950000D02*
X-26400000Y1450000D01*
D10*
X-29450000Y8200000D02*
X-29450000Y3650000D01*
D11*
X-29250000Y8000000D02*
X-29250000Y3650000D01*
D10*
X-27350000Y6100000D02*
X-27350000Y1500000D01*
X-30650000Y8250000D02*
X-30650000Y3650000D01*
X-23900000Y5550000D02*
X-23900000Y1950000D01*
D11*
X-31950000Y3700000D02*
X-29250000Y8000000D01*
D10*
X-31400000Y8250000D02*
X-31400000Y3650000D01*
X-24950000Y6050000D02*
X-24950000Y1450000D01*
X-26600000Y6050000D02*
X-26600000Y1450000D01*
X-23775000Y5075000D02*
G75*
G03*
X-24775000Y6075000I-1000000J0D01*
G01*
X-28887801Y7571904D02*
G75*
G03*
X-26750000Y6075000I2137801J778096D01*
G01*
X-28600000Y2450000D02*
G75*
G03*
X-29775000Y3625000I-1175000J0D01*
G01*
X-24775000Y1425000D02*
G75*
G03*
X-23775000Y2425000I0J1000000D01*
G01*
X-28887797Y7571905D02*
G75*
G03*
X-29749005Y8273791I-900003J-225005D01*
G01*
%TO.C,D18*%
X-12625000Y-4700000D02*
X-13525000Y-4200000D01*
X-13525000Y-4200000D02*
X-13525000Y-5200000D01*
X-13525000Y-5200000D02*
X-12625000Y-4700000D01*
X-12525000Y-4200000D02*
X-12525000Y-5200000D01*
%TO.C,SW19*%
X-6650000Y23050000D02*
X-6650000Y18500000D01*
D11*
X-11250000Y25000000D02*
X-11250000Y20650000D01*
D10*
X-11900000Y25250000D02*
X-11900000Y20700000D01*
X-9800000Y23300000D02*
X-9800000Y18850000D01*
X-9200000Y23100000D02*
X-9200000Y18450000D01*
X-11750000Y25250000D02*
X-11750000Y20650000D01*
X-14000000Y25250000D02*
X-14000000Y20650000D01*
X-7850000Y23050000D02*
X-7850000Y18450000D01*
X-6800000Y23050000D02*
X-6800000Y18450000D01*
X-10400000Y23750000D02*
X-10400000Y19300000D01*
X-14300000Y25250000D02*
X-14300000Y20650000D01*
X-15000000Y24600000D02*
X-15000000Y21350000D01*
X-12650000Y25250000D02*
X-12650000Y20650000D01*
X-7100000Y23050000D02*
X-7100000Y18450000D01*
X-11600000Y25250000D02*
X-11600000Y20650000D01*
X-14900000Y24700000D02*
X-14900000Y21200000D01*
X-15350000Y21625000D02*
X-15350000Y24275000D01*
X-14600000Y25000000D02*
X-14600000Y20900000D01*
X-10750000Y24250000D02*
X-10750000Y20100000D01*
X-13550000Y25250000D02*
X-13550000Y20650000D01*
X-10550000Y23900000D02*
X-10550000Y19450000D01*
X-9325000Y18425000D02*
X-6775000Y18425000D01*
X-13100000Y25250000D02*
X-13100000Y20650000D01*
X-12200000Y25250000D02*
X-12200000Y20650000D01*
X-8000000Y23050000D02*
X-8000000Y18450000D01*
X-9325000Y18425000D02*
X-10600000Y19450000D01*
X-11450000Y25200000D02*
X-11450000Y20650000D01*
X-9950000Y23400000D02*
X-9950000Y18950000D01*
X-7550000Y23050000D02*
X-7550000Y18450000D01*
X-14450000Y25150000D02*
X-14450000Y20750000D01*
X-10950000Y24600000D02*
X-10950000Y20400000D01*
X-14750000Y24850000D02*
X-14750000Y21050000D01*
X-13250000Y25250000D02*
X-13250000Y20650000D01*
X-15100000Y24500000D02*
X-15100000Y21450000D01*
X-10650000Y24100000D02*
X-10650000Y19950000D01*
X-10100000Y23500000D02*
X-10100000Y19100000D01*
X-7400000Y23050000D02*
X-7400000Y18450000D01*
X-8450000Y23050000D02*
X-8450000Y18450000D01*
X-6050000Y22750000D02*
X-6050000Y18750000D01*
X-12050000Y25250000D02*
X-12050000Y20650000D01*
X-12950000Y25250000D02*
X-12950000Y20650000D01*
X-12500000Y25250000D02*
X-12500000Y20650000D01*
X-9500000Y23150000D02*
X-9500000Y18600000D01*
X-6200000Y22850000D02*
X-6200000Y18650000D01*
X-6950000Y23050000D02*
X-6950000Y18450000D01*
X-14150000Y25250000D02*
X-14150000Y20650000D01*
X-7700000Y23050000D02*
X-7700000Y18450000D01*
X-11300000Y25100000D02*
X-11300000Y20550000D01*
X-13400000Y25250000D02*
X-13400000Y20650000D01*
X-9050000Y23100000D02*
X-9050000Y18450000D01*
X-7250000Y23050000D02*
X-7250000Y18450000D01*
X-13700000Y25250000D02*
X-13700000Y20650000D01*
X-8750000Y23075000D02*
X-6775000Y23075000D01*
X-14350000Y25275000D02*
X-11750000Y25275000D01*
D11*
X-11250000Y20650000D02*
X-8400000Y22950000D01*
D10*
X-8900000Y23050000D02*
X-8900000Y18500000D01*
X-8600000Y23050000D02*
X-8600000Y18450000D01*
X-10250000Y23600000D02*
X-10250000Y19200000D01*
D11*
X-13950000Y25150000D02*
X-13950000Y20700000D01*
D10*
X-6500000Y23000000D02*
X-6500000Y18500000D01*
X-5900000Y22550000D02*
X-5900000Y18950000D01*
X-12350000Y25250000D02*
X-12350000Y20650000D01*
X-9350000Y23100000D02*
X-9350000Y18500000D01*
X-8750000Y23050000D02*
X-8750000Y18450000D01*
X-14350000Y25275000D02*
X-15375000Y24250000D01*
X-9650000Y23250000D02*
X-9650000Y18700000D01*
X-8150000Y23050000D02*
X-8150000Y18450000D01*
D11*
X-8400000Y22950000D02*
X-8400000Y18450000D01*
X-13950000Y20700000D02*
X-11250000Y25000000D01*
D10*
X-11150000Y25000000D02*
X-11150000Y20500000D01*
X-11050000Y24850000D02*
X-11050000Y20450000D01*
X-14350000Y20625000D02*
X-11775000Y20625000D01*
X-8300000Y23050000D02*
X-8300000Y18450000D01*
X-13850000Y25250000D02*
X-13850000Y20650000D01*
X-10850000Y24450000D02*
X-10850000Y20300000D01*
X-15200000Y24400000D02*
X-15200000Y21550000D01*
X-14350000Y20625000D02*
X-15375000Y21650000D01*
X-12800000Y25250000D02*
X-12800000Y20650000D01*
X-6350000Y22950000D02*
X-6350000Y18550000D01*
X-10887801Y24571904D02*
G75*
G03*
X-8750000Y23075000I2137801J778096D01*
G01*
X-10600000Y19450000D02*
G75*
G03*
X-11775000Y20625000I-1175000J0D01*
G01*
X-10887797Y24571905D02*
G75*
G03*
X-11749005Y25273791I-900003J-225005D01*
G01*
X-5775000Y22075000D02*
G75*
G03*
X-6775000Y23075000I-1000000J0D01*
G01*
X-6775000Y18425000D02*
G75*
G03*
X-5775000Y19425000I0J1000000D01*
G01*
%TO.C,D30*%
X-77525000Y-11200000D02*
X-76625000Y-10700000D01*
X-76525000Y-10200000D02*
X-76525000Y-11200000D01*
X-77525000Y-10200000D02*
X-77525000Y-11200000D01*
X-76625000Y-10700000D02*
X-77525000Y-10200000D01*
%TO.C,D24*%
X-48525000Y13800000D02*
X-48525000Y12800000D01*
X-49525000Y13800000D02*
X-49525000Y12800000D01*
X-49525000Y12800000D02*
X-48625000Y13300000D01*
X-48625000Y13300000D02*
X-49525000Y13800000D01*
%TO.C,D26*%
X-49525000Y47800000D02*
X-49525000Y46800000D01*
X-48625000Y47300000D02*
X-49525000Y47800000D01*
X-48525000Y47800000D02*
X-48525000Y46800000D01*
X-49525000Y46800000D02*
X-48625000Y47300000D01*
%TO.C,D22*%
X-30625000Y12300000D02*
X-31525000Y12800000D01*
X-31525000Y12800000D02*
X-31525000Y11800000D01*
X-31525000Y11800000D02*
X-30625000Y12300000D01*
X-30525000Y12800000D02*
X-30525000Y11800000D01*
%TO.C,D21*%
X-31525000Y-4200000D02*
X-31525000Y-5200000D01*
X-30525000Y-4200000D02*
X-30525000Y-5200000D01*
X-30625000Y-4700000D02*
X-31525000Y-4200000D01*
X-31525000Y-5200000D02*
X-30625000Y-4700000D01*
%TO.C,SW24*%
X-44600000Y24050000D02*
X-44600000Y19450000D01*
X-46250000Y24600000D02*
X-46250000Y20200000D01*
X-42350000Y23950000D02*
X-42350000Y19550000D01*
X-49550000Y26250000D02*
X-49550000Y21650000D01*
X-43700000Y24050000D02*
X-43700000Y19450000D01*
X-43400000Y24050000D02*
X-43400000Y19450000D01*
X-48800000Y26250000D02*
X-48800000Y21650000D01*
X-43100000Y24050000D02*
X-43100000Y19450000D01*
X-45325000Y19425000D02*
X-46600000Y20450000D01*
X-48500000Y26250000D02*
X-48500000Y21650000D01*
X-48950000Y26250000D02*
X-48950000Y21650000D01*
X-50450000Y26150000D02*
X-50450000Y21750000D01*
X-44450000Y24050000D02*
X-44450000Y19450000D01*
X-45200000Y24100000D02*
X-45200000Y19450000D01*
X-42200000Y23850000D02*
X-42200000Y19650000D01*
X-47050000Y25850000D02*
X-47050000Y21450000D01*
X-50350000Y26275000D02*
X-51375000Y25250000D01*
X-46750000Y25250000D02*
X-46750000Y21100000D01*
X-43550000Y24050000D02*
X-43550000Y19450000D01*
X-49250000Y26250000D02*
X-49250000Y21650000D01*
X-50350000Y26275000D02*
X-47750000Y26275000D01*
X-48200000Y26250000D02*
X-48200000Y21650000D01*
X-46100000Y24500000D02*
X-46100000Y20100000D01*
X-42950000Y24050000D02*
X-42950000Y19450000D01*
X-47450000Y26200000D02*
X-47450000Y21650000D01*
X-44750000Y24075000D02*
X-42775000Y24075000D01*
X-46850000Y25450000D02*
X-46850000Y21300000D01*
X-49700000Y26250000D02*
X-49700000Y21650000D01*
X-45325000Y19425000D02*
X-42775000Y19425000D01*
X-48050000Y26250000D02*
X-48050000Y21650000D01*
X-46400000Y24750000D02*
X-46400000Y20300000D01*
X-43250000Y24050000D02*
X-43250000Y19450000D01*
D11*
X-47250000Y26000000D02*
X-47250000Y21650000D01*
D10*
X-46550000Y24900000D02*
X-46550000Y20450000D01*
X-51000000Y25600000D02*
X-51000000Y22350000D01*
X-46650000Y25100000D02*
X-46650000Y20950000D01*
X-46950000Y25600000D02*
X-46950000Y21400000D01*
X-48350000Y26250000D02*
X-48350000Y21650000D01*
X-49100000Y26250000D02*
X-49100000Y21650000D01*
X-45500000Y24150000D02*
X-45500000Y19600000D01*
X-44150000Y24050000D02*
X-44150000Y19450000D01*
X-50600000Y26000000D02*
X-50600000Y21900000D01*
X-45650000Y24250000D02*
X-45650000Y19700000D01*
X-45350000Y24100000D02*
X-45350000Y19500000D01*
X-49400000Y26250000D02*
X-49400000Y21650000D01*
X-50350000Y21625000D02*
X-51375000Y22650000D01*
D11*
X-49950000Y21700000D02*
X-47250000Y26000000D01*
D10*
X-50300000Y26250000D02*
X-50300000Y21650000D01*
X-50000000Y26250000D02*
X-50000000Y21650000D01*
X-44000000Y24050000D02*
X-44000000Y19450000D01*
X-50750000Y25850000D02*
X-50750000Y22050000D01*
X-47300000Y26100000D02*
X-47300000Y21550000D01*
X-48650000Y26250000D02*
X-48650000Y21650000D01*
X-50350000Y21625000D02*
X-47775000Y21625000D01*
X-42800000Y24050000D02*
X-42800000Y19450000D01*
X-49850000Y26250000D02*
X-49850000Y21650000D01*
X-43850000Y24050000D02*
X-43850000Y19450000D01*
X-45950000Y24400000D02*
X-45950000Y19950000D01*
D11*
X-49950000Y26150000D02*
X-49950000Y21700000D01*
D10*
X-51200000Y25400000D02*
X-51200000Y22550000D01*
X-45800000Y24300000D02*
X-45800000Y19850000D01*
X-41900000Y23550000D02*
X-41900000Y19950000D01*
X-50150000Y26250000D02*
X-50150000Y21650000D01*
X-44750000Y24050000D02*
X-44750000Y19450000D01*
X-44900000Y24050000D02*
X-44900000Y19500000D01*
X-42050000Y23750000D02*
X-42050000Y19750000D01*
X-45050000Y24100000D02*
X-45050000Y19450000D01*
X-51350000Y22625000D02*
X-51350000Y25275000D01*
X-51100000Y25500000D02*
X-51100000Y22450000D01*
X-47600000Y26250000D02*
X-47600000Y21650000D01*
X-50900000Y25700000D02*
X-50900000Y22200000D01*
D11*
X-47250000Y21650000D02*
X-44400000Y23950000D01*
D10*
X-42500000Y24000000D02*
X-42500000Y19500000D01*
X-42650000Y24050000D02*
X-42650000Y19500000D01*
X-47750000Y26250000D02*
X-47750000Y21650000D01*
X-47150000Y26000000D02*
X-47150000Y21500000D01*
X-44300000Y24050000D02*
X-44300000Y19450000D01*
X-47900000Y26250000D02*
X-47900000Y21700000D01*
D11*
X-44400000Y23950000D02*
X-44400000Y19450000D01*
D10*
X-42775000Y19425000D02*
G75*
G03*
X-41775000Y20425000I0J1000000D01*
G01*
X-46600000Y20450000D02*
G75*
G03*
X-47775000Y21625000I-1175000J0D01*
G01*
X-46887801Y25571904D02*
G75*
G03*
X-44750000Y24075000I2137801J778096D01*
G01*
X-41775000Y23075000D02*
G75*
G03*
X-42775000Y24075000I-1000000J0D01*
G01*
X-46887797Y25571905D02*
G75*
G03*
X-47749005Y26273791I-900003J-225005D01*
G01*
%TO.C,SW27*%
X-69100000Y20500000D02*
X-69100000Y17450000D01*
X-60650000Y19050000D02*
X-60650000Y14500000D01*
X-64400000Y19750000D02*
X-64400000Y15300000D01*
X-61400000Y19050000D02*
X-61400000Y14450000D01*
D11*
X-65250000Y21000000D02*
X-65250000Y16650000D01*
D10*
X-60200000Y18850000D02*
X-60200000Y14650000D01*
X-64250000Y19600000D02*
X-64250000Y15200000D01*
X-68600000Y21000000D02*
X-68600000Y16900000D01*
X-66200000Y21250000D02*
X-66200000Y16650000D01*
X-65900000Y21250000D02*
X-65900000Y16700000D01*
X-68000000Y21250000D02*
X-68000000Y16650000D01*
X-63325000Y14425000D02*
X-64600000Y15450000D01*
X-60950000Y19050000D02*
X-60950000Y14450000D01*
X-65050000Y20850000D02*
X-65050000Y16450000D01*
X-61100000Y19050000D02*
X-61100000Y14450000D01*
X-66500000Y21250000D02*
X-66500000Y16650000D01*
X-63350000Y19100000D02*
X-63350000Y14500000D01*
X-66800000Y21250000D02*
X-66800000Y16650000D01*
X-59900000Y18550000D02*
X-59900000Y14950000D01*
X-63050000Y19100000D02*
X-63050000Y14450000D01*
X-67850000Y21250000D02*
X-67850000Y16650000D01*
X-67550000Y21250000D02*
X-67550000Y16650000D01*
X-64100000Y19500000D02*
X-64100000Y15100000D01*
X-63800000Y19300000D02*
X-63800000Y14850000D01*
X-60050000Y18750000D02*
X-60050000Y14750000D01*
X-67250000Y21250000D02*
X-67250000Y16650000D01*
D11*
X-67950000Y16700000D02*
X-65250000Y21000000D01*
D10*
X-60800000Y19050000D02*
X-60800000Y14450000D01*
X-66950000Y21250000D02*
X-66950000Y16650000D01*
X-61250000Y19050000D02*
X-61250000Y14450000D01*
X-66350000Y21250000D02*
X-66350000Y16650000D01*
X-68350000Y16625000D02*
X-69375000Y17650000D01*
D11*
X-65250000Y16650000D02*
X-62400000Y18950000D01*
D10*
X-60350000Y18950000D02*
X-60350000Y14550000D01*
X-63950000Y19400000D02*
X-63950000Y14950000D01*
X-61850000Y19050000D02*
X-61850000Y14450000D01*
X-68900000Y20700000D02*
X-68900000Y17200000D01*
X-69350000Y17625000D02*
X-69350000Y20275000D01*
X-63325000Y14425000D02*
X-60775000Y14425000D01*
X-62600000Y19050000D02*
X-62600000Y14450000D01*
X-65150000Y21000000D02*
X-65150000Y16500000D01*
X-67100000Y21250000D02*
X-67100000Y16650000D01*
X-68750000Y20850000D02*
X-68750000Y17050000D01*
X-61550000Y19050000D02*
X-61550000Y14450000D01*
X-62150000Y19050000D02*
X-62150000Y14450000D01*
X-68350000Y21275000D02*
X-69375000Y20250000D01*
X-64850000Y20450000D02*
X-64850000Y16300000D01*
X-60500000Y19000000D02*
X-60500000Y14500000D01*
X-68300000Y21250000D02*
X-68300000Y16650000D01*
D11*
X-67950000Y21150000D02*
X-67950000Y16700000D01*
D10*
X-63650000Y19250000D02*
X-63650000Y14700000D01*
X-64650000Y20100000D02*
X-64650000Y15950000D01*
X-64950000Y20600000D02*
X-64950000Y16400000D01*
X-63200000Y19100000D02*
X-63200000Y14450000D01*
X-67700000Y21250000D02*
X-67700000Y16650000D01*
X-63500000Y19150000D02*
X-63500000Y14600000D01*
X-62900000Y19050000D02*
X-62900000Y14500000D01*
X-68150000Y21250000D02*
X-68150000Y16650000D01*
X-64550000Y19900000D02*
X-64550000Y15450000D01*
X-68350000Y21275000D02*
X-65750000Y21275000D01*
X-66650000Y21250000D02*
X-66650000Y16650000D01*
X-65450000Y21200000D02*
X-65450000Y16650000D01*
D11*
X-62400000Y18950000D02*
X-62400000Y14450000D01*
D10*
X-62750000Y19050000D02*
X-62750000Y14450000D01*
X-62000000Y19050000D02*
X-62000000Y14450000D01*
X-65300000Y21100000D02*
X-65300000Y16550000D01*
X-67400000Y21250000D02*
X-67400000Y16650000D01*
X-61700000Y19050000D02*
X-61700000Y14450000D01*
X-64750000Y20250000D02*
X-64750000Y16100000D01*
X-69200000Y20400000D02*
X-69200000Y17550000D01*
X-68350000Y16625000D02*
X-65775000Y16625000D01*
X-65600000Y21250000D02*
X-65600000Y16650000D01*
X-66050000Y21250000D02*
X-66050000Y16650000D01*
X-69000000Y20600000D02*
X-69000000Y17350000D01*
X-62750000Y19075000D02*
X-60775000Y19075000D01*
X-62300000Y19050000D02*
X-62300000Y14450000D01*
X-65750000Y21250000D02*
X-65750000Y16650000D01*
X-62450000Y19050000D02*
X-62450000Y14450000D01*
X-68450000Y21150000D02*
X-68450000Y16750000D01*
X-64887797Y20571905D02*
G75*
G03*
X-65749005Y21273791I-900003J-225005D01*
G01*
X-59775000Y18075000D02*
G75*
G03*
X-60775000Y19075000I-1000000J0D01*
G01*
X-64887801Y20571904D02*
G75*
G03*
X-62750000Y19075000I2137801J778096D01*
G01*
X-64600000Y15450000D02*
G75*
G03*
X-65775000Y16625000I-1175000J0D01*
G01*
X-60775000Y14425000D02*
G75*
G03*
X-59775000Y15425000I0J1000000D01*
G01*
%TO.C,D27*%
X-66525000Y8800000D02*
X-66525000Y7800000D01*
X-66625000Y8300000D02*
X-67525000Y8800000D01*
X-67525000Y8800000D02*
X-67525000Y7800000D01*
X-67525000Y7800000D02*
X-66625000Y8300000D01*
%TO.C,SW32*%
X-93350000Y34100000D02*
X-93350000Y29500000D01*
X-93325000Y29425000D02*
X-90775000Y29425000D01*
X-96050000Y36250000D02*
X-96050000Y31650000D01*
X-91250000Y34050000D02*
X-91250000Y29450000D01*
X-90050000Y33750000D02*
X-90050000Y29750000D01*
X-92750000Y34050000D02*
X-92750000Y29450000D01*
X-96800000Y36250000D02*
X-96800000Y31650000D01*
X-98000000Y36250000D02*
X-98000000Y31650000D01*
X-89900000Y33550000D02*
X-89900000Y29950000D01*
X-90650000Y34050000D02*
X-90650000Y29500000D01*
X-93650000Y34250000D02*
X-93650000Y29700000D01*
X-92150000Y34050000D02*
X-92150000Y29450000D01*
X-90350000Y33950000D02*
X-90350000Y29550000D01*
X-91850000Y34050000D02*
X-91850000Y29450000D01*
X-99000000Y35600000D02*
X-99000000Y32350000D01*
X-91700000Y34050000D02*
X-91700000Y29450000D01*
X-90200000Y33850000D02*
X-90200000Y29650000D01*
X-95900000Y36250000D02*
X-95900000Y31700000D01*
X-95050000Y35850000D02*
X-95050000Y31450000D01*
X-97250000Y36250000D02*
X-97250000Y31650000D01*
X-92450000Y34050000D02*
X-92450000Y29450000D01*
X-94750000Y35250000D02*
X-94750000Y31100000D01*
X-97400000Y36250000D02*
X-97400000Y31650000D01*
D11*
X-97950000Y36150000D02*
X-97950000Y31700000D01*
D10*
X-95750000Y36250000D02*
X-95750000Y31650000D01*
X-99350000Y32625000D02*
X-99350000Y35275000D01*
X-93325000Y29425000D02*
X-94600000Y30450000D01*
X-93800000Y34300000D02*
X-93800000Y29850000D01*
X-98600000Y36000000D02*
X-98600000Y31900000D01*
X-94400000Y34750000D02*
X-94400000Y30300000D01*
X-95150000Y36000000D02*
X-95150000Y31500000D01*
X-91100000Y34050000D02*
X-91100000Y29450000D01*
X-96500000Y36250000D02*
X-96500000Y31650000D01*
X-95450000Y36200000D02*
X-95450000Y31650000D01*
X-94100000Y34500000D02*
X-94100000Y30100000D01*
X-93950000Y34400000D02*
X-93950000Y29950000D01*
X-95600000Y36250000D02*
X-95600000Y31650000D01*
X-91550000Y34050000D02*
X-91550000Y29450000D01*
X-97700000Y36250000D02*
X-97700000Y31650000D01*
X-93200000Y34100000D02*
X-93200000Y29450000D01*
X-98350000Y31625000D02*
X-99375000Y32650000D01*
X-94250000Y34600000D02*
X-94250000Y30200000D01*
D11*
X-92400000Y33950000D02*
X-92400000Y29450000D01*
D10*
X-94850000Y35450000D02*
X-94850000Y31300000D01*
X-98750000Y35850000D02*
X-98750000Y32050000D01*
X-94950000Y35600000D02*
X-94950000Y31400000D01*
D11*
X-97950000Y31700000D02*
X-95250000Y36000000D01*
D10*
X-93500000Y34150000D02*
X-93500000Y29600000D01*
X-98900000Y35700000D02*
X-98900000Y32200000D01*
X-98350000Y36275000D02*
X-99375000Y35250000D01*
X-98300000Y36250000D02*
X-98300000Y31650000D01*
X-94650000Y35100000D02*
X-94650000Y30950000D01*
X-96200000Y36250000D02*
X-96200000Y31650000D01*
X-92900000Y34050000D02*
X-92900000Y29500000D01*
X-97850000Y36250000D02*
X-97850000Y31650000D01*
D11*
X-95250000Y36000000D02*
X-95250000Y31650000D01*
D10*
X-98350000Y31625000D02*
X-95775000Y31625000D01*
X-97100000Y36250000D02*
X-97100000Y31650000D01*
X-98450000Y36150000D02*
X-98450000Y31750000D01*
X-90950000Y34050000D02*
X-90950000Y29450000D01*
X-97550000Y36250000D02*
X-97550000Y31650000D01*
X-96950000Y36250000D02*
X-96950000Y31650000D01*
X-93050000Y34100000D02*
X-93050000Y29450000D01*
X-96350000Y36250000D02*
X-96350000Y31650000D01*
X-92300000Y34050000D02*
X-92300000Y29450000D01*
X-90500000Y34000000D02*
X-90500000Y29500000D01*
X-92600000Y34050000D02*
X-92600000Y29450000D01*
X-98150000Y36250000D02*
X-98150000Y31650000D01*
D11*
X-95250000Y31650000D02*
X-92400000Y33950000D01*
D10*
X-92000000Y34050000D02*
X-92000000Y29450000D01*
X-95300000Y36100000D02*
X-95300000Y31550000D01*
X-99100000Y35500000D02*
X-99100000Y32450000D01*
X-98350000Y36275000D02*
X-95750000Y36275000D01*
X-99200000Y35400000D02*
X-99200000Y32550000D01*
X-94550000Y34900000D02*
X-94550000Y30450000D01*
X-92750000Y34075000D02*
X-90775000Y34075000D01*
X-90800000Y34050000D02*
X-90800000Y29450000D01*
X-91400000Y34050000D02*
X-91400000Y29450000D01*
X-96650000Y36250000D02*
X-96650000Y31650000D01*
X-94600000Y30450000D02*
G75*
G03*
X-95775000Y31625000I-1175000J0D01*
G01*
X-94887797Y35571905D02*
G75*
G03*
X-95749005Y36273791I-900003J-225005D01*
G01*
X-94887801Y35571904D02*
G75*
G03*
X-92750000Y34075000I2137801J778096D01*
G01*
X-90775000Y29425000D02*
G75*
G03*
X-89775000Y30425000I0J1000000D01*
G01*
X-89775000Y33075000D02*
G75*
G03*
X-90775000Y34075000I-1000000J0D01*
G01*
%TO.C,SW22*%
X-28550000Y23900000D02*
X-28550000Y19450000D01*
X-30200000Y25250000D02*
X-30200000Y20650000D01*
X-28650000Y24100000D02*
X-28650000Y19950000D01*
X-27800000Y23300000D02*
X-27800000Y18850000D01*
X-31250000Y25250000D02*
X-31250000Y20650000D01*
X-25850000Y23050000D02*
X-25850000Y18450000D01*
X-33000000Y24600000D02*
X-33000000Y21350000D01*
X-32900000Y24700000D02*
X-32900000Y21200000D01*
X-25700000Y23050000D02*
X-25700000Y18450000D01*
X-26900000Y23050000D02*
X-26900000Y18500000D01*
X-26750000Y23050000D02*
X-26750000Y18450000D01*
X-23900000Y22550000D02*
X-23900000Y18950000D01*
X-30800000Y25250000D02*
X-30800000Y20650000D01*
X-29300000Y25100000D02*
X-29300000Y20550000D01*
X-24950000Y23050000D02*
X-24950000Y18450000D01*
X-29750000Y25250000D02*
X-29750000Y20650000D01*
X-29600000Y25250000D02*
X-29600000Y20650000D01*
X-27950000Y23400000D02*
X-27950000Y18950000D01*
X-25400000Y23050000D02*
X-25400000Y18450000D01*
X-24650000Y23050000D02*
X-24650000Y18500000D01*
X-29900000Y25250000D02*
X-29900000Y20700000D01*
X-30350000Y25250000D02*
X-30350000Y20650000D01*
X-32300000Y25250000D02*
X-32300000Y20650000D01*
X-28400000Y23750000D02*
X-28400000Y19300000D01*
X-31550000Y25250000D02*
X-31550000Y20650000D01*
X-32350000Y20625000D02*
X-33375000Y21650000D01*
X-25100000Y23050000D02*
X-25100000Y18450000D01*
X-27325000Y18425000D02*
X-28600000Y19450000D01*
D11*
X-29250000Y20650000D02*
X-26400000Y22950000D01*
X-29250000Y25000000D02*
X-29250000Y20650000D01*
D10*
X-24200000Y22850000D02*
X-24200000Y18650000D01*
X-31100000Y25250000D02*
X-31100000Y20650000D01*
X-28750000Y24250000D02*
X-28750000Y20100000D01*
X-30500000Y25250000D02*
X-30500000Y20650000D01*
X-33100000Y24500000D02*
X-33100000Y21450000D01*
X-26000000Y23050000D02*
X-26000000Y18450000D01*
X-31400000Y25250000D02*
X-31400000Y20650000D01*
X-25550000Y23050000D02*
X-25550000Y18450000D01*
X-24800000Y23050000D02*
X-24800000Y18450000D01*
X-29050000Y24850000D02*
X-29050000Y20450000D01*
D11*
X-31950000Y20700000D02*
X-29250000Y25000000D01*
D10*
X-26300000Y23050000D02*
X-26300000Y18450000D01*
X-32750000Y24850000D02*
X-32750000Y21050000D01*
X-29150000Y25000000D02*
X-29150000Y20500000D01*
X-32150000Y25250000D02*
X-32150000Y20650000D01*
X-32350000Y25275000D02*
X-29750000Y25275000D01*
X-30650000Y25250000D02*
X-30650000Y20650000D01*
X-24500000Y23000000D02*
X-24500000Y18500000D01*
X-32600000Y25000000D02*
X-32600000Y20900000D01*
X-33200000Y24400000D02*
X-33200000Y21550000D01*
X-31850000Y25250000D02*
X-31850000Y20650000D01*
X-27650000Y23250000D02*
X-27650000Y18700000D01*
X-27050000Y23100000D02*
X-27050000Y18450000D01*
X-27200000Y23100000D02*
X-27200000Y18450000D01*
X-28950000Y24600000D02*
X-28950000Y20400000D01*
X-33350000Y21625000D02*
X-33350000Y24275000D01*
X-26150000Y23050000D02*
X-26150000Y18450000D01*
X-30950000Y25250000D02*
X-30950000Y20650000D01*
X-28100000Y23500000D02*
X-28100000Y19100000D01*
X-32000000Y25250000D02*
X-32000000Y20650000D01*
X-27350000Y23100000D02*
X-27350000Y18500000D01*
X-26750000Y23075000D02*
X-24775000Y23075000D01*
D11*
X-31950000Y25150000D02*
X-31950000Y20700000D01*
D10*
X-32350000Y25275000D02*
X-33375000Y24250000D01*
X-27500000Y23150000D02*
X-27500000Y18600000D01*
X-24350000Y22950000D02*
X-24350000Y18550000D01*
X-32350000Y20625000D02*
X-29775000Y20625000D01*
X-27325000Y18425000D02*
X-24775000Y18425000D01*
X-30050000Y25250000D02*
X-30050000Y20650000D01*
X-28250000Y23600000D02*
X-28250000Y19200000D01*
X-31700000Y25250000D02*
X-31700000Y20650000D01*
X-28850000Y24450000D02*
X-28850000Y20300000D01*
D11*
X-26400000Y22950000D02*
X-26400000Y18450000D01*
D10*
X-26600000Y23050000D02*
X-26600000Y18450000D01*
X-25250000Y23050000D02*
X-25250000Y18450000D01*
X-32450000Y25150000D02*
X-32450000Y20750000D01*
X-29450000Y25200000D02*
X-29450000Y20650000D01*
X-24050000Y22750000D02*
X-24050000Y18750000D01*
X-26450000Y23050000D02*
X-26450000Y18450000D01*
X-24775000Y18425000D02*
G75*
G03*
X-23775000Y19425000I0J1000000D01*
G01*
X-28887801Y24571904D02*
G75*
G03*
X-26750000Y23075000I2137801J778096D01*
G01*
X-23775000Y22075000D02*
G75*
G03*
X-24775000Y23075000I-1000000J0D01*
G01*
X-28600000Y19450000D02*
G75*
G03*
X-29775000Y20625000I-1175000J0D01*
G01*
X-28887797Y24571905D02*
G75*
G03*
X-29749005Y25273791I-900003J-225005D01*
G01*
D11*
%TO.C,J9*%
X-2480817Y-7337660D02*
G75*
G03*
X-2480817Y-7337660I-250000J0D01*
G01*
D10*
%TO.C,SW25*%
X-42650000Y41050000D02*
X-42650000Y36500000D01*
X-45325000Y36425000D02*
X-42775000Y36425000D01*
X-50350000Y38625000D02*
X-47775000Y38625000D01*
X-48050000Y43250000D02*
X-48050000Y38650000D01*
X-49100000Y43250000D02*
X-49100000Y38650000D01*
X-49400000Y43250000D02*
X-49400000Y38650000D01*
X-47900000Y43250000D02*
X-47900000Y38700000D01*
X-46650000Y42100000D02*
X-46650000Y37950000D01*
X-44300000Y41050000D02*
X-44300000Y36450000D01*
X-49850000Y43250000D02*
X-49850000Y38650000D01*
X-50600000Y43000000D02*
X-50600000Y38900000D01*
X-50450000Y43150000D02*
X-50450000Y38750000D01*
D11*
X-44400000Y40950000D02*
X-44400000Y36450000D01*
D10*
X-47300000Y43100000D02*
X-47300000Y38550000D01*
X-44150000Y41050000D02*
X-44150000Y36450000D01*
X-44450000Y41050000D02*
X-44450000Y36450000D01*
X-50900000Y42700000D02*
X-50900000Y39200000D01*
X-42950000Y41050000D02*
X-42950000Y36450000D01*
X-45800000Y41300000D02*
X-45800000Y36850000D01*
X-43700000Y41050000D02*
X-43700000Y36450000D01*
X-47450000Y43200000D02*
X-47450000Y38650000D01*
X-43550000Y41050000D02*
X-43550000Y36450000D01*
X-46400000Y41750000D02*
X-46400000Y37300000D01*
X-46750000Y42250000D02*
X-46750000Y38100000D01*
X-48800000Y43250000D02*
X-48800000Y38650000D01*
X-49700000Y43250000D02*
X-49700000Y38650000D01*
X-47050000Y42850000D02*
X-47050000Y38450000D01*
X-50300000Y43250000D02*
X-50300000Y38650000D01*
X-51200000Y42400000D02*
X-51200000Y39550000D01*
D11*
X-47250000Y43000000D02*
X-47250000Y38650000D01*
D10*
X-46850000Y42450000D02*
X-46850000Y38300000D01*
X-47600000Y43250000D02*
X-47600000Y38650000D01*
X-42500000Y41000000D02*
X-42500000Y36500000D01*
X-42050000Y40750000D02*
X-42050000Y36750000D01*
X-49550000Y43250000D02*
X-49550000Y38650000D01*
D11*
X-49950000Y38700000D02*
X-47250000Y43000000D01*
D10*
X-45500000Y41150000D02*
X-45500000Y36600000D01*
X-44750000Y41075000D02*
X-42775000Y41075000D01*
D11*
X-47250000Y38650000D02*
X-44400000Y40950000D01*
D10*
X-45050000Y41100000D02*
X-45050000Y36450000D01*
X-46550000Y41900000D02*
X-46550000Y37450000D01*
X-44000000Y41050000D02*
X-44000000Y36450000D01*
D11*
X-49950000Y43150000D02*
X-49950000Y38700000D01*
D10*
X-48650000Y43250000D02*
X-48650000Y38650000D01*
X-44750000Y41050000D02*
X-44750000Y36450000D01*
X-48950000Y43250000D02*
X-48950000Y38650000D01*
X-45200000Y41100000D02*
X-45200000Y36450000D01*
X-41900000Y40550000D02*
X-41900000Y36950000D01*
X-51000000Y42600000D02*
X-51000000Y39350000D01*
X-43250000Y41050000D02*
X-43250000Y36450000D01*
X-43100000Y41050000D02*
X-43100000Y36450000D01*
X-48200000Y43250000D02*
X-48200000Y38650000D01*
X-50350000Y38625000D02*
X-51375000Y39650000D01*
X-43400000Y41050000D02*
X-43400000Y36450000D01*
X-50750000Y42850000D02*
X-50750000Y39050000D01*
X-48500000Y43250000D02*
X-48500000Y38650000D01*
X-46250000Y41600000D02*
X-46250000Y37200000D01*
X-47150000Y43000000D02*
X-47150000Y38500000D01*
X-50150000Y43250000D02*
X-50150000Y38650000D01*
X-45350000Y41100000D02*
X-45350000Y36500000D01*
X-44600000Y41050000D02*
X-44600000Y36450000D01*
X-45950000Y41400000D02*
X-45950000Y36950000D01*
X-42200000Y40850000D02*
X-42200000Y36650000D01*
X-45325000Y36425000D02*
X-46600000Y37450000D01*
X-42800000Y41050000D02*
X-42800000Y36450000D01*
X-49250000Y43250000D02*
X-49250000Y38650000D01*
X-46100000Y41500000D02*
X-46100000Y37100000D01*
X-45650000Y41250000D02*
X-45650000Y36700000D01*
X-47750000Y43250000D02*
X-47750000Y38650000D01*
X-46950000Y42600000D02*
X-46950000Y38400000D01*
X-43850000Y41050000D02*
X-43850000Y36450000D01*
X-51350000Y39625000D02*
X-51350000Y42275000D01*
X-51100000Y42500000D02*
X-51100000Y39450000D01*
X-44900000Y41050000D02*
X-44900000Y36500000D01*
X-48350000Y43250000D02*
X-48350000Y38650000D01*
X-50350000Y43275000D02*
X-47750000Y43275000D01*
X-50000000Y43250000D02*
X-50000000Y38650000D01*
X-50350000Y43275000D02*
X-51375000Y42250000D01*
X-42350000Y40950000D02*
X-42350000Y36550000D01*
X-46600000Y37450000D02*
G75*
G03*
X-47775000Y38625000I-1175000J0D01*
G01*
X-42775000Y36425000D02*
G75*
G03*
X-41775000Y37425000I0J1000000D01*
G01*
X-46887801Y42571904D02*
G75*
G03*
X-44750000Y41075000I2137801J778096D01*
G01*
X-41775000Y40075000D02*
G75*
G03*
X-42775000Y41075000I-1000000J0D01*
G01*
X-46887797Y42571905D02*
G75*
G03*
X-47749005Y43273791I-900003J-225005D01*
G01*
%TO.C,D23*%
X-31525000Y28800000D02*
X-30625000Y29300000D01*
X-30625000Y29300000D02*
X-31525000Y29800000D01*
X-30525000Y29800000D02*
X-30525000Y28800000D01*
X-31525000Y29800000D02*
X-31525000Y28800000D01*
%TO.C,SW20*%
X-14350000Y37625000D02*
X-15375000Y38650000D01*
X-12950000Y42250000D02*
X-12950000Y37650000D01*
X-9500000Y40150000D02*
X-9500000Y35600000D01*
X-9350000Y40100000D02*
X-9350000Y35500000D01*
X-12650000Y42250000D02*
X-12650000Y37650000D01*
X-6950000Y40050000D02*
X-6950000Y35450000D01*
X-8750000Y40075000D02*
X-6775000Y40075000D01*
X-6350000Y39950000D02*
X-6350000Y35550000D01*
X-8150000Y40050000D02*
X-8150000Y35450000D01*
X-11300000Y42100000D02*
X-11300000Y37550000D01*
X-9950000Y40400000D02*
X-9950000Y35950000D01*
X-15200000Y41400000D02*
X-15200000Y38550000D01*
X-8300000Y40050000D02*
X-8300000Y35450000D01*
X-7400000Y40050000D02*
X-7400000Y35450000D01*
X-14000000Y42250000D02*
X-14000000Y37650000D01*
X-13100000Y42250000D02*
X-13100000Y37650000D01*
X-13250000Y42250000D02*
X-13250000Y37650000D01*
X-8900000Y40050000D02*
X-8900000Y35500000D01*
X-7100000Y40050000D02*
X-7100000Y35450000D01*
X-10250000Y40600000D02*
X-10250000Y36200000D01*
X-14150000Y42250000D02*
X-14150000Y37650000D01*
X-14350000Y37625000D02*
X-11775000Y37625000D01*
X-7850000Y40050000D02*
X-7850000Y35450000D01*
X-8600000Y40050000D02*
X-8600000Y35450000D01*
X-12200000Y42250000D02*
X-12200000Y37650000D01*
X-10750000Y41250000D02*
X-10750000Y37100000D01*
X-14900000Y41700000D02*
X-14900000Y38200000D01*
X-12050000Y42250000D02*
X-12050000Y37650000D01*
X-6200000Y39850000D02*
X-6200000Y35650000D01*
X-15100000Y41500000D02*
X-15100000Y38450000D01*
X-9800000Y40300000D02*
X-9800000Y35850000D01*
X-6650000Y40050000D02*
X-6650000Y35500000D01*
X-14300000Y42250000D02*
X-14300000Y37650000D01*
D11*
X-13950000Y37700000D02*
X-11250000Y42000000D01*
D10*
X-14750000Y41850000D02*
X-14750000Y38050000D01*
X-5900000Y39550000D02*
X-5900000Y35950000D01*
X-12500000Y42250000D02*
X-12500000Y37650000D01*
D11*
X-11250000Y42000000D02*
X-11250000Y37650000D01*
D10*
X-14450000Y42150000D02*
X-14450000Y37750000D01*
X-10850000Y41450000D02*
X-10850000Y37300000D01*
X-7550000Y40050000D02*
X-7550000Y35450000D01*
X-10550000Y40900000D02*
X-10550000Y36450000D01*
X-7250000Y40050000D02*
X-7250000Y35450000D01*
X-13700000Y42250000D02*
X-13700000Y37650000D01*
X-8450000Y40050000D02*
X-8450000Y35450000D01*
X-14350000Y42275000D02*
X-11750000Y42275000D01*
X-15000000Y41600000D02*
X-15000000Y38350000D01*
X-10400000Y40750000D02*
X-10400000Y36300000D01*
X-14600000Y42000000D02*
X-14600000Y37900000D01*
X-12800000Y42250000D02*
X-12800000Y37650000D01*
X-6800000Y40050000D02*
X-6800000Y35450000D01*
X-6050000Y39750000D02*
X-6050000Y35750000D01*
D11*
X-11250000Y37650000D02*
X-8400000Y39950000D01*
D10*
X-15350000Y38625000D02*
X-15350000Y41275000D01*
X-10650000Y41100000D02*
X-10650000Y36950000D01*
X-9650000Y40250000D02*
X-9650000Y35700000D01*
X-11050000Y41850000D02*
X-11050000Y37450000D01*
X-10950000Y41600000D02*
X-10950000Y37400000D01*
X-11750000Y42250000D02*
X-11750000Y37650000D01*
X-11900000Y42250000D02*
X-11900000Y37700000D01*
X-11450000Y42200000D02*
X-11450000Y37650000D01*
X-14350000Y42275000D02*
X-15375000Y41250000D01*
X-8000000Y40050000D02*
X-8000000Y35450000D01*
X-13550000Y42250000D02*
X-13550000Y37650000D01*
X-11150000Y42000000D02*
X-11150000Y37500000D01*
X-9325000Y35425000D02*
X-6775000Y35425000D01*
X-12350000Y42250000D02*
X-12350000Y37650000D01*
X-10100000Y40500000D02*
X-10100000Y36100000D01*
X-6500000Y40000000D02*
X-6500000Y35500000D01*
X-13850000Y42250000D02*
X-13850000Y37650000D01*
X-9200000Y40100000D02*
X-9200000Y35450000D01*
D11*
X-13950000Y42150000D02*
X-13950000Y37700000D01*
D10*
X-13400000Y42250000D02*
X-13400000Y37650000D01*
D11*
X-8400000Y39950000D02*
X-8400000Y35450000D01*
D10*
X-8750000Y40050000D02*
X-8750000Y35450000D01*
X-9050000Y40100000D02*
X-9050000Y35450000D01*
X-11600000Y42250000D02*
X-11600000Y37650000D01*
X-7700000Y40050000D02*
X-7700000Y35450000D01*
X-9325000Y35425000D02*
X-10600000Y36450000D01*
X-10887797Y41571905D02*
G75*
G03*
X-11749005Y42273791I-900003J-225005D01*
G01*
X-10887801Y41571904D02*
G75*
G03*
X-8750000Y40075000I2137801J778096D01*
G01*
X-6775000Y35425000D02*
G75*
G03*
X-5775000Y36425000I0J1000000D01*
G01*
X-5775000Y39075000D02*
G75*
G03*
X-6775000Y40075000I-1000000J0D01*
G01*
X-10600000Y36450000D02*
G75*
G03*
X-11775000Y37625000I-1175000J0D01*
G01*
%TO.C,D31*%
X-87525000Y6800000D02*
X-87525000Y5800000D01*
X-86625000Y6300000D02*
X-87525000Y6800000D01*
X-87525000Y5800000D02*
X-86625000Y6300000D01*
X-86525000Y6800000D02*
X-86525000Y5800000D01*
%TO.C,D25*%
X-48625000Y30300000D02*
X-49525000Y30800000D01*
X-49525000Y29800000D02*
X-48625000Y30300000D01*
X-48525000Y30800000D02*
X-48525000Y29800000D01*
X-49525000Y30800000D02*
X-49525000Y29800000D01*
%TO.C,D29*%
X-76525000Y42800000D02*
X-76525000Y41800000D01*
X-77525000Y41800000D02*
X-76625000Y42300000D01*
X-76625000Y42300000D02*
X-77525000Y42800000D01*
X-77525000Y42800000D02*
X-77525000Y41800000D01*
D11*
%TO.C,DS13*%
X-90750000Y40150000D02*
X-90750000Y32850000D01*
X-85250000Y40150000D02*
X-85250000Y32850000D01*
X-85250000Y32850000D02*
X-86400000Y32850000D01*
%TO.C,DS14*%
X-60750000Y44100000D02*
X-60750000Y51400000D01*
X-60750000Y51400000D02*
X-59600000Y51400000D01*
X-55250000Y44100000D02*
X-55250000Y51400000D01*
%TO.C,DS12*%
X-78750000Y12400000D02*
X-78750000Y5100000D01*
X-73250000Y12400000D02*
X-73250000Y5100000D01*
X-73250000Y5100000D02*
X-74400000Y5100000D01*
%TO.C,DS9*%
X-24750000Y-7900000D02*
X-24750000Y-600000D01*
X-24750000Y-600000D02*
X-23600000Y-600000D01*
X-19250000Y-7900000D02*
X-19250000Y-600000D01*
%TO.C,DS8*%
X-19250000Y26100000D02*
X-19250000Y33400000D01*
X-24750000Y33400000D02*
X-23600000Y33400000D01*
X-24750000Y26100000D02*
X-24750000Y33400000D01*
%TO.C,DS10*%
X-53650000Y-2750000D02*
X-46350000Y-2750000D01*
X-46350000Y2750000D02*
X-46350000Y1600000D01*
X-53650000Y2750000D02*
X-46350000Y2750000D01*
%TD*%
D12*
%TO.C,U2*%
X-9030000Y59620000D03*
D13*
X-11570000Y59620000D03*
X-14110000Y59620000D03*
X-16650000Y59620000D03*
X-19190000Y59620000D03*
X-21730000Y59620000D03*
X-24270000Y59620000D03*
X-26810000Y59620000D03*
X-29350000Y59620000D03*
X-31890000Y59620000D03*
X-34430000Y59620000D03*
X-36970000Y59620000D03*
X-9030000Y44380000D03*
X-11570000Y44380000D03*
X-14110000Y44380000D03*
X-16650000Y44380000D03*
X-19190000Y44380000D03*
X-21730000Y44380000D03*
X-24270000Y44380000D03*
X-26810000Y44380000D03*
X-29350000Y44380000D03*
X-31890000Y44380000D03*
X-34430000Y44380000D03*
X-36970000Y44380000D03*
%TD*%
M02*
