%TF.GenerationSoftware,KiCad,Pcbnew,(6.0.6)*%
%TF.CreationDate,2022-07-28T22:41:14-07:00*%
%TF.ProjectId,left_main_routed,6c656674-5f6d-4616-996e-5f726f757465,v1.0.0*%
%TF.SameCoordinates,Original*%
%TF.FileFunction,Paste,Top*%
%TF.FilePolarity,Positive*%
%FSLAX46Y46*%
G04 Gerber Fmt 4.6, Leading zero omitted, Abs format (unit mm)*
G04 Created by KiCad (PCBNEW (6.0.6)) date 2022-07-28 22:41:14*
%MOMM*%
%LPD*%
G01*
G04 APERTURE LIST*
G04 Aperture macros list*
%AMRotRect*
0 Rectangle, with rotation*
0 The origin of the aperture is its center*
0 $1 length*
0 $2 width*
0 $3 Rotation angle, in degrees counterclockwise*
0 Add horizontal line*
21,1,$1,$2,0,0,$3*%
G04 Aperture macros list end*
%ADD10R,1.400000X1.300000*%
%ADD11RotRect,3.000000X1.500000X156.037511*%
%ADD12R,1.050000X1.400000*%
%ADD13R,1.500000X1.000000*%
G04 APERTURE END LIST*
D10*
%TO.C,D28*%
X-70225000Y25300000D03*
X-73775000Y25300000D03*
%TD*%
%TO.C,D19*%
X-11225000Y12300000D03*
X-14775000Y12300000D03*
%TD*%
%TO.C,D32*%
X-95225000Y23300000D03*
X-98775000Y23300000D03*
%TD*%
%TO.C,D20*%
X-11225000Y29300000D03*
X-14775000Y29300000D03*
%TD*%
%TO.C,D18*%
X-11225000Y-4700000D03*
X-14775000Y-4700000D03*
%TD*%
%TO.C,D30*%
X-75225000Y-10700000D03*
X-78775000Y-10700000D03*
%TD*%
%TO.C,D24*%
X-47225000Y13300000D03*
X-50775000Y13300000D03*
%TD*%
%TO.C,D26*%
X-47225000Y47300000D03*
X-50775000Y47300000D03*
%TD*%
%TO.C,D22*%
X-29225000Y12300000D03*
X-32775000Y12300000D03*
%TD*%
%TO.C,D21*%
X-29225000Y-4700000D03*
X-32775000Y-4700000D03*
%TD*%
%TO.C,D27*%
X-65225000Y8300000D03*
X-68775000Y8300000D03*
%TD*%
D11*
%TO.C,J9*%
X-3238490Y-8479925D03*
X-4050767Y-10307548D03*
X-4863044Y-12135171D03*
X-5675321Y-13962794D03*
X-6487598Y-15790417D03*
X-7299875Y-17618040D03*
X-8112152Y-19445663D03*
X-8924429Y-21273286D03*
X-9736706Y-23100909D03*
%TD*%
D12*
%TO.C,RST2*%
X-7220000Y53800000D03*
X-7220000Y50200000D03*
X-5780000Y53800000D03*
X-5780000Y50200000D03*
%TD*%
D10*
%TO.C,D23*%
X-29225000Y29300000D03*
X-32775000Y29300000D03*
%TD*%
D13*
%TO.C,DS11*%
X-52450000Y1600000D03*
X-52450000Y-1600000D03*
X-47550000Y-1600000D03*
X-47550000Y1600000D03*
%TD*%
D10*
%TO.C,D31*%
X-85225000Y6300000D03*
X-88775000Y6300000D03*
%TD*%
%TO.C,D25*%
X-47225000Y30300000D03*
X-50775000Y30300000D03*
%TD*%
%TO.C,D29*%
X-75225000Y42300000D03*
X-78775000Y42300000D03*
%TD*%
M02*
