M48
; DRILL file {KiCad (6.0.6)} date Thu 28 Jul 2022 10:41:17 PM PDT
; FORMAT={-:-/ absolute / metric / decimal}
; #@! TF.CreationDate,2022-07-28T22:41:17-07:00
; #@! TF.GenerationSoftware,Kicad,Pcbnew,(6.0.6)
; #@! TF.FileFunction,NonPlated,1,2,NPTH
FMAT,2
METRIC
; #@! TA.AperFunction,NonPlated,NPTH,ComponentDrill
T1C0.700
; #@! TA.AperFunction,NonPlated,NPTH,ComponentDrill
T2C1.500
; #@! TA.AperFunction,NonPlated,NPTH,ComponentDrill
T3C1.702
; #@! TA.AperFunction,NonPlated,NPTH,ComponentDrill
T4C3.000
; #@! TA.AperFunction,NonPlated,NPTH,ComponentDrill
T5C3.429
%
G90
G05
T1
X-7.4Y52.0
X-5.6Y52.0
T2
X-64.0Y56.5
X-64.0Y49.5
X-15.7Y-24.625
T3
X-102.5Y28.0
X-92.5Y11.0
X-91.5Y28.0
X-82.5Y47.0
X-82.5Y-6.0
X-81.5Y11.0
X-77.5Y30.0
X-72.5Y13.0
X-71.5Y47.0
X-71.5Y-6.0
X-66.5Y30.0
X-61.5Y13.0
X-54.5Y52.0
X-54.5Y35.0
X-54.5Y18.0
X-43.5Y52.0
X-43.5Y35.0
X-43.5Y18.0
X-36.5Y34.0
X-36.5Y17.0
X-36.5Y0.0
X-25.5Y34.0
X-25.5Y17.0
X-25.5Y0.0
X-18.5Y34.0
X-18.5Y17.0
X-18.5Y0.0
X-7.5Y34.0
X-7.5Y17.0
X-7.5Y0.0
T4
X-97.05Y33.95
X-92.05Y31.75
X-87.05Y16.95
X-82.05Y14.75
X-77.05Y52.95
X-77.05Y-0.05
X-72.05Y50.75
X-72.05Y35.95
X-72.05Y-2.25
X-67.05Y33.75
X-67.05Y18.95
X-62.05Y16.75
X-49.05Y57.95
X-49.05Y40.95
X-49.05Y23.95
X-44.05Y55.75
X-44.05Y38.75
X-44.05Y21.75
X-31.05Y39.95
X-31.05Y22.95
X-31.05Y5.95
X-26.05Y37.75
X-26.05Y20.75
X-26.05Y3.75
X-13.05Y39.95
X-13.05Y22.95
X-13.05Y5.95
X-8.05Y37.75
X-8.05Y20.75
X-8.05Y3.75
T5
X-97.0Y28.0
X-87.0Y11.0
X-77.0Y47.0
X-77.0Y-6.0
X-72.0Y30.0
X-67.0Y13.0
X-49.0Y52.0
X-49.0Y35.0
X-49.0Y18.0
X-31.0Y34.0
X-31.0Y17.0
X-31.0Y0.0
X-13.0Y34.0
X-13.0Y17.0
X-13.0Y0.0
T0
M30
