%TF.GenerationSoftware,KiCad,Pcbnew,(6.0.7)*%
%TF.CreationDate,2022-09-08T03:06:03-04:00*%
%TF.ProjectId,left_main_routed,6c656674-5f6d-4616-996e-5f726f757465,v1.0.0*%
%TF.SameCoordinates,Original*%
%TF.FileFunction,Profile,NP*%
%FSLAX46Y46*%
G04 Gerber Fmt 4.6, Leading zero omitted, Abs format (unit mm)*
G04 Created by KiCad (PCBNEW (6.0.7)) date 2022-09-08 03:06:03*
%MOMM*%
%LPD*%
G01*
G04 APERTURE LIST*
%TA.AperFunction,Profile*%
%ADD10C,0.150000*%
%TD*%
%TA.AperFunction,Profile*%
%ADD11C,0.050000*%
%TD*%
G04 APERTURE END LIST*
D10*
X-43907307Y-11198964D02*
G75*
G03*
X-55836004Y-8918002I-7456562J-6663311D01*
G01*
X-91708950Y45647770D02*
X-88252424Y51915605D01*
X-70360680Y-15000000D02*
X-80280539Y-15000000D01*
X-96975689Y41105605D02*
G75*
G03*
X-91708950Y45647770I-3489976J9371234D01*
G01*
X-100689685Y39722463D02*
G75*
G03*
X-107138546Y29246911I3489977J-9371237D01*
G01*
X-88899882Y-10070201D02*
X-104916497Y17158046D01*
X-4000000Y58500000D02*
G75*
G03*
X-7000000Y61500000I-3000001J-1D01*
G01*
X-1301660Y-7921485D02*
X-3247423Y-7056701D01*
X-11065482Y-24374041D02*
X-9018290Y-25283904D01*
X-9018290Y-25283905D02*
G75*
G03*
X-8358315Y-25030067I203069J456906D01*
G01*
X-4400000Y54615339D02*
G75*
G03*
X-3200000Y47715143I5400000J-2615339D01*
G01*
X-2000000Y-2127855D02*
X-2000000Y44858572D01*
X-19498731Y-29000000D02*
G75*
G03*
X-11065482Y-24374041I2J9999997D01*
G01*
X-2861885Y-6189241D02*
G75*
G03*
X-2000000Y-2127856I-9138110J4061385D01*
G01*
X-1047823Y-8581460D02*
G75*
G03*
X-1301659Y-7921484I-456905J203070D01*
G01*
X-4000000Y58500000D02*
X-4000000Y56358899D01*
X-106235992Y21123932D02*
X-107138546Y29246911D01*
X-4400000Y54615339D02*
G75*
G03*
X-4000000Y56358899I-3599995J1743559D01*
G01*
X-30981723Y-25663310D02*
X-43907308Y-11198965D01*
X-55836005Y-8918003D02*
X-65888544Y-13944272D01*
X-30981723Y-25663310D02*
G75*
G03*
X-23525162Y-29000000I7456561J6663310D01*
G01*
X-106235992Y21123932D02*
G75*
G03*
X-104916497Y17158046I9938832J1104313D01*
G01*
X-19498731Y-29000000D02*
X-23525162Y-29000000D01*
X-81423161Y56899022D02*
G75*
G03*
X-88252424Y51915605I1927455J-9812491D01*
G01*
X-8358315Y-25030068D02*
X-1047823Y-8581460D01*
X-2861885Y-6189241D02*
X-3247423Y-7056701D01*
X-100689685Y39722462D02*
X-96975689Y41105605D01*
X-57027153Y61500000D02*
G75*
G03*
X-58954606Y61312488I13J-10000122D01*
G01*
X-81423161Y56899022D02*
X-58954606Y61312488D01*
X-88899882Y-10070201D02*
G75*
G03*
X-80280540Y-15000001I8619342J5070199D01*
G01*
X-70360680Y-15000000D02*
G75*
G03*
X-65888544Y-13944272I0J10000000D01*
G01*
X-2000000Y44858572D02*
G75*
G03*
X-3200000Y47715143I-3999997J1D01*
G01*
X-57027153Y61500000D02*
X-7000000Y61500000D01*
D11*
%TO.C,S2*%
X-14400000Y-11300000D02*
X-14400000Y-9500000D01*
X-28600000Y-9500000D02*
X-28600000Y-11300000D01*
X-14700000Y-9200000D02*
X-28300000Y-9200000D01*
X-28300000Y-11600000D02*
X-14700000Y-11600000D01*
X-14700000Y-11600000D02*
G75*
G03*
X-14400000Y-11300000I0J300000D01*
G01*
X-14400000Y-9500000D02*
G75*
G03*
X-14700000Y-9200000I-300000J0D01*
G01*
X-28600000Y-11300000D02*
G75*
G03*
X-28300000Y-11600000I300000J0D01*
G01*
X-28300000Y-9200000D02*
G75*
G03*
X-28600000Y-9500000I0J-300000D01*
G01*
%TD*%
M02*
