M48
; DRILL file {KiCad (6.0.7)} date Thu 08 Sep 2022 03:06:05 AM EDT
; FORMAT={-:-/ absolute / metric / decimal}
; #@! TF.CreationDate,2022-09-08T03:06:05-04:00
; #@! TF.GenerationSoftware,Kicad,Pcbnew,(6.0.7)
; #@! TF.FileFunction,Plated,1,2,PTH
FMAT,2
METRIC
; #@! TA.AperFunction,Plated,PTH,ComponentDrill
T1C0.300
; #@! TA.AperFunction,Plated,PTH,ViaDrill
T2C0.400
; #@! TA.AperFunction,Plated,PTH,ComponentDrill
T3C0.400
; #@! TA.AperFunction,Plated,PTH,ViaDrill
T4C0.600
; #@! TA.AperFunction,Plated,PTH,ComponentDrill
T5C0.813
; #@! TA.AperFunction,Plated,PTH,ComponentDrill
T6C0.900
; #@! TA.AperFunction,Plated,PTH,ComponentDrill
T7C1.000
; #@! TA.AperFunction,Plated,PTH,ComponentDrill
T8C1.092
; #@! TA.AperFunction,Plated,PTH,ComponentDrill
T9C2.300
%
G90
G05
T1
X-9.551Y-23.406
X-8.739Y-21.578
X-7.927Y-19.75
X-7.115Y-17.923
X-6.302Y-16.095
X-5.49Y-14.267
X-4.678Y-12.44
X-3.865Y-10.612
X-3.053Y-8.785
T2
X-84.42Y38.97
X-63.13Y-0.67
X-62.94Y44.6
X-49.91Y1.57
X-40.52Y50.43
X-39.821Y49.696
X-36.02Y57.525
X-31.5Y51.9
X-30.747Y-23.687
X-29.7Y52.0
X-24.2Y-19.03
X-23.601Y-18.23
X-22.86Y39.624
X-22.108Y47.988
X-21.11Y48.04
X-20.574Y36.576
X-20.32Y41.91
X-11.72Y49.64
X-11.61Y56.15
X-4.44Y39.92
T3
X-88.5Y24.5
X-88.06Y25.56
X-88.06Y23.44
X-87.0Y26.0
X-87.0Y23.0
X-85.94Y25.56
X-85.94Y23.44
X-85.5Y24.5
X-69.5Y41.5
X-69.06Y42.56
X-69.06Y40.44
X-68.5Y4.5
X-68.06Y5.56
X-68.06Y3.44
X-68.0Y43.0
X-68.0Y40.0
X-67.0Y6.0
X-67.0Y3.0
X-66.94Y42.56
X-66.94Y40.44
X-66.5Y41.5
X-65.94Y5.56
X-65.94Y3.44
X-65.5Y4.5
X-58.5Y-3.5
X-58.06Y-2.44
X-58.06Y-4.56
X-57.0Y-2.0
X-57.0Y-5.0
X-55.94Y-2.44
X-55.94Y-4.56
X-55.5Y-3.5
X-45.5Y4.5
X-45.06Y5.56
X-45.06Y3.44
X-44.0Y6.0
X-44.0Y3.0
X-42.94Y5.56
X-42.94Y3.44
X-42.5Y43.5
X-42.5Y4.5
X-42.06Y44.56
X-42.06Y42.44
X-41.0Y45.0
X-41.0Y42.0
X-39.94Y44.56
X-39.94Y42.44
X-39.5Y43.5
X-32.5Y-8.5
X-32.06Y-7.44
X-32.06Y-9.56
X-31.0Y-7.0
X-31.0Y-10.0
X-29.94Y-7.44
X-29.94Y-9.56
X-29.5Y-8.5
X-23.5Y15.0
X-23.06Y16.06
X-23.06Y13.94
X-22.0Y16.5
X-22.0Y13.5
X-20.94Y16.06
X-20.94Y13.94
X-20.5Y15.0
T4
X-89.07Y40.58
X-85.23Y33.07
X-83.99Y34.96
X-77.39Y9.47
X-54.75Y45.7
X-50.47Y-1.85
X-45.72Y-1.524
X-20.46Y-4.67
X-20.32Y28.702
X-9.398Y-8.89
X-7.874Y-9.906
X-5.66Y55.41
X-4.38Y-6.12
X-3.905Y-3.3
T5
X-100.0Y23.3
X-94.0Y23.3
X-90.0Y6.3
X-84.0Y6.3
X-80.0Y42.3
X-80.0Y-10.7
X-75.0Y25.3
X-74.0Y42.3
X-74.0Y-10.7
X-70.0Y8.3
X-69.0Y25.3
X-64.0Y8.3
X-52.0Y47.3
X-52.0Y30.3
X-52.0Y13.3
X-46.0Y47.3
X-46.0Y30.3
X-46.0Y13.3
X-34.0Y29.3
X-34.0Y12.3
X-34.0Y-4.7
X-28.0Y29.3
X-28.0Y12.3
X-28.0Y-4.7
X-16.0Y29.3
X-16.0Y12.3
X-16.0Y-4.7
X-10.0Y29.3
X-10.0Y12.3
X-10.0Y-4.7
T6
X-28.2Y-24.0
X-28.2Y-25.85
X-25.81Y-24.625
X-23.27Y-24.625
X-20.73Y-24.625
X-18.19Y-24.625
T7
X-23.62Y52.0
X-21.08Y52.0
X-18.54Y52.0
X-16.0Y52.0
T8
X-36.97Y59.62
X-36.97Y44.38
X-34.43Y59.62
X-34.43Y44.38
X-31.89Y59.62
X-31.89Y44.38
X-29.35Y59.62
X-29.35Y44.38
X-26.81Y59.62
X-26.81Y44.38
X-24.27Y59.62
X-24.27Y44.38
X-21.73Y59.62
X-21.73Y44.38
X-19.19Y59.62
X-19.19Y44.38
X-16.65Y59.62
X-16.65Y44.38
X-14.11Y59.62
X-14.11Y44.38
X-11.57Y59.62
X-11.57Y44.38
X-9.03Y59.62
X-9.03Y44.38
T9
X-87.0Y24.5
X-68.0Y41.5
X-67.0Y4.5
X-57.0Y-3.5
X-44.0Y4.5
X-41.0Y43.5
X-31.0Y-8.5
X-22.0Y15.0
T6
X-66.3Y47.1G85X-66.3Y46.5
G05
X-61.7Y55.2G85X-61.7Y54.6
G05
X-61.7Y52.2G85X-61.7Y51.6
G05
X-61.7Y48.2G85X-61.7Y47.6
G05
T0
M30
